<svg width="24" height="24" viewBox="0 0 24 24" fill="none" xmlns="http://www.w3.org/2000/svg">
<path fill-rule="evenodd" clip-rule="evenodd" d="M8.30057 4.35721C8.57672 4.7417 8.48887 5.27726 8.10438 5.5534C7.36523 6.08424 6.76299 6.78332 6.3474 7.59289C5.93181 8.40247 5.71479 9.2993 5.71428 10.2093C5.71401 10.6827 5.33004 11.0662 4.85665 11.066C4.38327 11.0657 3.99973 10.6817 4 10.2083C4.00067 9.02637 4.28254 7.86152 4.82233 6.81C5.36212 5.75849 6.14434 4.85049 7.10438 4.16101C7.48888 3.88487 8.02443 3.97271 8.30057 4.35721ZM8.36306 6.93498C9.32753 5.97051 10.6356 5.42868 11.9996 5.42868C13.3636 5.42868 14.6717 5.97051 15.6361 6.93498C16.6006 7.89945 17.1424 9.20754 17.1424 10.5715V14.5715C17.1424 14.8746 17.2628 15.1653 17.4772 15.3796C17.6915 15.5939 17.9822 15.7143 18.2853 15.7143C18.6009 15.7143 18.8567 15.9702 18.8567 16.2858C18.8567 16.6014 18.6009 16.8572 18.2853 16.8572H5.71391C5.39832 16.8572 5.14248 16.6014 5.14248 16.2858C5.14248 15.9702 5.39832 15.7143 5.71391 15.7143C6.01701 15.7143 6.3077 15.5939 6.52202 15.3796C6.73635 15.1653 6.85676 14.8746 6.85676 14.5715V10.5715C6.85676 9.20754 7.39859 7.89945 8.36306 6.93498ZM9.99997 19.1429C9.99997 18.6696 10.3837 18.2858 10.8571 18.2858H13.1428C13.6162 18.2858 14 18.6696 14 19.1429C14 19.6163 13.6162 20.0001 13.1428 20.0001H10.8571C10.3837 20.0001 9.99997 19.6163 9.99997 19.1429ZM16.8961 4.16101C16.5116 3.88487 15.9761 3.97271 15.7 4.35721C15.4238 4.7417 15.5117 5.27726 15.8961 5.5534C16.6353 6.08424 17.2375 6.78332 17.6531 7.59289C18.0687 8.40247 18.2857 9.2993 18.2862 10.2093C18.2865 10.6827 18.6705 11.0662 19.1439 11.066C19.6173 11.0657 20.0008 10.6817 20.0005 10.2083C19.9999 9.02637 19.718 7.86152 19.1782 6.81C18.6384 5.75849 17.8562 4.85049 16.8961 4.16101Z" fill="#063126"/>
</svg>
