<svg width="20" height="21" viewBox="0 0 20 21" fill="none" xmlns="http://www.w3.org/2000/svg">
<path d="M6.25 9.87695H13.75C13.9158 9.87695 14.0747 9.8111 14.1919 9.69389C14.3092 9.57668 14.375 9.41771 14.375 9.25195V5.50195C14.375 5.33619 14.3092 5.17722 14.1919 5.06001C14.0747 4.9428 13.9158 4.87695 13.75 4.87695H6.25C6.08424 4.87695 5.92527 4.9428 5.80806 5.06001C5.69085 5.17722 5.625 5.33619 5.625 5.50195V9.25195C5.625 9.41771 5.69085 9.57668 5.80806 9.69389C5.92527 9.8111 6.08424 9.87695 6.25 9.87695ZM6.875 6.12695H13.125V8.62695H6.875V6.12695ZM15.625 2.37695H4.375C4.04348 2.37695 3.72554 2.50865 3.49112 2.74307C3.2567 2.97749 3.125 3.29543 3.125 3.62695V17.377C3.125 17.7085 3.2567 18.0264 3.49112 18.2608C3.72554 18.4953 4.04348 18.627 4.375 18.627H15.625C15.9565 18.627 16.2745 18.4953 16.5089 18.2608C16.7433 18.0264 16.875 17.7085 16.875 17.377V3.62695C16.875 3.29543 16.7433 2.97749 16.5089 2.74307C16.2745 2.50865 15.9565 2.37695 15.625 2.37695ZM15.625 17.377H4.375V3.62695H15.625V17.377ZM7.8125 12.0645C7.8125 12.2499 7.75752 12.4311 7.6545 12.5853C7.55149 12.7395 7.40507 12.8596 7.23377 12.9306C7.06246 13.0015 6.87396 13.0201 6.6921 12.9839C6.51025 12.9478 6.3432 12.8585 6.21209 12.7274C6.08098 12.5963 5.99169 12.4292 5.95551 12.2473C5.91934 12.0655 5.93791 11.877 6.00886 11.7057C6.07982 11.5344 6.19998 11.388 6.35415 11.285C6.50832 11.1819 6.68958 11.127 6.875 11.127C7.12364 11.127 7.3621 11.2257 7.53791 11.4015C7.71373 11.5774 7.8125 11.8158 7.8125 12.0645ZM10.9375 12.0645C10.9375 12.2499 10.8825 12.4311 10.7795 12.5853C10.6765 12.7395 10.5301 12.8596 10.3588 12.9306C10.1875 13.0015 9.99896 13.0201 9.8171 12.9839C9.63525 12.9478 9.4682 12.8585 9.33709 12.7274C9.20598 12.5963 9.11669 12.4292 9.08051 12.2473C9.04434 12.0655 9.06291 11.877 9.13386 11.7057C9.20482 11.5344 9.32498 11.388 9.47915 11.285C9.63332 11.1819 9.81458 11.127 10 11.127C10.2486 11.127 10.4871 11.2257 10.6629 11.4015C10.8387 11.5774 10.9375 11.8158 10.9375 12.0645ZM14.0625 12.0645C14.0625 12.2499 14.0075 12.4311 13.9045 12.5853C13.8015 12.7395 13.6551 12.8596 13.4838 12.9306C13.3125 13.0015 13.124 13.0201 12.9421 12.9839C12.7602 12.9478 12.5932 12.8585 12.4621 12.7274C12.331 12.5963 12.2417 12.4292 12.2055 12.2473C12.1693 12.0655 12.1879 11.877 12.2589 11.7057C12.3298 11.5344 12.45 11.388 12.6042 11.285C12.7583 11.1819 12.9396 11.127 13.125 11.127C13.3736 11.127 13.6121 11.2257 13.7879 11.4015C13.9637 11.5774 14.0625 11.8158 14.0625 12.0645ZM7.8125 15.1895C7.8125 15.3749 7.75752 15.5561 7.6545 15.7103C7.55149 15.8645 7.40507 15.9846 7.23377 16.0556C7.06246 16.1265 6.87396 16.1451 6.6921 16.1089C6.51025 16.0728 6.3432 15.9835 6.21209 15.8524C6.08098 15.7213 5.99169 15.5542 5.95551 15.3723C5.91934 15.1905 5.93791 15.002 6.00886 14.8307C6.07982 14.6594 6.19998 14.513 6.35415 14.41C6.50832 14.3069 6.68958 14.252 6.875 14.252C7.12364 14.252 7.3621 14.3507 7.53791 14.5265C7.71373 14.7024 7.8125 14.9408 7.8125 15.1895ZM10.9375 15.1895C10.9375 15.3749 10.8825 15.5561 10.7795 15.7103C10.6765 15.8645 10.5301 15.9846 10.3588 16.0556C10.1875 16.1265 9.99896 16.1451 9.8171 16.1089C9.63525 16.0728 9.4682 15.9835 9.33709 15.8524C9.20598 15.7213 9.11669 15.5542 9.08051 15.3723C9.04434 15.1905 9.06291 15.002 9.13386 14.8307C9.20482 14.6594 9.32498 14.513 9.47915 14.41C9.63332 14.3069 9.81458 14.252 10 14.252C10.2486 14.252 10.4871 14.3507 10.6629 14.5265C10.8387 14.7024 10.9375 14.9408 10.9375 15.1895ZM14.0625 15.1895C14.0625 15.3749 14.0075 15.5561 13.9045 15.7103C13.8015 15.8645 13.6551 15.9846 13.4838 16.0556C13.3125 16.1265 13.124 16.1451 12.9421 16.1089C12.7602 16.0728 12.5932 15.9835 12.4621 15.8524C12.331 15.7213 12.2417 15.5542 12.2055 15.3723C12.1693 15.1905 12.1879 15.002 12.2589 14.8307C12.3298 14.6594 12.45 14.513 12.6042 14.41C12.7583 14.3069 12.9396 14.252 13.125 14.252C13.3736 14.252 13.6121 14.3507 13.7879 14.5265C13.9637 14.7024 14.0625 14.9408 14.0625 15.1895Z" fill="#595A5C"/>
</svg>
