<svg width="20" height="20" viewBox="0 0 20 20" fill="none" xmlns="http://www.w3.org/2000/svg">
<path d="M16.25 2.50146H14.375V1.87646C14.375 1.7107 14.3092 1.55173 14.1919 1.43452C14.0747 1.31731 13.9158 1.25146 13.75 1.25146C13.5842 1.25146 13.4253 1.31731 13.3081 1.43452C13.1908 1.55173 13.125 1.7107 13.125 1.87646V2.50146H6.875V1.87646C6.875 1.7107 6.80915 1.55173 6.69194 1.43452C6.57473 1.31731 6.41576 1.25146 6.25 1.25146C6.08424 1.25146 5.92527 1.31731 5.80806 1.43452C5.69085 1.55173 5.625 1.7107 5.625 1.87646V2.50146H3.75C3.41848 2.50146 3.10054 2.63316 2.86612 2.86758C2.6317 3.102 2.5 3.41994 2.5 3.75146V16.2515C2.5 16.583 2.6317 16.9009 2.86612 17.1353C3.10054 17.3698 3.41848 17.5015 3.75 17.5015H16.25C16.5815 17.5015 16.8995 17.3698 17.1339 17.1353C17.3683 16.9009 17.5 16.583 17.5 16.2515V3.75146C17.5 3.41994 17.3683 3.102 17.1339 2.86758C16.8995 2.63316 16.5815 2.50146 16.25 2.50146ZM5.625 3.75146V4.37646C5.625 4.54223 5.69085 4.7012 5.80806 4.81841C5.92527 4.93562 6.08424 5.00146 6.25 5.00146C6.41576 5.00146 6.57473 4.93562 6.69194 4.81841C6.80915 4.7012 6.875 4.54223 6.875 4.37646V3.75146H13.125V4.37646C13.125 4.54223 13.1908 4.7012 13.3081 4.81841C13.4253 4.93562 13.5842 5.00146 13.75 5.00146C13.9158 5.00146 14.0747 4.93562 14.1919 4.81841C14.3092 4.7012 14.375 4.54223 14.375 4.37646V3.75146H16.25V6.25146H3.75V3.75146H5.625ZM16.25 16.2515H3.75V7.50146H16.25V16.2515ZM13.2547 9.55928C13.3128 9.61732 13.3589 9.68625 13.3904 9.76213C13.4218 9.838 13.438 9.91933 13.438 10.0015C13.438 10.0836 13.4218 10.1649 13.3904 10.2408C13.3589 10.3167 13.3128 10.3856 13.2547 10.4437L9.50469 14.1937C9.44664 14.2518 9.37771 14.2979 9.30184 14.3293C9.22596 14.3608 9.14463 14.377 9.0625 14.377C8.98037 14.377 8.89904 14.3608 8.82316 14.3293C8.74729 14.2979 8.67836 14.2518 8.62031 14.1937L6.74531 12.3187C6.62804 12.2014 6.56215 12.0423 6.56215 11.8765C6.56215 11.7106 6.62804 11.5516 6.74531 11.4343C6.86259 11.317 7.02165 11.2511 7.1875 11.2511C7.35335 11.2511 7.51241 11.317 7.62969 11.4343L9.0625 12.8679L12.3703 9.55928C12.4284 9.50117 12.4973 9.45507 12.5732 9.42362C12.649 9.39216 12.7304 9.37597 12.8125 9.37597C12.8946 9.37597 12.976 9.39216 13.0518 9.42362C13.1277 9.45507 13.1966 9.50117 13.2547 9.55928Z" fill="#ED1450"/>
</svg>
