<svg width="17" height="16" viewBox="0 0 17 16" fill="none" xmlns="http://www.w3.org/2000/svg">
<path d="M14.125 8C14.125 8.13261 14.0723 8.25979 13.9786 8.35355C13.8848 8.44732 13.7576 8.5 13.625 8.5H2.625C2.49239 8.5 2.36521 8.44732 2.27145 8.35355C2.17768 8.25979 2.125 8.13261 2.125 8C2.125 7.86739 2.17768 7.74021 2.27145 7.64645C2.36521 7.55268 2.49239 7.5 2.625 7.5H13.625C13.7576 7.5 13.8848 7.55268 13.9786 7.64645C14.0723 7.74021 14.125 7.86739 14.125 8ZM2.625 4.5H13.625C13.7576 4.5 13.8848 4.44732 13.9786 4.35355C14.0723 4.25979 14.125 4.13261 14.125 4C14.125 3.86739 14.0723 3.74021 13.9786 3.64645C13.8848 3.55268 13.7576 3.5 13.625 3.5H2.625C2.49239 3.5 2.36521 3.55268 2.27145 3.64645C2.17768 3.74021 2.125 3.86739 2.125 4C2.125 4.13261 2.17768 4.25979 2.27145 4.35355C2.36521 4.44732 2.49239 4.5 2.625 4.5ZM13.625 11.5H2.625C2.49239 11.5 2.36521 11.5527 2.27145 11.6464C2.17768 11.7402 2.125 11.8674 2.125 12C2.125 12.1326 2.17768 12.2598 2.27145 12.3536C2.36521 12.4473 2.49239 12.5 2.625 12.5H13.625C13.7576 12.5 13.8848 12.4473 13.9786 12.3536C14.0723 12.2598 14.125 12.1326 14.125 12C14.125 11.8674 14.0723 11.7402 13.9786 11.6464C13.8848 11.5527 13.7576 11.5 13.625 11.5Z" fill="#979797"/>
</svg>
