<svg width="20" height="20" viewBox="0 0 20 20" fill="none" xmlns="http://www.w3.org/2000/svg">
<path d="M17.5 9.02882V16.2515C17.5 16.583 17.3683 16.9009 17.1339 17.1354C16.8995 17.3698 16.5815 17.5015 16.25 17.5015H3.75C3.41848 17.5015 3.10054 17.3698 2.86612 17.1354C2.6317 16.9009 2.5 16.583 2.5 16.2515V9.02882C2.49997 8.85582 2.53586 8.6847 2.60538 8.52628C2.67491 8.36787 2.77656 8.22561 2.90391 8.10851L9.15391 2.21164L9.1625 2.20304C9.39261 1.99377 9.69248 1.87781 10.0035 1.87781C10.3146 1.87781 10.6144 1.99377 10.8445 2.20304C10.8472 2.2061 10.8501 2.20897 10.8531 2.21164L17.1031 8.10851C17.2292 8.22623 17.3295 8.36876 17.3978 8.52715C17.4661 8.68553 17.5009 8.85634 17.5 9.02882Z" fill="black" fill-opacity="0.5"/>
</svg>
