<svg width="14" height="24" viewBox="0 0 14 24" fill="none" xmlns="http://www.w3.org/2000/svg">
<path d="M7.5727 10.145V0.0810547C7.04701 0.0810547 6.4544 0.86269 6.2238 1.25351L1.82605 1.48497C2.21181 2.97293 4.95497 3.37467 6.2238 3.30579V4.21001L2.20594 4.51854C2.40345 5.753 4.96877 6.18106 6.2238 6.19134L6.17488 10.1508C6.41408 10.1257 6.65691 10.1129 6.90275 10.1129C7.12876 10.1129 7.35225 10.1238 7.5727 10.145Z" fill="#9900CC"/>
<mask id="mask0_858_62914" style="mask-type:alpha" maskUnits="userSpaceOnUse" x="0" y="10" width="14" height="14">
<path fill-rule="evenodd" clip-rule="evenodd" d="M6.90275 23.919C10.715 23.919 13.8055 20.8286 13.8055 17.0163C13.8055 13.204 10.715 10.1135 6.90275 10.1135C3.09046 10.1135 0 13.204 0 17.0163C0 20.8286 3.09046 23.919 6.90275 23.919ZM6.90275 21.5427C9.40261 21.5427 11.4291 19.5161 11.4291 17.0163C11.4291 14.5164 9.40261 12.4899 6.90275 12.4899C4.40289 12.4899 2.37636 14.5164 2.37636 17.0163C2.37636 19.5161 4.40289 21.5427 6.90275 21.5427Z" fill="#9900CC"/>
</mask>
<g mask="url(#mask0_858_62914)">
<rect x="-1.44141" y="18.6196" width="22.2838" height="5.22276" transform="rotate(-30 -1.44141 18.6196)" fill="#ED1450"/>
<rect x="-4.57422" y="14.9898" width="22.2838" height="5.22276" transform="rotate(-30 -4.57422 14.9898)" fill="#9900CC"/>
<rect x="1.16797" y="23.1421" width="22.2838" height="5.22276" transform="rotate(-30 1.16797 23.1421)" fill="#FEA000"/>
</g>
</svg>
