<svg width="20" height="20" viewBox="0 0 20 20" fill="none" xmlns="http://www.w3.org/2000/svg">
<path d="M16.25 3.12598H3.75C3.41848 3.12598 3.10054 3.25767 2.86612 3.49209C2.6317 3.72651 2.5 4.04446 2.5 4.37598V8.96816C2.5 15.9689 8.42344 18.2916 9.60938 18.6861C9.86267 18.7723 10.1373 18.7723 10.3906 18.6861C11.5781 18.2916 17.5 15.9689 17.5 8.96816V4.37598C17.5 4.04446 17.3683 3.72651 17.1339 3.49209C16.8995 3.25767 16.5815 3.12598 16.25 3.12598ZM16.25 8.96895C16.25 15.0955 11.0664 17.1424 10 17.4986C8.94297 17.1463 3.75 15.101 3.75 8.96895V4.37598H16.25V8.96895ZM6.43281 11.0682C6.31554 10.9509 6.24965 10.7918 6.24965 10.626C6.24965 10.4601 6.31554 10.3011 6.43281 10.1838C6.55009 10.0665 6.70915 10.0006 6.875 10.0006C7.04085 10.0006 7.19991 10.0665 7.31719 10.1838L8.75 11.6166L12.6828 7.68379C12.7409 7.62572 12.8098 7.57966 12.8857 7.54823C12.9616 7.5168 13.0429 7.50063 13.125 7.50063C13.2071 7.50063 13.2884 7.5168 13.3643 7.54823C13.4402 7.57966 13.5091 7.62572 13.5672 7.68379C13.6253 7.74186 13.6713 7.8108 13.7027 7.88667C13.7342 7.96254 13.7503 8.04385 13.7503 8.12598C13.7503 8.2081 13.7342 8.28942 13.7027 8.36529C13.6713 8.44116 13.6253 8.5101 13.5672 8.56816L9.19219 12.9432C9.13414 13.0013 9.06521 13.0474 8.98934 13.0788C8.91346 13.1103 8.83213 13.1265 8.75 13.1265C8.66787 13.1265 8.58654 13.1103 8.51066 13.0788C8.43479 13.0474 8.36586 13.0013 8.30781 12.9432L6.43281 11.0682Z" fill="black" fill-opacity="0.5"/>
</svg>
