<svg width="132" height="45" viewBox="0 0 132 45" fill="none" xmlns="http://www.w3.org/2000/svg">
<rect y="0.5" width="132" height="44" rx="22" fill="white"/>
<path d="M22.2297 32.5C21.2278 32.5 20.2442 32.3637 19.2788 32.0909C18.3134 31.8182 17.521 31.4272 16.9017 30.9181C16.3006 30.409 16 29.8271 16 29.1725V26.2542H16.4918C16.8015 28.0725 17.4026 29.3907 18.2951 30.209C19.1877 31.009 20.4172 31.409 21.9837 31.409C22.9674 31.409 23.8053 31.1636 24.4975 30.6726C25.2079 30.1817 25.5631 29.4998 25.5631 28.6271C25.5631 27.8634 25.3263 27.1997 24.8527 26.636C24.3791 26.0724 23.614 25.4814 22.5575 24.8632L19.1968 22.8722C18.031 22.1812 17.2022 21.4812 16.7104 20.772C16.2368 20.0629 16 19.1992 16 18.181C16 16.7809 16.4827 15.6626 17.4481 14.8262C18.4318 13.9716 19.7159 13.5443 21.3007 13.5443C22.2297 13.5443 23.1495 13.6807 24.0603 13.9534C24.9711 14.208 25.7179 14.5898 26.3008 15.099C26.9019 15.5899 27.2024 16.1627 27.2024 16.8172V19.7356H26.7106C26.401 17.9173 25.809 16.6172 24.9346 15.8354C24.0785 15.0353 22.8672 14.6353 21.3007 14.6353C20.4628 14.6353 19.725 14.8898 19.0875 15.399C18.45 15.9081 18.1312 16.5718 18.1312 17.39C18.1312 18.1355 18.3589 18.7537 18.8143 19.2447C19.2879 19.7356 20.0711 20.3084 21.1641 20.9629L24.5248 22.954C25.7634 23.6995 26.6378 24.3904 27.1478 25.0268C27.6578 25.6632 27.9128 26.4724 27.9128 27.4543C27.9128 28.9816 27.4028 30.209 26.3828 31.1363C25.3627 32.0455 23.9783 32.5 22.2297 32.5Z" fill="black"/>
<path d="M32.7546 32.3091C32.1717 32.3091 31.5797 32.1909 30.9786 31.9545C30.3775 31.7 29.8583 31.2909 29.4212 30.7272C29.0022 30.1635 28.7927 29.418 28.7927 28.4907C28.7927 27.1088 29.4303 26.1269 30.7053 25.5451C31.9986 24.9632 33.6836 24.6723 35.7601 24.6723H36.5798C36.5798 22.8903 36.3339 21.6721 35.8421 21.0175C35.3503 20.3629 34.6399 20.0356 33.7109 20.0356C32.8912 20.0356 32.2354 20.2084 31.7436 20.5538C31.2518 20.8993 30.9057 21.4993 30.7053 22.3539H29.4758C29.4758 21.7357 29.5122 21.2539 29.5851 20.9084C29.658 20.5447 29.8492 20.2084 30.1589 19.8992C30.4868 19.572 31.0241 19.3356 31.7709 19.1901C32.536 19.0265 33.3648 18.9446 34.2573 18.9446C35.7328 18.9446 36.8986 19.3447 37.7547 20.1447C38.6108 20.9266 39.0389 22.4358 39.0389 24.6723V32.0364H37.6727L36.7164 30.809H36.5798C36.2519 31.2272 35.7692 31.5818 35.1317 31.8727C34.4941 32.1636 33.7018 32.3091 32.7546 32.3091ZM33.9841 31.0818C34.5852 31.0818 35.0861 30.9363 35.4869 30.6454C35.8876 30.3544 36.2519 29.9544 36.5798 29.4453V25.7632H35.7601C34.4122 25.7632 33.3466 26.0178 32.5633 26.5269C31.7801 27.0179 31.3884 27.6725 31.3884 28.4907C31.3884 29.3271 31.6343 29.9726 32.1261 30.4272C32.6362 30.8636 33.2555 31.0818 33.9841 31.0818Z" fill="black"/>
<path d="M41.9537 22.3539C41.5165 21.3357 41.0976 20.6266 40.6968 20.2265C40.2961 19.8083 39.7678 19.581 39.1121 19.5447V18.9992C39.2032 18.9992 39.3307 18.9901 39.4946 18.9719C39.6768 18.9537 39.8589 18.9446 40.0411 18.9446C41.0065 18.9446 41.8808 19.1901 42.6641 19.6811C43.4474 20.1538 44.1213 21.0448 44.686 22.3539L47.1451 28.2179L50.9703 19.2174H52.3364L46.7352 32.3091H46.1888L41.9537 22.3539Z" fill="black"/>
<path d="M58.2179 32.3091C56.9793 32.3091 55.9319 32.0182 55.0758 31.4363C54.2197 30.8363 53.573 30.0362 53.1359 29.0362C52.6987 28.0179 52.4801 26.8815 52.4801 25.6269C52.4801 24.3904 52.6987 23.2631 53.1359 22.2448C53.573 21.2266 54.2015 20.4266 55.0212 19.8447C55.8591 19.2447 56.8336 18.9446 57.9447 18.9446C59.7845 18.9446 61.1506 19.4629 62.0432 20.4993C62.9539 21.5175 63.4093 22.9994 63.4093 24.945L63.3547 26.036H55.0758C55.0758 27.5634 55.4037 28.8089 56.0594 29.7726C56.7152 30.7363 57.6168 31.2181 58.7644 31.2181C59.6205 31.2181 60.34 31.0363 60.9229 30.6726C61.524 30.309 62.0796 29.7635 62.5896 29.0362L63.1361 29.4453C62.535 30.4454 61.8337 31.1727 61.0322 31.6272C60.2307 32.0818 59.2927 32.3091 58.2179 32.3091ZM60.8136 24.945C60.8136 23.3449 60.5768 22.1267 60.1032 21.2902C59.6296 20.4538 58.9101 20.0356 57.9447 20.0356C57.3983 20.0356 56.9064 20.2538 56.4693 20.6902C56.0321 21.1084 55.686 21.6903 55.431 22.4358C55.1942 23.1813 55.0758 24.0177 55.0758 24.945H60.8136Z" fill="black"/>
<path d="M68.9909 32.3091C67.9708 32.3091 67.1694 32.0182 66.5865 31.4363C66.0036 30.8545 65.7121 29.9635 65.7121 28.7634V20.3084H63.7995V19.2174H65.7121V16.7627L67.0783 15.1262H68.1712V19.2174H71.45V20.3084H68.1712V28.7634C68.1712 30.3999 68.8088 31.2181 70.0838 31.2181C70.521 31.2181 70.8853 31.1727 71.1768 31.0818C71.4864 30.9908 71.8052 30.8545 72.1331 30.6726L72.4063 31.2181C71.9873 31.5272 71.5228 31.7909 71.0128 32.0091C70.5028 32.2091 69.8288 32.3091 68.9909 32.3091Z" fill="black"/>
<path d="M105.344 22.4903C105.344 21.563 105.217 20.8811 104.961 20.4447C104.706 19.9902 104.196 19.7629 103.431 19.7629H102.885V19.2174H105.344C106.018 19.2174 106.528 19.3083 106.874 19.4901C107.238 19.672 107.503 19.9447 107.666 20.3084H107.803C108.186 19.9265 108.677 19.6083 109.279 19.3538C109.898 19.081 110.59 18.9446 111.355 18.9446C112.721 18.9446 113.832 19.3083 114.688 20.0356C115.563 20.7629 116 22.0357 116 23.854V32.0364H113.541V23.854C113.541 22.5812 113.249 21.6539 112.667 21.072C112.102 20.472 111.392 20.172 110.535 20.172C109.57 20.172 108.659 20.6538 107.803 21.6175V32.0364H105.344V22.4903Z" fill="black"/>
<path d="M100.885 22.4809C101.294 21.4861 101.703 20.7933 102.113 20.4025C102.504 19.9939 103.029 19.7718 103.688 19.7363V19.2034C103.599 19.2034 103.465 19.1945 103.287 19.1767C103.109 19.159 102.931 19.1501 102.753 19.1501C101.792 19.1501 100.947 19.3988 100.217 19.8962C99.4698 20.3758 98.8469 21.2374 98.3487 22.4809L96.0796 28.0767L93.8106 22.3477C94.2377 21.4062 94.6471 20.7489 95.0386 20.3758C95.4123 19.985 95.8928 19.7718 96.4801 19.7363V19.2034C96.3911 19.2034 96.2576 19.1945 96.0796 19.1767C95.9017 19.159 95.7237 19.1501 95.5458 19.1501C94.5848 19.1501 93.7394 19.3988 93.0098 19.8962C92.2624 20.3758 91.6395 21.2374 91.1412 22.4809L88.8722 28.0767L85.4019 19.4166H84.0672L89.2726 32.207H89.8065L93.1433 23.9465L96.4801 32.207H97.0139L100.885 22.4809Z" fill="black"/>
<path d="M78.8687 20.8866V12.5C78.4299 12.5 77.9351 13.1514 77.7426 13.477L74.0713 13.6699C74.3933 14.9099 76.6834 15.2447 77.7426 15.1873V15.9408L74.3884 16.1979C74.5533 17.2266 76.6949 17.5833 77.7426 17.5919L77.7018 20.8915C77.9015 20.8706 78.1042 20.8599 78.3094 20.8599C78.4981 20.8599 78.6847 20.8689 78.8687 20.8866Z" fill="#9900CC"/>
<mask id="mask0_1138_48848" style="mask-type:alpha" maskUnits="userSpaceOnUse" x="72" y="20" width="13" height="13">
<path fill-rule="evenodd" clip-rule="evenodd" d="M78.3094 32.3644C81.492 32.3644 84.072 29.789 84.072 26.6121C84.072 23.4352 81.492 20.8598 78.3094 20.8598C75.1269 20.8598 72.5469 23.4352 72.5469 26.6121C72.5469 29.789 75.1269 32.3644 78.3094 32.3644ZM78.3094 30.3841C80.3964 30.3841 82.0881 28.6953 82.0881 26.6121C82.0881 24.5289 80.3964 22.8401 78.3094 22.8401C76.2225 22.8401 74.5307 24.5289 74.5307 26.6121C74.5307 28.6953 76.2225 30.3841 78.3094 30.3841Z" fill="#9900CC"/>
</mask>
<g mask="url(#mask0_1138_48848)">
<rect width="18.5947" height="4.35424" transform="matrix(0.866411 -0.499332 0.500668 0.865639 71.3398 27.9479)" fill="#ED1450"/>
<rect width="18.5947" height="4.35424" transform="matrix(0.866411 -0.499332 0.500668 0.865639 68.7266 24.9236)" fill="#9900CC"/>
<rect width="18.5947" height="4.35424" transform="matrix(0.866411 -0.499332 0.500668 0.865639 73.5195 31.7171)" fill="#FEA000"/>
</g>
</svg>
