<svg width="48" height="48" viewBox="0 0 48 48" fill="none" xmlns="http://www.w3.org/2000/svg">
<path d="M42.375 16.515C42.3 16.3275 42.2212 16.14 42.1406 15.9525C40.9309 13.1626 38.9731 10.7616 36.4837 9.01501H40.5C40.8978 9.01501 41.2794 8.85698 41.5607 8.57567C41.842 8.29437 42 7.91284 42 7.51501C42 7.11719 41.842 6.73566 41.5607 6.45435C41.2794 6.17305 40.8978 6.01501 40.5 6.01501H21C16.8527 6.02028 12.859 7.58506 9.81203 10.3986C6.76504 13.2122 4.8876 17.0688 4.5525 21.2025C3.2568 21.5246 2.10555 22.2697 1.28098 23.3197C0.456406 24.3698 0.00562785 25.6649 0 27C0 27.3978 0.158035 27.7794 0.43934 28.0607C0.720644 28.342 1.10218 28.5 1.5 28.5C1.89782 28.5 2.27936 28.342 2.56066 28.0607C2.84196 27.7794 3 27.3978 3 27C3.00035 26.453 3.15024 25.9165 3.43346 25.4486C3.71668 24.9806 4.12244 24.599 4.60687 24.345C4.98024 27.7104 6.38352 30.8784 8.625 33.4163L10.98 40.0088C11.1882 40.5919 11.5717 41.0963 12.078 41.4528C12.5842 41.8093 13.1883 42.0005 13.8075 42H16.1925C16.8114 42.0001 17.4151 41.8088 17.9209 41.4523C18.4268 41.0958 18.81 40.5916 19.0181 40.0088L19.3781 39H30.1219L30.4819 40.0088C30.69 40.5916 31.0732 41.0958 31.5791 41.4523C32.0849 41.8088 32.6886 42.0001 33.3075 42H35.6925C36.3114 42.0001 36.9151 41.8088 37.4209 41.4523C37.9268 41.0958 38.31 40.5916 38.5181 40.0088L41.5575 31.5H42C43.1935 31.5 44.3381 31.0259 45.182 30.182C46.0259 29.3381 46.5 28.1935 46.5 27V21C46.5002 19.8713 46.0762 18.7838 45.3121 17.9531C44.5481 17.1224 43.4997 16.6091 42.375 16.515ZM28.5 13.5H21C20.6022 13.5 20.2206 13.342 19.9393 13.0607C19.658 12.7794 19.5 12.3978 19.5 12C19.5 11.6022 19.658 11.2207 19.9393 10.9394C20.2206 10.6581 20.6022 10.5 21 10.5H28.5C28.8978 10.5 29.2794 10.6581 29.5607 10.9394C29.842 11.2207 30 11.6022 30 12C30 12.3978 29.842 12.7794 29.5607 13.0607C29.2794 13.342 28.8978 13.5 28.5 13.5ZM33.75 24C33.305 24 32.87 23.8681 32.5 23.6208C32.13 23.3736 31.8416 23.0222 31.6713 22.6111C31.501 22.1999 31.4564 21.7475 31.5432 21.3111C31.63 20.8746 31.8443 20.4737 32.159 20.159C32.4737 19.8444 32.8746 19.6301 33.311 19.5432C33.7475 19.4564 34.1999 19.501 34.611 19.6713C35.0222 19.8416 35.3736 20.13 35.6208 20.5C35.868 20.87 36 21.305 36 21.75C36 22.3468 35.7629 22.919 35.341 23.341C34.919 23.763 34.3467 24 33.75 24Z" fill="#ED1450"/>
</svg>
