<svg width="20" height="20" viewBox="0 0 20 20" fill="none" xmlns="http://www.w3.org/2000/svg">
<path d="M17.499 5.55617C17.3518 5.63236 17.1805 5.64701 17.0226 5.59691C16.8646 5.54681 16.7331 5.43605 16.6568 5.28898C16.0602 4.11046 15.1572 3.11437 14.0427 2.40539C13.9732 2.36158 13.9131 2.30452 13.8657 2.23747C13.8183 2.17041 13.7846 2.09468 13.7664 2.01459C13.7483 1.9345 13.7461 1.85162 13.76 1.77069C13.7739 1.68975 13.8036 1.61235 13.8474 1.54289C13.8912 1.47343 13.9483 1.41328 14.0153 1.36588C14.0824 1.31847 14.1581 1.28474 14.2382 1.2666C14.3183 1.24847 14.4012 1.24628 14.4821 1.26018C14.563 1.27407 14.6404 1.30377 14.7099 1.34758C16.0088 2.17925 17.0635 3.34099 17.7661 4.71398C17.8423 4.86111 17.857 5.03246 17.8069 5.19038C17.7568 5.34831 17.646 5.47987 17.499 5.55617ZM2.7888 5.62648C2.9033 5.62644 3.01559 5.59493 3.11341 5.53542C3.21123 5.4759 3.29082 5.39065 3.34349 5.28898C3.94005 4.11046 4.84303 3.11437 5.95755 2.40539C6.09783 2.31691 6.19721 2.17634 6.23384 2.01459C6.27046 1.85284 6.24134 1.68316 6.15286 1.54289C6.06439 1.40261 5.92381 1.30323 5.76206 1.2666C5.60031 1.22998 5.43064 1.2591 5.29036 1.34758C3.99146 2.17925 2.93675 3.34099 2.23411 4.71398C2.18477 4.80923 2.16077 4.91558 2.16443 5.02279C2.16808 5.13 2.19927 5.23446 2.25499 5.32613C2.31072 5.4178 2.38909 5.49358 2.48258 5.54618C2.57607 5.59878 2.68153 5.62644 2.7888 5.62648ZM17.3279 13.7468C17.4386 13.9367 17.4973 14.1524 17.498 14.3722C17.4988 14.592 17.4416 14.8081 17.3322 14.9987C17.2227 15.1894 17.065 15.3478 16.8748 15.458C16.6846 15.5682 16.4688 15.6263 16.249 15.6265H13.0615C12.918 16.3329 12.5348 16.968 11.9766 17.4242C11.4185 17.8804 10.7198 18.1296 9.99896 18.1296C9.27811 18.1296 8.57943 17.8804 8.0213 17.4242C7.46316 16.968 7.0799 16.3329 6.93646 15.6265H3.74896C3.52929 15.626 3.31361 15.5677 3.12365 15.4574C2.93369 15.3471 2.77616 15.1887 2.66693 14.9981C2.55769 14.8075 2.50061 14.5915 2.50143 14.3718C2.50226 14.1521 2.56095 13.9366 2.67161 13.7468C3.37552 12.532 3.74896 10.8046 3.74896 8.75148C3.74896 7.09388 4.40744 5.50417 5.57954 4.33207C6.75164 3.15996 8.34135 2.50148 9.99896 2.50148C11.6566 2.50148 13.2463 3.15996 14.4184 4.33207C15.5905 5.50417 16.249 7.09388 16.249 8.75148C16.249 10.8038 16.6224 12.5312 17.3279 13.7468ZM11.7661 15.6265H8.23177C8.36126 15.9916 8.60068 16.3077 8.91713 16.5313C9.23358 16.7548 9.61151 16.8748 9.99896 16.8748C10.3864 16.8748 10.7643 16.7548 11.0808 16.5313C11.3972 16.3077 11.6367 15.9916 11.7661 15.6265ZM16.249 14.3765C15.4177 12.9491 14.999 11.057 14.999 8.75148C14.999 7.4254 14.4722 6.15363 13.5345 5.21595C12.5968 4.27827 11.325 3.75148 9.99896 3.75148C8.67287 3.75148 7.4011 4.27827 6.46342 5.21595C5.52574 6.15363 4.99896 7.4254 4.99896 8.75148C4.99896 11.0577 4.57864 12.9499 3.74896 14.3765H16.249Z" fill="#ED1450"/>
</svg>
