<svg width="20" height="20" viewBox="0 0 20 20" fill="none" xmlns="http://www.w3.org/2000/svg">
<path d="M11.2498 12.3202C12.2296 11.71 12.984 10.7973 13.3988 9.72013C13.8136 8.64299 13.8664 7.46005 13.549 6.35027C13.2317 5.24049 12.5615 4.26426 11.6399 3.56927C10.7184 2.87428 9.5955 2.49835 8.44124 2.49835C7.28698 2.49835 6.16412 2.87428 5.24254 3.56927C4.32097 4.26426 3.65081 5.24049 3.33347 6.35027C3.01612 7.46005 3.06885 8.64299 3.48369 9.72013C3.89852 10.7973 4.65288 11.71 5.63265 12.3202C4.01936 12.8484 2.5678 13.8351 1.40061 15.2241C1.34593 15.2867 1.30426 15.3595 1.27804 15.4383C1.25182 15.5171 1.24158 15.6004 1.24791 15.6832C1.25425 15.7661 1.27704 15.8468 1.31495 15.9207C1.35285 15.9947 1.40511 16.0603 1.46868 16.1138C1.53224 16.1673 1.60583 16.2075 1.68515 16.2323C1.76446 16.257 1.8479 16.2656 1.9306 16.2577C2.0133 16.2498 2.09359 16.2255 2.16678 16.1862C2.23997 16.1469 2.30459 16.0934 2.35686 16.0288C3.92561 14.1569 6.08655 13.1265 8.43733 13.1265C10.7881 13.1265 12.9491 14.1569 14.5209 16.0288C14.6276 16.1558 14.7804 16.2353 14.9457 16.2496C15.111 16.264 15.2752 16.2121 15.4022 16.1054C15.5292 15.9987 15.6086 15.8459 15.623 15.6806C15.6373 15.5153 15.5854 15.3511 15.4787 15.2241C14.3108 13.8351 12.8592 12.8484 11.2498 12.3202ZM4.37483 7.81398C4.37483 7.01049 4.61309 6.22505 5.05949 5.55697C5.50588 4.8889 6.14036 4.3682 6.88268 4.06072C7.62501 3.75323 8.44184 3.67278 9.22989 3.82954C10.0179 3.98629 10.7418 4.3732 11.31 4.94135C11.8781 5.50951 12.265 6.23337 12.4218 7.02142C12.5785 7.80947 12.4981 8.6263 12.1906 9.36863C11.8831 10.111 11.3624 10.7454 10.6943 11.1918C10.0263 11.6382 9.24082 11.8765 8.43733 11.8765C7.36027 11.8752 6.32768 11.4468 5.56608 10.6852C4.80448 9.92363 4.37607 8.89104 4.37483 7.81398ZM19.0819 11.1788L18.7178 10.9687C18.7605 10.7425 18.7605 10.5104 18.7178 10.2843L19.0819 10.0741C19.2255 9.99125 19.3302 9.85473 19.3732 9.69459C19.4161 9.53445 19.3937 9.36382 19.3108 9.22023C19.2279 9.07664 19.0914 8.97185 18.9312 8.92892C18.7711 8.886 18.6005 8.90844 18.4569 8.99132L18.092 9.20226C17.9174 9.05246 17.7167 8.93619 17.4998 8.85929V8.43898C17.4998 8.27322 17.434 8.11424 17.3168 7.99704C17.1996 7.87982 17.0406 7.81398 16.8748 7.81398C16.7091 7.81398 16.5501 7.87982 16.4329 7.99704C16.3157 8.11424 16.2498 8.27322 16.2498 8.43898V8.85929C16.033 8.93619 15.8322 9.05246 15.6576 9.20226L15.2928 8.99132C15.2217 8.95028 15.1432 8.92365 15.0618 8.91294C14.9804 8.90224 14.8977 8.90767 14.8184 8.92892C14.7391 8.95018 14.6648 8.98685 14.5997 9.03683C14.5346 9.08681 14.4799 9.14913 14.4389 9.22023C14.3979 9.29133 14.3712 9.36981 14.3605 9.4512C14.3498 9.53259 14.3552 9.6153 14.3765 9.69459C14.3978 9.77388 14.4344 9.84821 14.4844 9.91333C14.5344 9.97845 14.5967 10.0331 14.6678 10.0741L15.0319 10.2843C14.9892 10.5104 14.9892 10.7425 15.0319 10.9687L14.6678 11.1788C14.5242 11.2617 14.4194 11.3982 14.3765 11.5584C14.3336 11.7185 14.356 11.8891 14.4389 12.0327C14.5218 12.1763 14.6583 12.2811 14.8184 12.324C14.9786 12.367 15.1492 12.3445 15.2928 12.2616L15.6576 12.0507C15.8322 12.2005 16.033 12.3168 16.2498 12.3937V12.814C16.2498 12.9797 16.3157 13.1387 16.4329 13.2559C16.5501 13.3731 16.7091 13.439 16.8748 13.439C17.0406 13.439 17.1996 13.3731 17.3168 13.2559C17.434 13.1387 17.4998 12.9797 17.4998 12.814V12.3937C17.7167 12.3168 17.9174 12.2005 18.092 12.0507L18.4569 12.2616C18.5518 12.3167 18.6596 12.3456 18.7694 12.3452C18.907 12.3453 19.0408 12.2999 19.15 12.2161C19.2592 12.1324 19.3377 12.0149 19.3733 11.882C19.4089 11.749 19.3997 11.6081 19.347 11.4809C19.2943 11.3538 19.2011 11.2476 19.0819 11.1788ZM16.2498 10.6265C16.2498 10.5029 16.2865 10.382 16.3552 10.2792C16.4238 10.1765 16.5215 10.0964 16.6357 10.0491C16.7499 10.0017 16.8755 9.98937 16.9968 10.0135C17.118 10.0376 17.2294 10.0971 17.3168 10.1845C17.4042 10.2719 17.4637 10.3833 17.4878 10.5045C17.5119 10.6258 17.4996 10.7514 17.4523 10.8657C17.405 10.9799 17.3248 11.0775 17.2221 11.1461C17.1193 11.2148 16.9984 11.2515 16.8748 11.2515C16.7091 11.2515 16.5501 11.1856 16.4329 11.0684C16.3157 10.9512 16.2498 10.7922 16.2498 10.6265Z" fill="black" fill-opacity="0.5"/>
</svg>
