<svg width="20" height="20" viewBox="0 0 20 20" fill="none" xmlns="http://www.w3.org/2000/svg">
<path d="M10.0014 6.24978C9.25969 6.24978 8.53467 6.46972 7.91798 6.88177C7.3013 7.29383 6.82065 7.8795 6.53682 8.56472C6.25299 9.24994 6.17873 10.0039 6.32342 10.7314C6.46812 11.4588 6.82527 12.127 7.34972 12.6514C7.87417 13.1759 8.54235 13.533 9.26978 13.6777C9.99721 13.8224 10.7512 13.7482 11.4364 13.4643C12.1217 13.1805 12.7073 12.6999 13.1194 12.0832C13.5314 11.4665 13.7514 10.7415 13.7514 9.99978C13.7503 9.00554 13.3549 8.05231 12.6519 7.34927C11.9488 6.64624 10.9956 6.25082 10.0014 6.24978ZM10.0014 12.4998C9.50692 12.4998 9.02357 12.3532 8.61244 12.0785C8.20132 11.8038 7.88089 11.4133 7.69167 10.9565C7.50245 10.4997 7.45294 9.99701 7.54941 9.51206C7.64587 9.0271 7.88397 8.58165 8.2336 8.23201C8.58323 7.88238 9.02869 7.64428 9.51364 7.54782C9.9986 7.45136 10.5013 7.50086 10.9581 7.69008C11.4149 7.8793 11.8053 8.19973 12.08 8.61086C12.3547 9.02198 12.5014 9.50533 12.5014 9.99978C12.5014 10.6628 12.238 11.2987 11.7691 11.7675C11.3003 12.2364 10.6644 12.4998 10.0014 12.4998ZM18.5904 8.37556C18.573 8.28755 18.5369 8.20432 18.4844 8.13152C18.432 8.05873 18.3645 7.99808 18.2865 7.95369L15.9561 6.62556L15.9467 3.999C15.9464 3.90854 15.9265 3.81922 15.8883 3.73721C15.8501 3.6552 15.7946 3.58246 15.7256 3.524C14.8802 2.80892 13.9067 2.26093 12.8568 1.90916C12.7742 1.88117 12.6865 1.87082 12.5996 1.87875C12.5127 1.88669 12.4284 1.91275 12.3522 1.95525L10.0014 3.26931L7.64824 1.95291C7.57196 1.91017 7.48755 1.88391 7.40048 1.87584C7.31341 1.86776 7.22562 1.87805 7.14278 1.90603C6.09367 2.26037 5.12128 2.81046 4.27715 3.52713C4.20822 3.5855 4.15276 3.65812 4.11459 3.73998C4.07642 3.82185 4.05645 3.91102 4.05606 4.00134L4.04434 6.63025L1.71387 7.95838C1.6359 8.00276 1.5684 8.06342 1.51596 8.13621C1.46352 8.20901 1.42737 8.29224 1.40996 8.38025C1.19668 9.45203 1.19668 10.5553 1.40996 11.6271C1.42737 11.7151 1.46352 11.7984 1.51596 11.8712C1.5684 11.944 1.6359 12.0046 1.71387 12.049L4.04434 13.3771L4.05371 16.0037C4.054 16.0941 4.07391 16.1835 4.11208 16.2655C4.15026 16.3475 4.20578 16.4202 4.27481 16.4787C5.12017 17.1938 6.09368 17.7418 7.14356 18.0935C7.22623 18.1215 7.31386 18.1319 7.40078 18.1239C7.48771 18.116 7.572 18.0899 7.64824 18.0474L10.0014 16.7303L12.3545 18.0467C12.4476 18.0985 12.5526 18.1255 12.6592 18.1248C12.7274 18.1248 12.7952 18.1137 12.86 18.092C13.9089 17.7381 14.8813 17.1885 15.7256 16.4724C15.7945 16.4141 15.85 16.3414 15.8881 16.2596C15.9263 16.1777 15.9463 16.0885 15.9467 15.9982L15.9584 13.3693L18.2889 12.0412C18.3668 11.9968 18.4343 11.9361 18.4868 11.8634C18.5392 11.7906 18.5754 11.7073 18.5928 11.6193C18.8049 10.5484 18.8041 9.44618 18.5904 8.37556ZM17.4186 11.1029L15.1865 12.3724C15.0887 12.428 15.0078 12.509 14.9522 12.6068C14.9068 12.6849 14.8592 12.7677 14.8107 12.8459C14.7487 12.9444 14.7157 13.0584 14.7154 13.1748L14.7037 15.6943C14.1038 16.1654 13.4354 16.5422 12.7217 16.8115L10.4701 15.5568C10.3766 15.5051 10.2715 15.4782 10.1646 15.4787H10.1498C10.0553 15.4787 9.95996 15.4787 9.86543 15.4787C9.75362 15.4759 9.64308 15.5029 9.54512 15.5568L7.29199 16.8146C6.57677 16.5474 5.90654 16.1725 5.30449 15.7029L5.2959 13.1873C5.29552 13.0706 5.2625 12.9564 5.20059 12.8576C5.15215 12.7795 5.10449 12.7013 5.05996 12.6185C5.00475 12.5192 4.92378 12.4366 4.82559 12.3795L2.59121 11.1068C2.47559 10.3754 2.47559 9.6304 2.59121 8.899L4.81934 7.62713C4.91713 7.57152 4.99811 7.49055 5.05371 7.39275C5.09903 7.31463 5.14668 7.23181 5.19512 7.15369C5.25712 7.05517 5.29015 6.94119 5.29043 6.82478L5.30215 4.30525C5.90209 3.83411 6.57048 3.45737 7.28418 3.18806L9.53262 4.44275C9.63047 4.49699 9.74109 4.52397 9.85293 4.52088C9.94746 4.52088 10.0428 4.52088 10.1373 4.52088C10.2491 4.52367 10.3597 4.49671 10.4576 4.44275L12.7107 3.18494C13.426 3.45218 14.0962 3.82708 14.6982 4.29666L14.7068 6.81228C14.7072 6.92892 14.7402 7.04312 14.8022 7.14197C14.8506 7.22009 14.8982 7.29822 14.9428 7.38103C14.998 7.48034 15.079 7.56292 15.1772 7.62009L17.4115 8.89275C17.5287 9.62471 17.53 10.3705 17.4154 11.1029H17.4186Z" fill="black" fill-opacity="0.5"/>
</svg>
