<svg width="120" height="24" viewBox="0 0 120 24" fill="none" xmlns="http://www.w3.org/2000/svg">
<path d="M7.47559 24.0002C6.27337 24.0002 5.09302 23.8366 3.93452 23.5093C2.77602 23.182 1.82518 22.7129 1.08199 22.1019C0.360664 21.491 0 20.7927 0 20.0072V16.5052H0.590178C0.961771 18.6872 1.6831 20.2691 2.75416 21.2509C3.82523 22.211 5.30067 22.691 7.1805 22.691C8.36085 22.691 9.36634 22.3965 10.197 21.8073C11.0494 21.2182 11.4757 20.4 11.4757 19.3527C11.4757 18.4362 11.1915 17.6398 10.6232 16.9634C10.0549 16.287 9.13683 15.5779 7.86904 14.836L3.83616 12.4468C2.43722 11.6176 1.44266 10.7776 0.852479 9.92662C0.28416 9.07566 0 8.03923 0 6.81734C0 5.13723 0.579249 3.79533 1.73775 2.79163C2.9181 1.76612 4.45912 1.25336 6.36081 1.25336C7.47559 1.25336 8.57944 1.417 9.67236 1.7443C10.7653 2.04977 11.6615 2.50798 12.3609 3.11893C13.0823 3.70805 13.4429 4.39537 13.4429 5.18087V8.6829H12.8528C12.4812 6.50095 11.7708 4.94086 10.7216 4.00262C9.69422 3.04256 8.24063 2.56253 6.36081 2.56253C5.35532 2.56253 4.47005 2.868 3.70501 3.47895C2.93996 4.0899 2.55744 4.88631 2.55744 5.86819C2.55744 6.76279 2.83067 7.50465 3.37713 8.09378C3.94545 8.6829 4.88536 9.37022 6.19687 10.1557L10.2297 12.545C11.7161 13.4396 12.7653 14.2687 13.3774 15.0324C13.9894 15.7961 14.2954 16.767 14.2954 17.9453C14.2954 19.7781 13.6834 21.251 12.4593 22.3637C11.2352 23.4547 9.574 24.0002 7.47559 24.0002Z" fill="black"/>
<path d="M20.1055 23.7711C19.406 23.7711 18.6956 23.6293 17.9743 23.3456C17.253 23.0402 16.63 22.5492 16.1054 21.8728C15.6027 21.1964 15.3513 20.3018 15.3513 19.189C15.3513 17.5307 16.1163 16.3525 17.6464 15.6542C19.1984 14.956 21.2203 14.6069 23.7121 14.6069H24.6958C24.6958 12.4686 24.4007 11.0067 23.8105 10.2212C23.2203 9.43568 22.3678 9.04293 21.2531 9.04293C20.2694 9.04293 19.4825 9.25021 18.8923 9.66478C18.3022 10.0794 17.8869 10.7994 17.6464 11.8249H16.171C16.171 11.0831 16.2147 10.5048 16.3021 10.0903C16.3896 9.65387 16.6191 9.25021 16.9907 8.87928C17.3841 8.48653 18.0289 8.20288 18.9251 8.02832C19.8432 7.83194 20.8377 7.73376 21.9088 7.73376C23.6793 7.73376 25.0783 8.21379 26.1056 9.17384C27.133 10.1121 27.6467 11.9231 27.6467 14.6069V23.4438H26.0073L24.8597 21.971H24.6958C24.3023 22.4728 23.7231 22.8983 22.958 23.2474C22.193 23.5965 21.2421 23.7711 20.1055 23.7711ZM21.5809 22.2983C22.3023 22.2983 22.9034 22.1237 23.3843 21.7746C23.8651 21.4255 24.3023 20.9455 24.6958 20.3345V15.9161H23.7121C22.0946 15.9161 20.8159 16.2216 19.876 16.8325C18.9361 17.4216 18.4661 18.2071 18.4661 19.189C18.4661 20.1927 18.7612 20.9673 19.3514 21.5128C19.9634 22.0365 20.7066 22.2983 21.5809 22.2983Z" fill="black"/>
<path d="M31.1444 11.8249C30.6198 10.603 30.1171 9.75206 29.6362 9.27203C29.1553 8.77018 28.5214 8.49744 27.7345 8.4538V7.79921C27.8438 7.79921 27.9968 7.7883 28.1935 7.76648C28.4121 7.74467 28.6307 7.73376 28.8493 7.73376C30.0078 7.73376 31.057 8.02832 31.9969 8.61745C32.9368 9.18475 33.7456 10.2539 34.4232 11.8249L37.3741 18.8617L41.9644 8.06105H43.6037L36.8823 23.7711H36.2265L31.1444 11.8249Z" fill="black"/>
<path d="M50.6615 23.7711C49.1752 23.7711 47.9183 23.422 46.891 22.7238C45.8636 22.0037 45.0876 21.0437 44.563 19.8436C44.0384 18.6217 43.7761 17.258 43.7761 15.7524C43.7761 14.2687 44.0384 12.9159 44.563 11.694C45.0876 10.4721 45.8418 9.51205 46.8254 8.81382C47.8309 8.09378 49.0003 7.73376 50.3337 7.73376C52.5414 7.73376 54.1807 8.35561 55.2518 9.59933C56.3447 10.8212 56.8912 12.5995 56.8912 14.9342L56.8256 16.2434H46.891C46.891 18.0762 47.2844 19.5708 48.0713 20.7273C48.8582 21.8837 49.9402 22.4619 51.3173 22.4619C52.3446 22.4619 53.208 22.2437 53.9075 21.8073C54.6288 21.371 55.2955 20.7164 55.9076 19.8436L56.5633 20.3345C55.842 21.5346 55.0004 22.4074 54.0387 22.9529C53.0769 23.4984 51.9512 23.7711 50.6615 23.7711ZM53.7764 14.9342C53.7764 13.0141 53.4922 11.5522 52.9239 10.5485C52.3556 9.54478 51.4922 9.04293 50.3337 9.04293C49.6779 9.04293 49.0877 9.30476 48.5631 9.82843C48.0385 10.3303 47.6232 11.0285 47.3172 11.9231C47.033 12.8177 46.891 13.8214 46.891 14.9342H53.7764Z" fill="black"/>
<path d="M63.5891 23.7711C62.365 23.7711 61.4033 23.422 60.7038 22.7238C60.0043 22.0255 59.6546 20.9564 59.6546 19.5163V9.37022H57.3594V8.06105H59.6546V5.11541L61.294 3.15166H62.6055V8.06105H66.54V9.37022H62.6055V19.5163C62.6055 21.4801 63.3705 22.4619 64.9006 22.4619C65.4252 22.4619 65.8624 22.4074 66.2121 22.2983C66.5837 22.1892 66.9662 22.0255 67.3597 21.8073L67.6875 22.4619C67.1848 22.8329 66.6274 23.1493 66.0154 23.4111C65.4033 23.6511 64.5946 23.7711 63.5891 23.7711Z" fill="black"/>
<path d="M107.213 11.9886C107.213 10.8758 107.06 10.0575 106.754 9.53387C106.448 8.98838 105.836 8.71563 104.918 8.71563H104.262V8.06105H107.213C108.022 8.06105 108.634 8.17015 109.049 8.38834C109.486 8.60654 109.803 8.93383 110 9.37022H110.164C110.623 8.91201 111.213 8.53017 111.934 8.22469C112.677 7.8974 113.508 7.73376 114.426 7.73376C116.065 7.73376 117.399 8.17015 118.426 9.04293C119.475 9.91571 120 11.4431 120 13.625V23.4438H117.049V13.625C117.049 12.0977 116.699 10.9849 116 10.2866C115.322 9.5666 114.47 9.20657 113.442 9.20657C112.284 9.20657 111.191 9.78479 110.164 10.9412V23.4438H107.213V11.9886Z" fill="black"/>
<path d="M101.863 11.9772C102.354 10.7835 102.845 9.95208 103.337 9.4831C103.806 8.9928 104.436 8.72633 105.227 8.6837V8.04418C105.12 8.04418 104.96 8.03352 104.746 8.0122C104.533 7.99088 104.319 7.98022 104.105 7.98022C102.952 7.98022 101.938 8.27867 101.062 8.87555C100.165 9.45112 99.4179 10.485 98.8199 11.9772L96.0971 18.6922L93.3743 11.8174C93.8868 10.6875 94.378 9.89879 94.8478 9.45112C95.2963 8.98214 95.8729 8.72633 96.5776 8.6837V8.04418C96.4708 8.04418 96.3107 8.03352 96.0971 8.0122C95.8836 7.99088 95.67 7.98022 95.4565 7.98022C94.3033 7.98022 93.2889 8.27867 92.4133 8.87555C91.5164 9.45112 90.769 10.485 90.171 11.9772L87.4482 18.6922L83.2839 8.29998H81.6822L87.9287 23.6485H88.5694L92.5735 13.7359L96.5776 23.6485H97.2183L101.863 11.9772Z" fill="black"/>
<path d="M75.4378 10.0639V0C74.9111 0 74.3175 0.781635 74.0865 1.17245L69.6809 1.40391C70.0673 2.89188 72.8154 3.29362 74.0865 3.22474V4.12895L70.0614 4.43748C70.2593 5.67194 72.8292 6.1 74.0865 6.11029L74.0375 10.0698C74.2771 10.0447 74.5203 10.0318 74.7666 10.0318C74.993 10.0318 75.2169 10.0427 75.4378 10.0639Z" fill="#9900CC"/>
<mask id="mask0_714_55352" style="mask-type:alpha" maskUnits="userSpaceOnUse" x="67" y="10" width="15" height="14">
<path fill-rule="evenodd" clip-rule="evenodd" d="M74.7666 23.8374C78.5857 23.8374 81.6817 20.7469 81.6817 16.9346C81.6817 13.1224 78.5857 10.0319 74.7666 10.0319C70.9475 10.0319 67.8516 13.1224 67.8516 16.9346C67.8516 20.7469 70.9475 23.8374 74.7666 23.8374ZM74.7666 21.461C77.2709 21.461 79.3011 19.4345 79.3011 16.9346C79.3011 14.4348 77.2709 12.4082 74.7666 12.4082C72.2623 12.4082 70.2322 14.4348 70.2322 16.9346C70.2322 19.4345 72.2623 21.461 74.7666 21.461Z" fill="#9900CC"/>
</mask>
<g mask="url(#mask0_714_55352)">
<rect width="22.3136" height="5.22509" transform="matrix(0.866411 -0.499332 0.500668 0.865639 66.4023 18.5376)" fill="#ED1450"/>
<rect width="22.3136" height="5.22509" transform="matrix(0.866411 -0.499332 0.500668 0.865639 63.2656 14.9083)" fill="#9900CC"/>
<rect width="22.3136" height="5.22509" transform="matrix(0.866411 -0.499332 0.500668 0.865639 69.0156 23.0605)" fill="#FEA000"/>
</g>
</svg>
