<svg width="20" height="20" viewBox="0 0 20 20" fill="none" xmlns="http://www.w3.org/2000/svg">
<path d="M7.5 8.12793C7.5 7.96217 7.56585 7.8032 7.68306 7.68599C7.80027 7.56878 7.95924 7.50293 8.125 7.50293H13.125C13.2908 7.50293 13.4497 7.56878 13.5669 7.68599C13.6842 7.8032 13.75 7.96217 13.75 8.12793C13.75 8.29369 13.6842 8.45266 13.5669 8.56987C13.4497 8.68708 13.2908 8.75293 13.125 8.75293H8.125C7.95924 8.75293 7.80027 8.68708 7.68306 8.56987C7.56585 8.45266 7.5 8.29369 7.5 8.12793ZM8.125 11.2529H13.125C13.2908 11.2529 13.4497 11.1871 13.5669 11.0699C13.6842 10.9527 13.75 10.7937 13.75 10.6279C13.75 10.4622 13.6842 10.3032 13.5669 10.186C13.4497 10.0688 13.2908 10.0029 13.125 10.0029H8.125C7.95924 10.0029 7.80027 10.0688 7.68306 10.186C7.56585 10.3032 7.5 10.4622 7.5 10.6279C7.5 10.7937 7.56585 10.9527 7.68306 11.0699C7.80027 11.1871 7.95924 11.2529 8.125 11.2529ZM18.125 15.0029C18.125 15.666 17.8616 16.3019 17.3928 16.7707C16.9239 17.2395 16.288 17.5029 15.625 17.5029H6.875C6.21196 17.5029 5.57607 17.2395 5.10723 16.7707C4.63839 16.3019 4.375 15.666 4.375 15.0029V5.00293C4.375 4.67141 4.2433 4.35347 4.00888 4.11905C3.77446 3.88463 3.45652 3.75293 3.125 3.75293C2.79348 3.75293 2.47554 3.88463 2.24112 4.11905C2.0067 4.35347 1.875 4.67141 1.875 5.00293C1.875 5.45137 2.25234 5.75449 2.25625 5.75762C2.35969 5.83722 2.43561 5.94721 2.47336 6.07215C2.51112 6.19709 2.50881 6.33072 2.46676 6.45428C2.42471 6.57784 2.34503 6.68514 2.2389 6.76112C2.13277 6.8371 2.00552 6.87795 1.875 6.87793C1.73984 6.87816 1.60836 6.83397 1.50078 6.75215C1.41016 6.68574 0.625 6.06621 0.625 5.00293C0.625 4.33989 0.888392 3.704 1.35723 3.23516C1.82607 2.76632 2.46196 2.50293 3.125 2.50293H13.75C14.413 2.50293 15.0489 2.76632 15.5178 3.23516C15.9866 3.704 16.25 4.33989 16.25 5.00293V13.1279H16.875C17.0102 13.1279 17.1418 13.1718 17.25 13.2529C17.3438 13.3201 18.125 13.9396 18.125 15.0029ZM7.52031 13.5561C7.56302 13.43 7.64451 13.3207 7.75313 13.2438C7.86175 13.1669 7.99192 13.1263 8.125 13.1279H15V5.00293C15 4.67141 14.8683 4.35347 14.6339 4.11905C14.3995 3.88463 14.0815 3.75293 13.75 3.75293H5.28828C5.50933 4.13239 5.62554 4.56378 5.625 5.00293V15.0029C5.625 15.3345 5.7567 15.6524 5.99112 15.8868C6.22554 16.1212 6.54348 16.2529 6.875 16.2529C7.20652 16.2529 7.52446 16.1212 7.75888 15.8868C7.9933 15.6524 8.125 15.3345 8.125 15.0029C8.125 14.5545 7.74766 14.2514 7.74375 14.2482C7.63724 14.1721 7.55803 14.0636 7.5178 13.939C7.47757 13.8144 7.47845 13.6801 7.52031 13.5561ZM16.875 15.0029C16.8672 14.7714 16.7778 14.55 16.6227 14.3779H9.27891C9.34172 14.5803 9.37359 14.791 9.37344 15.0029C9.37404 15.4419 9.2584 15.8732 9.03828 16.2529H15.625C15.9565 16.2529 16.2745 16.1212 16.5089 15.8868C16.7433 15.6524 16.875 15.3345 16.875 15.0029Z" fill="#ED1450" />
</svg>
