<svg width="20" height="20" viewBox="0 0 20 20" fill="none" xmlns="http://www.w3.org/2000/svg">
<path d="M9.15879 12.3376C9.99645 11.7799 10.6324 10.9675 10.9726 10.0204C11.3128 9.07337 11.3392 8.04197 11.0479 7.07874C10.7566 6.11552 10.1631 5.27161 9.35506 4.67181C8.54704 4.07201 7.56744 3.74817 6.56113 3.74817C5.55483 3.74817 4.57523 4.07201 3.76721 4.67181C2.95918 5.27161 2.36563 6.11552 2.07433 7.07874C1.78303 8.04197 1.80943 9.07337 2.14965 10.0204C2.48986 10.9675 3.12582 11.7799 3.96348 12.3376C2.44824 12.896 1.15419 13.9295 0.274416 15.2837C0.228179 15.3524 0.196062 15.4296 0.179933 15.5109C0.163804 15.5921 0.163984 15.6757 0.180464 15.7569C0.196944 15.8381 0.229394 15.9152 0.275928 15.9837C0.322462 16.0522 0.382151 16.1108 0.451528 16.1561C0.520904 16.2013 0.598582 16.2323 0.680048 16.2473C0.761513 16.2622 0.845141 16.2609 0.926069 16.2432C1.007 16.2256 1.08361 16.192 1.15146 16.1445C1.21931 16.097 1.27704 16.0365 1.32129 15.9665C1.88878 15.0937 2.66532 14.3764 3.58038 13.8799C4.49545 13.3834 5.52004 13.1233 6.56113 13.1233C7.60223 13.1233 8.62682 13.3834 9.54189 13.8799C10.457 14.3764 11.2335 15.0937 11.801 15.9665C11.8926 16.1027 12.0343 16.1974 12.1952 16.2301C12.3561 16.2628 12.5234 16.2308 12.661 16.1411C12.7985 16.0514 12.8952 15.9111 12.9302 15.7507C12.9652 15.5902 12.9356 15.4225 12.8479 15.2837C11.9681 13.9295 10.674 12.896 9.15879 12.3376ZM3.12363 8.43757C3.12363 7.7577 3.32524 7.09309 3.70296 6.5278C4.08068 5.9625 4.61754 5.52191 5.24566 5.26174C5.87378 5.00156 6.56495 4.93349 7.23176 5.06612C7.89857 5.19876 8.51107 5.52615 8.99181 6.00689C9.47256 6.48763 9.79995 7.10014 9.93258 7.76695C10.0652 8.43376 9.99715 9.12492 9.73697 9.75305C9.47679 10.3812 9.0362 10.918 8.47091 11.2957C7.90561 11.6735 7.24101 11.8751 6.56113 11.8751C5.64977 11.874 4.77603 11.5115 4.1316 10.8671C3.48716 10.2227 3.12467 9.34894 3.12363 8.43757ZM19.5408 16.1485C19.402 16.239 19.2329 16.2707 19.0707 16.2366C18.9085 16.2024 18.7665 16.1053 18.676 15.9665C18.1092 15.0931 17.3327 14.3756 16.4175 13.8793C15.5022 13.383 14.4773 13.1237 13.4361 13.1251C13.2704 13.1251 13.1114 13.0592 12.9942 12.942C12.877 12.8248 12.8111 12.6658 12.8111 12.5001C12.8111 12.3343 12.877 12.1753 12.9942 12.0581C13.1114 11.9409 13.2704 11.8751 13.4361 11.8751C13.9424 11.8746 14.4422 11.7623 14.9 11.5463C15.3578 11.3302 15.7623 11.0157 16.0844 10.6252C16.4066 10.2347 16.6385 9.77791 16.7637 9.2874C16.8888 8.79688 16.9041 8.28478 16.8084 7.78769C16.7127 7.29059 16.5084 6.82077 16.2101 6.41179C15.9117 6.00281 15.5267 5.66476 15.0826 5.42182C14.6385 5.17887 14.1462 5.03701 13.6409 5.00637C13.1356 4.97574 12.6298 5.05709 12.1596 5.2446C12.0829 5.27774 12.0004 5.29518 11.9169 5.29589C11.8333 5.2966 11.7505 5.28055 11.6733 5.24871C11.5961 5.21687 11.526 5.16987 11.4673 5.1105C11.4085 5.05113 11.3623 4.98058 11.3313 4.90303C11.3003 4.82548 11.2851 4.7425 11.2867 4.65899C11.2883 4.57548 11.3066 4.49314 11.3405 4.41683C11.3745 4.34052 11.4234 4.27179 11.4844 4.2147C11.5453 4.15761 11.6171 4.11332 11.6955 4.08445C12.7717 3.65527 13.9686 3.63982 15.0555 4.04109C16.1423 4.44236 17.0421 5.23191 17.5811 6.25743C18.1202 7.28294 18.2604 8.47176 17.9746 9.59454C17.6889 10.7173 16.9975 11.6945 16.0338 12.3376C17.549 12.896 18.8431 13.9295 19.7229 15.2837C19.8134 15.4225 19.8451 15.5916 19.8109 15.7538C19.7768 15.916 19.6796 16.058 19.5408 16.1485Z" fill="black" fill-opacity="0.5"/>
</svg>
