<svg width="48" height="48" viewBox="0 0 48 48" fill="none" xmlns="http://www.w3.org/2000/svg">
<path d="M48.002 25.5002C48.002 25.898 47.844 26.2795 47.5627 26.5608C47.2814 26.8421 46.8998 27.0002 46.502 27.0002H43.502V30.0002C43.502 30.398 43.344 30.7795 43.0627 31.0608C42.7814 31.3421 42.3998 31.5002 42.002 31.5002C41.6042 31.5002 41.2227 31.3421 40.9414 31.0608C40.66 30.7795 40.502 30.398 40.502 30.0002V27.0002H37.502C37.1042 27.0002 36.7227 26.8421 36.4414 26.5608C36.16 26.2795 36.002 25.898 36.002 25.5002C36.002 25.1024 36.16 24.7208 36.4414 24.4395C36.7227 24.1582 37.1042 24.0002 37.502 24.0002H40.502V21.0002C40.502 20.6024 40.66 20.2208 40.9414 19.9395C41.2227 19.6582 41.6042 19.5002 42.002 19.5002C42.3998 19.5002 42.7814 19.6582 43.0627 19.9395C43.344 20.2208 43.502 20.6024 43.502 21.0002V24.0002H46.502C46.8998 24.0002 47.2814 24.1582 47.5627 24.4395C47.844 24.7208 48.002 25.1024 48.002 25.5002ZM27.002 29.5652C29.3534 28.1006 31.1639 25.9101 32.1595 23.3249C33.1551 20.7398 33.2817 17.9007 32.5201 15.2373C31.7584 12.5738 30.15 10.2309 27.9383 8.56288C25.7265 6.89491 23.0316 5.99268 20.2614 5.99268C17.4912 5.99268 14.7963 6.89491 12.5845 8.56288C10.3727 10.2309 8.76436 12.5738 8.00274 15.2373C7.24111 17.9007 7.36767 20.7398 8.36327 23.3249C9.35887 25.9101 11.1693 28.1006 13.5208 29.5652C9.64889 30.8327 6.16514 33.2008 3.36389 36.5345C3.1805 36.7525 3.06297 37.0182 3.02506 37.3006C2.98715 37.5829 3.03042 37.8702 3.14981 38.1289C3.2692 38.3875 3.45977 38.6068 3.69924 38.7611C3.9387 38.9154 4.21715 38.9983 4.50202 39.0002H36.002C36.2878 39.0005 36.5678 38.9191 36.8089 38.7656C37.0501 38.6122 37.2423 38.393 37.3631 38.1339C37.4838 37.8749 37.5281 37.5867 37.4906 37.3034C37.4531 37.02 37.3354 36.7533 37.1514 36.5345C34.3483 33.2008 30.8645 30.8327 27.002 29.5652Z" fill="#ED1450"/>
</svg>
