<svg width="48" height="48" viewBox="0 0 48 48" fill="none" xmlns="http://www.w3.org/2000/svg">
<path d="M30.8339 36.6808C30.9815 36.9071 31.0652 37.1691 31.0762 37.4391C31.0872 37.709 31.0251 37.977 30.8964 38.2146C30.7677 38.4521 30.5773 38.6506 30.3451 38.7888C30.113 38.9271 29.8478 39.0001 29.5776 39.0002H1.91388C1.64368 39.0001 1.37851 38.9271 1.14639 38.7888C0.914257 38.6506 0.723789 38.4521 0.595106 38.2146C0.466423 37.977 0.404302 37.709 0.415308 37.4391C0.426313 37.1691 0.510035 36.9071 0.657629 36.6808C2.76908 33.4307 5.8748 30.9505 9.51138 29.6102C7.501 28.2718 5.9747 26.3219 5.15819 24.049C4.34167 21.7761 4.2783 19.3007 4.97742 16.989C5.67655 14.6772 7.10107 12.6519 9.04033 11.2123C10.9796 9.77283 13.3306 8.99561 15.7458 8.99561C18.1609 8.99561 20.5119 9.77283 22.4512 11.2123C24.3904 12.6519 25.815 14.6772 26.5141 16.989C27.2132 19.3007 27.1498 21.7761 26.3333 24.049C25.5168 26.3219 23.9905 28.2718 21.9801 29.6102C25.6167 30.9505 28.7224 33.4307 30.8339 36.6808ZM47.317 36.6527C45.205 33.4163 42.1062 30.9467 38.4801 29.6102C40.8535 28.0115 42.5284 25.5684 43.164 22.7783C43.7996 19.9882 43.348 17.0608 41.9013 14.5918C40.4545 12.1229 38.1213 10.2981 35.3765 9.48885C32.6318 8.67958 29.6818 8.94669 27.127 10.2358C27.0293 10.2862 26.9439 10.3575 26.8768 10.4446C26.8098 10.5318 26.7627 10.6326 26.7389 10.7399C26.7151 10.8472 26.7152 10.9585 26.7391 11.0658C26.7631 11.1731 26.8104 11.2738 26.8776 11.3608C28.7773 13.7304 29.8683 16.6461 29.9908 19.6808C30.1133 22.7154 29.2608 25.7095 27.5583 28.2245C27.4482 28.3889 27.4075 28.5901 27.4451 28.7843C27.4827 28.9785 27.5955 29.15 27.7589 29.2614C29.9787 30.8107 31.879 32.7734 33.3558 35.042C33.9513 35.9541 34.1946 37.0518 34.0401 38.1302C34.0227 38.2374 34.0289 38.3472 34.0581 38.4519C34.0873 38.5565 34.1389 38.6536 34.2094 38.7363C34.2798 38.8191 34.3674 38.8855 34.4661 38.9311C34.5647 38.9766 34.6721 39.0002 34.7808 39.0002H46.087C46.4173 39.0003 46.7384 38.8913 47.0005 38.6903C47.2625 38.4893 47.4509 38.2073 47.5364 37.8883C47.5885 37.6785 47.5959 37.46 47.5581 37.2471C47.5204 37.0343 47.4382 36.8317 47.317 36.6527Z" fill="#ED1450"/>
</svg>
