<svg width="16" height="18" viewBox="0 0 16 18" fill="none" xmlns="http://www.w3.org/2000/svg">
<path d="M15.499 4.55617C15.3518 4.63236 15.1805 4.64701 15.0226 4.59691C14.8646 4.54681 14.7331 4.43605 14.6568 4.28898C14.0602 3.11046 13.1572 2.11437 12.0427 1.40539C11.9732 1.36158 11.9131 1.30452 11.8657 1.23747C11.8183 1.17041 11.7846 1.09468 11.7664 1.01459C11.7483 0.934499 11.7461 0.851621 11.76 0.770686C11.7739 0.689752 11.8036 0.612346 11.8474 0.542889C11.8912 0.473432 11.9483 0.413284 12.0153 0.365879C12.0824 0.318474 12.1581 0.28474 12.2382 0.266604C12.3183 0.248467 12.4012 0.246283 12.4821 0.260177C12.563 0.27407 12.6404 0.303769 12.7099 0.347577C14.0088 1.17925 15.0635 2.34099 15.7661 3.71398C15.8423 3.86111 15.857 4.03246 15.8069 4.19038C15.7568 4.34831 15.646 4.47987 15.499 4.55617ZM0.788801 4.62648C0.903303 4.62644 1.01559 4.59493 1.11341 4.53542C1.21123 4.4759 1.29082 4.39065 1.34349 4.28898C1.94005 3.11046 2.84303 2.11437 3.95755 1.40539C4.09783 1.31691 4.19721 1.17634 4.23384 1.01459C4.27046 0.85284 4.24134 0.683164 4.15286 0.542889C4.06439 0.402615 3.92381 0.303232 3.76206 0.266604C3.60031 0.229975 3.43064 0.259102 3.29036 0.347577C1.99146 1.17925 0.936754 2.34099 0.234113 3.71398C0.184768 3.80923 0.160769 3.91558 0.164426 4.02279C0.168083 4.13 0.199273 4.23446 0.254994 4.32613C0.310716 4.4178 0.389093 4.49358 0.482583 4.54618C0.576073 4.59878 0.681528 4.62644 0.788801 4.62648ZM15.3279 12.7468C15.4386 12.9367 15.4973 13.1524 15.498 13.3722C15.4988 13.592 15.4416 13.8081 15.3322 13.9987C15.2227 14.1894 15.065 14.3478 14.8748 14.458C14.6846 14.5682 14.4688 14.6263 14.249 14.6265H11.0615C10.918 15.3329 10.5348 15.968 9.97662 16.4242C9.41849 16.8804 8.7198 17.1296 7.99896 17.1296C7.27811 17.1296 6.57943 16.8804 6.0213 16.4242C5.46316 15.968 5.0799 15.3329 4.93646 14.6265H1.74896C1.52929 14.626 1.31361 14.5677 1.12365 14.4574C0.933691 14.3471 0.77616 14.1887 0.666925 13.9981C0.55769 13.8075 0.500609 13.5915 0.501432 13.3718C0.502255 13.1521 0.560953 12.9366 0.671613 12.7468C1.37552 11.532 1.74896 9.80461 1.74896 7.75148C1.74896 6.09388 2.40744 4.50417 3.57954 3.33207C4.75164 2.15996 6.34135 1.50148 7.99896 1.50148C9.65656 1.50148 11.2463 2.15996 12.4184 3.33207C13.5905 4.50417 14.249 6.09388 14.249 7.75148C14.249 9.80383 14.6224 11.5312 15.3279 12.7468ZM9.76614 14.6265H6.23177C6.36126 14.9916 6.60068 15.3077 6.91713 15.5313C7.23358 15.7548 7.61151 15.8748 7.99896 15.8748C8.3864 15.8748 8.76433 15.7548 9.08078 15.5313C9.39723 15.3077 9.63666 14.9916 9.76614 14.6265ZM14.249 13.3765C13.4177 11.9491 12.999 10.057 12.999 7.75148C12.999 6.4254 12.4722 5.15363 11.5345 4.21595C10.5968 3.27827 9.32504 2.75148 7.99896 2.75148C6.67287 2.75148 5.4011 3.27827 4.46342 4.21595C3.52574 5.15363 2.99896 6.4254 2.99896 7.75148C2.99896 10.0577 2.57864 11.9499 1.74896 13.3765H14.249Z" fill="black" fill-opacity="0.5"/>
</svg>
