<svg width="20" height="20" viewBox="0 0 20 20" fill="none" xmlns="http://www.w3.org/2000/svg">
<path d="M16.875 5.62598H4.375C4.20924 5.62598 4.05027 5.56013 3.93306 5.44292C3.81585 5.32571 3.75 5.16674 3.75 5.00098C3.75 4.83522 3.81585 4.67625 3.93306 4.55903C4.05027 4.44182 4.20924 4.37598 4.375 4.37598H15C15.1658 4.37598 15.3247 4.31013 15.4419 4.19292C15.5592 4.07571 15.625 3.91674 15.625 3.75098C15.625 3.58522 15.5592 3.42625 15.4419 3.30903C15.3247 3.19182 15.1658 3.12598 15 3.12598H4.375C3.87772 3.12598 3.40081 3.32352 3.04917 3.67515C2.69754 4.02678 2.5 4.5037 2.5 5.00098V15.001C2.5 15.4983 2.69754 15.9752 3.04917 16.3268C3.40081 16.6784 3.87772 16.876 4.375 16.876H16.875C17.2065 16.876 17.5245 16.7443 17.7589 16.5099C17.9933 16.2754 18.125 15.9575 18.125 15.626V6.87598C18.125 6.54446 17.9933 6.22651 17.7589 5.99209C17.5245 5.75767 17.2065 5.62598 16.875 5.62598ZM16.875 15.626H4.375C4.20924 15.626 4.05027 15.5601 3.93306 15.4429C3.81585 15.3257 3.75 15.1667 3.75 15.001V6.76895C3.95068 6.84008 4.16208 6.87629 4.375 6.87598H16.875V15.626ZM13.125 10.9385C13.125 10.7531 13.18 10.5718 13.283 10.4176C13.386 10.2635 13.5324 10.1433 13.7037 10.0723C13.875 10.0014 14.0635 9.98282 14.2454 10.019C14.4273 10.0552 14.5943 10.1445 14.7254 10.2756C14.8565 10.4067 14.9458 10.5737 14.982 10.7556C15.0182 10.9374 14.9996 11.1259 14.9286 11.2972C14.8577 11.4685 14.7375 11.615 14.5833 11.718C14.4292 11.821 14.2479 11.876 14.0625 11.876C13.8139 11.876 13.5754 11.7772 13.3996 11.6014C13.2238 11.4256 13.125 11.1871 13.125 10.9385Z" fill="#ED1450" />
</svg>
