<svg width="16" height="16" viewBox="0 0 16 16" fill="none" xmlns="http://www.w3.org/2000/svg">
<path fill-rule="evenodd" clip-rule="evenodd" d="M6.39442 2.00008C3.96601 2.00008 1.9974 3.9687 1.9974 6.39711C1.9974 8.82552 3.96601 10.7941 6.39442 10.7941C7.60945 10.7941 8.70831 10.3022 9.50485 9.50502C10.3005 8.70868 10.7914 7.61086 10.7914 6.39711C10.7914 3.9687 8.82283 2.00008 6.39442 2.00008ZM0.664062 6.39711C0.664062 3.23232 3.22963 0.666748 6.39442 0.666748C9.55921 0.666748 12.1248 3.23232 12.1248 6.39711C12.1248 7.73827 11.6634 8.97258 10.8917 9.94868L14.4717 13.5287C14.732 13.789 14.732 14.2111 14.4717 14.4715C14.2113 14.7318 13.7892 14.7318 13.5289 14.4715L9.94923 10.8918C8.97263 11.6651 7.73707 12.1275 6.39442 12.1275C3.22963 12.1275 0.664062 9.5619 0.664062 6.39711Z" fill="#272D37"/>
</svg>
