<svg width="40" height="40" viewBox="0 0 40 40" fill="none" xmlns="http://www.w3.org/2000/svg">
<circle cx="20" cy="20" r="20" fill="white"/>
<path d="M29.7469 19.9897C29.7476 20.257 29.6769 20.5196 29.5421 20.7503C29.4073 20.9811 29.2132 21.1716 28.9801 21.3022L13.2385 30.3032C13.0123 30.4314 12.7569 30.4992 12.4969 30.5C12.2572 30.4995 12.021 30.4416 11.8083 30.331C11.5955 30.2204 11.4124 30.0605 11.2742 29.8645C11.136 29.6686 11.0468 29.4424 11.0141 29.2049C10.9813 28.9673 11.006 28.7254 11.086 28.4994L13.6501 21.0041C13.6753 20.9299 13.7232 20.8656 13.7869 20.82C13.8506 20.7744 13.927 20.75 14.0054 20.75H20.7469C20.8498 20.7503 20.9515 20.7293 21.0459 20.6886C21.1403 20.6478 21.2253 20.5881 21.2956 20.5131C21.366 20.4381 21.4201 20.3495 21.4548 20.2526C21.4894 20.1558 21.5038 20.0529 21.4969 19.9503C21.4799 19.7575 21.3907 19.5782 21.2471 19.4483C21.1035 19.3185 20.9162 19.2476 20.7226 19.25H14.0119C13.9337 19.2502 13.8574 19.2258 13.7937 19.1805C13.73 19.1351 13.6821 19.0709 13.6566 18.9969L11.0841 11.4969C10.984 11.2095 10.9736 10.8985 11.0544 10.605C11.1351 10.3116 11.3033 10.0497 11.5364 9.85405C11.7696 9.65844 12.0567 9.53837 12.3597 9.5098C12.6627 9.48123 12.9673 9.54551 13.2329 9.6941L28.9829 18.6838C29.2145 18.8142 29.4074 19.0039 29.5416 19.2334C29.6759 19.4628 29.7467 19.7239 29.7469 19.9897Z" fill="#ED1450"/>
</svg>
