<svg width="20" height="20" viewBox="0 0 20 20" fill="none" xmlns="http://www.w3.org/2000/svg">
<path d="M0 16.6663V14.3538C0 13.8816 0.118056 13.4441 0.354167 13.0413C0.590278 12.6386 0.916667 12.333 1.33333 12.1247C1.52778 12.0275 1.71528 11.9372 1.89583 11.8538C2.09028 11.7705 2.29167 11.6941 2.5 11.6247V16.6663H0ZM3.33333 10.833C2.63889 10.833 2.04861 10.59 1.5625 10.1038C1.07639 9.61773 0.833333 9.02745 0.833333 8.33301C0.833333 7.63856 1.07639 7.04829 1.5625 6.56217C2.04861 6.07606 2.63889 5.83301 3.33333 5.83301C4.02778 5.83301 4.61806 6.07606 5.10417 6.56217C5.59028 7.04829 5.83333 7.63856 5.83333 8.33301C5.83333 9.02745 5.59028 9.61773 5.10417 10.1038C4.61806 10.59 4.02778 10.833 3.33333 10.833ZM3.33333 9.16634C3.56944 9.16634 3.76389 9.08995 3.91667 8.93718C4.08333 8.77051 4.16667 8.56912 4.16667 8.33301C4.16667 8.0969 4.08333 7.90245 3.91667 7.74967C3.76389 7.58301 3.56944 7.49967 3.33333 7.49967C3.09722 7.49967 2.89583 7.58301 2.72917 7.74967C2.57639 7.90245 2.5 8.0969 2.5 8.33301C2.5 8.56912 2.57639 8.77051 2.72917 8.93718C2.89583 9.08995 3.09722 9.16634 3.33333 9.16634ZM3.33333 16.6663V14.333C3.33333 13.8608 3.45139 13.4302 3.6875 13.0413C3.9375 12.6386 4.26389 12.333 4.66667 12.1247C5.52778 11.6941 6.40278 11.3747 7.29167 11.1663C8.18056 10.9441 9.08333 10.833 10 10.833C10.9167 10.833 11.8194 10.9441 12.7083 11.1663C13.5972 11.3747 14.4722 11.6941 15.3333 12.1247C15.7361 12.333 16.0556 12.6386 16.2917 13.0413C16.5417 13.4302 16.6667 13.8608 16.6667 14.333V16.6663H3.33333ZM5 14.9997H15V14.333C15 14.1802 14.9583 14.0413 14.875 13.9163C14.8056 13.7913 14.7083 13.6941 14.5833 13.6247C13.8333 13.2497 13.0764 12.9719 12.3125 12.7913C11.5486 12.5969 10.7778 12.4997 10 12.4997C9.22222 12.4997 8.45139 12.5969 7.6875 12.7913C6.92361 12.9719 6.16667 13.2497 5.41667 13.6247C5.29167 13.6941 5.1875 13.7913 5.10417 13.9163C5.03472 14.0413 5 14.1802 5 14.333V14.9997ZM10 9.99968C9.08333 9.99968 8.29861 9.67329 7.64583 9.02051C6.99306 8.36773 6.66667 7.58301 6.66667 6.66634C6.66667 5.74967 6.99306 4.96495 7.64583 4.31218C8.29861 3.6594 9.08333 3.33301 10 3.33301C10.9167 3.33301 11.7014 3.6594 12.3542 4.31218C13.0069 4.96495 13.3333 5.74967 13.3333 6.66634C13.3333 7.58301 13.0069 8.36773 12.3542 9.02051C11.7014 9.67329 10.9167 9.99968 10 9.99968ZM10 8.33301C10.4583 8.33301 10.8472 8.17329 11.1667 7.85384C11.5 7.52051 11.6667 7.12468 11.6667 6.66634C11.6667 6.20801 11.5 5.81912 11.1667 5.49967C10.8472 5.16634 10.4583 4.99967 10 4.99967C9.54167 4.99967 9.14583 5.16634 8.8125 5.49967C8.49306 5.81912 8.33333 6.20801 8.33333 6.66634C8.33333 7.12468 8.49306 7.52051 8.8125 7.85384C9.14583 8.17329 9.54167 8.33301 10 8.33301ZM16.6667 10.833C15.9722 10.833 15.3819 10.59 14.8958 10.1038C14.4097 9.61773 14.1667 9.02745 14.1667 8.33301C14.1667 7.63856 14.4097 7.04829 14.8958 6.56217C15.3819 6.07606 15.9722 5.83301 16.6667 5.83301C17.3611 5.83301 17.9514 6.07606 18.4375 6.56217C18.9236 7.04829 19.1667 7.63856 19.1667 8.33301C19.1667 9.02745 18.9236 9.61773 18.4375 10.1038C17.9514 10.59 17.3611 10.833 16.6667 10.833ZM16.6667 9.16634C16.9028 9.16634 17.0972 9.08995 17.25 8.93718C17.4167 8.77051 17.5 8.56912 17.5 8.33301C17.5 8.0969 17.4167 7.90245 17.25 7.74967C17.0972 7.58301 16.9028 7.49967 16.6667 7.49967C16.4306 7.49967 16.2292 7.58301 16.0625 7.74967C15.9097 7.90245 15.8333 8.0969 15.8333 8.33301C15.8333 8.56912 15.9097 8.77051 16.0625 8.93718C16.2292 9.08995 16.4306 9.16634 16.6667 9.16634ZM17.5 16.6663V11.6247C17.7083 11.6941 17.9028 11.7705 18.0833 11.8538C18.2778 11.9372 18.4722 12.0275 18.6667 12.1247C19.0833 12.333 19.4097 12.6386 19.6458 13.0413C19.8819 13.4441 20 13.8816 20 14.3538V16.6663H17.5Z" fill="#6200EE"/>
</svg>
