<svg width="20" height="20" viewBox="0 0 20 20" fill="none" xmlns="http://www.w3.org/2000/svg">
<g clip-path="url(#clip0_994_185537)">
<path d="M0 18V15.225C0 14.6583 0.141667 14.1333 0.425 13.65C0.708333 13.1667 1.1 12.8 1.6 12.55C1.83333 12.4333 2.05833 12.325 2.275 12.225C2.50833 12.125 2.75 12.0333 3 11.95V18H0ZM4 11C3.16667 11 2.45833 10.7083 1.875 10.125C1.29167 9.54167 1 8.83333 1 8C1 7.16667 1.29167 6.45833 1.875 5.875C2.45833 5.29167 3.16667 5 4 5C4.83333 5 5.54167 5.29167 6.125 5.875C6.70833 6.45833 7 7.16667 7 8C7 8.83333 6.70833 9.54167 6.125 10.125C5.54167 10.7083 4.83333 11 4 11ZM4 9C4.28333 9 4.51667 8.90833 4.7 8.725C4.9 8.525 5 8.28333 5 8C5 7.71667 4.9 7.48333 4.7 7.3C4.51667 7.1 4.28333 7 4 7C3.71667 7 3.475 7.1 3.275 7.3C3.09167 7.48333 3 7.71667 3 8C3 8.28333 3.09167 8.525 3.275 8.725C3.475 8.90833 3.71667 9 4 9ZM4 18V15.2C4 14.6333 4.14167 14.1167 4.425 13.65C4.725 13.1667 5.11667 12.8 5.6 12.55C6.63333 12.0333 7.68333 11.65 8.75 11.4C9.81667 11.1333 10.9 11 12 11C13.1 11 14.1833 11.1333 15.25 11.4C16.3167 11.65 17.3667 12.0333 18.4 12.55C18.8833 12.8 19.2667 13.1667 19.55 13.65C19.85 14.1167 20 14.6333 20 15.2V18H4ZM6 16H18V15.2C18 15.0167 17.95 14.85 17.85 14.7C17.7667 14.55 17.65 14.4333 17.5 14.35C16.6 13.9 15.6917 13.5667 14.775 13.35C13.8583 13.1167 12.9333 13 12 13C11.0667 13 10.1417 13.1167 9.225 13.35C8.30833 13.5667 7.4 13.9 6.5 14.35C6.35 14.4333 6.225 14.55 6.125 14.7C6.04167 14.85 6 15.0167 6 15.2V16ZM12 10C10.9 10 9.95833 9.60833 9.175 8.825C8.39167 8.04167 8 7.1 8 6C8 4.9 8.39167 3.95833 9.175 3.175C9.95833 2.39167 10.9 2 12 2C13.1 2 14.0417 2.39167 14.825 3.175C15.6083 3.95833 16 4.9 16 6C16 7.1 15.6083 8.04167 14.825 8.825C14.0417 9.60833 13.1 10 12 10ZM12 8C12.55 8 13.0167 7.80833 13.4 7.425C13.8 7.025 14 6.55 14 6C14 5.45 13.8 4.98333 13.4 4.6C13.0167 4.2 12.55 4 12 4C11.45 4 10.975 4.2 10.575 4.6C10.1917 4.98333 10 5.45 10 6C10 6.55 10.1917 7.025 10.575 7.425C10.975 7.80833 11.45 8 12 8ZM20 11C19.1667 11 18.4583 10.7083 17.875 10.125C17.2917 9.54167 17 8.83333 17 8C17 7.16667 17.2917 6.45833 17.875 5.875C18.4583 5.29167 19.1667 5 20 5C20.8333 5 21.5417 5.29167 22.125 5.875C22.7083 6.45833 23 7.16667 23 8C23 8.83333 22.7083 9.54167 22.125 10.125C21.5417 10.7083 20.8333 11 20 11ZM20 9C20.2833 9 20.5167 8.90833 20.7 8.725C20.9 8.525 21 8.28333 21 8C21 7.71667 20.9 7.48333 20.7 7.3C20.5167 7.1 20.2833 7 20 7C19.7167 7 19.475 7.1 19.275 7.3C19.0917 7.48333 19 7.71667 19 8C19 8.28333 19.0917 8.525 19.275 8.725C19.475 8.90833 19.7167 9 20 9ZM21 18V11.95C21.25 12.0333 21.4833 12.125 21.7 12.225C21.9333 12.325 22.1667 12.4333 22.4 12.55C22.9 12.8 23.2917 13.1667 23.575 13.65C23.8583 14.1333 24 14.6583 24 15.225V18H21Z" fill="#666666"/>
</g>
<defs>
<clipPath id="clip0_994_185537">
<rect width="20" height="20" fill="white"/>
</clipPath>
</defs>
</svg>
