<svg width="101" height="68" viewBox="0 0 101 68" fill="none" xmlns="http://www.w3.org/2000/svg">
<path d="M0.5 67.3327V55.7702C0.5 53.4091 1.09028 51.2216 2.27083 49.2077C3.45139 47.1938 5.08333 45.666 7.16667 44.6243C8.13889 44.1382 9.07639 43.6868 9.97917 43.2702C10.9514 42.8535 11.9583 42.4716 13 42.1244V67.3327H0.5ZM17.1667 38.166C13.6944 38.166 10.7431 36.9507 8.3125 34.5202C5.88194 32.0896 4.66667 29.1382 4.66667 25.666C4.66667 22.1938 5.88194 19.2424 8.3125 16.8118C10.7431 14.3813 13.6944 13.166 17.1667 13.166C20.6389 13.166 23.5903 14.3813 26.0208 16.8118C28.4514 19.2424 29.6667 22.1938 29.6667 25.666C29.6667 29.1382 28.4514 32.0896 26.0208 34.5202C23.5903 36.9507 20.6389 38.166 17.1667 38.166ZM17.1667 29.8327C18.3472 29.8327 19.3194 29.4507 20.0833 28.6868C20.9167 27.8535 21.3333 26.8466 21.3333 25.666C21.3333 24.4855 20.9167 23.5132 20.0833 22.7493C19.3194 21.916 18.3472 21.4993 17.1667 21.4993C15.9861 21.4993 14.9792 21.916 14.1458 22.7493C13.3819 23.5132 13 24.4855 13 25.666C13 26.8466 13.3819 27.8535 14.1458 28.6868C14.9792 29.4507 15.9861 29.8327 17.1667 29.8327ZM17.1667 67.3327V55.666C17.1667 53.3049 17.7569 51.1521 18.9375 49.2077C20.1875 47.1938 21.8194 45.666 23.8333 44.6243C28.1389 42.4716 32.5139 40.8744 36.9583 39.8327C41.4028 38.7216 45.9167 38.166 50.5 38.166C55.0833 38.166 59.5972 38.7216 64.0417 39.8327C68.4861 40.8744 72.8611 42.4716 77.1667 44.6243C79.1806 45.666 80.7778 47.1938 81.9583 49.2077C83.2083 51.1521 83.8333 53.3049 83.8333 55.666V67.3327H17.1667ZM25.5 58.9994H75.5V55.666C75.5 54.9021 75.2917 54.2077 74.875 53.5827C74.5278 52.9577 74.0417 52.4716 73.4167 52.1243C69.6667 50.2493 65.8819 48.8605 62.0625 47.9577C58.2431 46.9855 54.3889 46.4993 50.5 46.4993C46.6111 46.4993 42.7569 46.9855 38.9375 47.9577C35.1181 48.8605 31.3333 50.2493 27.5833 52.1243C26.9583 52.4716 26.4375 52.9577 26.0208 53.5827C25.6736 54.2077 25.5 54.9021 25.5 55.666V58.9994ZM50.5 33.9994C45.9167 33.9994 41.9931 32.3674 38.7292 29.1035C35.4653 25.8396 33.8333 21.916 33.8333 17.3327C33.8333 12.7493 35.4653 8.82574 38.7292 5.56185C41.9931 2.29796 45.9167 0.666016 50.5 0.666016C55.0833 0.666016 59.0069 2.29796 62.2708 5.56185C65.5347 8.82574 67.1667 12.7493 67.1667 17.3327C67.1667 21.916 65.5347 25.8396 62.2708 29.1035C59.0069 32.3674 55.0833 33.9994 50.5 33.9994ZM50.5 25.666C52.7917 25.666 54.7361 24.8674 56.3333 23.2702C58 21.6035 58.8333 19.6244 58.8333 17.3327C58.8333 15.041 58 13.0966 56.3333 11.4994C54.7361 9.83268 52.7917 8.99935 50.5 8.99935C48.2083 8.99935 46.2292 9.83268 44.5625 11.4994C42.9653 13.0966 42.1667 15.041 42.1667 17.3327C42.1667 19.6244 42.9653 21.6035 44.5625 23.2702C46.2292 24.8674 48.2083 25.666 50.5 25.666ZM83.8333 38.166C80.3611 38.166 77.4097 36.9507 74.9792 34.5202C72.5486 32.0896 71.3333 29.1382 71.3333 25.666C71.3333 22.1938 72.5486 19.2424 74.9792 16.8118C77.4097 14.3813 80.3611 13.166 83.8333 13.166C87.3055 13.166 90.2569 14.3813 92.6875 16.8118C95.1181 19.2424 96.3333 22.1938 96.3333 25.666C96.3333 29.1382 95.1181 32.0896 92.6875 34.5202C90.2569 36.9507 87.3055 38.166 83.8333 38.166ZM83.8333 29.8327C85.0139 29.8327 85.9861 29.4507 86.75 28.6868C87.5833 27.8535 88 26.8466 88 25.666C88 24.4855 87.5833 23.5132 86.75 22.7493C85.9861 21.916 85.0139 21.4993 83.8333 21.4993C82.6528 21.4993 81.6458 21.916 80.8125 22.7493C80.0486 23.5132 79.6667 24.4855 79.6667 25.666C79.6667 26.8466 80.0486 27.8535 80.8125 28.6868C81.6458 29.4507 82.6528 29.8327 83.8333 29.8327ZM88 67.3327V42.1244C89.0417 42.4716 90.0139 42.8535 90.9167 43.2702C91.8889 43.6868 92.8611 44.1382 93.8333 44.6243C95.9167 45.666 97.5486 47.1938 98.7292 49.2077C99.9097 51.2216 100.5 53.4091 100.5 55.7702V67.3327H88Z" fill="#6200EE"/>
</svg>
