<svg width="100" height="100" viewBox="0 0 100 100" fill="none" xmlns="http://www.w3.org/2000/svg">
<path d="M28.125 40.625C28.125 39.7962 28.4542 39.0013 29.0403 38.4153C29.6263 37.8292 30.4212 37.5 31.25 37.5H68.75C69.5788 37.5 70.3737 37.8292 70.9597 38.4153C71.5458 39.0013 71.875 39.7962 71.875 40.625C71.875 41.4538 71.5458 42.2487 70.9597 42.8347C70.3737 43.4208 69.5788 43.75 68.75 43.75H31.25C30.4212 43.75 29.6263 43.4208 29.0403 42.8347C28.4542 42.2487 28.125 41.4538 28.125 40.625ZM31.25 56.25H68.75C69.5788 56.25 70.3737 55.9208 70.9597 55.3347C71.5458 54.7487 71.875 53.9538 71.875 53.125C71.875 52.2962 71.5458 51.5013 70.9597 50.9153C70.3737 50.3292 69.5788 50 68.75 50H31.25C30.4212 50 29.6263 50.3292 29.0403 50.9153C28.4542 51.5013 28.125 52.2962 28.125 53.125C28.125 53.9538 28.4542 54.7487 29.0403 55.3347C29.6263 55.9208 30.4212 56.25 31.25 56.25ZM90.625 21.875V81.25C90.6247 81.7826 90.4883 82.3063 90.2287 82.7714C89.9691 83.2365 89.595 83.6275 89.1418 83.9073C88.6886 84.1871 88.1714 84.3465 87.6393 84.3702C87.1072 84.394 86.5779 84.2813 86.1016 84.043L75 78.4922L63.8984 84.043C63.4643 84.2602 62.9855 84.3733 62.5 84.3733C62.0145 84.3733 61.5357 84.2602 61.1016 84.043L50 78.4922L38.8984 84.043C38.4643 84.2602 37.9855 84.3733 37.5 84.3733C37.0145 84.3733 36.5357 84.2602 36.1016 84.043L25 78.4922L13.8984 84.043C13.4221 84.2813 12.8928 84.394 12.3607 84.3702C11.8286 84.3465 11.3114 84.1871 10.8582 83.9073C10.405 83.6275 10.0309 83.2365 9.77129 82.7714C9.5117 82.3063 9.37528 81.7826 9.375 81.25V21.875C9.375 20.2174 10.0335 18.6277 11.2056 17.4556C12.3777 16.2835 13.9674 15.625 15.625 15.625H84.375C86.0326 15.625 87.6223 16.2835 88.7944 17.4556C89.9665 18.6277 90.625 20.2174 90.625 21.875ZM84.375 21.875H15.625V76.1953L23.6016 72.2031C24.0357 71.9859 24.5145 71.8728 25 71.8728C25.4855 71.8728 25.9643 71.9859 26.3984 72.2031L37.5 77.7578L48.6016 72.2031C49.0357 71.9859 49.5145 71.8728 50 71.8728C50.4855 71.8728 50.9643 71.9859 51.3984 72.2031L62.5 77.7578L73.6016 72.2031C74.0357 71.9859 74.5145 71.8728 75 71.8728C75.4855 71.8728 75.9643 71.9859 76.3984 72.2031L84.375 76.1953V21.875Z" fill="#8133F1"/>
</svg>
