<svg width="101" height="100" viewBox="0 0 101 100" fill="none" xmlns="http://www.w3.org/2000/svg">
<path d="M87.1406 68.7266C84.9726 64.9922 81.75 54.4258 81.75 40.625C81.75 32.337 78.4576 24.3884 72.5971 18.5279C66.7366 12.6674 58.788 9.375 50.5 9.375C42.212 9.375 34.2634 12.6674 28.4029 18.5279C22.5424 24.3884 19.25 32.337 19.25 40.625C19.25 54.4297 16.0234 64.9922 13.8555 68.7266C13.3018 69.6759 13.0083 70.7545 13.0046 71.8535C13.0008 72.9526 13.2869 74.0331 13.834 74.9863C14.3811 75.9395 15.1698 76.7315 16.1207 77.2826C17.0716 77.8336 18.151 78.1242 19.25 78.125H35.1914C35.9124 81.653 37.8298 84.8236 40.6193 87.1007C43.4088 89.3778 46.8991 90.6215 50.5 90.6215C54.1009 90.6215 57.5912 89.3778 60.3807 87.1007C63.1702 84.8236 65.0876 81.653 65.8086 78.125H81.75C82.8487 78.1235 83.9276 77.8324 84.8779 77.2811C85.8282 76.7298 86.6164 75.9377 87.1631 74.9846C87.7097 74.0316 87.9955 72.9513 87.9915 71.8526C87.9876 70.7539 87.6941 69.6757 87.1406 68.7266ZM50.5 84.375C48.5618 84.3744 46.6714 83.7731 45.089 82.6538C43.5067 81.5346 42.3101 79.9524 41.6641 78.125H59.3359C58.6899 79.9524 57.4933 81.5346 55.9109 82.6538C54.3286 83.7731 52.4382 84.3744 50.5 84.375ZM19.25 71.875C22.2578 66.7031 25.5 54.7188 25.5 40.625C25.5 33.9946 28.1339 27.6357 32.8223 22.9473C37.5107 18.2589 43.8696 15.625 50.5 15.625C57.1304 15.625 63.4893 18.2589 68.1777 22.9473C72.8661 27.6357 75.5 33.9946 75.5 40.625C75.5 54.707 78.7344 66.6914 81.75 71.875H19.25Z" fill="#8133F1"/>
</svg>
