<svg width="14" height="25" viewBox="0 0 14 25" fill="none" xmlns="http://www.w3.org/2000/svg">
<path d="M7.5727 10.645V0.581055C7.04701 0.581055 6.4544 1.36269 6.2238 1.75351L1.82605 1.98497C2.21181 3.47293 4.95497 3.87467 6.2238 3.80579V4.71001L2.20594 5.01854C2.40345 6.253 4.96877 6.68106 6.2238 6.69134L6.17488 10.6508C6.41408 10.6257 6.65691 10.6129 6.90275 10.6129C7.12876 10.6129 7.35225 10.6238 7.5727 10.645Z" fill="#9900CC"/>
<mask id="mask0_1575_50298" style="mask-type:alpha" maskUnits="userSpaceOnUse" x="0" y="10" width="14" height="15">
<path fill-rule="evenodd" clip-rule="evenodd" d="M6.90275 24.419C10.715 24.419 13.8055 21.3286 13.8055 17.5163C13.8055 13.704 10.715 10.6135 6.90275 10.6135C3.09046 10.6135 0 13.704 0 17.5163C0 21.3286 3.09046 24.419 6.90275 24.419ZM6.90275 22.0427C9.40261 22.0427 11.4291 20.0161 11.4291 17.5163C11.4291 15.0164 9.40261 12.9899 6.90275 12.9899C4.40289 12.9899 2.37636 15.0164 2.37636 17.5163C2.37636 20.0161 4.40289 22.0427 6.90275 22.0427Z" fill="#9900CC"/>
</mask>
<g mask="url(#mask0_1575_50298)">
<rect x="-1.44336" y="19.1196" width="22.2838" height="5.22276" transform="rotate(-30 -1.44336 19.1196)" fill="#ED1450"/>
<rect x="-4.57471" y="15.4898" width="22.2838" height="5.22276" transform="rotate(-30 -4.57471 15.4898)" fill="#9900CC"/>
<rect x="1.16797" y="23.6421" width="22.2838" height="5.22276" transform="rotate(-30 1.16797 23.6421)" fill="#FEA000"/>
</g>
</svg>
