<svg width="14" height="24" viewBox="0 0 14 24" fill="none" xmlns="http://www.w3.org/2000/svg">
<path d="M7.5727 10.146V0.0820312C7.04701 0.0820312 6.4544 0.863666 6.2238 1.25448L1.82605 1.48594C2.21181 2.97391 4.95497 3.37565 6.2238 3.30677V4.21098L2.20594 4.51952C2.40345 5.75397 4.96877 6.18203 6.2238 6.19232L6.17488 10.1518C6.41408 10.1267 6.65691 10.1139 6.90275 10.1139C7.12876 10.1139 7.35225 10.1247 7.5727 10.146Z" fill="#9900CC"/>
<mask id="mask0_2008_135196" style="mask-type:alpha" maskUnits="userSpaceOnUse" x="0" y="10" width="14" height="14">
<path fill-rule="evenodd" clip-rule="evenodd" d="M6.90275 23.9188C10.715 23.9188 13.8055 20.8283 13.8055 17.016C13.8055 13.2037 10.715 10.1133 6.90275 10.1133C3.09046 10.1133 0 13.2037 0 17.016C0 20.8283 3.09046 23.9188 6.90275 23.9188ZM6.90275 21.5424C9.40261 21.5424 11.4291 19.5159 11.4291 17.016C11.4291 14.5162 9.40261 12.4896 6.90275 12.4896C4.40289 12.4896 2.37636 14.5162 2.37636 17.016C2.37636 19.5159 4.40289 21.5424 6.90275 21.5424Z" fill="#9900CC"/>
</mask>
<g mask="url(#mask0_2008_135196)">
<rect x="-1.44336" y="18.6211" width="22.2838" height="5.22276" transform="rotate(-30 -1.44336 18.6211)" fill="#ED1450"/>
<rect x="-4.57471" y="14.9883" width="22.2838" height="5.22276" transform="rotate(-30 -4.57471 14.9883)" fill="#9900CC"/>
<rect x="1.16797" y="23.1406" width="22.2838" height="5.22276" transform="rotate(-30 1.16797 23.1406)" fill="#ED1450"/>
</g>
</svg>
