<svg width="18" height="20" viewBox="0 0 18 20" fill="none" xmlns="http://www.w3.org/2000/svg">
<path d="M17.7941 14.4944C17.2738 13.5981 16.5004 11.0622 16.5004 7.75C16.5004 5.76088 15.7102 3.85322 14.3037 2.4467C12.8972 1.04018 10.9895 0.25 9.00038 0.25C7.01125 0.25 5.1036 1.04018 3.69708 2.4467C2.29055 3.85322 1.50038 5.76088 1.50038 7.75C1.50038 11.0631 0.726003 13.5981 0.205691 14.4944C0.0728193 14.7222 0.00237918 14.9811 0.00147369 15.2449C0.000568188 15.5086 0.0692295 15.768 0.200533 15.9967C0.331837 16.2255 0.52114 16.4156 0.749352 16.5478C0.977564 16.6801 1.23661 16.7498 1.50038 16.75H5.32632C5.49935 17.5967 5.95953 18.3577 6.629 18.9042C7.29848 19.4507 8.13617 19.7492 9.00038 19.7492C9.86459 19.7492 10.7023 19.4507 11.3718 18.9042C12.0412 18.3577 12.5014 17.5967 12.6744 16.75H16.5004C16.7641 16.7496 17.023 16.6798 17.2511 16.5475C17.4792 16.4151 17.6683 16.225 17.7995 15.9963C17.9307 15.7676 17.9993 15.5083 17.9983 15.2446C17.9974 14.9809 17.927 14.7222 17.7941 14.4944ZM9.00038 18.25C8.53521 18.2499 8.08152 18.1055 7.70175 17.8369C7.32198 17.5683 7.03481 17.1886 6.87975 16.75H11.121C10.9659 17.1886 10.6788 17.5683 10.299 17.8369C9.91924 18.1055 9.46555 18.2499 9.00038 18.25ZM1.50038 15.25C2.22225 14.0087 3.00038 11.1325 3.00038 7.75C3.00038 6.1587 3.63252 4.63258 4.75774 3.50736C5.88296 2.38214 7.40908 1.75 9.00038 1.75C10.5917 1.75 12.1178 2.38214 13.243 3.50736C14.3682 4.63258 15.0004 6.1587 15.0004 7.75C15.0004 11.1297 15.7766 14.0059 16.5004 15.25H1.50038Z" fill="#343330"/>
</svg>
