<svg width="199" height="112" viewBox="0 0 199 112" fill="none" xmlns="http://www.w3.org/2000/svg">
<g clip-path="url(#clip0_1666_52760)">
<path d="M223.527 40.6944C210.619 77.8555 168.545 97.0219 129.536 83.4719C90.5281 69.9219 69.396 28.8002 82.3043 -8.36083C95.2126 -45.5219 137.286 -64.6883 176.295 -51.1383C215.303 -37.5884 236.435 3.53332 223.527 40.6944Z" stroke="white" stroke-width="0.5"/>
<path d="M195.188 30.8505C182.28 68.0116 140.206 87.178 101.198 73.628C62.1892 60.078 41.0571 18.9564 53.9654 -18.2047C66.8737 -55.3658 108.948 -74.5322 147.956 -60.9822C186.964 -47.4322 208.096 -6.31055 195.188 30.8505Z" stroke="white" stroke-width="0.5"/>
<path d="M164.92 23.5125C152.012 60.6735 109.938 79.8399 70.9295 66.2899C31.9212 52.74 10.789 11.6183 23.6973 -25.5428C36.6056 -62.7039 78.6795 -81.8702 117.688 -68.3203C156.696 -54.7703 177.828 -13.6486 164.92 23.5125Z" stroke="white" stroke-width="0.5"/>
</g>
<defs>
<clipPath id="clip0_1666_52760">
<rect width="211" height="146" fill="white" transform="translate(47.9067 -96) rotate(19.1552)"/>
</clipPath>
</defs>
</svg>
