<svg width="120" height="24" viewBox="0 0 120 24" fill="none" xmlns="http://www.w3.org/2000/svg">
<path d="M7.46228 23.9998C6.2622 23.9998 5.08395 23.8361 3.92752 23.5088C2.77108 23.1816 1.82193 22.7124 1.08007 22.1015C0.360022 21.4905 0 20.7923 0 20.0068V16.5048H0.589127C0.960059 18.6867 1.6801 20.2686 2.74926 21.2505C3.81842 22.2106 5.29124 22.6906 7.16771 22.6906C8.34597 22.6906 9.34967 22.396 10.1788 21.8069C11.0298 21.2178 11.4553 20.3996 11.4553 19.3522C11.4553 18.4358 11.1716 17.6394 10.6043 16.963C10.037 16.2866 9.12056 15.5774 7.85503 14.8356L3.82933 12.4463C2.43288 11.6172 1.44009 10.7772 0.850962 9.92619C0.283654 9.07523 0 8.0388 0 6.81691C0 5.13681 0.578218 3.7949 1.73465 2.79121C2.91291 1.76569 4.45118 1.25293 6.34948 1.25293C7.46228 1.25293 8.56417 1.41658 9.65514 1.74387C10.7461 2.04934 11.6407 2.50755 12.3389 3.1185C13.059 3.70763 13.419 4.39494 13.419 5.18044V8.68248H12.8299C12.459 6.50053 11.7498 4.94043 10.7025 4.00219C9.67696 3.04213 8.22596 2.5621 6.34948 2.5621C5.34578 2.5621 4.46209 2.86758 3.69841 3.47852C2.93473 4.08947 2.55288 4.88588 2.55288 5.86776C2.55288 6.76236 2.82563 7.50422 3.37112 8.09335C3.93842 8.68248 4.87666 9.36979 6.18584 10.1553L10.2115 12.5445C11.6953 13.4391 12.7426 14.2683 13.3536 15.032C13.9645 15.7956 14.27 16.7666 14.27 17.9449C14.27 19.7777 13.659 21.2505 12.4371 22.3633C11.2152 23.4543 9.55695 23.9998 7.46228 23.9998Z" fill="black"/>
<path d="M20.0697 23.7707C19.3715 23.7707 18.6623 23.6289 17.9423 23.3452C17.2223 23.0397 16.6004 22.5488 16.0767 21.8724C15.5749 21.196 15.324 20.3014 15.324 19.1886C15.324 17.5303 16.0876 16.352 17.615 15.6538C19.1642 14.9556 21.1825 14.6065 23.6699 14.6065H24.6518C24.6518 12.4682 24.3572 11.0063 23.7681 10.2208C23.179 9.43525 22.328 9.0425 21.2152 9.0425C20.2333 9.0425 19.4478 9.24978 18.8587 9.66436C18.2696 10.0789 17.855 10.799 17.615 11.8245H16.1422C16.1422 11.0826 16.1858 10.5044 16.2731 10.0898C16.3604 9.65345 16.5895 9.24979 16.9604 8.87885C17.3532 8.4861 17.9968 8.20245 18.8914 8.02789C19.8079 7.83152 20.8007 7.73333 21.8698 7.73333C23.6372 7.73333 25.0336 8.21336 26.0592 9.17342C27.0847 10.1117 27.5974 11.9227 27.5974 14.6065V23.4434H25.961L24.8155 21.9706H24.6518C24.2591 22.4724 23.6808 22.8979 22.9172 23.247C22.1535 23.5961 21.2043 23.7707 20.0697 23.7707ZM21.5425 22.2979C22.2626 22.2979 22.8626 22.1233 23.3426 21.7742C23.8227 21.4251 24.2591 20.9451 24.6518 20.3341V15.9157H23.6699C22.0553 15.9157 20.7788 16.2211 19.8406 16.8321C18.9024 17.4212 18.4332 18.2067 18.4332 19.1886C18.4332 20.1923 18.7278 20.9669 19.3169 21.5124C19.9279 22.036 20.6697 22.2979 21.5425 22.2979Z" fill="black"/>
<path d="M31.089 11.8245C30.5653 10.6026 30.0635 9.75163 29.5834 9.27161C29.1034 8.76976 28.4706 8.49701 27.6851 8.45337V7.79879C27.7942 7.79879 27.947 7.78788 28.1434 7.76606C28.3615 7.74424 28.5797 7.73333 28.7979 7.73333C29.9544 7.73333 31.0017 8.02789 31.94 8.61702C32.8782 9.18433 33.6855 10.2535 34.3619 11.8245L37.3076 18.8613L41.8897 8.06062H43.5261L36.8166 23.7707H36.162L31.089 11.8245Z" fill="black"/>
<path d="M50.5714 23.7707C49.0876 23.7707 47.833 23.4216 46.8075 22.7233C45.782 22.0033 45.0074 21.0432 44.4837 19.8432C43.96 18.6213 43.6982 17.2576 43.6982 15.752C43.6982 14.2683 43.96 12.9155 44.4837 11.6936C45.0074 10.4717 45.7602 9.51162 46.742 8.8134C47.7457 8.09335 48.9131 7.73333 50.2441 7.73333C52.4478 7.73333 54.0843 8.35519 55.1535 9.5989C56.2444 10.8208 56.7899 12.5991 56.7899 14.9338L56.7245 16.2429H46.8075C46.8075 18.0758 47.2002 19.5704 47.9857 20.7269C48.7712 21.8833 49.8513 22.4615 51.2259 22.4615C52.2515 22.4615 53.1133 22.2433 53.8116 21.8069C54.5316 21.3705 55.1971 20.7159 55.808 19.8432L56.4626 20.3341C55.7426 21.5342 54.9025 22.407 53.9425 22.9524C52.9824 23.4979 51.8587 23.7707 50.5714 23.7707ZM53.6806 14.9338C53.6806 13.0137 53.397 11.5517 52.8297 10.548C52.2624 9.54435 51.4005 9.0425 50.2441 9.0425C49.5895 9.0425 49.0003 9.30433 48.4767 9.828C47.953 10.3299 47.5384 11.0281 47.233 11.9227C46.9493 12.8173 46.8075 13.821 46.8075 14.9338H53.6806Z" fill="black"/>
<path d="M63.4759 23.7707C62.254 23.7707 61.2939 23.4216 60.5957 22.7233C59.8975 22.0251 59.5484 20.956 59.5484 19.5159V9.36979H57.2573V8.06062H59.5484V5.11499L61.1848 3.15123H62.494V8.06062H66.4215V9.36979H62.494V19.5159C62.494 21.4796 63.2577 22.4615 64.7851 22.4615C65.3087 22.4615 65.7451 22.407 66.0942 22.2979C66.4652 22.1888 66.847 22.0251 67.2398 21.8069L67.5671 22.4615C67.0652 22.8324 66.5088 23.1488 65.8979 23.4107C65.2869 23.6507 64.4796 23.7707 63.4759 23.7707Z" fill="black"/>
<path d="M107.022 11.9881C107.022 10.8753 106.869 10.0571 106.564 9.53344C106.258 8.98795 105.647 8.71521 104.731 8.71521H104.076V8.06062H107.022C107.829 8.06062 108.44 8.16972 108.855 8.38792C109.291 8.60611 109.608 8.9334 109.804 9.36979H109.968C110.426 8.91158 111.015 8.52974 111.735 8.22427C112.477 7.89698 113.306 7.73333 114.222 7.73333C115.859 7.73333 117.19 8.16972 118.215 9.0425C119.263 9.91528 119.786 11.4426 119.786 13.6246V23.4434H116.841V13.6246C116.841 12.0972 116.492 10.9844 115.793 10.2862C115.117 9.56617 114.266 9.20615 113.241 9.20615C112.084 9.20615 110.993 9.78436 109.968 10.9408V23.4434H107.022V11.9881Z" fill="black"/>
<path d="M101.683 11.9775C102.173 10.7837 102.664 9.95233 103.154 9.48334C103.623 8.99304 104.252 8.72658 105.041 8.68394V8.04442C104.934 8.04442 104.774 8.03376 104.561 8.01244C104.348 7.99113 104.135 7.98047 103.921 7.98047C102.77 7.98047 101.758 8.27891 100.884 8.8758C99.9883 9.45137 99.2422 10.4853 98.6453 11.9775L95.9273 18.6925L93.2094 11.8176C93.721 10.6878 94.2113 9.89903 94.6803 9.45137C95.1279 8.98239 95.7035 8.72658 96.407 8.68394V8.04442C96.3004 8.04442 96.1405 8.03376 95.9273 8.01244C95.7142 7.99113 95.501 7.98047 95.2878 7.98047C94.1367 7.98047 93.1241 8.27891 92.2501 8.8758C91.3548 9.45137 90.6087 10.4853 90.0118 11.9775L87.2938 18.6925L83.1369 8.30023H81.5381L87.7734 23.6487H88.413L92.41 13.7362L96.407 23.6487H97.0465L101.683 11.9775Z" fill="black"/>
<path d="M75.3046 10.0639V0C74.7789 0 74.1863 0.781635 73.9557 1.17245L69.558 1.40391C69.9437 2.89188 72.6869 3.29362 73.9557 3.22474V4.12895L69.9379 4.43748C70.1354 5.67194 72.7007 6.1 73.9557 6.11029L73.9068 10.0698C74.146 10.0447 74.3888 10.0318 74.6347 10.0318C74.8607 10.0318 75.0842 10.0427 75.3046 10.0639Z" fill="#9900CC"/>
<mask id="mask0_116_5086" style="mask-type:alpha" maskUnits="userSpaceOnUse" x="67" y="10" width="15" height="14">
<path fill-rule="evenodd" clip-rule="evenodd" d="M74.6347 23.8377C78.447 23.8377 81.5374 20.7473 81.5374 16.935C81.5374 13.1227 78.447 10.0322 74.6347 10.0322C70.8224 10.0322 67.7319 13.1227 67.7319 16.935C67.7319 20.7473 70.8224 23.8377 74.6347 23.8377ZM74.6347 21.4614C77.1345 21.4614 79.1611 19.4348 79.1611 16.935C79.1611 14.4351 77.1345 12.4086 74.6347 12.4086C72.1348 12.4086 70.1083 14.4351 70.1083 16.935C70.1083 19.4348 72.1348 21.4614 74.6347 21.4614Z" fill="#9900CC"/>
</mask>
<g mask="url(#mask0_116_5086)">
<rect x="66.2886" y="18.5381" width="22.2838" height="5.22276" transform="rotate(-30 66.2886 18.5381)" fill="#ED1450"/>
<rect x="63.1572" y="14.9082" width="22.2838" height="5.22276" transform="rotate(-30 63.1572 14.9082)" fill="#9900CC"/>
<rect x="68.8999" y="23.0605" width="22.2838" height="5.22276" transform="rotate(-30 68.8999 23.0605)" fill="#FEA000"/>
</g>
</svg>
