<svg width="20" height="20" viewBox="0 0 20 20" fill="none" xmlns="http://www.w3.org/2000/svg">
<path d="M15 9.06543C15 9.25085 14.945 9.43211 14.842 9.58628C14.739 9.74045 14.5926 9.86061 14.4213 9.93157C14.25 10.0025 14.0615 10.0211 13.8796 9.98492C13.6977 9.94874 13.5307 9.85945 13.3996 9.72834C13.2685 9.59723 13.1792 9.43018 13.143 9.24833C13.1068 9.06647 13.1254 8.87797 13.1964 8.70666C13.2673 8.53536 13.3875 8.38894 13.5417 8.28593C13.6958 8.18291 13.8771 8.12793 14.0625 8.12793C14.3111 8.12793 14.5496 8.2267 14.7254 8.40252C14.9012 8.57833 15 8.81679 15 9.06543ZM11.875 5.00293H8.75C8.58424 5.00293 8.42527 5.06878 8.30806 5.18599C8.19085 5.3032 8.125 5.46217 8.125 5.62793C8.125 5.79369 8.19085 5.95266 8.30806 6.06987C8.42527 6.18708 8.58424 6.25293 8.75 6.25293H11.875C12.0408 6.25293 12.1997 6.18708 12.3169 6.06987C12.4342 5.95266 12.5 5.79369 12.5 5.62793C12.5 5.46217 12.4342 5.3032 12.3169 5.18599C12.1997 5.06878 12.0408 5.00293 11.875 5.00293ZM19.375 8.75293V11.2529C19.375 11.7502 19.1775 12.2271 18.8258 12.5788C18.4742 12.9304 17.9973 13.1279 17.5 13.1279H17.3156L16.0492 16.6732C15.9625 16.9161 15.8028 17.1262 15.5921 17.2747C15.3813 17.4232 15.1297 17.503 14.8719 17.5029H13.8781C13.6203 17.503 13.3687 17.4232 13.1579 17.2747C12.9472 17.1262 12.7875 16.9161 12.7008 16.6732L12.5508 16.2529H8.07422L7.92422 16.6732C7.83752 16.9161 7.67783 17.1262 7.46706 17.2747C7.25628 17.4232 7.00473 17.503 6.74687 17.5029H5.75313C5.49527 17.503 5.24372 17.4232 5.03294 17.2747C4.82217 17.1262 4.66248 16.9161 4.57578 16.6732L3.59375 13.9264C2.65952 12.869 2.07454 11.549 1.91875 10.1467C1.71705 10.2526 1.54814 10.4117 1.43027 10.6066C1.31241 10.8016 1.25007 11.0251 1.25 11.2529C1.25 11.4187 1.18415 11.5777 1.06694 11.6949C0.949732 11.8121 0.79076 11.8779 0.625 11.8779C0.45924 11.8779 0.300269 11.8121 0.183058 11.6949C0.065848 11.5777 0 11.4187 0 11.2529C0.000954983 10.6956 0.188143 10.1545 0.531823 9.71569C0.875504 9.27689 1.35597 8.96552 1.89688 8.83105C2.0365 7.10865 2.81877 5.50175 4.08835 4.32943C5.35792 3.15711 7.02195 2.50512 8.75 2.50293H16.875C17.0408 2.50293 17.1997 2.56878 17.3169 2.68599C17.4342 2.8032 17.5 2.96217 17.5 3.12793C17.5 3.29369 17.4342 3.45266 17.3169 3.56987C17.1997 3.68708 17.0408 3.75293 16.875 3.75293H15.2039C16.2411 4.48066 17.0569 5.48108 17.5609 6.64355C17.5945 6.72168 17.6273 6.7998 17.6586 6.87793C18.1279 6.91776 18.565 7.13276 18.883 7.48017C19.2011 7.82757 19.3767 8.28194 19.375 8.75293ZM18.125 8.75293C18.125 8.58717 18.0592 8.4282 17.9419 8.31099C17.8247 8.19378 17.6658 8.12793 17.5 8.12793H17.2141C17.081 8.12807 16.9513 8.08571 16.8439 8.00702C16.7366 7.92832 16.6571 7.81741 16.6172 7.69043C16.2591 6.54772 15.5452 5.54935 14.5797 4.84101C13.6141 4.13267 12.4475 3.75143 11.25 3.75293H8.75C7.65837 3.75287 6.59031 4.07045 5.67607 4.66695C4.76182 5.26344 4.04089 6.11307 3.60119 7.11222C3.16149 8.11138 3.02203 9.21689 3.19979 10.2939C3.37756 11.371 3.86489 12.3731 4.60234 13.1779C4.65874 13.2393 4.7023 13.3112 4.73047 13.3896L5.75313 16.2529H6.74687L7.04531 15.4178C7.08864 15.2964 7.16842 15.1914 7.27373 15.1172C7.37904 15.0429 7.50473 15.003 7.63359 15.0029H12.9914C13.1203 15.003 13.246 15.0429 13.3513 15.1172C13.4566 15.1914 13.5364 15.2964 13.5797 15.4178L13.8781 16.2529H14.8719L16.2867 12.2928C16.33 12.1714 16.4098 12.0664 16.5151 11.9922C16.6204 11.9179 16.7461 11.878 16.875 11.8779H17.5C17.6658 11.8779 17.8247 11.8121 17.9419 11.6949C18.0592 11.5777 18.125 11.4187 18.125 11.2529V8.75293Z" fill="black" fill-opacity="0.5"/>
</svg>
