<svg width="20" height="20" viewBox="0 0 20 20" fill="none" xmlns="http://www.w3.org/2000/svg">
<path d="M17.6562 6.88184C17.625 6.80371 17.5922 6.72559 17.5586 6.64746C17.0545 5.48499 16.2388 4.48457 15.2016 3.75684H16.875C17.0408 3.75684 17.1997 3.69099 17.3169 3.57378C17.4342 3.45657 17.5 3.2976 17.5 3.13184C17.5 2.96608 17.4342 2.8071 17.3169 2.68989C17.1997 2.57268 17.0408 2.50684 16.875 2.50684H8.75C7.02195 2.50903 5.35792 3.16102 4.08835 4.33334C2.81877 5.50566 2.0365 7.11256 1.89688 8.83496C1.357 8.96916 0.877312 9.2796 0.533741 9.71713C0.190169 10.1547 0.00234494 10.6943 0 11.2506C0 11.4163 0.065848 11.5753 0.183058 11.6925C0.300269 11.8097 0.45924 11.8756 0.625 11.8756C0.79076 11.8756 0.949732 11.8097 1.06694 11.6925C1.18415 11.5753 1.25 11.4163 1.25 11.2506C1.25015 11.0227 1.3126 10.7991 1.43061 10.6042C1.54861 10.4092 1.71768 10.2502 1.91953 10.1443C2.0751 11.5466 2.6598 12.8666 3.59375 13.924L4.575 16.6709C4.66175 16.9139 4.82155 17.124 5.03248 17.2726C5.24341 17.4211 5.49514 17.5008 5.75313 17.5006H6.74687C7.00473 17.5006 7.25628 17.4209 7.46706 17.2724C7.67783 17.1238 7.83752 16.9137 7.92422 16.6709L8.07422 16.2506H12.5508L12.7008 16.6709C12.7875 16.9137 12.9472 17.1238 13.1579 17.2724C13.3687 17.4209 13.6203 17.5006 13.8781 17.5006H14.8719C15.1297 17.5006 15.3813 17.4209 15.5921 17.2724C15.8028 17.1238 15.9625 16.9137 16.0492 16.6709L17.3156 13.1256H17.5C17.9973 13.1256 18.4742 12.928 18.8258 12.5764C19.1775 12.2248 19.375 11.7479 19.375 11.2506V8.75059C19.3751 8.28031 19.1984 7.82717 18.8801 7.48103C18.5617 7.13489 18.1249 6.92103 17.6562 6.88184ZM11.875 5.62559H8.75C8.58424 5.62559 8.42527 5.55974 8.30806 5.44253C8.19085 5.32532 8.125 5.16635 8.125 5.00059C8.125 4.83483 8.19085 4.67585 8.30806 4.55864C8.42527 4.44143 8.58424 4.37559 8.75 4.37559H11.875C12.0408 4.37559 12.1997 4.44143 12.3169 4.55864C12.4342 4.67585 12.5 4.83483 12.5 5.00059C12.5 5.16635 12.4342 5.32532 12.3169 5.44253C12.1997 5.55974 12.0408 5.62559 11.875 5.62559ZM14.0625 10.0006C13.8771 10.0006 13.6958 9.9456 13.5417 9.84259C13.3875 9.73957 13.2673 9.59316 13.1964 9.42185C13.1254 9.25055 13.1068 9.06205 13.143 8.88019C13.1792 8.69833 13.2685 8.53128 13.3996 8.40017C13.5307 8.26906 13.6977 8.17977 13.8796 8.1436C14.0615 8.10743 14.25 8.12599 14.4213 8.19695C14.5926 8.26791 14.739 8.38807 14.842 8.54224C14.945 8.69641 15 8.87767 15 9.06309C15 9.31173 14.9012 9.55018 14.7254 9.726C14.5496 9.90181 14.3111 10.0006 14.0625 10.0006Z" fill="#ED1450"/>
</svg>
