<svg width="20" height="20" viewBox="0 0 20 20" fill="none" xmlns="http://www.w3.org/2000/svg">
<path d="M18.5892 8.37544C18.5718 8.28743 18.5357 8.2042 18.4832 8.1314C18.4308 8.05861 18.3633 7.99795 18.2853 7.95357L15.9548 6.62544L15.9455 3.99888C15.9452 3.90842 15.9253 3.8191 15.8871 3.73709C15.8489 3.65508 15.7934 3.58234 15.7244 3.52388C14.879 2.8088 13.9055 2.2608 12.8556 1.90903C12.7729 1.88105 12.6853 1.87069 12.5984 1.87863C12.5115 1.88657 12.4272 1.91263 12.3509 1.95513L10.0001 3.26919L7.64702 1.95278C7.57074 1.91005 7.48633 1.88379 7.39926 1.87572C7.31219 1.86764 7.2244 1.87793 7.14155 1.90591C6.09231 2.25994 5.11987 2.81005 4.27593 3.527C4.207 3.58538 4.15154 3.658 4.11337 3.73986C4.0752 3.82173 4.05523 3.9109 4.05484 4.00122L4.04312 6.63013L1.71265 7.95825C1.63468 8.00264 1.56718 8.06329 1.51474 8.13609C1.4623 8.20888 1.42615 8.29212 1.40874 8.38013C1.19546 9.45191 1.19546 10.5552 1.40874 11.627C1.42615 11.715 1.4623 11.7982 1.51474 11.871C1.56718 11.9438 1.63468 12.0045 1.71265 12.0489L4.04312 13.377L4.05249 16.0043C4.05278 16.0948 4.07269 16.1841 4.11086 16.2661C4.14904 16.3481 4.20455 16.4209 4.27359 16.4793C5.11895 17.1944 6.09246 17.7424 7.14234 18.0942C7.22501 18.1222 7.31264 18.1325 7.39956 18.1246C7.48649 18.1167 7.57078 18.0906 7.64702 18.0481L10.0001 16.7301L12.3533 18.0465C12.4464 18.0984 12.5514 18.1253 12.658 18.1247C12.7262 18.1246 12.794 18.1136 12.8587 18.0918C13.9077 17.738 14.8801 17.1884 15.7244 16.4723C15.7933 16.4139 15.8488 16.3413 15.8869 16.2595C15.9251 16.1776 15.9451 16.0884 15.9455 15.9981L15.9572 13.3692L18.2876 12.0411C18.3656 11.9967 18.4331 11.936 18.4856 11.8632C18.538 11.7904 18.5741 11.7072 18.5916 11.6192C18.8037 10.5483 18.8029 9.44606 18.5892 8.37544ZM10.0001 13.1247C9.38208 13.1247 8.77789 12.9414 8.26399 12.598C7.75009 12.2546 7.34955 11.7666 7.11302 11.1955C6.8765 10.6245 6.81462 9.99619 6.93519 9.39C7.05577 8.78381 7.3534 8.22699 7.79044 7.78995C8.22748 7.35291 8.7843 7.05528 9.39049 6.93471C9.99668 6.81413 10.625 6.87601 11.196 7.11254C11.7671 7.34906 12.2551 7.7496 12.5985 8.2635C12.9419 8.77741 13.1251 9.38159 13.1251 9.99966C13.1251 10.8285 12.7959 11.6233 12.2099 12.2094C11.6238 12.7954 10.8289 13.1247 10.0001 13.1247Z" fill="#ED1450"/>
</svg>
