<svg width="20" height="20" viewBox="0 0 20 20" fill="none" xmlns="http://www.w3.org/2000/svg">
<path d="M18.125 9.99974V16.2497C18.125 17.0785 17.7958 17.8734 17.2097 18.4594C16.6237 19.0455 15.8288 19.3747 15 19.3747H10.625C10.4592 19.3747 10.3003 19.3089 10.1831 19.1917C10.0658 19.0745 10 18.9155 10 18.7497C10 18.584 10.0658 18.425 10.1831 18.3078C10.3003 18.1906 10.4592 18.1247 10.625 18.1247H15C15.4973 18.1247 15.9742 17.9272 16.3258 17.5756C16.6775 17.2239 16.875 16.747 16.875 16.2497H15C14.5027 16.2497 14.0258 16.0522 13.6742 15.7006C13.3225 15.3489 13.125 14.872 13.125 14.3747V11.2497C13.125 10.7525 13.3225 10.2755 13.6742 9.92392C14.0258 9.57229 14.5027 9.37474 15 9.37474H16.8477C16.7294 8.07548 16.2439 6.83668 15.4478 5.80306C14.6518 4.76943 13.578 3.98365 12.352 3.5375C11.1261 3.09135 9.79844 3.00324 8.52425 3.28347C7.25007 3.5637 6.08192 4.20069 5.15625 5.12005C4.0052 6.25592 3.29525 7.76387 3.15313 9.37474H5C5.49728 9.37474 5.97419 9.57229 6.32583 9.92392C6.67746 10.2755 6.875 10.7525 6.875 11.2497V14.3747C6.875 14.872 6.67746 15.3489 6.32583 15.7006C5.97419 16.0522 5.49728 16.2497 5 16.2497H3.75C3.25272 16.2497 2.77581 16.0522 2.42417 15.7006C2.07254 15.3489 1.875 14.872 1.875 14.3747V9.99974C1.87675 8.39029 2.35596 6.81753 3.25196 5.48055C4.14796 4.14356 5.42047 3.10245 6.90843 2.489C8.39639 1.87555 10.0329 1.71733 11.6108 2.03438C13.1887 2.35142 14.6371 3.12947 15.7727 4.27005C16.5224 5.02342 17.1161 5.91731 17.5197 6.90052C17.9234 7.88372 18.1291 8.93691 18.125 9.99974Z" fill="#ED1450"/>
</svg>
