<svg width="32" height="33" viewBox="0 0 32 33" fill="none" xmlns="http://www.w3.org/2000/svg">
<path d="M16.0003 3.16797C8.65366 3.16797 2.66699 9.15463 2.66699 16.5013C2.66699 23.848 8.65366 29.8346 16.0003 29.8346C23.347 29.8346 29.3337 23.848 29.3337 16.5013C29.3337 9.15463 23.347 3.16797 16.0003 3.16797ZM22.3737 13.4346L14.8137 20.9946C14.627 21.1813 14.3737 21.288 14.107 21.288C13.8403 21.288 13.587 21.1813 13.4003 20.9946L9.62699 17.2213C9.24032 16.8346 9.24032 16.1946 9.62699 15.808C10.0137 15.4213 10.6537 15.4213 11.0403 15.808L14.107 18.8746L20.9603 12.0213C21.347 11.6346 21.987 11.6346 22.3737 12.0213C22.7603 12.408 22.7603 13.0346 22.3737 13.4346Z" fill="#23A26D"/>
</svg>
