<svg width="12" height="13" viewBox="0 0 12 13" fill="none" xmlns="http://www.w3.org/2000/svg">
<path fill-rule="evenodd" clip-rule="evenodd" d="M0 2.85713C0 2.14705 0.575634 1.57141 1.28571 1.57141H10.7143C11.4244 1.57141 12 2.14705 12 2.85713V3.14936L6.32732 6.93182C6.24733 6.98325 6.13122 7.01996 5.99869 7.01996C5.86615 7.01996 5.75004 6.98325 5.67005 6.93182L0 3.15111V2.85713ZM0 4.43888V10.1428C0 10.8529 0.575634 11.4286 1.28571 11.4286H10.7143C11.4244 11.4286 12 10.8529 12 10.1428V4.43713L6.91875 7.82523L6.91382 7.82852L6.9138 7.82849C6.64409 8.00405 6.32024 8.09139 5.99869 8.09139C5.67714 8.09139 5.35328 8.00405 5.08358 7.82849L5.07861 7.82526L5.07862 7.82523L0 4.43888Z" fill="black"/>
</svg>
