<svg width="12" height="13" viewBox="0 0 12 13" fill="none" xmlns="http://www.w3.org/2000/svg">
<path d="M7.56804 11.8492C8.11709 12.2034 8.77135 12.3578 9.42083 12.2863C10.0703 12.2149 10.6754 11.922 11.1343 11.4569L11.5355 11.0646C11.7114 10.8847 11.8099 10.6431 11.8099 10.3915C11.8099 10.1399 11.7114 9.89828 11.5355 9.71837L9.83261 8.03331C9.65421 7.85798 9.41408 7.75974 9.16394 7.75974C8.9138 7.75974 8.67367 7.85798 8.49527 8.03331C8.31535 8.20921 8.07374 8.30769 7.82213 8.30769C7.57053 8.30769 7.32891 8.20921 7.149 8.03331L4.47431 5.35862C4.38508 5.27069 4.31423 5.1659 4.26587 5.05034C4.2175 4.93478 4.1926 4.81076 4.1926 4.68549C4.1926 4.56022 4.2175 4.4362 4.26587 4.32064C4.31423 4.20508 4.38508 4.10029 4.47431 4.01236C4.64964 3.83395 4.74789 3.59382 4.74789 3.34369C4.74789 3.09355 4.64964 2.85342 4.47431 2.67501L2.78034 0.981041C2.60043 0.805149 2.35881 0.706665 2.10721 0.706665C1.8556 0.706665 1.61399 0.805149 1.43408 0.981041L1.04179 1.38224C0.5767 1.84117 0.283811 2.44624 0.212369 3.09571C0.140927 3.74519 0.295289 4.39945 0.6495 4.9485C2.49508 7.66842 4.84336 10.0107 7.56804 11.8492Z" fill="black"/>
</svg>
