<svg width="98" height="98" viewBox="0 0 98 98" fill="none" xmlns="http://www.w3.org/2000/svg">
<path fill-rule="evenodd" clip-rule="evenodd" d="M89.8307 49.0003C89.8307 71.5519 71.549 89.8336 48.9974 89.8336C26.4458 89.8336 8.16406 71.5519 8.16406 49.0003C8.16406 26.4487 26.4458 8.16699 48.9974 8.16699C71.549 8.16699 89.8307 26.4487 89.8307 49.0003ZM44.9141 28.5837C44.9141 26.3285 46.7422 24.5003 48.9974 24.5003C51.2526 24.5003 53.0807 26.3285 53.0807 28.5837V49.0003C53.0807 51.2555 51.2526 53.0837 48.9974 53.0837C46.7422 53.0837 44.9141 51.2555 44.9141 49.0003V28.5837ZM44.9141 65.3337C44.9141 63.0785 46.7422 61.2503 48.9974 61.2503C51.2526 61.2503 53.0807 63.0785 53.0807 65.3337C53.0807 67.5888 51.2526 69.417 48.9974 69.417C46.7422 69.417 44.9141 67.5888 44.9141 65.3337Z" fill="#ED4447"/>
</svg>
