<svg width="1440" height="324" viewBox="0 0 1440 324" fill="none" xmlns="http://www.w3.org/2000/svg">
<path d="M1.5 1440H1441.5M1.5 1360H1441.5M1.5 1280H1441.5M1.5 1200H1441.5M1.5 1120H1441.5M1.5 1040H1441.5M1.5 960H1441.5M1.5 880H1441.5M1.5 800H1441.5M1.5 720H1441.5M1.5 640H1441.5M1.5 560H1441.5M1.5 480H1441.5M1.5 400H1441.5M1.5 320H1441.5M1.5 240H1441.5M1.5 160H1441.5M1.5 80H1441.5M1.5 0H1441.5M0 1441.5V1.5M80 1441.5V1.5M160 1441.5V1.5M240 1441.5V1.5M320 1441.5V1.5M400 1441.5V1.5M480 1441.5V1.5M560 1441.5V1.5M640 1441.5V1.5M720 1441.5V1.5M800 1441.5V1.5M880 1441.5V1.5M960 1441.5V1.5M1040 1441.5V1.5M1120 1441.5V1.5M1200 1441.5V1.5M1280 1441.5V1.5M1360 1441.5V1.5M1440 1441.5V1.5" stroke="white" stroke-opacity="0.3" stroke-width="3"/>
</svg>
