<svg width="24" height="24" viewBox="0 0 24 24" fill="none" xmlns="http://www.w3.org/2000/svg">
<path d="M21.5306 10.2807L17.0306 14.7807C16.8899 14.9214 16.699 15.0005 16.5 15.0005C16.301 15.0005 16.1101 14.9214 15.9694 14.7807C15.8286 14.6399 15.7496 14.4491 15.7496 14.25C15.7496 14.051 15.8286 13.8602 15.9694 13.7194L19.1897 10.5001H15.4688C13.6394 10.4995 11.8617 11.1071 10.4153 12.2272C8.96889 13.3472 7.93578 14.9163 7.47844 16.6876C7.42871 16.8802 7.30447 17.0453 7.13305 17.1464C6.96163 17.2475 6.75707 17.2763 6.56437 17.2266C6.37168 17.1769 6.20663 17.0526 6.10554 16.8812C6.00444 16.7098 5.97558 16.5052 6.02531 16.3125C6.56495 14.2187 7.78571 12.3638 9.49537 11.0399C11.205 9.71602 13.3064 8.99841 15.4688 9.00005H19.1916L15.9694 5.78068C15.8997 5.71099 15.8444 5.62827 15.8067 5.53722C15.769 5.44618 15.7496 5.3486 15.7496 5.25005C15.7496 5.1515 15.769 5.05392 15.8067 4.96288C15.8444 4.87183 15.8997 4.78911 15.9694 4.71943C16.1101 4.5787 16.301 4.49963 16.5 4.49963C16.5985 4.49963 16.6961 4.51904 16.7872 4.55676C16.8782 4.59447 16.9609 4.64974 17.0306 4.71943L21.5306 9.21943C21.6004 9.28908 21.6557 9.3718 21.6934 9.46285C21.7312 9.55389 21.7506 9.65149 21.7506 9.75005C21.7506 9.84861 21.7312 9.94621 21.6934 10.0373C21.6557 10.1283 21.6004 10.211 21.5306 10.2807ZM18 19.5001H3.75V8.25005C3.75 8.05114 3.67098 7.86037 3.53033 7.71972C3.38968 7.57907 3.19891 7.50005 3 7.50005C2.80109 7.50005 2.61032 7.57907 2.46967 7.71972C2.32902 7.86037 2.25 8.05114 2.25 8.25005V19.5001C2.25 19.8979 2.40804 20.2794 2.68934 20.5607C2.97064 20.842 3.35218 21 3.75 21H18C18.1989 21 18.3897 20.921 18.5303 20.7804C18.671 20.6397 18.75 20.449 18.75 20.2501C18.75 20.0511 18.671 19.8604 18.5303 19.7197C18.3897 19.5791 18.1989 19.5001 18 19.5001Z" fill="#343330"/>
</svg>
