<svg width="137" height="97" viewBox="0 0 137 97" fill="none" xmlns="http://www.w3.org/2000/svg">
<path d="M12.7452 102.436C0.816401 99.8415 -6.56386 79.4569 8.26573 65.6831C22.9079 52.0769 4.91107 44.5783 10.3673 22.5361C15.6855 1.03664 63.9137 -11.3066 86.3999 14.554C106.646 37.8393 121.367 32.9948 131.264 51.1396C142.896 72.4713 134.401 97.8287 115.595 102.318C98.3089 102.318 12.7452 102.436 12.7452 102.436Z" fill="#EFA318"/>
<path d="M23.6084 79.8508C21.2404 76.3284 20.6681 71.987 20.6089 68.9678C20.5399 65.6921 21.0332 63.2156 21.0431 63.1958L20.8753 63.1465C20.8655 63.1761 20.3721 65.6625 20.4412 68.958C20.5004 72.0068 21.0825 76.3876 23.4801 79.9593L23.6084 79.8508Z" fill="#D1D1D1"/>
<path d="M21.566 62.5746C21.5364 63.3146 21.2404 63.9559 20.7964 64.3506C20.382 63.8474 20.1452 63.1469 20.1748 62.4069C20.2044 61.6669 20.5004 61.0255 20.9444 60.6309C21.349 61.1341 21.5956 61.8346 21.566 62.5746Z" fill="#D1D1D1"/>
<path d="M20.1155 64.3407C20.52 64.9722 20.6581 65.6924 20.5595 66.3338C19.9774 66.2154 19.3952 65.8109 18.9907 65.1892C18.5862 64.5578 18.448 63.8375 18.5467 63.1962C19.1387 63.3146 19.711 63.7092 20.1155 64.3407Z" fill="#D1D1D1"/>
<path d="M19.336 66.3831C19.9378 66.7581 20.3621 67.3501 20.5397 67.9914C19.9872 68.1789 19.3261 68.1 18.7242 67.725C18.1224 67.3501 17.6981 66.7581 17.5205 66.1167C18.0632 65.9391 18.7242 66.0082 19.336 66.3831Z" fill="#D1D1D1"/>
<path d="M19.6911 69.1758C20.1647 69.4718 20.4805 70.0046 20.5791 70.5966C20.1055 70.8236 19.553 70.8236 19.0794 70.5276C18.6058 70.2316 18.2901 69.6988 18.1914 69.1068C18.6749 68.8798 19.2175 68.8798 19.6911 69.1758Z" fill="#D1D1D1"/>
<path d="M21.5069 65.7911C22.0199 65.4853 22.6119 65.4458 23.1151 65.6333C23.0066 66.1957 22.6711 66.7087 22.1581 67.0245C21.645 67.3303 21.053 67.3698 20.5498 67.1823C20.6583 66.6101 20.9938 66.097 21.5069 65.7911Z" fill="#D1D1D1"/>
<path d="M21.5166 67.7255C22.0297 67.4196 22.6217 67.3801 23.1249 67.5676C23.0164 68.13 22.6809 68.6431 22.1678 68.9588C21.6548 69.2647 21.0628 69.3041 20.5596 69.1167C20.6681 68.5543 21.0036 68.0313 21.5166 67.7255Z" fill="#D1D1D1"/>
<path d="M21.1711 97.1679C16.218 95.3623 12.745 91.0604 10.7124 87.7649C8.50229 84.1932 7.45643 80.9964 7.44656 80.9668L7.22949 81.0556C7.23936 81.0852 8.29509 84.3017 10.5151 87.9031C12.5674 91.2281 16.07 95.5793 21.0922 97.4046L21.1711 97.1679Z" fill="#293241"/>
<path d="M7.63435 79.8122C8.08821 80.6607 8.16715 81.6276 7.92048 82.4663C7.13115 82.2788 6.40102 81.7164 5.94715 80.8679C5.49328 80.0193 5.41435 79.0524 5.66102 78.2137C6.45035 78.4012 7.18048 78.9537 7.63435 79.8122Z" fill="#293241"/>
<path d="M7.15077 83.0582C8.00917 83.3937 8.6505 84.0745 8.9465 84.8737C8.2065 85.2585 7.29877 85.3276 6.4305 84.9921C5.5721 84.6566 4.93077 83.9758 4.63477 83.1766C5.37477 82.7918 6.2825 82.7228 7.15077 83.0582Z" fill="#293241"/>
<path d="M7.59451 86.0284C8.52198 85.91 9.38038 86.1961 9.99211 86.7487C9.48891 87.4492 8.69958 87.9524 7.77211 88.0708C6.84465 88.1892 5.98624 87.9031 5.37451 87.3505C5.87771 86.6599 6.66704 86.1468 7.59451 86.0284Z" fill="#293241"/>
<path d="M9.34109 88.8702C10.2686 88.7518 11.127 89.0379 11.7387 89.5905C11.2355 90.291 10.4462 90.7942 9.51869 90.9126C8.59123 91.031 7.73283 90.7449 7.12109 90.1923C7.62429 89.5017 8.41363 88.9985 9.34109 88.8702Z" fill="#293241"/>
<path d="M9.20276 84.4401C9.2521 83.5423 9.62703 82.7332 10.1796 82.1807C10.6729 82.7135 10.959 83.5127 10.8998 84.4105C10.8505 85.3084 10.4756 86.1175 9.92303 86.67C9.43956 86.1372 9.15343 85.338 9.20276 84.4401Z" fill="#293241"/>
<path d="M11.0284 87.3897C11.0679 86.4918 11.4329 85.6729 11.9756 85.1105C12.4689 85.6334 12.7748 86.4326 12.7353 87.3305C12.6959 88.2283 12.3308 89.0473 11.7881 89.6097C11.2849 89.0769 10.9889 88.2875 11.0284 87.3897Z" fill="#293241"/>
<path d="M12.3206 91.8106C12.6758 91.6231 13.0606 91.6231 13.3862 91.7612C13.2876 92.1263 13.0409 92.4519 12.6857 92.6394C12.3305 92.8268 11.9457 92.8268 11.6201 92.6887C11.7287 92.3236 11.9654 91.998 12.3206 91.8106Z" fill="#293241"/>
<path d="M33.0608 92.3921C33.0608 92.3921 36.9186 83.8871 35.6261 81.9828C33.8501 79.3583 31.6301 87.4095 31.5216 86.6991C30.5053 80.0193 30.7125 71.5834 25.9469 70.3106C23.2336 69.5804 26.1245 76.6055 25.789 78.4111C25.4536 80.2167 20.9445 73.7639 18.1621 70.3402C15.3797 66.9263 13.6826 68.8108 15.2909 72.9548C16.8498 76.9607 22.4837 81.6572 21.2208 82.0618C19.9578 82.4663 12.8834 76.8818 11.808 78.934C10.4957 81.4599 21.4082 85.9098 20.313 86.413C19.2178 86.9162 14.028 84.558 14.028 86.561C14.028 88.5738 21.2109 89.0769 21.0234 89.9452C20.7176 91.3561 16.2085 87.7449 15.8632 89.6985C15.4981 91.6916 21.9805 91.8495 21.7634 93.4084C21.6352 94.3063 19.9973 93.369 19.7013 94.6023C19.0304 97.4143 29.2424 101.361 29.2424 101.361L33.0608 92.3921Z" fill="#293241"/>
<path d="M40.0264 94.2668C41.5755 94.997 41.1611 96.7927 41.1611 96.7927C41.1611 96.7927 45.3643 93.5071 46.9331 95.4212C48.5019 97.3354 47.6829 101.095 45.8379 101.706C43.9928 102.318 27.9595 101.894 27.9595 101.894C27.9595 101.894 38.6253 93.6156 40.0264 94.2668Z" fill="#293241"/>
<path d="M29.0352 98.8942L29.1832 98.766C25.8187 94.6614 24.3781 89.5209 23.7664 85.9294C23.1053 82.0321 23.2336 79.0622 23.2336 79.0326L23.0264 78.9932C23.0264 79.0228 22.8883 82.0124 23.5592 85.9294C24.1808 89.5604 25.6312 94.7502 29.0352 98.8942Z" fill="#262626"/>
<path d="M23.6876 78.3818C23.7863 79.2698 23.5594 80.0296 23.1154 80.5229C22.553 79.9408 22.1484 79.1218 22.0399 78.2338C21.9412 77.3458 22.1682 76.5861 22.6122 76.0928C23.1746 76.6749 23.589 77.5037 23.6876 78.3818Z" fill="#262626"/>
<path d="M22.3753 80.444C22.9575 81.1741 23.2535 82.0325 23.2436 82.7923C22.5431 82.6739 21.8031 82.22 21.2308 81.4899C20.6487 80.7597 20.3527 79.9013 20.3625 79.1416C21.0532 79.26 21.7932 79.7139 22.3753 80.444Z" fill="#262626"/>
<path d="M21.8326 82.911C22.6022 83.3352 23.1942 84.0259 23.5099 84.7758C22.8982 85.0224 22.1286 84.9534 21.359 84.5291C20.5894 84.1048 19.9974 83.4142 19.6816 82.6643C20.2835 82.4275 21.063 82.4867 21.8326 82.911Z" fill="#262626"/>
<path d="M23.1943 86.9656C23.5199 87.1235 23.7961 87.3899 23.9441 87.6957C23.6975 87.8141 23.3719 87.8141 23.0463 87.6661C22.7207 87.5082 22.4444 87.2418 22.2964 86.936C22.5431 86.8176 22.8687 86.8176 23.1943 86.9656Z" fill="#262626"/>
<path d="M23.6088 88.4857C23.9344 88.6435 24.2107 88.9099 24.3587 89.2158C24.112 89.3342 23.7864 89.3342 23.4608 89.1862C23.1352 89.0283 22.8589 88.7619 22.7109 88.4561C22.9576 88.3278 23.2832 88.3278 23.6088 88.4857Z" fill="#262626"/>
<path d="M24.2398 82.1115C24.7825 81.7267 25.4535 81.6576 26.0751 81.8648C26.0455 82.5357 25.7495 83.1672 25.2068 83.552C24.6641 83.9368 23.9932 84.0058 23.3716 83.7986C23.4012 83.1277 23.6972 82.5061 24.2398 82.1115Z" fill="#262626"/>
<path d="M24.5953 84.4198C25.138 84.035 25.8089 83.9659 26.4305 84.1731C26.4009 84.8441 26.1049 85.4755 25.5623 85.8603C25.0196 86.2452 24.3487 86.3142 23.7271 86.107C23.7567 85.4361 24.0527 84.8046 24.5953 84.4198Z" fill="#262626"/>
<path d="M24.8319 87.7548C25.1871 87.4983 25.6213 87.4588 26.0258 87.597C26.0061 88.0409 25.8186 88.4455 25.4634 88.6921C25.1082 88.9487 24.6741 88.9881 24.2695 88.85C24.2893 88.4159 24.4767 88.0015 24.8319 87.7548Z" fill="#262626"/>
<path d="M31.5805 101.973C31.5805 101.973 26.657 95.6482 24.5949 94.6812C22.4045 93.6452 24.2989 97.2268 24.2989 97.2268C24.2989 97.2268 19.6122 92.6191 18.5072 93.7735C17.4021 94.9279 18.5861 96.0034 18.5861 96.0034C18.5861 96.0034 14.6592 95.2732 14.0869 96.7434C13.2088 99.0028 19.6714 100.128 19.6714 100.128C19.6714 100.128 16.5733 99.4468 17.1949 100.848C18.1224 102.959 31.5805 101.973 31.5805 101.973Z" fill="white"/>
<path d="M14.0869 96.7433C14.6592 95.2732 18.5861 96.0033 18.5861 96.0033C18.5861 96.0033 17.412 94.9279 18.5072 93.7735C19.6123 92.6191 23.2827 95.3423 23.2827 95.3423C23.2827 95.3423 22.7104 92.846 25.4731 94.8095C27.4464 96.2105 31.2451 101.45 31.2451 101.45L14.0869 96.7433Z" fill="#D1D1D1"/>
<path d="M27.9595 101.884C27.9595 101.884 35.8035 102.436 37.3328 101.035C38.8621 99.6343 37.3427 97.0887 37.3427 97.0887C37.3427 97.0887 40.0363 94.9575 39.9968 93.5663C39.9573 92.1751 38.2011 92.8855 38.2011 92.8855C38.2011 92.8855 41.1709 89.0572 40.4704 88.3271C39.1581 86.9753 35.7147 90.9516 35.7147 90.9516C35.7147 90.9516 36.7309 89.0572 35.6555 88.7612C34.0275 88.3073 32.8336 92.9743 32.8336 92.9743C32.8336 92.9743 33.1395 91.1292 32.0147 91.3759C30.0216 91.81 27.9595 101.884 27.9595 101.884Z" fill="#3E4654"/>
<path d="M34.4716 101.973H33.8105L36.2673 89.2451L36.81 89.3536L34.4716 101.973Z" fill="#293241"/>
<path d="M107.909 80.2462L108.541 78.707C109.034 77.5723 110.287 77.0395 111.353 77.5033C114.026 78.6774 115.181 81.9334 113.948 84.775L113.04 86.8569C112.645 87.7646 112.783 88.771 113.316 89.4814C113.8 90.1227 113.878 91.0206 113.543 91.7902L113.069 92.8854C112.556 94.0694 111.55 94.9574 110.356 95.3126C109.656 95.5296 109.044 96.0526 108.718 96.8024L108.037 98.3515C107.288 100.068 105.373 100.887 103.765 100.187L102.848 99.7822C101.239 99.0718 100.539 97.1083 101.279 95.3915C102.482 93.3393 102.394 91.8001 101.96 90.7641C101.328 89.2347 101.338 87.4784 102.019 85.9096L102.117 85.6926C102.838 84.0449 104.229 82.8017 105.877 82.2787C106.607 82.0518 107.366 81.4894 107.909 80.2462Z" fill="#293241"/>
<path d="M96.3945 101.824C97.6871 100.137 104.89 91.1783 109.527 89.6785C114.648 88.0209 109.823 94.6217 109.823 94.6217C109.823 94.6217 118.9 84.6662 122.225 85.5641C125.274 86.383 122.225 92.5596 122.225 92.5596C122.225 92.5596 125.669 89.1457 129.833 89.1457C133.888 89.1457 127.011 101.578 126.646 102.219L96.3945 101.824Z" fill="#D1D1D1"/>
<path d="M123.736 82.6531C120.026 88.4646 117.322 95.2035 115.783 102.061H115.418C116.957 95.3417 119.759 88.5534 123.459 82.7419C124.318 81.3902 125.245 79.7918 126.863 79.2689C126.893 79.259 126.903 79.3083 126.873 79.3182C125.393 79.8806 124.545 81.4001 123.736 82.6531Z" fill="#262626"/>
<path d="M116.622 102.081C120.766 96.4277 125.847 91.1391 131.836 86.6005C131.896 86.5511 131.975 86.6597 131.915 86.709C126.232 91.0898 121.23 96.2402 116.997 102.091L116.622 102.081Z" fill="#262626"/>
<path d="M124.081 79.0517C124.179 79.1898 124.544 79.5647 124.653 80.0383C124.801 80.4922 124.682 81.0743 124.673 81.0447C124.643 81.0546 125.097 80.6698 125.235 80.0679C125.413 79.4858 125.294 78.6767 125.067 78.4103C124.673 77.8084 123.992 77.7394 123.863 78.0354C123.706 78.3413 123.883 78.7359 124.081 79.0517Z" fill="#262626"/>
<path d="M124.969 84.2423C124.831 84.1436 124.476 83.7687 123.992 83.6503C123.538 83.4924 122.966 83.6009 122.986 83.6108C122.976 83.6404 123.361 83.1964 123.973 83.0681C124.555 82.9004 125.364 83.0385 125.62 83.2753C126.212 83.6799 126.262 84.3706 125.966 84.4988C125.67 84.6271 125.285 84.4396 124.969 84.2423Z" fill="#262626"/>
<path d="M123.627 86.5108C123.489 86.4122 123.134 86.0372 122.65 85.9188C122.197 85.761 121.624 85.8695 121.644 85.8794C121.634 85.909 122.019 85.465 122.631 85.3367C123.213 85.169 124.022 85.3071 124.278 85.5439C124.87 85.9484 124.92 86.6391 124.624 86.7673C124.338 86.8956 123.943 86.718 123.627 86.5108Z" fill="#262626"/>
<path d="M128.403 91.79C128.264 91.6913 127.909 91.3164 127.426 91.198C126.972 91.0401 126.4 91.1487 126.419 91.1585C126.41 91.1881 126.794 90.7441 127.406 90.6159C127.988 90.4481 128.797 90.5863 129.054 90.8231C129.646 91.2276 129.695 91.9183 129.399 92.0465C129.113 92.1748 128.718 91.9873 128.403 91.79Z" fill="#262626"/>
<path d="M130.84 89.6291C130.701 89.5305 130.346 89.1555 129.863 89.0371C129.409 88.8792 128.837 88.9878 128.856 88.9976C128.847 89.0272 129.231 88.5832 129.843 88.455C130.425 88.2872 131.234 88.4254 131.491 88.6622C132.083 89.0667 132.132 89.7574 131.836 89.8857C131.55 90.0139 131.155 89.8265 130.84 89.6291Z" fill="#262626"/>
<path d="M122.206 81.6273C122.324 81.7556 122.739 82.0516 122.926 82.5153C123.143 82.9495 123.114 83.5316 123.104 83.5119C123.074 83.5316 123.459 83.0777 123.508 82.4561C123.597 81.8543 123.341 81.0748 123.074 80.8479C122.591 80.3151 121.91 80.3545 121.821 80.6702C121.723 80.9761 121.959 81.3412 122.206 81.6273Z" fill="#262626"/>
<path d="M120.233 84.2025C120.401 84.2913 120.973 84.4492 121.269 84.8833C121.595 85.2681 121.644 85.9292 121.614 85.9193C121.585 85.9489 122.029 85.278 122.009 84.5676C122.048 83.8572 121.624 83.0974 121.259 82.9593C120.568 82.5646 119.69 82.9198 119.621 83.3046C119.532 83.6894 119.888 83.9854 120.233 84.2025Z" fill="#262626"/>
<path d="M118.161 88.1097C118.338 88.1689 118.94 88.2281 119.295 88.6031C119.68 88.9287 119.838 89.57 119.818 89.5601C119.789 89.5897 120.114 88.8596 119.976 88.1591C119.897 87.4487 119.355 86.7679 118.96 86.6988C118.22 86.4324 117.411 86.9257 117.401 87.3105C117.391 87.7151 117.786 87.9519 118.161 88.1097Z" fill="#262626"/>
<path d="M124.298 90.8329C124.426 90.9119 124.89 91.0796 125.097 91.4447C125.344 91.7801 125.344 92.3228 125.324 92.3031C125.294 92.3228 125.699 91.8097 125.719 91.2276C125.788 90.6455 125.492 90.0041 125.196 89.8759C124.653 89.5207 123.923 89.7476 123.844 90.0633C123.755 90.3692 124.022 90.6356 124.298 90.8329Z" fill="#262626"/>
<path d="M127.485 79.9701C127.406 79.901 127.208 79.6642 126.932 79.5754C126.666 79.4669 126.33 79.4965 126.34 79.5064C126.33 79.5261 126.577 79.2794 126.952 79.2301C127.307 79.1512 127.771 79.2794 127.919 79.4274C128.254 79.6938 128.254 80.0984 128.067 80.1674C127.889 80.2266 127.662 80.0984 127.485 79.9701Z" fill="#262626"/>
<path d="M126.745 78.3121C126.745 78.4108 126.814 78.7166 126.715 78.9929C126.646 79.2692 126.41 79.5158 126.41 79.506C126.39 79.506 126.735 79.4566 127.001 79.1902C127.278 78.9534 127.465 78.5094 127.436 78.3022C127.426 77.878 127.11 77.6214 126.952 77.73C126.784 77.8286 126.745 78.0852 126.745 78.3121Z" fill="#262626"/>
<path d="M132.596 87.4387C132.517 87.3697 132.32 87.1329 132.043 87.0441C131.777 86.9355 131.442 86.9651 131.451 86.975C131.442 86.9947 131.688 86.7481 132.063 86.6987C132.418 86.6198 132.882 86.7481 133.03 86.8961C133.366 87.1625 133.366 87.567 133.188 87.6361C133.001 87.6953 132.774 87.567 132.596 87.4387Z" fill="#262626"/>
<path d="M131.698 85.7619C131.708 85.8606 131.797 86.1566 131.728 86.4427C131.678 86.719 131.461 86.9952 131.461 86.9755C131.442 86.9755 131.787 86.8966 132.024 86.6203C132.28 86.3638 132.438 85.9 132.389 85.7027C132.349 85.2784 132.004 85.0515 131.856 85.1699C131.698 85.2784 131.688 85.535 131.698 85.7619Z" fill="#262626"/>
<path d="M127.662 95.4014C127.692 95.5593 127.85 96.0131 127.751 96.4571C127.692 96.9011 127.366 97.3353 127.366 97.3155C127.337 97.3155 127.87 97.1675 128.225 96.7235C128.61 96.3091 128.817 95.579 128.738 95.2633C128.649 94.6022 128.097 94.2766 127.87 94.4739C127.633 94.6515 127.633 95.0561 127.662 95.4014Z" fill="#262626"/>
<path d="M124.327 96.595C124.347 96.7529 124.515 97.2067 124.416 97.6507C124.357 98.0947 124.031 98.5289 124.031 98.5091C124.002 98.5091 124.535 98.3611 124.89 97.9171C125.275 97.5027 125.482 96.7726 125.403 96.4569C125.314 95.7958 124.762 95.4702 124.535 95.6675C124.298 95.8451 124.298 96.2497 124.327 96.595Z" fill="#262626"/>
<path d="M120.943 98.1145C120.963 98.2724 121.131 98.7263 121.032 99.1703C120.973 99.6143 120.647 100.048 120.647 100.029C120.618 100.029 121.15 99.8807 121.506 99.4367C121.89 99.0223 122.098 98.2921 122.019 97.9764C121.93 97.3153 121.377 96.9897 121.15 97.1871C120.914 97.3647 120.904 97.7692 120.943 98.1145Z" fill="#262626"/>
<path d="M131.303 97.2564C131.244 97.1873 131.106 96.9406 130.869 96.8025C130.652 96.6545 130.326 96.6348 130.336 96.6446C130.326 96.6545 130.593 96.4769 130.938 96.4966C131.274 96.4868 131.678 96.6742 131.787 96.8321C132.043 97.1281 131.974 97.503 131.806 97.5326C131.629 97.5622 131.441 97.4044 131.303 97.2564Z" fill="#262626"/>
<path d="M130.899 95.6182C130.889 95.707 130.899 95.9931 130.76 96.2299C130.652 96.4667 130.386 96.6542 130.395 96.6443C130.376 96.6345 130.701 96.6542 130.987 96.4569C131.274 96.2891 131.53 95.9142 131.53 95.7267C131.599 95.3321 131.343 95.0558 131.185 95.1249C131.017 95.1939 130.948 95.4209 130.899 95.6182Z" fill="#262626"/>
<path d="M113.227 52.0568C113.434 52.0864 113.602 51.8595 113.553 51.6621C113.474 51.3563 113.395 51.0504 113.316 50.7445C113.138 50.0637 113.119 50.044 113.158 49.9848C113.267 49.8467 113.543 50.0045 113.642 50.0736C113.849 50.2216 114.026 50.4288 114.273 50.5374C114.747 50.7446 115.21 50.4781 115.132 49.9355C115.062 49.4421 114.964 48.9488 114.865 48.4653C115.358 48.7318 115.842 49.008 116.335 49.2645C116.513 49.3533 116.69 49.2251 116.661 49.0376C116.612 48.6035 116.454 47.3208 116.404 46.8965C116.394 46.788 116.266 46.2848 116.375 46.2256C116.473 46.1763 116.799 46.3835 116.878 46.4229C117.312 46.6203 117.47 46.6893 118.901 47.3109C119.068 47.3899 119.295 47.1827 119.226 47.0051C118.624 45.2488 118.841 45.1699 118.536 44.8541C118.466 44.7851 118.368 44.8147 118.328 44.8936C118.23 45.1008 118.22 45.16 118.407 45.9691C118.457 46.1763 118.506 46.3835 118.565 46.5907C116.838 45.8013 116.424 45.5547 116.059 45.8901C115.802 46.1171 115.862 46.2256 116.168 48.6429C115.664 48.3371 115.151 48.0707 114.638 47.7845C114.441 47.676 114.234 47.8339 114.263 48.0509C114.52 49.8171 114.599 49.8467 114.579 50.0144C114.579 50.0144 114.668 50.0638 114.53 50.0144C114.293 49.9256 113.957 49.4421 113.484 49.3632C113.069 49.2941 112.586 49.5013 112.546 49.9749C112.527 50.2414 112.596 50.3598 112.813 51.3563C112.31 51.307 111.806 51.3267 111.274 51.3958C111.037 51.4254 110.889 51.4845 110.711 51.6325C110.563 51.7509 110.622 52.0371 110.81 52.0864C111.372 52.2147 111.728 51.8693 113.227 52.0568Z" fill="#FEC55E"/>
<path d="M121.417 59.1513C121.486 58.6777 121.584 58.2337 121.732 57.7601C121.762 57.6713 121.792 57.5036 121.9 57.474C122.157 57.4049 122.374 57.8785 123.163 58.3127C123.508 58.5001 124.189 58.9244 124.495 58.4804C124.653 58.2535 124.692 57.918 124.771 57.6615C124.83 57.4641 124.899 57.2668 124.959 57.0695C126.212 57.8588 126.103 57.918 126.458 57.8785C126.547 57.8687 126.626 57.7601 126.606 57.6713C126.508 57.3359 126.527 57.4247 124.959 56.4183C124.821 56.3295 124.594 56.3788 124.534 56.5564C124.455 56.8228 124.169 58.0561 124.11 58.2041C124.1 58.1943 124.031 58.1844 124.011 58.1745C123.449 57.9871 123.035 57.6319 122.581 57.2668C122.206 56.9708 121.634 56.7932 121.338 57.2964C121.18 57.5727 121.032 58.1844 120.933 58.6679C120.183 58.1548 119.433 57.6319 118.683 57.1287C118.535 57.03 118.269 57.0793 118.22 57.2767C118.092 57.8292 117.953 58.3719 117.805 58.9244C117.361 58.6185 116.977 58.2436 116.641 57.8193C116.394 57.5036 115.881 57.8193 116.542 58.5692C116.898 59.0033 117.332 59.3684 117.815 59.6644C117.973 59.7631 118.22 59.7137 118.279 59.5164C118.437 58.9836 118.575 58.4311 118.703 57.8884C119.453 58.3916 120.223 58.8849 120.973 59.3881C121.16 59.4868 121.387 59.3585 121.417 59.1513Z" fill="#FF6677"/>
<path d="M121.052 70.8832C121.002 71.0509 121.081 71.1891 121.229 71.2581C121.949 71.6232 122.689 71.9192 123.489 72.0179C123.903 72.0672 123.943 71.4357 123.538 71.3568C122.907 71.2384 122.265 71.0904 121.673 70.824C121.821 70.3701 122.019 69.936 122.265 69.5216C122.354 69.3637 122.315 69.1072 122.117 69.048C121.624 68.9197 119.729 68.4659 119.7 68.4856C119.7 68.4856 119.71 68.4659 119.71 68.4363C119.729 68.2291 120.075 67.5976 120.154 67.2819C120.243 66.9365 119.818 66.6701 119.552 66.5616C118.999 66.3347 118.259 66.5616 117.776 66.1768C117.312 65.8117 118.151 65.1605 117.914 64.3811C117.736 63.7891 117.125 63.7693 116.187 63.6707C115.96 63.6509 115.733 63.6312 115.556 63.8088C115.516 63.8582 115.487 63.9272 115.516 63.9864C115.714 64.312 116.069 64.3021 116.917 64.4107C117.026 64.4205 117.223 64.4107 117.292 64.5192C117.519 64.8645 116.868 65.4368 117.056 66.1373C117.204 66.68 117.746 66.9365 118.24 67.0253C118.634 67.0944 119.157 67.0155 119.503 67.2621C119.384 67.5877 119.256 67.9035 119.167 68.2291C119.068 68.5843 119.177 68.8901 119.522 69.0283C119.907 69.1763 120.341 69.2453 120.746 69.344C121.012 69.4131 121.288 69.4821 121.555 69.5413C121.348 69.9853 121.18 70.4195 121.052 70.8832Z" fill="#293241"/>
<path d="M105.304 43.542C103.696 41.1641 102.137 42.4073 102.542 43.315C102.709 43.6998 103.173 43.8676 103.509 43.5913C103.667 43.463 103.588 43.1473 103.361 43.1473C103.183 43.1473 103.193 42.95 103.39 42.9302C103.657 42.9006 103.893 43.167 104.061 43.3348C104.466 43.7294 104.989 44.2326 104.89 44.8542C104.742 45.7817 103.558 46.4526 102.364 45.535C100.647 44.203 101.683 41.0556 103.903 41.1444C105.107 41.1937 106.173 42.0225 106.587 43.1473C106.666 43.3644 106.972 43.2262 106.952 43.0289C106.814 41.4996 105.216 40.4537 103.755 40.5228C102.256 40.5918 101.151 41.8252 100.943 43.2657C100.726 44.7753 101.604 46.354 103.163 46.65C104.89 46.9854 106.429 45.2094 105.304 43.542Z" fill="#FCFCFC"/>
<path d="M118.654 75.4317C118.378 75.0863 117.707 74.7213 117.332 75.1258C117.154 75.3133 117.134 75.5994 117.371 75.7671C117.598 75.925 117.874 75.8559 117.993 76.1519C118.101 76.3986 117.914 76.6551 117.707 76.7834C117.085 77.1879 116.148 76.7341 115.694 76.2605C114.964 75.5205 115.181 74.2279 116.306 73.9023C116.661 73.8037 117.016 73.8629 117.371 73.8826C117.569 73.8925 117.746 73.6261 117.578 73.4682C116.947 72.8663 115.872 73.0735 115.24 73.5866C114.579 74.1194 114.313 75.0765 114.539 75.8855C114.796 76.7933 115.654 77.4543 116.533 77.7109C118.348 78.2437 119.542 76.5565 118.654 75.4317Z" fill="#FCFCFC"/>
<path d="M34.9359 59.7523C34.9852 58.5781 34.8175 57.4237 34.2945 56.3285C33.8505 55.3912 32.7356 54.8584 31.7292 54.8584C28.5225 54.8584 28.118 59.1208 26.0756 60.7685C25.454 61.2717 24.7535 61.6861 24.1615 62.2288C21.9809 64.2317 22.9676 67.9416 24.9607 69.6979C26.3519 70.9213 28.5324 71.612 30.2393 70.6549C31.1372 70.1616 31.8081 69.3328 32.2916 68.4251C32.9724 67.1424 33.4164 65.6525 33.9097 64.2811C34.4425 62.8307 34.8767 61.3112 34.9359 59.7523Z" fill="#262626"/>
<path d="M28.0585 60.2362C28.0585 60.2362 25.7004 56.0034 25.1281 55.0957C24.5559 54.1978 23.066 50.6162 23.0068 50.4781C22.9575 50.3399 24.0329 48.6429 23.7961 48.5837C23.5593 48.5245 23.2831 49.4717 23.0265 49.3631C22.77 49.2447 22.0201 46.9655 21.8721 47.0741C21.5959 47.2911 22.2767 48.4949 22.1287 48.5738C21.9807 48.6527 21.5367 47.2418 21.2505 47.2911C20.9644 47.3306 21.7932 48.5738 21.7143 48.6922C21.6353 48.8007 20.7671 47.6266 20.6092 47.8831C20.5204 48.0213 21.4084 48.9093 21.2407 48.9882C21.0729 49.0671 20.2836 48.4949 20.2047 48.6626C20.1257 48.8303 20.9249 49.0573 21.1716 49.5013C21.4084 49.9453 21.8228 50.1426 22.0004 50.9615C22.1681 51.7903 22.4247 54.7799 23.3028 56.2698C24.1809 57.7597 26.1049 61.065 26.1049 61.065L28.0585 60.2362Z" fill="#FFC3B5"/>
<path d="M40.5202 75.8256L36.8597 73.0234C36.8597 73.0234 36.4946 70.4088 36.0013 68.0901C35.3797 68.2677 34.8272 68.7512 34.2056 68.9189L35.133 74.1186L39.9282 76.605L41.28 78.3514L41.5858 76.5557L40.5202 75.8256Z" fill="#EFAFA3"/>
<path d="M35.4587 65.4261C34.4523 62.3773 33.3374 62.5055 33.3374 62.5055L34.2057 68.9189C34.8273 68.7511 35.6265 68.3762 36.2481 68.1986C36.0409 67.2317 35.7054 66.1759 35.4587 65.4261Z" fill="#FF526B"/>
<path d="M34.8469 74.5728C34.8469 74.5728 35.3501 77.4539 35.0245 79.3483C34.6891 81.2427 33.1005 98.7757 33.1005 98.7757L31.3344 98.8744C31.3344 98.8744 30.9594 91.5533 31.0285 90.5371C31.0976 89.5208 31.6205 87.8139 31.6205 87.8139L31.4429 81.9037L33.6728 74.1387L34.8469 74.5728Z" fill="#D1D1D1"/>
<path d="M29.6469 73.9706C29.6469 73.9706 28.2557 76.082 27.9202 77.8284C27.5848 79.5748 28.1669 84.9423 27.5256 87.2314C27.1802 88.4746 25.868 90.3788 25.6706 91.9871C25.4733 93.5855 24.6938 97.7788 24.6938 97.7788L26.46 98.134L30.5744 87.6655L33.8008 78.2034L34.6296 73.3292L29.6469 73.9706Z" fill="#FCFCFC"/>
<path d="M30.7718 61.9632C30.7718 61.9632 28.9267 61.8448 28.1966 62.644C27.4664 63.4432 29.8147 69.7776 29.9528 70.7939C30.0811 71.8101 29.272 74.5235 29.272 74.5235C29.272 74.5235 33.6035 75.4016 34.8467 74.5728C34.8467 74.5728 34.975 67.2517 34.8467 66.5216C34.7184 65.7915 33.6035 62.8315 33.347 62.5454C33.0806 62.2592 30.7718 61.9632 30.7718 61.9632Z" fill="#FF6677"/>
<path d="M31.3936 59.4859C31.3936 59.4859 31.3837 59.5451 31.364 59.6339C31.2851 60.0779 30.9693 61.5579 30.7522 61.9624C30.4957 62.4557 31.6402 64.0245 32.7354 63.8272C33.061 63.768 32.4592 62.3867 32.4888 62.2387C32.548 61.9624 32.6171 61.5776 32.696 61.1829C32.7355 60.9659 32.7848 60.7389 32.8242 60.5219C32.9426 59.92 33.0413 59.4365 33.0413 59.4365L31.3936 59.4859Z" fill="#FFC3B5"/>
<path d="M31.3638 59.6347C31.3835 59.5459 31.3934 59.4867 31.3934 59.4867L33.0411 59.4473C33.0411 59.4473 32.9425 59.9406 32.8241 60.5326C32.7846 60.7398 32.7353 60.9667 32.6958 61.1838C32.4393 61.1443 32.1729 61.0259 31.9065 60.7891C31.6203 60.5326 31.423 60.2267 31.3145 59.9011C31.3342 59.7926 31.3539 59.7038 31.3638 59.6347Z" fill="#FC8899"/>
<path d="M32.4986 55.7074C32.4986 55.7074 31.7191 55.6186 31.2356 56.2501C30.7522 56.8815 30.2194 58.845 31.433 59.9106C32.6466 60.9762 33.8404 59.7725 34.018 58.4898C34.1956 57.217 34.2647 55.6679 32.4986 55.7074Z" fill="#FFC3B5"/>
<path d="M34.3736 58.4797C34.2256 58.7658 33.9888 58.9237 33.8309 58.825C33.673 58.7362 33.6632 58.4304 33.8112 58.1541C33.9592 57.8679 34.196 57.7101 34.3538 57.8087C34.5117 57.8975 34.5216 58.1936 34.3736 58.4797Z" fill="#FFC3B5"/>
<path d="M32.5874 55.4998C32.5874 55.4998 31.5514 57.3646 30.8016 57.4534C30.0616 57.5422 29.9629 58.5289 29.9629 58.5289C29.9629 58.5289 30.2293 56.2497 30.9693 55.8057C31.6994 55.3617 32.5874 55.4998 32.5874 55.4998Z" fill="#262626"/>
<path d="M30.9986 57.9179C31.0578 58.2533 30.9394 58.5493 30.7224 58.5987C30.5152 58.6381 30.2883 58.4112 30.2291 58.0757C30.1699 57.7403 30.2883 57.4443 30.5053 57.3949C30.7224 57.3555 30.9394 57.5923 30.9986 57.9179Z" fill="#FFC3B5"/>
<path d="M27.4076 58.8643C27.4076 58.8643 30.0124 61.6861 30.3972 62.8208C30.782 63.9555 30.0222 65.5834 28.9665 65.6525C27.9108 65.7216 25.5625 60.6501 25.5625 60.6501L27.4076 58.8643Z" fill="#FF6677"/>
<path d="M79.5032 23.1873C79.4933 23.1774 79.4933 23.1873 79.5032 23.1873C79.4045 23.1478 79.3058 23.1182 79.217 23.0985C79.1874 23.0886 79.148 23.0787 79.1184 23.0689C79.0888 23.059 79.0493 23.0491 79.0197 23.0393C78.9802 23.0294 78.9506 23.0195 78.9112 23.0195C78.8816 23.0097 78.8421 23.0097 78.8125 22.9998C78.773 22.9899 78.7336 22.9899 78.6941 22.9801C78.6645 22.9702 78.625 22.9702 78.5954 22.9603C78.556 22.9505 78.5165 22.9505 78.4672 22.9406C78.4376 22.9406 78.408 22.9307 78.3784 22.9307C78.329 22.9307 78.2797 22.9209 78.2402 22.9209C78.2106 22.9209 78.1909 22.9209 78.1613 22.911C78.0922 22.911 78.0133 22.9011 77.9442 22.9011H43.9239C43.845 22.9011 43.7661 22.9011 43.6871 22.911C43.5293 22.9209 43.3813 22.9307 43.2234 22.9603C43.1445 22.9702 43.0754 22.9899 42.9965 22.9998C41.0527 23.3945 39.5629 25.0225 39.3557 27.0353C39.3359 27.1931 39.3359 27.351 39.3359 27.5089V84.3113V97.2662C39.3359 99.2593 40.5989 100.956 42.365 101.598C42.3749 101.598 42.3847 101.608 42.3847 101.608C42.4735 101.637 42.5623 101.667 42.6511 101.696C42.6807 101.706 42.7202 101.716 42.7498 101.726C42.7794 101.736 42.8189 101.746 42.8485 101.756C42.8879 101.765 42.9175 101.775 42.957 101.775C42.9866 101.785 43.0261 101.785 43.0557 101.795C43.0951 101.805 43.1346 101.805 43.1741 101.815C43.2037 101.825 43.2431 101.825 43.2727 101.834C43.3122 101.844 43.3517 101.844 43.401 101.854C43.4306 101.854 43.4602 101.864 43.4898 101.864C43.5391 101.864 43.5885 101.874 43.6279 101.874C43.6575 101.874 43.6773 101.874 43.7069 101.884C43.7759 101.884 43.8549 101.894 43.9239 101.894H77.9442C78.1021 101.894 78.26 101.884 78.4178 101.874C80.5786 101.657 82.2954 99.9302 82.5125 97.7694C82.5322 97.6115 82.5322 97.4537 82.5322 97.2958V40.4737V27.5089C82.5224 25.5158 81.2693 23.8286 79.5032 23.1873Z" fill="#262626"/>
<path d="M80.302 29.1865H41.5557V95.6089H80.302V29.1865Z" fill="#FCFCFC"/>
<path d="M69.2123 27.0946H52.7152C52.6955 27.0946 52.6758 27.0748 52.6758 27.0551V26.3052C52.6758 26.2855 52.6955 26.2657 52.7152 26.2657H69.2123C69.232 26.2657 69.2518 26.2855 69.2518 26.3052V27.0551C69.2518 27.0748 69.232 27.0946 69.2123 27.0946Z" fill="#293241"/>
<path d="M80.302 92.8164H41.5557V95.5988H80.302V92.8164Z" fill="#FEC55E"/>
<path d="M80.302 29.1865H41.5557V32.7089H80.302V29.1865Z" fill="#FEC55E"/>
<path d="M47.979 27.1931H14.3238C13.1595 27.1931 12.2222 28.1403 12.2222 29.3046V43.2363C12.2222 44.4006 13.1595 45.3478 14.3238 45.3478H40.8158C41.8912 46.8475 43.835 49.5411 44.0027 49.5411C44.1606 49.5411 43.8547 47.0054 43.6376 45.3478H47.9691C49.1334 45.3478 50.0707 44.4006 50.0707 43.2363V29.3046C50.0806 28.1403 49.1432 27.1931 47.979 27.1931Z" fill="#D1D1D1"/>
<path d="M32.2515 32.6296H15.7544C15.7248 32.6296 15.7051 32.6099 15.7051 32.5803V31.7515C15.7051 31.7219 15.7248 31.7021 15.7544 31.7021H32.2515C32.2811 31.7021 32.3008 31.7219 32.3008 31.7515V32.5803C32.291 32.6099 32.2712 32.6296 32.2515 32.6296Z" fill="#FCFCFC"/>
<path d="M22.7993 35.0573H15.7446C15.715 35.0573 15.6953 35.0376 15.6953 35.008V34.1792C15.6953 34.1496 15.715 34.1299 15.7446 34.1299H22.7993C22.8289 34.1299 22.8486 34.1496 22.8486 34.1792V35.008C22.8486 35.0376 22.8289 35.0573 22.7993 35.0573Z" fill="#FCFCFC"/>
<path d="M45.8479 35.0573H23.707C23.6774 35.0573 23.6577 35.0376 23.6577 35.008V34.1792C23.6577 34.1496 23.6774 34.1299 23.707 34.1299H45.8577C45.8873 34.1299 45.9071 34.1496 45.9071 34.1792V35.008C45.8972 35.0376 45.8775 35.0573 45.8479 35.0573Z" fill="#FCFCFC"/>
<path d="M45.9166 32.6296H34.0371C34.0075 32.6296 33.9878 32.6099 33.9878 32.5803V31.7515C33.9878 31.7219 34.0075 31.7021 34.0371 31.7021H45.9166C45.9462 31.7021 45.9659 31.7219 45.9659 31.7515V32.5803C45.9659 32.6099 45.9462 32.6296 45.9166 32.6296Z" fill="#FCFCFC"/>
<path d="M45.9168 39.8132H15.7544C15.7248 39.8132 15.7051 39.7935 15.7051 39.7639V38.9351C15.7051 38.9055 15.7248 38.8857 15.7544 38.8857H45.9267C45.9563 38.8857 45.976 38.9055 45.976 38.9351V39.7639C45.9661 39.7935 45.9464 39.8132 45.9168 39.8132Z" fill="#FCFCFC"/>
<path d="M31.2944 37.4841H15.7544C15.7248 37.4841 15.7051 37.4644 15.7051 37.4348V36.606C15.7051 36.5764 15.7248 36.5566 15.7544 36.5566H31.2944C31.324 36.5566 31.3437 36.5764 31.3437 36.606V37.4348C31.3339 37.4644 31.3141 37.4841 31.2944 37.4841Z" fill="#FCFCFC"/>
<path d="M45.9169 37.4841H32.291C32.2614 37.4841 32.2417 37.4644 32.2417 37.4348V36.606C32.2417 36.5764 32.2614 36.5566 32.291 36.5566H45.9169C45.9465 36.5566 45.9662 36.5764 45.9662 36.606V37.4348C45.9662 37.4644 45.9465 37.4841 45.9169 37.4841Z" fill="#FCFCFC"/>
<path d="M75.5863 23.2174H85.8477C85.8674 23.2174 85.8872 23.1976 85.8872 23.1779V22.4379C85.8872 22.4182 85.8674 22.3984 85.8477 22.3984H75.5863C75.5666 22.3984 75.5469 22.4182 75.5469 22.4379V23.1779C75.5469 23.1976 75.5666 23.2174 75.5863 23.2174Z" fill="white"/>
<path d="M73.7508 16.8525H103.815C104.851 16.8525 105.699 17.7011 105.699 18.7371V31.1888C105.699 32.2347 104.86 33.0733 103.815 33.0733H80.1444C79.1874 34.4152 77.4509 36.8128 77.293 36.8128C77.145 36.8128 77.4212 34.5435 77.6186 33.0733H73.741C72.705 33.0733 71.8564 32.2248 71.8564 31.1888V18.7469C71.8663 17.7011 72.705 16.8525 73.7508 16.8525Z" fill="#D1D1D1"/>
<path d="M92.6851 21.7171H101.792C101.812 21.7171 101.831 21.6974 101.831 21.6777V20.9377C101.831 20.9179 101.812 20.8982 101.792 20.8982H92.6851C92.6654 20.8982 92.6456 20.9179 92.6456 20.9377V21.6777C92.6358 21.6974 92.6555 21.7171 92.6851 21.7171Z" fill="#FCFCFC"/>
<path d="M95.6645 24.401H101.792C101.811 24.401 101.831 24.3812 101.831 24.3615V23.6215C101.831 23.6018 101.811 23.582 101.792 23.582H95.6645C95.6447 23.582 95.625 23.6018 95.625 23.6215V24.3615C95.625 24.3812 95.6447 24.401 95.6645 24.401Z" fill="#FCFCFC"/>
<path d="M87.2779 24.401H94.8357C94.8555 24.401 94.8752 24.3812 94.8752 24.3615V23.6215C94.8752 23.6018 94.8555 23.582 94.8357 23.582H87.2779C87.2581 23.582 87.2384 23.6018 87.2384 23.6215V24.3615C87.2285 24.3812 87.2483 24.401 87.2779 24.401Z" fill="#FCFCFC"/>
<path d="M75.6254 24.401H86.2222C86.2419 24.401 86.2617 24.3812 86.2617 24.3615V23.6215C86.2617 23.6018 86.2419 23.582 86.2222 23.582H75.6254C75.6057 23.582 75.5859 23.6018 75.5859 23.6215V24.3615C75.5859 24.3812 75.6057 24.401 75.6254 24.401Z" fill="#FCFCFC"/>
<path d="M75.5859 21.7171H90.9187C90.9384 21.7171 90.9581 21.6974 90.9581 21.6777V20.9377C90.9581 20.9179 90.9384 20.8982 90.9187 20.8982H75.5859C75.5661 20.8982 75.5464 20.9179 75.5464 20.9377V21.6777C75.5464 21.6974 75.5661 21.7171 75.5859 21.7171Z" fill="#FCFCFC"/>
<path d="M75.5859 29.6599H101.792C101.811 29.6599 101.831 29.6401 101.831 29.6204V28.8804C101.831 28.8607 101.811 28.8409 101.792 28.8409H75.5859C75.5661 28.8409 75.5464 28.8607 75.5464 28.8804V29.6204C75.5464 29.6401 75.5661 29.6599 75.5859 29.6599Z" fill="#FCFCFC"/>
<path d="M88.2944 27.055H101.792C101.812 27.055 101.831 27.0353 101.831 27.0155V26.2755C101.831 26.2558 101.812 26.2361 101.792 26.2361H88.2944C88.2746 26.2361 88.2549 26.2558 88.2549 26.2755V27.0155C88.2549 27.0451 88.2648 27.055 88.2944 27.055Z" fill="#FCFCFC"/>
<path d="M75.5859 27.055H87.5344C87.5541 27.055 87.5738 27.0353 87.5738 27.0155V26.2755C87.5738 26.2558 87.5541 26.2361 87.5344 26.2361H75.5859C75.5661 26.2361 75.5464 26.2558 75.5464 26.2755V27.0155C75.5464 27.0451 75.5661 27.055 75.5859 27.055Z" fill="#FCFCFC"/>
<path d="M51.2449 54.3662C51.2449 54.3662 43.7364 55.4515 44.8809 62.6937C45.9465 69.4524 52.3894 68.0809 54.047 67.7356C55.7046 67.4001 51.2449 54.3662 51.2449 54.3662Z" fill="#FEC55E"/>
<path d="M54.0473 67.7455C54.8169 67.5876 54.2643 64.6769 53.4553 61.6084C50.6926 62.1511 47.6142 62.7529 44.9995 63.2759C46.3315 69.3735 52.4488 68.0711 54.0473 67.7455Z" fill="#EFA318"/>
<path d="M55.5664 68.9985C55.5664 68.9985 57.2141 74.8889 56.78 79.467C56.3755 83.7393 56.9872 84.4497 58.5659 84.3116C60.1544 84.1734 64.0024 83.2262 64.0715 81.7068C64.1405 80.1873 63.4301 72.363 60.7661 68.1598C58.1021 63.9468 55.5664 68.9985 55.5664 68.9985Z" fill="#D1D1D1"/>
<path d="M58.1317 66.542C57.076 67.2524 55.5664 68.9988 55.5664 68.9988C55.5664 68.9988 57.2141 74.8892 56.78 79.4673C56.3755 83.7396 56.9872 84.45 58.5659 84.3118C59.148 84.2625 60.036 84.1046 60.924 83.8481C61.5653 73.35 58.8619 67.726 58.1317 66.542Z" fill="#898F96"/>
<path d="M73.9976 40.0889C73.9976 40.0889 61.5458 49.1563 57.5202 51.8993L55.1621 55.4019L56.8394 65.6139L60.865 67.5971L80.5293 71.4846L80.0755 69.2745L76.5037 59.3683L74.6784 48.0907L74.1456 41.1545L73.9976 40.0889Z" fill="#D1D1D1"/>
<path d="M76.5037 59.3682L76.0301 56.4082L56.1191 61.2626L56.8394 65.6138L60.865 67.597L80.5293 71.4845L80.0754 69.2743L76.5037 59.3682Z" fill="#898F96"/>
<path d="M57.5202 51.8996C57.5202 51.8996 55.8725 60.5625 60.865 67.5974C60.865 67.5974 61.1413 68.2486 60.5394 68.6532L56.8295 69.6004C56.8295 69.6004 55.1127 70.2121 53.6525 67.7356C52.2021 65.259 49.6367 59.7041 51.1562 53.5769C51.1562 53.5769 51.5311 51.9193 53.5538 51.6134L56.2573 51.1102C56.2474 51.1102 57.4413 50.9228 57.5202 51.8996Z" fill="#262626"/>
<path d="M73.9976 40.0892C73.9976 40.0892 77.2339 37.7014 79.1086 37.7508C80.9832 37.8001 82.8579 40.2865 84.0715 42.319C85.2851 44.3516 88.472 52.3238 88.7779 57.711C89.0838 63.0982 89.0344 70.7646 86.4 71.6822C83.7656 72.5998 80.5294 71.475 80.5294 71.475C80.5294 71.475 76.2768 67.8145 73.8003 56.4382C71.3238 45.062 73.9976 40.0892 73.9976 40.0892Z" fill="#262626"/>
<path d="M84.5352 71.9979C84.5352 71.9979 87.5642 68.0611 86.025 57.4347C83.5978 40.691 77.4706 38.1553 77.4706 38.1553C77.4706 38.1553 72.932 41.6086 77.2634 57.7801C80.8352 71.1198 84.5352 71.9979 84.5352 71.9979Z" fill="#293241"/>
<path d="M75.813 50.9822C76.109 52.9556 76.5727 55.2052 77.2634 57.7902C77.6087 59.0828 77.9541 60.2569 78.2994 61.3225C80.1839 60.6713 83.2327 59.0236 81.9303 54.8697C80.7266 51.0118 77.589 50.775 75.813 50.9822Z" fill="#FEC55E"/>
<path d="M77.2634 57.7899C77.6088 59.0824 77.9541 60.2566 78.2994 61.3222C80.1544 60.6808 83.1439 59.0726 81.9797 55.0371L76.8589 56.2211C76.9872 56.7342 77.1253 57.2472 77.2634 57.7899Z" fill="#EFA318"/>
<path opacity="0.3" d="M60.8646 67.5977C59.3057 65.3975 58.3881 63.0295 57.875 60.8193L51.2939 62.0625C51.9254 64.5095 52.9219 66.5025 53.6521 67.7359C55.1025 70.2124 56.8292 69.6007 56.8292 69.6007L60.539 68.6535C61.1409 68.2489 60.8646 67.5977 60.8646 67.5977Z" fill="#3C8F7C"/>
<path d="M124.337 32.8072L124.308 36.0731L126.38 34.1294L132.892 29.6992L127.573 30.8635C127.573 30.8635 124.919 31.8699 124.781 32.0278C124.653 32.1758 124.337 32.8072 124.337 32.8072Z" fill="#FF526B"/>
<path d="M121.712 31.1695L132.891 29.6993L124.337 32.8073L121.712 31.1695Z" fill="#FF6677"/>
<path d="M128.323 35.5996L125.106 33.5967L132.891 29.6993L128.323 35.5996Z" fill="#FF6677"/>
<path d="M110.169 46.2745C110.169 46.018 110.188 45.7516 110.218 45.4852C110.247 45.2484 110.287 45.0017 110.336 44.7649L110.593 44.8241C110.543 45.051 110.504 45.2878 110.474 45.5246C110.445 45.7713 110.425 46.0278 110.425 46.2844C110.425 46.3534 110.425 46.4324 110.425 46.5014L110.159 46.5113C110.169 46.4324 110.169 46.3534 110.169 46.2745ZM110.889 43.1172C111.116 42.6041 111.412 42.1009 111.747 41.6076L111.964 41.7556C111.639 42.239 111.353 42.7324 111.135 43.2257L110.889 43.1172ZM119.177 41.5582C119.157 41.5484 119.147 41.5385 119.127 41.5385L119.246 41.3017C119.256 41.3116 119.275 41.3116 119.285 41.3214C119.285 41.3214 119.295 41.3214 119.315 41.3313C119.463 41.351 119.838 41.3017 120.035 41.1537C120.203 41.0254 120.321 40.8478 120.4 40.6209L120.647 40.7097C120.548 40.986 120.4 41.2129 120.193 41.3708C119.917 41.578 119.463 41.6273 119.275 41.6076C119.246 41.578 119.206 41.5681 119.177 41.5582ZM112.823 40.246C113.207 39.8316 113.622 39.427 114.076 39.0422L114.243 39.2494C113.809 39.6244 113.395 40.019 113.02 40.4236L112.823 40.246ZM117.874 39.6244C117.845 39.3678 117.845 39.1014 117.874 38.835C117.894 38.687 117.914 38.539 117.953 38.391L118.21 38.4502C118.18 38.5884 118.151 38.7265 118.131 38.8646C118.101 39.1113 118.101 39.358 118.131 39.5849C118.151 39.7526 118.19 39.9105 118.239 40.0684L117.993 40.1572C117.943 39.9894 117.894 39.802 117.874 39.6244ZM118.979 38.1246L118.94 38.1148L119.019 37.8582L119.058 37.8681C119.631 38.0654 120.134 38.4502 120.44 38.9238L120.213 39.0718C119.946 38.6377 119.493 38.3022 118.979 38.1246ZM115.595 38.174C115.881 38.0457 116.394 37.8286 116.671 37.7793C116.888 37.7398 117.085 37.7102 117.282 37.7004L117.302 37.9668C117.115 37.9865 116.927 38.0062 116.71 38.0457C116.523 38.0753 116.158 38.2134 115.704 38.4206L115.595 38.174ZM118.674 36.7926C118.999 36.2993 119.384 35.8652 119.838 35.4902L120.006 35.6974C119.571 36.0526 119.197 36.4769 118.891 36.9406L118.674 36.7926Z" fill="#D1D1D1"/>
<path d="M121.436 34.8295C121.703 34.721 121.979 34.6322 122.245 34.573L122.186 34.3164C121.9 34.3855 121.614 34.4743 121.328 34.5927L121.436 34.8295Z" fill="#D1D1D1"/>
<path d="M93.8193 66.9656L93.6812 67.084C93.6121 67.1432 93.5036 67.1432 93.4444 67.0742L91.0369 64.4102C90.9777 64.3411 90.9876 64.2424 91.0567 64.1734L91.1948 64.055C91.2638 63.9958 91.3724 63.9958 91.4316 64.0648L93.8391 66.7288C93.8983 66.8078 93.8884 66.9064 93.8193 66.9656Z" fill="#262626"/>
<path d="M101.989 64.8154C101.664 64.549 99.1772 65.6541 99.2068 66.029C99.2364 66.4138 97.4702 70.1138 97.4702 70.1138L94.4116 67.6669C94.382 67.5781 94.0958 66.6309 94.0761 66.4533C94.0662 66.2757 93.5433 65.9599 93.3065 66.0093C93.0697 66.0586 93.5137 66.3546 93.5433 66.4138C93.6222 66.5618 93.3164 66.621 93.3164 66.621C93.3164 66.621 92.4284 66.1375 92.4086 65.8514C92.3889 65.5653 92.2113 64.9634 92.014 65.0917C91.9153 65.1607 91.9153 65.585 91.9449 65.7823C91.8857 65.5554 91.8068 65.2989 91.7278 65.2693C91.5897 65.2199 91.5108 65.4074 91.5404 65.4962C91.57 65.585 91.7969 66.5618 91.866 66.6703C91.935 66.7789 93.3657 67.9333 93.563 68.1799C93.563 68.1799 97.5196 72.7186 97.8057 72.837C98.0524 72.9456 98.9305 71.3767 99.7692 70.3407C100.608 69.2949 102.996 65.6343 101.989 64.8154Z" fill="#FFC3B5"/>
<path d="M109.981 98.1941C109.981 98.1941 110.523 98.7269 110.533 98.9243C110.543 99.1216 110.583 101.213 110.356 101.411C110.129 101.608 109.477 101.746 109.695 101.963C109.852 102.131 111.076 102.091 111.885 102.052C112.122 102.042 112.418 100.148 112.507 99.8715C112.645 99.4669 112.97 98.5592 112.852 98.2829C112.793 98.1448 112.507 97.8685 112.102 97.6021C111.678 97.3258 111.263 96.7141 111.263 96.7141L109.981 98.1941Z" fill="#FFC3B5"/>
<path d="M99.0784 73.7441C99.0784 73.7441 98.8317 76.2207 98.8317 76.2503C98.8317 80.2463 98.0424 88.0705 98.1904 88.8204C98.5554 90.6556 102.502 100.009 102.502 100.009L104.633 99.7527L101.851 88.5441L102.877 84.0351L104.327 75.1156L99.0784 73.7441Z" fill="#262626"/>
<path d="M106.242 75.9247L106.646 78.273L107.742 87.9226L111.915 97.3551C111.915 97.3551 111.333 98.7266 110.465 98.9239L103.824 89.2447L99.7002 76.8621L99.8482 74.1093L106.242 75.9247Z" fill="#262626"/>
<path d="M98.23 67.854L101.19 68.1599C101.19 68.1599 101.328 65.7228 101.328 64.5684C101.328 63.1575 101.21 61.342 101.042 61.3815C100.568 61.49 99.927 61.7564 99.5422 62.2794C98.2201 64.0948 98.23 67.854 98.23 67.854Z" fill="#E8E8E8"/>
<path d="M99.6803 64.3117C99.6211 64.7458 98.4766 76.4082 98.4766 76.4082C103.864 79.0229 106.834 76.872 106.834 76.872C106.834 76.872 106.656 68.6728 106.873 67.5578C107.011 66.8178 107.189 61.9141 106.715 61.776C106.103 61.5984 105.403 61.4109 104.633 61.332C103.982 61.2629 101.446 61.2234 100.993 61.3813C100.993 61.3912 99.9467 62.5061 99.6803 64.3117Z" fill="#FCFCFC"/>
<path d="M97.8152 72.8368C97.8053 72.8269 97.756 72.7973 97.7362 72.7776C97.8349 71.6331 97.8152 70.528 97.46 70.1531C97.4698 70.1333 97.5488 69.9656 97.6277 69.7979C98.0421 70.1235 98.2394 70.972 98.1605 72.3632C98.1506 72.4619 98.1309 72.5309 98.1013 72.6493C97.9829 72.7677 97.8744 72.8565 97.8152 72.8368Z" fill="#FFC3B5"/>
<path d="M112.171 76.5368C112.171 76.5072 112.171 76.4874 112.171 76.4578C112.092 75.6488 111.421 68.8605 111.313 68.5744C111.214 68.3178 108.215 64.0061 108.215 64.0061L106.745 66.0189L109.626 69.8768C109.695 70.1234 110.731 74.7016 110.731 74.7016C110.731 74.7016 110.948 75.5402 111.037 76.0336C110.997 76.152 110.948 76.2704 110.908 76.3592C110.81 76.5565 110.701 76.7242 110.593 76.8624C110.464 77.04 110.247 77.4149 110.228 77.5136C110.198 77.632 110.139 77.8786 110.109 78.0266C110.08 78.1746 110.04 78.3424 110.03 78.4312C110.03 78.4805 109.971 78.5792 109.941 78.6482C109.882 78.7469 109.981 78.8752 110.089 78.8357C110.198 78.7962 110.277 78.668 110.326 78.5792C110.464 78.3424 110.543 77.8984 110.583 77.928C110.622 77.9477 110.741 78.6976 110.76 78.7765C110.78 78.8653 110.928 79.7237 111.017 79.8816C111.106 80.0394 111.214 80.0099 111.244 79.9112C111.273 79.8224 111.155 78.6186 111.155 78.6186C111.155 78.6186 111.145 78.4608 111.204 78.5101C111.273 78.5595 111.382 79.6547 111.431 79.8125C111.481 79.9704 111.589 80.0592 111.678 79.9309C111.787 79.773 111.599 78.6186 111.599 78.6186C111.599 78.6186 111.579 78.4706 111.639 78.4904C111.698 78.5002 111.777 79.4376 111.826 79.5165C111.875 79.5955 111.994 79.625 112.053 79.4869C112.122 79.329 111.944 78.293 111.944 78.293C111.944 78.293 111.954 78.2141 111.994 78.2339C112.033 78.2635 112.152 79.0528 112.231 79.1219C112.3 79.1811 112.359 79.1219 112.359 79.1219C112.507 79.0232 112.28 78.2733 112.28 77.8984C112.28 77.5234 112.112 77.109 112.161 76.6552C112.161 76.6552 112.171 76.5861 112.171 76.5368Z" fill="#FFC3B5"/>
<path d="M110.553 66.7392L107.988 68.4658C107.988 68.4658 106.548 66.305 105.768 65.5453C104.801 64.5882 106.123 61.6381 106.745 61.8058C108.156 62.1709 110.553 66.7392 110.553 66.7392Z" fill="#FCFCFC"/>
<path d="M104.446 58.8257L104.831 61.3614C104.831 61.3614 103.429 64.3806 102.591 64.1142C101.89 63.8971 102.324 61.2233 102.324 61.2233C102.324 61.2233 102.709 59.7926 102.591 59.0723C102.482 58.3521 104.446 58.8257 104.446 58.8257Z" fill="#FFC3B5"/>
<path d="M102.591 59.0723C102.472 58.3521 104.446 58.8257 104.446 58.8257L104.475 59.0329C104.416 59.171 104.347 59.2894 104.258 59.3881C103.814 59.8617 103.133 60.1478 102.542 60.1675C102.601 59.7827 102.64 59.3683 102.591 59.0723Z" fill="#FC8899"/>
<path d="M104.771 55.235C104.83 55.2153 105.215 58.126 104.475 58.9252C103.735 59.7244 102.295 59.9907 101.772 59.3593C101.199 58.6587 101.229 55.5409 102.383 54.7121C103.538 53.8932 104.771 55.235 104.771 55.235Z" fill="#FFC3B5"/>
<path d="M102.818 53.1527C103.706 53.3303 104.288 53.8829 104.495 54.1098C104.9 54.1592 105.452 54.3861 106.014 55.3234C106.715 56.4778 106.192 57.7703 105.383 58.3919C104.574 59.0234 104.584 59.7535 104.584 59.7535L104.456 59.3786C104.357 59.0925 104.317 58.7866 104.357 58.4906C104.377 58.313 104.416 58.1157 104.485 57.9578C104.682 57.5336 104.061 57.2573 103.893 56.9119C103.765 56.6455 103.755 56.0239 103.548 55.5799L103.301 55.2445C103.301 55.2445 102.729 54.7906 102.157 54.9189C101.594 55.0471 101.673 52.9258 102.818 53.1527Z" fill="#262626"/>
<path d="M104.31 56.7999C104.108 56.7965 103.94 57.0808 103.934 57.435C103.928 57.7892 104.086 58.0791 104.288 58.0825C104.489 58.086 104.658 57.8016 104.664 57.4475C104.67 57.0933 104.511 56.8034 104.31 56.7999Z" fill="#FFC3B5"/>
<path d="M102.729 58.2535L101.614 58.1943C101.614 58.1943 101.614 58.6186 102.108 58.6581C102.709 58.7074 102.729 58.2535 102.729 58.2535Z" fill="white"/>
<path d="M52.5867 101.914L53.1294 101.805L50.7713 89.2451L50.2188 89.3536L52.5867 101.914Z" fill="#293241"/>
<path d="M46.499 101.973H45.8379L48.2848 89.2451L48.8374 89.3536L46.499 101.973Z" fill="#293241"/>
<path d="M40.4608 101.973H40.9936L38.6453 89.3038L38.0928 89.4124L40.4608 101.973Z" fill="#181E26"/>
<path d="M42.8386 72.1158C40.6778 72.3526 37.8756 72.5894 35.0636 77.3747C31.9951 82.604 33.6132 90.4086 36.0305 92.5793C38.4577 94.7499 46.3708 97.4337 53.021 93.4179C53.021 93.4179 57.0367 90.9907 54.9746 86.9553C51.7975 80.7491 52.2514 79.4467 50.8306 77.0195C49.4196 74.5923 47.4266 71.6224 42.8386 72.1158Z" fill="#FC8899"/>
<path d="M35.0737 77.3848C36.9878 74.119 38.902 72.9646 40.6089 72.491C39.9478 73.1816 39.2769 74.0598 38.606 75.2043C35.5374 80.4336 37.1556 88.2382 39.5729 90.4088C41.7238 92.3328 48.1865 94.6614 54.2644 92.3624C53.6428 93.0531 53.0212 93.428 53.0212 93.428C46.371 97.4438 38.4481 94.76 36.0308 92.5894C33.6134 90.4187 31.9953 82.6043 35.0737 77.3848Z" fill="#FF6677"/>
<path d="M49.7847 80.0684L50.3372 81.7358L48.6401 81.0748L49.7847 80.0684Z" fill="#F79C8D"/>
<path d="M48.0384 75.0859C48.147 75.0859 48.4627 75.1945 48.9166 76.0529C49.4987 77.1481 50.3374 80.4435 50.3374 80.4435L47.8214 81.3809L47.4958 80.6902L46.963 75.3918C46.9531 75.3918 48.0088 75.0859 48.0384 75.0859Z" fill="#D1D1D1"/>
<path d="M44.7034 74.6123C45.4237 74.6123 47.2095 74.8195 48.0383 75.0859C48.0383 75.0859 48.6501 80.3152 47.4957 84.2817C47.2391 85.1697 47.7127 87.9718 47.7127 87.9718L40.2437 87.8731C40.2437 87.8731 41.1316 81.1145 40.7962 80.0193C40.4607 78.924 40.4508 75.1254 40.4508 75.1254C40.4508 75.1254 40.5002 75.1155 42.1282 74.8392C42.878 74.7011 43.9338 74.6123 44.7034 74.6123Z" fill="#FCFCFC"/>
<path d="M46.8546 86.4027C46.8546 86.4027 52.0149 86.1166 53.1594 86.8171C54.3138 87.5177 52.9522 88.9483 52.9522 88.9483C52.9522 88.9483 48.7589 90.7736 41.7239 91.1782C40.0565 91.2768 39.9183 86.8369 40.2242 86.4718C40.5498 86.0969 46.8546 86.4027 46.8546 86.4027Z" fill="#293241"/>
<path d="M43.0753 90.083C43.2825 91.6419 44.2987 99.407 44.2987 99.407L41.9307 99.703C41.9307 99.703 39.0201 89.5699 39.1681 88.0208C39.3161 86.4718 40.4113 86.3435 40.4113 86.3435C40.4113 86.3435 42.5326 85.9587 43.0753 90.083Z" fill="#3E4654"/>
<path d="M40.3618 75.7075C41.0624 75.4411 41.3978 81.7361 41.4965 84.331C42.7298 84.4494 44.8906 84.331 45.4235 84.2915C45.68 84.2718 46.2621 84.0547 46.5088 84.0251C46.7653 83.9955 47.0021 83.9758 47.1304 83.9955C47.1797 84.0054 48.4624 84.5283 48.5808 84.6467C48.7189 84.7947 49.084 85.1499 49.0248 85.3078C48.9656 85.4657 48.3144 84.8737 48.3144 84.8737L47.9987 84.6961C48.3933 85.0809 49.1432 85.5939 49.0347 85.7715C48.9261 85.9491 48.2453 85.4361 47.7619 85.0809C48.1763 85.4558 48.6893 86.1267 48.5709 86.2353C48.4624 86.3339 47.8803 85.5545 47.2488 85.3275C47.012 85.2486 46.785 85.4755 46.5976 85.5051C46.4594 85.5249 46.2522 85.5643 46.124 85.5347L45.4432 85.3374C45.2163 85.3571 45.2064 85.4953 44.9696 85.5446C44.7032 85.6038 44.2493 85.663 43.904 85.7518C41.9208 86.2353 41.2498 86.4622 40.648 86.4622C38.8128 86.4523 38.7141 76.3193 40.3618 75.7075Z" fill="#FFC3B5"/>
<path d="M39.0399 81.6078C38.9116 78.9537 38.9314 75.6878 40.4114 75.1254C40.9935 74.9083 42.0295 76.2305 41.842 81.6571C41.0527 81.7361 39.8884 81.7854 39.0399 81.6078Z" fill="#D1D1D1"/>
<path d="M47.3574 80.4736H47.2094L44.9302 86.0779L45.0782 86.0483L47.3574 80.4736Z" fill="#F79C8D"/>
<path d="M50.5936 87.6166C50.9291 86.9161 51.6888 85.9985 53.0208 86.551C54.2936 87.0739 54.639 88.3665 54.2344 89.6886C53.8299 91.0107 51.1955 98.7659 51.0968 99.8414L48.9854 99.8513C48.9854 99.8513 49.3702 93.7043 49.459 92.2243C49.5478 90.7937 50.0115 88.8302 50.5936 87.6166Z" fill="#3E4654"/>
<path d="M54.0176 80.4736H46.9629C46.7755 80.4736 46.6077 80.5822 46.5387 80.7598L44.368 86.0779H40.4805C40.372 86.0779 40.2832 86.1667 40.2832 86.2752C40.2832 86.3837 40.372 86.4725 40.4805 86.4725H51.5509C51.8568 86.4725 52.1331 86.295 52.2515 86.0187L54.4419 81.1347C54.5701 80.819 54.3531 80.4736 54.0176 80.4736Z" fill="#262626"/>
<path d="M50.2189 83.5717C50.1696 83.8085 49.9624 83.9664 49.7552 83.9269C49.548 83.8875 49.4197 83.6605 49.4691 83.4237C49.5184 83.1869 49.7256 83.0291 49.9328 83.0685C50.14 83.0981 50.2682 83.3251 50.2189 83.5717Z" fill="white"/>
<path d="M46.3803 68.2284C46.1633 68.1593 45.9561 68.0804 45.7587 67.9817C45.5318 67.8732 45.2358 67.7449 45.0483 67.7153C44.6537 67.6561 43.9827 67.6956 43.6078 68.1001C43.1441 68.6033 42.3153 68.1889 42.483 70.8332C42.6705 73.8227 44.3379 73.4971 44.3774 73.4478C44.4169 73.3985 45.8574 71.5337 45.8574 71.5337C45.8574 71.5337 46.3606 72.6388 46.3606 72.5993C46.3507 72.55 48.9358 69.0868 46.3803 68.2284Z" fill="#262626"/>
<path d="M45.1175 73.6648L45.2655 74.7305C45.2655 74.7305 45.5911 76.2697 45.1767 76.5657C44.7623 76.8617 43.4204 74.6811 43.4204 74.6811L43.5585 71.9678L45.1175 73.6648Z" fill="#FFC3B5"/>
<path d="M43.4995 72.8558C43.8448 73.7833 44.6539 74.3457 45.236 74.5726L45.1176 73.6649L43.5488 71.9777L43.4995 72.8558Z" fill="#FC8899"/>
<path d="M45.0285 69.0272C45.9066 68.8891 46.6959 69.5896 46.6663 70.4678C46.6565 70.8526 46.6269 71.3262 46.5479 71.8392C46.3605 73.0725 45.5119 74.1579 44.9594 74.0592C44.4069 73.9605 43.0058 72.895 43.2525 71.1387C43.4005 70.0632 44.1109 69.1752 45.0285 69.0272Z" fill="#FFC3B5"/>
<path d="M43.6373 71.3557C43.588 71.6221 43.3709 71.8195 43.1539 71.78C42.9368 71.7405 42.7888 71.4939 42.8381 71.2176C42.8875 70.9413 43.1045 70.7539 43.3216 70.7933C43.5485 70.8328 43.6867 71.0893 43.6373 71.3557Z" fill="#FFC3B5"/>
<path d="M43.3215 70.7937C43.3215 70.7937 43.9924 70.9614 44.2489 70.5273C44.4956 70.0931 45.3935 69.1558 46.5281 69.5505C47.6628 69.9353 45.5316 68.6131 45.4428 68.6131C45.354 68.6131 44.2588 68.6033 44.2588 68.6033C44.2588 68.6033 43.4201 69.2939 43.3905 69.3729C43.3609 69.4518 43.1143 70.2806 43.1143 70.2806L43.3215 70.7937Z" fill="#262626"/>
<path d="M44.5555 72.6094L45.779 72.8462C45.779 72.8462 45.6606 73.3099 45.1179 73.2211C44.4568 73.1027 44.5555 72.6094 44.5555 72.6094Z" fill="white"/>
<path d="M31.8962 58.9639L33.1196 59.2007C33.1196 59.2007 33.0012 59.6644 32.4586 59.5756C31.8074 59.4671 31.8962 58.9639 31.8962 58.9639Z" fill="white"/>
<path d="M131.076 96.546C130.011 96.6447 128.955 96.842 127.909 97.1084C126.015 97.6018 124.199 98.3418 122.403 99.1212C121.525 99.506 120.637 99.881 119.769 100.305C119.364 100.503 118.96 100.7 118.585 100.956C118.082 101.292 117.302 101.983 117.204 102.081L117.618 102.091C117.894 101.864 118.93 100.986 120.361 100.305C123.755 98.6674 127.287 96.99 131.066 96.5756C131.096 96.5756 131.096 96.546 131.076 96.546Z" fill="#262626"/>
</svg>
