<svg width="33" height="32" viewBox="0 0 33 32" fill="none" xmlns="http://www.w3.org/2000/svg">
<path fill-rule="evenodd" clip-rule="evenodd" d="M9.77726 2.40723H28.1111C29.7954 2.40723 31.1668 3.79381 31.1668 5.49666V19.0893C31.1668 20.7922 29.7954 22.1787 28.1111 22.1787H9.77726C8.09319 22.1787 6.72171 20.7922 6.72171 19.0893V5.49666C6.72171 3.79381 8.09319 2.40723 9.77726 2.40723ZM28.1111 4.87873H9.77726C9.44004 4.87873 9.16629 5.15543 9.16629 5.4966V17.1605L12.5397 13.751C13.3745 12.9059 14.7349 12.9059 15.5708 13.751L17.0497 15.2426L21.5893 9.73391C21.995 9.24202 22.589 8.95784 23.2221 8.95425C23.8589 8.96891 24.4517 9.22847 24.8613 9.71404L28.7223 14.2689V5.49666C28.7223 5.15549 28.4486 4.87873 28.1111 4.87873ZM5.14264 20.8798C5.7747 22.7655 7.51515 24.0321 9.47182 24.0321H27.2153L26.1142 27.5723C25.8024 28.776 24.6901 29.5928 23.4728 29.5928C23.2353 29.5926 22.9987 29.5619 22.7688 29.5014L3.86896 24.3842C2.4109 23.9776 1.54188 22.4517 1.92322 20.9798L4.88837 10.973V19.3982C4.88837 19.8184 4.95082 20.2383 5.0999 20.7377L5.14264 20.8798ZM15.2774 8.58566C15.2774 9.94866 14.1813 11.0572 12.8331 11.0572C11.4849 11.0572 10.3885 9.94861 10.3885 8.58566C10.3885 7.2227 11.4849 6.11416 12.8331 6.11416C14.1813 6.11416 15.2774 7.22265 15.2774 8.58566Z" fill="#A3A3A3"/>
</svg>
