<svg width="128" height="110" viewBox="0 0 128 110" fill="none" xmlns="http://www.w3.org/2000/svg">
<path d="M58.906 15.6179L45.84 7.85339L45.5762 45.8225L58.6436 53.5863L58.906 15.6179Z" fill="#14AF26"/>
<path d="M64.8844 12.2455L51.8184 4.47949L45.8398 7.85343L58.9059 15.618L64.8844 12.2455Z" fill="#29C13B"/>
<path d="M58.9069 15.618L58.6445 53.5863L64.6238 50.2124L64.8855 12.2455L58.9069 15.618Z" fill="#0EA124"/>
<path d="M46.1146 31.4695L33.0492 23.705L32.8262 55.8492L45.8922 63.6145L46.1146 31.4695Z" fill="#FFDA1C"/>
<path d="M52.0954 28.0963L39.0286 20.3311L33.0508 23.705L46.1161 31.4695L52.0954 28.0963Z" fill="#FFFC5E"/>
<path d="M46.1149 31.4697L45.8926 63.6146L51.8711 60.2392L52.0942 28.0964L46.1149 31.4697Z" fill="#F7B10C"/>
<path d="M34.9524 46.9541L21.885 39.1896L21.7227 62.7728L34.7894 70.5373L34.9524 46.9541Z" fill="#DB4019"/>
<path d="M40.9301 43.5788L27.8648 35.8149L21.8848 39.1896L34.9522 46.9541L40.9301 43.5788Z" fill="#EF5531"/>
<path d="M34.9521 46.9541L34.7891 70.5373L40.7669 67.1627L40.9299 43.5787L34.9521 46.9541Z" fill="#B91901"/>
<path d="M23.8185 58.724L10.7525 50.9595L10.623 69.5915L23.6898 77.3561L23.8185 58.724Z" fill="#2C91C4"/>
<path d="M29.7965 55.3502L16.7312 47.5842L10.752 50.9596L23.818 58.7241L29.7965 55.3502Z" fill="#72BCCF"/>
<path d="M23.8181 58.724L23.6895 77.3561L29.668 73.9814L29.7967 55.3501L23.8181 58.724Z" fill="#2881B9"/>
<path d="M13.1647 70.0069L0.0979513 62.2452L0 76.4073L13.0667 84.1726L13.1647 70.0069Z" fill="#C14876"/>
<path d="M19.143 66.6344L6.07622 58.8677L0.0976562 62.2452L13.1644 70.0069L19.143 66.6344Z" fill="#D15688"/>
<path d="M13.1644 70.0069L13.0664 84.1726L19.045 80.7965L19.1429 66.6344L13.1644 70.0069Z" fill="#A63259"/>
<path d="M84.8214 35.0971L93.9687 29.7813C93.5261 30.038 92.9727 30.0051 92.3121 29.624L83.1641 34.942C83.8233 35.3209 84.3781 35.3545 84.8214 35.0971Z" fill="#F7B10C"/>
<mask id="mask0_664_86479" style="mask-type:luminance" maskUnits="userSpaceOnUse" x="83" y="29" width="11" height="7">
<path d="M84.8194 35.097L93.9667 29.7812C93.5241 30.0379 92.9707 30.005 92.3101 29.6239L83.1621 34.9418C83.8213 35.3208 84.3761 35.3544 84.8194 35.097Z" fill="white"/>
</mask>
<g mask="url(#mask0_664_86479)">
<path d="M84.8207 35.0969L93.968 29.7811C93.9652 29.7826 93.9616 29.7861 93.9566 29.7883L84.8086 35.1048C84.8122 35.1019 84.8172 35.0998 84.8207 35.0969Z" fill="#F7B10C"/>
<path d="M84.8073 35.1047L93.9553 29.7882C93.9125 29.8118 93.8696 29.834 93.8231 29.8533L84.6758 35.1691C84.7215 35.1498 84.7644 35.1283 84.8073 35.1047Z" fill="#F7B10C"/>
<path d="M84.6768 35.1692L93.8241 29.8534C93.7826 29.8706 93.7405 29.8849 93.6968 29.8984L84.5488 35.2142C84.5924 35.2021 84.6353 35.1878 84.6768 35.1692Z" fill="#F7B10C"/>
<path d="M84.5495 35.2135L93.6975 29.8977C93.6539 29.9106 93.6103 29.9206 93.566 29.9277L84.418 35.245C84.463 35.2371 84.5059 35.2271 84.5495 35.2135Z" fill="#F7B10C"/>
<path d="M84.4166 35.2449L93.5646 29.9277C93.5188 29.9356 93.4738 29.942 93.428 29.9449L84.2793 35.2607C84.3265 35.2571 84.3715 35.2528 84.4166 35.2449Z" fill="#F7B10C"/>
<path d="M84.2789 35.2606L93.4276 29.9448C93.3775 29.947 93.3296 29.947 93.2789 29.9455L84.1309 35.2613C84.1809 35.2649 84.2302 35.2628 84.2789 35.2606Z" fill="#F7B10C"/>
<path d="M84.1309 35.2613L93.2789 29.9455C93.2274 29.9419 93.1738 29.9376 93.1194 29.9283L83.9707 35.2463C84.0265 35.2534 84.0787 35.2599 84.1309 35.2613Z" fill="#F7B10C"/>
<path d="M83.9702 35.2463L93.119 29.9284C93.0532 29.9191 92.9867 29.9048 92.9188 29.8862L83.7715 35.2027C83.838 35.2227 83.9052 35.2356 83.9702 35.2463Z" fill="#F7B10C"/>
<path d="M83.7729 35.2034L92.9202 29.8869C92.833 29.8625 92.7429 29.8311 92.6492 29.7925L83.502 35.1076C83.5935 35.1476 83.685 35.1798 83.7729 35.2034Z" fill="#F7B10C"/>
<path d="M83.501 35.1083L92.6483 29.7933C92.5403 29.7475 92.4267 29.691 92.3101 29.6252L83.1621 34.9432C83.2779 35.0075 83.3923 35.0633 83.501 35.1083Z" fill="#F7B10C"/>
</g>
<path d="M90.7239 17.5525L81.5766 22.8676C80.7079 23.373 80.3568 25.094 80.3497 27.3633C80.3404 31.0732 81.262 33.8416 83.1638 34.9419L92.3118 29.624C90.41 28.5258 89.4884 25.7567 89.4991 22.0475C89.5041 19.7775 89.8552 18.0565 90.7239 17.5525Z" fill="#F7B10C"/>
<mask id="mask1_664_86479" style="mask-type:luminance" maskUnits="userSpaceOnUse" x="80" y="17" width="13" height="18">
<path d="M90.7258 17.5525L81.5785 22.8676C80.7098 23.373 80.3588 25.094 80.3516 27.3633C80.3423 31.0732 81.2639 33.8416 83.1657 34.9419L92.3138 29.624C90.4119 28.5258 89.4903 25.7567 89.5011 22.0475C89.5061 19.7775 89.8571 18.0565 90.7258 17.5525Z" fill="white"/>
</mask>
<g mask="url(#mask1_664_86479)">
<path d="M83.1661 34.9419L92.3141 29.624C92.0274 29.4567 91.7622 29.2529 91.5184 29.0134L82.3711 34.3285C82.6135 34.5709 82.8794 34.7746 83.1661 34.9419Z" fill="#F7B10C"/>
<path d="M82.3708 34.3291L91.5181 29.014C91.4402 28.9347 91.363 28.8532 91.2886 28.7688L82.1406 34.0839C82.215 34.1689 82.2915 34.2512 82.3708 34.3291Z" fill="#F7B10C"/>
<path d="M82.1405 34.0841L91.2885 28.769C91.2313 28.7025 91.177 28.636 91.1233 28.5667L81.9746 33.8839C82.0289 33.9518 82.0847 34.0197 82.1405 34.0841Z" fill="#F7B10C"/>
<path d="M81.9738 33.8837L91.1225 28.5665C91.0732 28.5029 91.0246 28.4371 90.9774 28.3713L81.8301 33.6871C81.8766 33.7543 81.9244 33.8201 81.9738 33.8837Z" fill="#F7B10C"/>
<path d="M81.8303 33.6863L90.9776 28.3705C90.9325 28.3061 90.8896 28.2418 90.8467 28.1753L81.6973 33.4918C81.7423 33.5583 81.7852 33.6233 81.8303 33.6863Z" fill="#F7B10C"/>
<path d="M81.6982 33.4921L90.8477 28.1756C90.8069 28.1105 90.7662 28.0447 90.7261 27.9768L81.5781 33.2933C81.6174 33.3605 81.6568 33.427 81.6982 33.4921Z" fill="#F7B10C"/>
<path d="M81.5777 33.2932L90.7257 27.9767C90.6849 27.9059 90.6449 27.8351 90.6077 27.7607L81.459 33.0772C81.4969 33.1516 81.5369 33.2224 81.5777 33.2932Z" fill="#F7B10C"/>
<path d="M81.4596 33.078L90.6083 27.7616C90.5683 27.6879 90.5289 27.6121 90.491 27.5349L81.3438 32.85C81.3824 32.9279 81.4195 33.0037 81.4596 33.078Z" fill="#F7B10C"/>
<path d="M81.3428 32.8485L90.4901 27.5334C90.4479 27.4476 90.4086 27.3597 90.37 27.2717L81.2227 32.5875C81.2613 32.6769 81.2999 32.7641 81.3428 32.8485Z" fill="#F7B10C"/>
<path d="M81.224 32.5875L90.3713 27.2717C90.3291 27.1716 90.2877 27.0723 90.2476 26.9672L81.0996 32.2837C81.1396 32.3895 81.1811 32.4889 81.224 32.5875Z" fill="#F7B10C"/>
<path d="M81.0974 32.2837L90.2455 26.9672C90.2018 26.8499 90.1575 26.7277 90.1161 26.6033L80.9688 31.9205C81.0102 32.0442 81.0524 32.1664 81.0974 32.2837Z" fill="#F7B10C"/>
<path d="M80.9702 31.9212L90.1175 26.604C90.0682 26.4546 90.021 26.3015 89.9781 26.1428L80.8301 31.4593C80.8737 31.618 80.9209 31.7718 80.9702 31.9212Z" fill="#F7B10C"/>
<path d="M80.829 31.4594L89.977 26.1429C89.9191 25.9362 89.8662 25.7246 89.8211 25.5044L80.6738 30.8209C80.7189 31.0397 80.7718 31.2535 80.829 31.4594Z" fill="#F7B10C"/>
<path d="M80.6733 30.8216L89.8206 25.5051C89.7469 25.1619 89.6869 24.8044 89.6382 24.4326L80.4902 29.7477C80.5396 30.1202 80.5996 30.477 80.6733 30.8216Z" fill="#F7B10C"/>
<path d="M80.491 29.7477L89.639 24.4326C89.5446 23.6919 89.4982 22.8947 89.5003 22.0482C89.506 19.7775 89.8571 18.0565 90.7258 17.5525L81.5785 22.8676C80.7098 23.373 80.3587 25.094 80.3516 27.3633C80.3502 28.2112 80.3966 29.007 80.491 29.7477Z" fill="#F7B10C"/>
</g>
<path d="M86.8492 12.7393L77.7012 18.0565C79.0074 17.2965 80.8363 17.4638 83.1213 18.7829L92.2693 13.4664C89.9836 12.1459 88.1561 11.9807 86.8492 12.7393Z" fill="#E29805"/>
<mask id="mask2_664_86479" style="mask-type:luminance" maskUnits="userSpaceOnUse" x="77" y="12" width="16" height="7">
<path d="M86.8492 12.7393L77.7012 18.0565C79.0074 17.2965 80.8363 17.4638 83.1213 18.7829L92.2693 13.4664C89.9836 12.1459 88.1561 11.9807 86.8492 12.7393Z" fill="white"/>
</mask>
<g mask="url(#mask2_664_86479)">
<path d="M83.1224 18.783L92.2704 13.4665C91.8214 13.207 91.3882 12.9918 90.9742 12.8195L81.8262 18.136C82.2409 18.3075 82.6727 18.5235 83.1224 18.783Z" fill="#E29805"/>
<path d="M81.8261 18.1352L90.9741 12.8187C90.6438 12.6814 90.3271 12.5728 90.0211 12.4884L80.873 17.8049C81.1783 17.8893 81.4965 18.0001 81.8261 18.1352Z" fill="#E29805"/>
<path d="M80.8727 17.8049L90.0207 12.4884C89.7919 12.4262 89.5703 12.3797 89.3558 12.3475L80.207 17.6626C80.423 17.6955 80.6453 17.7441 80.8727 17.8049Z" fill="#E29805"/>
<path d="M80.2069 17.6626L89.3556 12.3475C89.1726 12.3168 88.9924 12.2996 88.8201 12.2917L79.6699 17.6075C79.8444 17.6154 80.0238 17.6333 80.2069 17.6626Z" fill="#E29805"/>
<path d="M79.6712 17.6076L88.8213 12.2918C88.6633 12.2847 88.5096 12.2861 88.3602 12.2947L79.2129 17.6119C79.3609 17.6019 79.5146 17.6019 79.6712 17.6076Z" fill="#E29805"/>
<path d="M79.2103 17.6119L88.3576 12.2947C88.2174 12.3047 88.083 12.3197 87.95 12.3412L78.8027 17.6591C78.9357 17.6355 79.0709 17.6219 79.2103 17.6119Z" fill="#E29805"/>
<path d="M78.8038 17.6598L87.9511 12.3419C87.8246 12.3655 87.698 12.3941 87.5779 12.4299L78.4277 17.7456C78.5507 17.7113 78.6758 17.6827 78.8038 17.6598Z" fill="#E29805"/>
<path d="M78.4286 17.7449L87.5788 12.4291C87.4565 12.4641 87.3386 12.5056 87.2235 12.5535L78.0762 17.8693C78.1906 17.8228 78.3092 17.7813 78.4286 17.7449Z" fill="#E29805"/>
<path d="M78.0765 17.8691L87.2238 12.5533C87.1079 12.602 86.995 12.6592 86.8863 12.7192L77.7383 18.0357C77.8477 17.9735 77.9599 17.9199 78.0765 17.8691Z" fill="#E29805"/>
<path d="M77.7369 18.0365L86.8849 12.72C86.8735 12.7264 86.8621 12.7328 86.8492 12.7393L77.7012 18.0565C77.7133 18.0493 77.7255 18.0436 77.7369 18.0365Z" fill="#E29805"/>
</g>
<path d="M88.6976 39.8438L97.8457 34.5281C99.3306 33.6644 100.261 31.6553 100.294 28.4802C100.31 22.586 97.1822 16.3014 92.2711 13.4666L83.123 18.7831C88.0342 21.6172 91.1621 27.9003 91.145 33.7981C91.1121 36.9725 90.1819 38.9809 88.6976 39.8438Z" fill="#E29805"/>
<mask id="mask3_664_86479" style="mask-type:luminance" maskUnits="userSpaceOnUse" x="83" y="13" width="18" height="27">
<path d="M88.6957 39.8438L97.8437 34.5281C99.3287 33.6644 100.259 31.6553 100.292 28.4802C100.308 22.586 97.1802 16.3014 92.2691 13.4666L83.1211 18.7831C88.0322 21.6172 91.1602 27.9003 91.143 33.7981C91.1101 36.9725 90.18 38.9809 88.6957 39.8438Z" fill="white"/>
</mask>
<g mask="url(#mask3_664_86479)">
<path d="M88.6953 39.8438L97.8433 34.5281C99.3283 33.6644 100.258 31.6553 100.291 28.4802C100.293 27.7316 100.245 26.9752 100.148 26.2223L91.0004 31.5374C91.0969 32.2924 91.1455 33.0474 91.1434 33.7981C91.1098 36.9725 90.1796 38.9809 88.6953 39.8438Z" fill="#E29805"/>
<path d="M91.0015 31.5368L100.15 26.2218C100.085 25.7213 99.9994 25.2187 99.8929 24.7203L90.7441 30.0368C90.8514 30.5345 90.9365 31.0371 91.0015 31.5368Z" fill="#E29805"/>
<path d="M90.7433 30.038L99.892 24.7216C99.8127 24.3455 99.7211 23.9723 99.6175 23.6012L90.4688 28.917C90.5717 29.2873 90.6639 29.662 90.7433 30.038Z" fill="#E29805"/>
<path d="M90.4708 28.9158L99.6195 23.6C99.5323 23.2847 99.4365 22.9708 99.3328 22.6598L90.1855 27.977C90.2878 28.2866 90.3836 28.6012 90.4708 28.9158Z" fill="#E29805"/>
<path d="M90.1834 27.9768L99.3307 22.6596C99.2392 22.3814 99.1405 22.1069 99.0354 21.8345L89.8867 27.1495C89.9911 27.4241 90.0905 27.6979 90.1834 27.9768Z" fill="#E29805"/>
<path d="M89.8868 27.1499L99.0355 21.8348C98.9383 21.5831 98.8353 21.3307 98.7274 21.0826L89.5801 26.3991C89.688 26.6487 89.7903 26.8975 89.8868 27.1499Z" fill="#E29805"/>
<path d="M89.5813 26.3989L98.7286 21.0824C98.6278 20.8472 98.5205 20.6148 98.4097 20.3839L89.2617 25.7004C89.3733 25.9313 89.4791 26.1644 89.5813 26.3989Z" fill="#E29805"/>
<path d="M89.2618 25.7013L98.4098 20.3848C98.3026 20.1603 98.1896 19.9387 98.0731 19.7213L88.9258 25.0378C89.0416 25.2566 89.1546 25.4768 89.2618 25.7013Z" fill="#E29805"/>
<path d="M88.9237 25.0382L98.071 19.7217C97.9573 19.5065 97.8393 19.2949 97.7164 19.0825L88.5684 24.4005C88.692 24.6092 88.81 24.823 88.9237 25.0382Z" fill="#E29805"/>
<path d="M88.569 24.3999L97.717 19.082C97.5933 18.8711 97.4646 18.6601 97.3316 18.4542L88.1836 23.7693C88.3173 23.9759 88.4446 24.1875 88.569 24.3999Z" fill="#E29805"/>
<path d="M88.1852 23.7694L97.3332 18.4543C97.1966 18.2377 97.0536 18.0253 96.9085 17.8173L87.7598 23.1345C87.9063 23.3418 88.0465 23.5535 88.1852 23.7694Z" fill="#E29805"/>
<path d="M87.7591 23.1352L96.9078 17.818C96.7498 17.5928 96.5868 17.374 96.4202 17.1581L87.2715 22.4739C87.4402 22.6905 87.6018 22.9093 87.7591 23.1352Z" fill="#E29805"/>
<path d="M87.2708 22.4737L96.4195 17.1579C96.2286 16.912 96.0327 16.6724 95.8289 16.4408L86.6816 21.7573C86.884 21.9897 87.082 22.2277 87.2708 22.4737Z" fill="#E29805"/>
<path d="M86.6834 21.7573L95.8307 16.4408C95.574 16.1462 95.308 15.8617 95.0321 15.5907L85.8848 20.9058C86.1593 21.1782 86.4253 21.462 86.6834 21.7573Z" fill="#E29805"/>
<path d="M85.883 20.9051L95.0303 15.59C94.1917 14.7606 93.2672 14.0414 92.2691 13.4658L83.1211 18.7823C84.1192 19.36 85.0436 20.0771 85.883 20.9051Z" fill="#E29805"/>
</g>
<path d="M91.1436 33.798C91.08 39.9753 87.6188 41.737 83.284 39.2346C79.1286 36.8352 75.335 31.0354 75.3536 24.1223C75.37 18.4784 78.1691 15.9238 83.1217 18.7822C88.0328 21.6164 91.1608 27.9002 91.1436 33.798ZM83.1632 34.9419C85.11 36.0644 86.1374 34.1633 86.1017 30.685C86.1103 27.3804 85.2316 24.226 83.1968 23.0513C81.1205 21.853 80.3584 24.0072 80.3491 27.3633C80.3405 31.0732 81.2621 33.8416 83.1632 34.9419Z" fill="#FFFC5E"/>
<path d="M87.2284 7.40937L83.6035 5.31738L100.047 49.0205L103.627 51.0867L87.2284 7.40937Z" fill="#FFFC5E"/>
<path d="M87.2284 7.40921L96.3778 2.09271L92.7508 0L83.6035 5.31722L87.2284 7.40921Z" fill="#E29805"/>
<path d="M103.627 51.0864L112.776 45.7699L96.378 2.09253L87.2285 7.40903L103.627 51.0864Z" fill="#F7B10C"/>
<path d="M105.564 33.3261L114.712 28.0103C114.267 28.2684 113.713 28.2348 113.053 27.8538L103.904 33.1688C104.565 33.5513 105.12 33.5835 105.564 33.3261Z" fill="#F7B10C"/>
<mask id="mask4_664_86479" style="mask-type:luminance" maskUnits="userSpaceOnUse" x="103" y="27" width="12" height="7">
<path d="M105.564 33.3261L114.712 28.0103C114.267 28.2684 113.713 28.2348 113.053 27.8538L103.904 33.1688C104.565 33.5513 105.12 33.5835 105.564 33.3261Z" fill="white"/>
</mask>
<g mask="url(#mask4_664_86479)">
<path d="M105.564 33.3262L114.712 28.0104C114.707 28.0111 114.703 28.0161 114.7 28.0161L105.551 33.3326C105.557 33.3305 105.559 33.3276 105.564 33.3262Z" fill="#F7B10C"/>
<path d="M105.55 33.3326L114.698 28.0161C114.654 28.0419 114.611 28.0633 114.566 28.0819L105.418 33.3984C105.463 33.3791 105.507 33.3569 105.55 33.3326Z" fill="#F7B10C"/>
<path d="M105.418 33.3983L114.566 28.0818C114.523 28.0989 114.481 28.1161 114.437 28.1283L105.289 33.4433C105.333 33.4305 105.376 33.4154 105.418 33.3983Z" fill="#F7B10C"/>
<path d="M105.289 33.4426L114.437 28.1276C114.394 28.139 114.35 28.149 114.304 28.1576L105.156 33.4748C105.202 33.4669 105.246 33.4562 105.289 33.4426Z" fill="#F7B10C"/>
<path d="M105.157 33.4755L114.304 28.1583C114.26 28.1655 114.215 28.1719 114.169 28.1741L105.021 33.4906C105.068 33.487 105.113 33.4827 105.157 33.4755Z" fill="#F7B10C"/>
<path d="M105.021 33.4906L114.169 28.1741C114.119 28.1776 114.069 28.1784 114.019 28.1748L104.871 33.4913C104.921 33.4941 104.971 33.4941 105.021 33.4906Z" fill="#F7B10C"/>
<path d="M104.872 33.492L114.02 28.1755C113.967 28.1727 113.914 28.1677 113.86 28.1605L104.713 33.4763C104.767 33.4842 104.819 33.4899 104.872 33.492Z" fill="#F7B10C"/>
<path d="M104.713 33.4755L113.86 28.1597C113.794 28.149 113.728 28.1347 113.66 28.1161L104.512 33.4326C104.581 33.4512 104.648 33.4669 104.713 33.4755Z" fill="#F7B10C"/>
<path d="M104.512 33.4341L113.66 28.1176C113.573 28.0933 113.483 28.0618 113.389 28.0232L104.242 33.3397C104.336 33.3776 104.425 33.4083 104.512 33.4341Z" fill="#F7B10C"/>
<path d="M104.242 33.339L113.39 28.0225C113.282 27.9767 113.168 27.9195 113.053 27.8538L103.904 33.1688C104.021 33.2382 104.133 33.2932 104.242 33.339Z" fill="#F7B10C"/>
</g>
<path d="M111.483 15.8074L102.335 21.1224C101.463 21.6293 101.096 23.3345 101.09 25.5946C101.08 29.3038 102.002 32.0729 103.903 33.1689L113.052 27.8539C111.15 26.7557 110.229 23.9887 110.239 20.2781C110.245 18.0173 110.61 16.3143 111.483 15.8074Z" fill="#F7B10C"/>
<mask id="mask5_664_86479" style="mask-type:luminance" maskUnits="userSpaceOnUse" x="101" y="15" width="13" height="19">
<path d="M111.483 15.8074L102.335 21.1224C101.463 21.6293 101.096 23.3345 101.09 25.5946C101.08 29.3038 102.002 32.0729 103.903 33.1689L113.052 27.8539C111.15 26.7557 110.229 23.9887 110.239 20.2781C110.245 18.0173 110.61 16.3143 111.483 15.8074Z" fill="white"/>
</mask>
<g mask="url(#mask5_664_86479)">
<path d="M103.902 33.1689L113.051 27.8539C112.764 27.688 112.499 27.4821 112.255 27.244L103.107 32.5598C103.35 32.7993 103.616 33.0038 103.902 33.1689Z" fill="#F7B10C"/>
<path d="M103.108 32.5598L112.256 27.244C112.177 27.1654 112.102 27.0838 112.027 26.998L102.879 32.3153C102.952 32.4003 103.03 32.4826 103.108 32.5598Z" fill="#F7B10C"/>
<path d="M102.878 32.3152L112.026 26.998C111.969 26.9315 111.913 26.865 111.861 26.7964L102.713 32.1115C102.766 32.183 102.822 32.2502 102.878 32.3152Z" fill="#F7B10C"/>
<path d="M102.714 32.1114L111.862 26.7963C111.813 26.7326 111.764 26.6669 111.718 26.6018L102.568 31.9183C102.616 31.9855 102.666 32.0499 102.714 32.1114Z" fill="#F7B10C"/>
<path d="M102.566 31.9184L111.716 26.6019C111.671 26.5375 111.626 26.4732 111.584 26.4053L102.436 31.7218C102.479 31.789 102.523 31.8548 102.566 31.9184Z" fill="#F7B10C"/>
<path d="M102.438 31.7218L111.587 26.4053C111.546 26.3402 111.505 26.2737 111.464 26.2051L102.316 31.523C102.356 31.5902 102.397 31.6567 102.438 31.7218Z" fill="#F7B10C"/>
<path d="M102.317 31.5224L111.465 26.2045C111.424 26.1359 111.384 26.0658 111.345 25.9915L102.197 31.3087C102.237 31.3816 102.277 31.4531 102.317 31.5224Z" fill="#F7B10C"/>
<path d="M102.197 31.3086L111.345 25.9914C111.306 25.917 111.267 25.8405 111.229 25.764L102.082 31.0798C102.118 31.157 102.159 31.235 102.197 31.3086Z" fill="#F7B10C"/>
<path d="M102.081 31.0799L111.228 25.7641C111.188 25.6769 111.148 25.5911 111.109 25.5017L101.961 30.8175C102 30.9076 102.039 30.9955 102.081 31.0799Z" fill="#F7B10C"/>
<path d="M101.961 30.8174L111.109 25.5016C111.067 25.403 111.025 25.3014 110.985 25.1985L101.838 30.515C101.877 30.6179 101.918 30.7187 101.961 30.8174Z" fill="#F7B10C"/>
<path d="M101.838 30.5156L110.985 25.1991C110.94 25.0797 110.897 24.9603 110.856 24.8352L101.707 30.1517C101.749 30.2754 101.791 30.3969 101.838 30.5156Z" fill="#F7B10C"/>
<path d="M101.708 30.1518L110.857 24.8353C110.806 24.6859 110.76 24.5314 110.716 24.3734L101.568 29.6899C101.612 29.8472 101.659 30.0023 101.708 30.1518Z" fill="#F7B10C"/>
<path d="M101.568 29.6891L110.715 24.3726C110.657 24.1674 110.607 23.9515 110.559 23.7341L101.412 29.0506C101.458 29.2708 101.51 29.4825 101.568 29.6891Z" fill="#F7B10C"/>
<path d="M101.411 29.0506L110.559 23.7341C110.486 23.3923 110.425 23.0341 110.378 22.6616L101.23 27.9774C101.277 28.3499 101.338 28.7081 101.411 29.0506Z" fill="#F7B10C"/>
<path d="M101.231 27.9775L110.378 22.6618C110.283 21.9225 110.236 21.1239 110.239 20.2781C110.246 18.0173 110.61 16.3136 111.483 15.8074L102.335 21.1224C101.463 21.6293 101.096 23.3345 101.09 25.5946C101.088 26.4411 101.134 27.2383 101.231 27.9775Z" fill="#F7B10C"/>
</g>
<path d="M109.467 38.0912L118.615 32.7754C120.1 31.911 121.02 29.8955 121.028 26.7075C121.045 20.8126 117.917 14.5287 113.006 11.6938C110.721 10.3747 108.892 10.2089 107.586 10.9667L98.4375 16.2832C99.7437 15.5247 101.572 15.6905 103.858 17.0104C108.768 19.8459 111.897 26.1298 111.881 32.0232C111.87 35.212 110.952 37.2275 109.467 38.0912Z" fill="#E29805"/>
<mask id="mask6_664_86479" style="mask-type:luminance" maskUnits="userSpaceOnUse" x="98" y="10" width="24" height="29">
<path d="M109.467 38.0909L118.615 32.7751C120.1 31.9107 121.02 29.8953 121.028 26.7072C121.045 20.8123 117.917 14.5285 113.006 11.6936C110.721 10.3745 108.892 10.2086 107.586 10.9665L98.4375 16.283C99.7437 15.5244 101.572 15.6903 103.858 17.0101C108.768 19.8457 111.897 26.1295 111.881 32.023C111.87 35.2118 110.952 37.2272 109.467 38.0909Z" fill="white"/>
</mask>
<g mask="url(#mask6_664_86479)">
<path d="M109.467 38.091L118.616 32.7753C120.1 31.9109 121.02 29.8954 121.028 26.7073C121.03 25.958 120.982 25.203 120.885 24.4495L111.738 29.7667C111.835 30.5203 111.883 31.276 111.882 32.0231C111.87 35.2119 110.952 37.2274 109.467 38.091Z" fill="#E29805"/>
<path d="M111.736 29.766L120.883 24.4488C120.819 23.9476 120.734 23.445 120.628 22.9474L111.479 28.2639C111.586 28.7622 111.671 29.2648 111.736 29.766Z" fill="#E29805"/>
<path d="M111.481 28.2638L120.63 22.9473C120.55 22.5726 120.458 22.1994 120.356 21.8276L111.207 27.1427C111.31 27.5145 111.401 27.8898 111.481 28.2638Z" fill="#E29805"/>
<path d="M111.206 27.1427L120.355 21.8276C120.266 21.513 120.172 21.1985 120.067 20.8875L110.92 26.2032C111.024 26.5164 111.119 26.8281 111.206 27.1427Z" fill="#E29805"/>
<path d="M110.92 26.2033L120.067 20.8875C119.975 20.6094 119.877 20.3349 119.771 20.061L110.623 25.3775C110.73 25.6499 110.828 25.9266 110.92 26.2033Z" fill="#E29805"/>
<path d="M110.623 25.3766L119.771 20.0601C119.674 19.8084 119.572 19.5574 119.464 19.3101L110.316 24.6273C110.424 24.8739 110.527 25.1256 110.623 25.3766Z" fill="#E29805"/>
<path d="M110.317 24.6275L119.465 19.3103C119.363 19.0744 119.256 18.8406 119.143 18.6104L109.996 23.9269C110.108 24.1585 110.214 24.3902 110.317 24.6275Z" fill="#E29805"/>
<path d="M109.995 23.9275L119.143 18.611C119.037 18.3872 118.924 18.1685 118.807 17.9482L109.66 23.264C109.776 23.4835 109.89 23.703 109.995 23.9275Z" fill="#E29805"/>
<path d="M109.662 23.2632L118.809 17.9475C118.696 17.7322 118.578 17.5199 118.455 17.3104L109.307 22.6262C109.43 22.8364 109.548 23.0495 109.662 23.2632Z" fill="#E29805"/>
<path d="M109.307 22.6271L118.455 17.3113C118.33 17.0975 118.202 16.888 118.07 16.6807L108.922 21.9986C109.056 22.2045 109.182 22.414 109.307 22.6271Z" fill="#E29805"/>
<path d="M108.921 21.9987L118.069 16.6807C117.93 16.4641 117.789 16.2525 117.641 16.0437L108.494 21.3602C108.64 21.5697 108.782 21.782 108.921 21.9987Z" fill="#E29805"/>
<path d="M108.494 21.36L117.641 16.0435C117.485 15.8197 117.323 15.5995 117.156 15.385L108.008 20.7001C108.177 20.9167 108.337 21.1376 108.494 21.36Z" fill="#E29805"/>
<path d="M108.009 20.7001L117.157 15.3851C116.966 15.1384 116.769 14.8996 116.567 14.6672L107.418 19.9823C107.622 20.2154 107.82 20.457 108.009 20.7001Z" fill="#E29805"/>
<path d="M107.418 19.9823L116.566 14.6672C116.31 14.3712 116.043 14.0888 115.768 13.8157L106.619 19.1336C106.896 19.4046 107.162 19.6884 107.418 19.9823Z" fill="#E29805"/>
<path d="M106.621 19.1343L115.769 13.8164C114.93 12.9878 114.006 12.2699 113.007 11.693C112.558 11.4334 112.125 11.2182 111.711 11.0459L102.562 16.3631C102.977 16.5347 103.409 16.7499 103.859 17.0094C104.858 17.5857 105.781 18.305 106.621 19.1343Z" fill="#E29805"/>
<path d="M102.562 16.3631L111.711 11.0459C111.381 10.9101 111.063 10.7978 110.757 10.7163L101.609 16.0321C101.915 16.1158 102.233 16.2266 102.562 16.3631Z" fill="#E29805"/>
<path d="M101.607 16.032L110.755 10.7162C110.527 10.6533 110.305 10.6061 110.091 10.5732L100.941 15.889C101.157 15.9226 101.378 15.9705 101.607 16.032Z" fill="#E29805"/>
<path d="M100.942 15.8892L110.091 10.5734C109.907 10.5455 109.728 10.5276 109.555 10.5198L100.406 15.8356C100.58 15.8441 100.759 15.862 100.942 15.8892Z" fill="#E29805"/>
<path d="M100.406 15.8355L109.555 10.5197C109.398 10.5118 109.243 10.5133 109.095 10.5233L99.9473 15.8383C100.095 15.829 100.25 15.8283 100.406 15.8355Z" fill="#E29805"/>
<path d="M99.9485 15.8383L109.096 10.5232C108.956 10.5311 108.821 10.5468 108.688 10.5704L99.541 15.8862C99.674 15.864 99.8091 15.8476 99.9485 15.8383Z" fill="#E29805"/>
<path d="M99.5414 15.8863L108.689 10.5706C108.56 10.5927 108.436 10.622 108.314 10.6556L99.166 15.9721C99.2883 15.9378 99.4134 15.9078 99.5414 15.8863Z" fill="#E29805"/>
<path d="M99.1652 15.972L108.313 10.6555C108.192 10.6927 108.074 10.7327 107.959 10.7806L98.8105 16.0979C98.9264 16.0499 99.0429 16.0078 99.1652 15.972Z" fill="#E29805"/>
<path d="M98.8087 16.098L107.957 10.7808C107.841 10.8301 107.729 10.8851 107.62 10.9459L98.4727 16.2631C98.582 16.2016 98.6936 16.1459 98.8087 16.098Z" fill="#E29805"/>
<path d="M98.474 16.263L107.621 10.9458C107.608 10.9522 107.598 10.9601 107.586 10.9658L98.4375 16.2823C98.4497 16.2773 98.4618 16.2702 98.474 16.263Z" fill="#E29805"/>
</g>
<path d="M103.858 17.01C108.768 19.8455 111.897 26.1294 111.881 32.0229C111.864 38.2274 108.401 39.9919 104.025 37.4645C99.8649 35.0636 96.072 29.2624 96.0899 22.3494C96.1064 16.7075 98.9069 14.1522 103.858 17.01ZM103.903 33.169C106.353 36.0131 107.133 33.2791 106.884 28.9385C106.694 25.6411 105.973 22.4566 103.98 21.3055C101.903 20.1072 101.101 22.2378 101.09 25.5946C101.08 29.3038 102.002 32.0729 103.903 33.169Z" fill="#FFFC5E"/>
<path d="M127.984 74.529C127.977 74.6069 127.971 74.6855 127.957 74.7642C127.945 74.825 127.927 74.8857 127.911 74.9465C127.893 75.018 127.875 75.0881 127.851 75.1588C127.829 75.2189 127.801 75.2782 127.776 75.3376C127.743 75.4105 127.712 75.4834 127.673 75.5556C127.644 75.6107 127.608 75.665 127.574 75.7201C127.524 75.8016 127.47 75.8831 127.41 75.9639C127.373 76.0132 127.333 76.0626 127.292 76.1119C127.198 76.2249 127.095 76.3357 126.981 76.4444C126.946 76.4787 126.913 76.5137 126.877 76.5473C126.8 76.6174 126.715 76.6831 126.631 76.7511C126.573 76.7968 126.519 76.8433 126.457 76.8876C126.368 76.9527 126.269 77.0149 126.172 77.0778C126.089 77.1314 126.011 77.1865 125.923 77.238L82.4309 102.512C82.2172 102.636 81.9905 102.748 81.7589 102.853C81.6895 102.884 81.6194 102.913 81.5487 102.942C81.3663 103.019 81.179 103.09 80.9881 103.155C80.9202 103.178 80.853 103.203 80.7844 103.225C80.6678 103.263 80.5477 103.295 80.4276 103.327C80.3282 103.355 80.231 103.383 80.1294 103.408C80.0093 103.437 79.8864 103.461 79.7634 103.486C79.664 103.505 79.5668 103.528 79.4667 103.546C79.2021 103.592 78.9347 103.63 78.6645 103.657C78.573 103.667 78.48 103.672 78.3878 103.681C78.2326 103.694 78.0768 103.705 77.9209 103.712C77.8187 103.716 77.7164 103.719 77.6142 103.72C77.4819 103.723 77.3511 103.723 77.2188 103.722C77.1101 103.72 77.0015 103.718 76.8928 103.713C76.7713 103.707 76.6497 103.702 76.5282 103.694C76.4195 103.685 76.3101 103.677 76.2021 103.666C76.082 103.655 75.9626 103.642 75.8439 103.627C75.736 103.612 75.6273 103.597 75.5201 103.58C75.3971 103.561 75.2755 103.539 75.154 103.516C75.0496 103.497 74.9459 103.475 74.8423 103.453C74.6978 103.421 74.5556 103.386 74.4133 103.348C74.3275 103.326 74.2417 103.303 74.1573 103.278C73.8971 103.203 73.6433 103.117 73.3973 103.023C73.3573 103.008 73.3208 102.989 73.2822 102.974C72.9462 102.837 72.6209 102.687 72.3199 102.512L38.3396 82.8941C36.9275 82.079 36.2219 81.0094 36.2254 79.9413C36.2197 81.8845 36.214 83.8271 36.209 85.7697C36.2061 86.8371 36.9111 87.9067 38.3232 88.7218L72.3034 108.34C72.6087 108.516 72.9369 108.67 73.2779 108.808C73.2979 108.817 73.3165 108.827 73.3365 108.836C73.3487 108.84 73.3609 108.843 73.373 108.849C73.6232 108.945 73.8806 109.032 74.1445 109.108C74.1652 109.114 74.1845 109.123 74.2052 109.129C74.2646 109.146 74.3261 109.157 74.3861 109.173C74.5327 109.212 74.68 109.249 74.8301 109.283C74.8709 109.291 74.9095 109.304 74.9509 109.312C75.0096 109.324 75.0703 109.331 75.129 109.343C75.2562 109.366 75.3828 109.389 75.5115 109.409C75.5608 109.417 75.6101 109.428 75.6595 109.435C75.7138 109.442 75.7696 109.447 75.8239 109.453C75.9397 109.468 76.0556 109.481 76.1728 109.492C76.2329 109.498 76.2922 109.507 76.353 109.513C76.4088 109.517 76.4652 109.517 76.5217 109.522C76.6397 109.53 76.7577 109.536 76.8764 109.54C76.9364 109.542 76.9965 109.548 77.0565 109.549C77.1037 109.551 77.1523 109.548 77.1995 109.549C77.3275 109.551 77.454 109.55 77.582 109.548C77.6507 109.547 77.7186 109.549 77.7872 109.547C77.8294 109.545 77.8694 109.541 77.9116 109.538C78.0668 109.531 78.2205 109.52 78.3735 109.507C78.4421 109.502 78.5108 109.5 78.5787 109.493C78.5994 109.492 78.6194 109.487 78.6402 109.484C78.914 109.457 79.1857 109.419 79.4531 109.371C79.4652 109.369 79.4774 109.369 79.4903 109.366C79.5653 109.351 79.639 109.334 79.7141 109.319C79.8485 109.292 79.9836 109.266 80.1159 109.233C80.2095 109.21 80.3003 109.183 80.3933 109.158C80.5205 109.123 80.6464 109.09 80.7708 109.051C80.7944 109.043 80.8201 109.037 80.8437 109.03C80.8845 109.016 80.9202 109 80.961 108.985C81.1583 108.918 81.3513 108.846 81.5394 108.766C81.6044 108.739 81.6702 108.712 81.7331 108.684C81.9676 108.578 82.1964 108.466 82.4116 108.34L125.904 83.0657C125.933 83.0492 125.962 83.0314 125.99 83.0149C126.06 82.9727 126.12 82.9277 126.186 82.8841C126.268 82.8304 126.352 82.7783 126.429 82.7218C126.504 82.6667 126.572 82.6095 126.643 82.553C126.713 82.4965 126.785 82.4408 126.85 82.3829C126.864 82.3693 126.882 82.3578 126.895 82.3443C126.925 82.3171 126.945 82.2885 126.973 82.2613C127.081 82.1562 127.181 82.049 127.272 81.9403C127.292 81.916 127.319 81.8931 127.339 81.8674C127.357 81.8431 127.37 81.8181 127.388 81.7937C127.45 81.7122 127.504 81.6293 127.555 81.5449C127.577 81.5092 127.605 81.4756 127.626 81.4405C127.636 81.4234 127.641 81.4048 127.651 81.3869C127.692 81.3119 127.725 81.2368 127.757 81.161C127.775 81.1181 127.801 81.0766 127.816 81.0337C127.822 81.0194 127.824 81.0051 127.829 80.9901C127.855 80.9165 127.874 80.8428 127.892 80.7692C127.905 80.7227 127.923 80.677 127.932 80.6312C127.935 80.619 127.934 80.6069 127.936 80.594C127.951 80.5197 127.956 80.4446 127.962 80.3695C127.967 80.3202 127.979 80.2701 127.979 80.2208C127.979 80.2001 127.98 80.1786 127.98 80.1579C127.986 78.2153 127.992 76.2728 127.997 74.3302C128.001 74.3953 127.989 74.4617 127.984 74.529Z" fill="#060A0A"/>
<path d="M125.888 71.3809C128.692 72.9989 128.702 75.6214 125.922 77.2365L82.4295 102.511C79.6447 104.129 75.1218 104.129 72.3192 102.511L38.3389 82.8926C35.5355 81.2739 35.5169 78.6521 38.301 77.0342L81.7932 51.7586C84.5737 50.1428 89.1052 50.1428 91.9071 51.7615L125.888 71.3809Z" fill="#0E1314"/>
<path d="M109.822 82.5366L76.7465 101.758L38.9727 79.9498L72.0478 60.7279L109.822 82.5366Z" fill="#08090B"/>
<path d="M122.756 74.8756L111.617 81.3489L73.8906 59.5674L85.0284 53.0941L122.756 74.8756Z" fill="#212121"/>
<path d="M99.1234 64.5294C100.34 65.2322 100.177 65.9679 99.4294 66.4005C98.7959 66.7694 97.8743 66.8624 96.8419 66.5821L96.8226 66.5935C97.431 67.1197 97.4825 67.8068 96.6224 68.3059C95.6393 68.8779 94.0113 68.9336 92.5256 68.0756C91.8321 67.6753 91.4396 67.197 91.3359 66.9067L92.2075 66.6636C92.2947 66.8888 92.61 67.345 93.1891 67.6803C94.2652 68.3009 95.2783 68.0978 95.7773 67.7954C96.6274 67.2913 96.2177 66.6257 95.4077 66.1595L94.9429 65.8907L95.565 65.5282L96.0311 65.7978C96.6403 66.1488 97.7227 66.4105 98.4506 65.988C98.9403 65.7034 99.0619 65.2694 98.2911 64.824C97.7978 64.5394 97.1036 64.3907 96.6467 64.3471L97.0335 63.8688C97.5933 63.9181 98.4556 64.144 99.1234 64.5294Z" fill="#23D8B5"/>
<path d="M101.63 70.5194L102.497 71.0199L101.844 71.3989L100.978 70.8984L99.3047 71.87L98.5168 71.4146L100.188 70.4437L97.3164 68.7856L97.8648 68.4668L104.546 67.7804L105.448 68.3016L101.63 70.5194ZM102.891 68.8736C103.213 68.6863 103.544 68.5039 103.884 68.3288L103.856 68.313C103.306 68.4117 102.889 68.4768 102.437 68.544L98.8343 68.8836L98.8157 68.895L100.843 70.0654L102.891 68.8736Z" fill="#23D8B5"/>
<path d="M90.0617 59.4166L83.9194 62.9872L83.1094 62.5196L88.4759 59.4009L88.4566 59.3895L86.8072 59.1042L87.2783 58.6423L89.3468 59.0041L90.0617 59.4166Z" fill="#23D8B5"/>
<path d="M94.3191 61.7569C95.6497 62.5262 95.3036 63.3763 94.4249 63.8875C93.2924 64.5452 91.5486 64.601 88.9969 64.5739L88.0474 64.5517L88.0281 64.5631L90.8065 66.1668L90.1173 66.5679L86.1699 64.2879L86.6797 63.9919L87.9702 64.0033C91.0439 64.0484 92.5496 63.9983 93.484 63.4656C94.1089 63.1017 94.3799 62.5912 93.459 62.0593C92.8971 61.7347 92.1471 61.6303 91.6251 61.6032L91.9454 61.1084C92.7319 61.147 93.6049 61.3436 94.3191 61.7569Z" fill="#23D8B5"/>
<path d="M110.642 71.2986L109.941 71.7047L107.582 70.3427L105.767 71.1235C105.929 71.195 106.08 71.26 106.31 71.393C106.784 71.6676 107.157 72.0029 107.311 72.3539C107.521 72.7936 107.391 73.332 106.616 73.7817C105.415 74.4795 103.556 74.4459 102.217 73.6723C101.541 73.2819 101.159 72.8422 101.055 72.5613L101.894 72.3153C102.001 72.5512 102.317 72.9523 102.878 73.2755C103.668 73.7324 104.853 73.826 105.677 73.3477C106.461 72.8808 106.496 72.2431 105.257 71.5296C104.906 71.3265 104.592 71.1892 104.336 71.0734L107.682 69.5906L110.642 71.2986Z" fill="#23D8B5"/>
<path d="M112.005 74.5175C113.098 75.1481 113.086 76.0489 111.885 76.746C110.761 77.3988 108.95 77.5589 107.665 76.8182C106.343 76.0554 106.5 74.9615 108.096 74.0349C109.307 73.3314 110.699 73.0296 111.912 73.0282C112.926 73.0353 113.924 73.2491 114.798 73.6438C115.083 73.7646 115.303 73.8804 115.452 73.9677L114.772 74.363C114.735 74.3395 114.695 74.3152 114.651 74.2901C114.503 74.205 114.32 74.1128 114.107 74.0242C112.577 73.3928 110.929 73.5458 109.775 74.0513L109.803 74.067C110.486 74.0106 111.32 74.1221 112.005 74.5175ZM108.311 76.4443C109.035 76.8619 110.114 76.7961 110.994 76.2849C111.872 75.7751 111.897 75.176 111.126 74.7305C110.621 74.4403 109.844 74.3516 109.172 74.4789C109.02 74.4996 108.859 74.5511 108.71 74.6376C107.715 75.2353 107.434 75.9381 108.311 76.4443Z" fill="#23D8B5"/>
<path d="M72.7332 64.5952L68.4398 67.0897L67.875 66.7637L71.625 64.5838L71.6121 64.5773L70.4568 64.3771L70.7878 64.0547L72.2363 64.3078L72.7332 64.5952Z" fill="white"/>
<path d="M80.5599 69.031C81.4908 69.5686 81.2506 70.1628 80.6365 70.5202C79.8428 70.9814 78.6252 71.0193 76.8428 71L76.1772 70.985L76.1643 70.9914L78.1055 72.1125L77.6243 72.3927L74.8652 70.7998L75.222 70.5925L76.1214 70.6018C78.2721 70.6325 79.3252 70.5975 79.978 70.2271C80.4155 69.9733 80.6057 69.6158 79.9601 69.2426C79.5669 69.016 79.0435 68.943 78.6796 68.9244L78.9027 68.5791C79.4532 68.6048 80.063 68.7443 80.5599 69.031Z" fill="white"/>
<path d="M88.2973 73.498C89.1481 73.9899 89.0323 74.5018 88.5096 74.8064C88.0678 75.0623 87.425 75.1288 86.7022 74.9344L86.6886 74.9415C87.1154 75.3097 87.1498 75.7895 86.5478 76.1391C85.8621 76.538 84.7224 76.5759 83.6865 75.9782C83.1996 75.6965 82.9264 75.3641 82.8535 75.1596L83.4627 74.9908C83.5227 75.1481 83.7436 75.4677 84.1462 75.7008C84.899 76.1348 85.609 75.9918 85.9572 75.7802C86.552 75.427 86.2661 74.9637 85.7012 74.6362L85.3738 74.4482L85.8085 74.1951L86.1359 74.3846C86.5606 74.6291 87.3178 74.815 87.8261 74.519C88.1693 74.3195 88.253 74.0149 87.7153 73.7039C87.3693 73.5044 86.8859 73.4015 86.5685 73.3693L86.8373 73.0361C87.2277 73.0712 87.8318 73.2292 88.2973 73.498Z" fill="white"/>
<path d="M62.3815 71.2186L62.9871 71.5675L62.5302 71.832L61.9253 71.4832L60.7564 72.1624L60.2058 71.8449L61.3755 71.1657L59.3672 70.0074L59.749 69.7837L64.4177 69.3025L65.0483 69.6679L62.3815 71.2186ZM63.2652 70.0682C63.489 69.9374 63.7206 69.8108 63.9566 69.6871L63.9394 69.6764C63.5526 69.7458 63.2616 69.7923 62.9463 69.8373L60.4282 70.0754L60.4153 70.0832L61.8324 70.9012L63.2652 70.0682Z" fill="white"/>
<path d="M73.5324 74.5653L73.0433 74.8499L71.3946 73.8983L70.1248 74.4409C70.2378 74.4924 70.3436 74.5389 70.5031 74.6304C70.8355 74.8234 71.0958 75.0565 71.203 75.3011C71.351 75.6092 71.2602 75.9853 70.7183 76.2999C69.8803 76.7875 68.5798 76.7639 67.6425 76.2241C67.1706 75.9524 66.9046 75.6442 66.8281 75.4491L67.4187 75.276C67.4923 75.4405 67.7133 75.72 68.1065 75.9474C68.6584 76.2663 69.4878 76.3313 70.0605 75.9974C70.6096 75.6714 70.6325 75.2253 69.7702 74.7276C69.5236 74.5847 69.3033 74.4895 69.1246 74.408L71.4633 73.3721L73.5324 74.5653Z" fill="white"/>
<path d="M78.8627 79.342C79.6263 79.7839 79.6184 80.4116 78.7783 80.9007C77.9933 81.3568 76.7278 81.4684 75.8291 80.9507C74.9046 80.4174 75.0147 79.6538 76.1315 79.0046C76.978 78.512 77.9504 78.3025 78.7983 78.3025C79.5069 78.3061 80.2026 78.4555 80.816 78.7322C81.0133 78.8165 81.1663 78.8973 81.2729 78.9588L80.7981 79.2341C80.7717 79.2176 80.7431 79.1998 80.7109 79.1819C80.6079 79.1225 80.4814 79.0582 80.3355 78.996C79.2666 78.5556 78.1105 78.6628 77.3062 79.0139L77.3262 79.0275C77.8024 78.9896 78.3844 79.0668 78.8627 79.342ZM76.2781 80.689C76.785 80.9815 77.54 80.935 78.1542 80.5782C78.7683 80.2215 78.7869 79.8025 78.25 79.4929C77.8975 79.2891 77.3505 79.2277 76.8808 79.3163C76.7757 79.3306 76.6627 79.3664 76.5576 79.4279C75.8634 79.8454 75.6668 80.3358 76.2781 80.689Z" fill="white"/>
<path d="M57.5213 74.559L57.1395 74.7814L51.3469 75.9682L50.7441 75.6186L56.416 74.4932L56.4296 74.4854L54.3154 73.2656L54.7973 72.9861L57.5213 74.559Z" fill="white"/>
<path d="M49.1975 77.8192C50.1069 78.3433 49.8209 79.1111 48.4539 79.9048C46.9932 80.7541 45.6427 80.9078 44.6853 80.3559C43.8417 79.8683 44.0576 79.0811 45.4632 78.2475C46.9024 77.4117 48.3202 77.3123 49.1975 77.8192ZM45.1679 80.1135C45.7671 80.4589 46.7459 80.2201 47.8412 79.5845C48.8986 78.9696 49.3212 78.409 48.7163 78.0594C48.2037 77.7641 47.2099 77.9107 46.0402 78.5906C44.9234 79.2398 44.6374 79.8075 45.1679 80.1135Z" fill="white"/>
<path d="M62.9664 80.0263C63.2946 80.4603 63.2488 80.8721 62.7276 81.1753C61.9805 81.6085 60.8365 81.5277 60.0122 81.0523C59.107 80.5303 59.0956 79.9047 59.7219 79.5401C60.2652 79.2255 60.9759 79.1905 61.7302 79.3678L61.7431 79.3535C61.4907 78.946 61.6551 78.6128 62.0241 78.3976C62.7054 78.0015 63.7457 78.0659 64.505 78.5034C65.3415 78.9875 65.2371 79.5323 64.7023 79.8433C64.3391 80.0542 63.7707 80.1786 62.9864 80.0163L62.9664 80.0263ZM60.4469 80.8142C60.9709 81.1173 61.6337 81.1259 62.0777 80.8678C62.5989 80.5647 62.4838 80.2079 62.0627 79.7739C61.4121 79.5673 60.8108 79.6009 60.4018 79.839C59.9449 80.0821 59.8942 80.496 60.4469 80.8142ZM62.6139 78.6907C62.1856 78.9403 62.2807 79.2641 62.6468 79.6273C63.1451 79.7711 63.6935 79.7825 64.0839 79.5544C64.4278 79.3542 64.5779 79.0282 64.0539 78.7258C63.5691 78.4455 62.9828 78.4762 62.6139 78.6907Z" fill="white"/>
<path d="M72.291 82.9992C73.1761 83.5111 73.0067 84.2396 71.9099 84.8767C70.9669 85.4257 69.9881 85.6259 69.153 85.6181C68.4945 85.6145 67.8367 85.4651 67.3198 85.227C67.1304 85.1455 66.9716 85.0647 66.8487 84.9939C66.8122 84.9732 66.78 84.9539 66.75 84.9353L67.2247 84.6586C67.2569 84.6808 67.2927 84.7036 67.3306 84.7258C67.4314 84.7837 67.5572 84.8445 67.7152 84.9203C68.0999 85.0883 68.5603 85.1927 69.0386 85.1998C69.5806 85.2141 70.1625 85.1155 70.7517 84.8659L70.7302 84.8531C70.2011 84.886 69.6835 84.7844 69.251 84.5349C68.4731 84.0859 68.5567 83.4617 69.2917 83.0342C70.1025 82.5637 71.4066 82.4894 72.291 82.9992ZM71.1263 84.5871C71.2128 84.5728 71.2993 84.5471 71.3923 84.4934C72.1244 84.068 72.4118 83.5833 71.8005 83.2301C71.3043 82.9434 70.5164 82.992 69.9087 83.3452C69.3718 83.6562 69.3224 84.0623 69.8279 84.354C70.2204 84.5814 70.7166 84.6479 71.1263 84.5871Z" fill="white"/>
<path d="M101.31 83.1508C100.571 83.5805 99.8122 83.5676 99.3582 83.3052C98.9192 83.0514 98.8885 82.6281 99.5891 82.2134C100.29 81.8066 101.068 81.8016 101.534 82.0697C102.029 82.3557 101.979 82.7618 101.31 83.1508ZM99.9845 82.4251C99.5255 82.6789 99.3539 82.9734 99.6535 83.1457C99.9681 83.3273 100.444 83.2144 100.908 82.9441C101.332 82.6975 101.566 82.4193 101.235 82.227C100.935 82.0533 100.427 82.167 99.9845 82.4251Z" fill="white"/>
<path d="M103.548 83.233L103.852 83.4089L98.1567 84.3162L97.8535 84.1403L103.548 83.233Z" fill="white"/>
<path d="M102.389 84.2423C102.882 84.5261 102.825 84.9315 102.158 85.319C101.418 85.7494 100.661 85.7358 100.211 85.4763C99.771 85.2225 99.7409 84.7999 100.435 84.3888C101.142 83.9763 101.922 83.9727 102.389 84.2423ZM100.507 85.3169C100.821 85.4978 101.299 85.3862 101.761 85.1167C102.188 84.8693 102.419 84.5897 102.087 84.3981C101.788 84.2251 101.277 84.3359 100.833 84.5933C100.379 84.8485 100.214 85.1467 100.507 85.3169Z" fill="white"/>
<path d="M95.9605 87.4715L93.8271 87.756L93.293 89.0444L92.8876 88.8099L93.1364 88.2665C93.2236 88.0528 93.2823 87.9155 93.3545 87.7775L93.3452 87.7732C93.1149 87.8182 92.8933 87.8583 92.5187 87.9133L91.6057 88.0685L91.2031 87.8368L93.3895 87.5237L93.9214 86.2932L94.3275 86.527L94.053 87.1004C93.9779 87.2598 93.9186 87.3828 93.8478 87.5072L93.8607 87.5144C94.0959 87.4665 94.2882 87.4343 94.5599 87.3921L95.5601 87.2384L95.9605 87.4715Z" fill="white"/>
<path d="M95.5201 79.4916L95.1898 79.6832L91.8652 77.7635L92.1963 77.5712L95.5201 79.4916Z" fill="white"/>
<path d="M88.5464 82.2349L86.9935 83.1372L88.4949 84.0052L88.0981 84.2347L86.5959 83.3682L85.0323 84.2769L84.6055 84.0302L86.1705 83.1215L84.6677 82.2549L85.0645 82.0233L86.5666 82.8906L88.1195 81.9875L88.5464 82.2349Z" fill="white"/>
<path d="M74.4688 96.3877L74.8648 96.1567L78.2931 98.1358L77.897 98.366L74.4688 96.3877Z" fill="white"/>
<path d="M76.1585 95.4045L79.5875 97.3843L79.1907 97.6145L75.7617 95.6348L76.1585 95.4045Z" fill="white"/>
<path d="M76.837 88.7261C77.0708 88.8612 77.0529 89.0485 76.8156 89.1944C76.5846 89.3288 76.2529 89.3438 76.0062 89.2023C75.7724 89.0671 75.7917 88.8712 76.022 88.7375C76.2672 88.596 76.6054 88.5931 76.837 88.7261Z" fill="white"/>
<path d="M78.3382 87.8473C78.1052 87.7122 78.123 87.5162 78.354 87.3825C78.5999 87.241 78.9388 87.2381 79.1705 87.3711C79.4035 87.5062 79.3864 87.6936 79.1476 87.8394C78.9152 87.9753 78.5849 87.9896 78.3382 87.8473Z" fill="white"/>
<path d="M52.8552 84.1074C53.089 84.2425 53.0754 84.4348 52.8295 84.5771C52.5943 84.7144 52.2611 84.7308 52.0144 84.5885C51.7813 84.4534 51.8014 84.2568 52.0373 84.1195C52.2825 83.9772 52.6236 83.9744 52.8552 84.1074Z" fill="white"/>
<path d="M86.7048 90.0537L83.7233 93.8802L83.2715 93.6185L86.2522 89.7927L86.7048 90.0537Z" fill="white"/>
<path opacity="0.1" d="M125.886 71.3809L91.9058 51.7615C89.1032 50.1428 84.5717 50.1428 81.7919 51.7586L38.2997 77.0342C36.8705 77.865 36.1856 78.9596 36.2306 80.0485L127.996 74.298C127.985 73.242 127.282 72.1867 125.886 71.3809Z" fill="white"/>
</svg>
