<svg width="76" height="128" viewBox="0 0 76 128" fill="none" xmlns="http://www.w3.org/2000/svg">
<path d="M42.5235 119.174C42.5002 123.481 48.5186 126.95 55.9804 126.939C63.4306 126.927 69.4956 123.423 69.5188 119.128C69.5421 114.82 63.5237 111.351 56.0619 111.363C48.6117 111.375 42.5468 114.879 42.5235 119.174Z" fill="#E3E8F0"/>
<path d="M52.6638 50.8884C52.6638 50.8884 47.4603 42.0064 46.855 41.1682C46.2497 40.3301 41.1044 39.8412 41.6864 42.2043C42.2685 44.5674 49.1483 58.746 49.1483 58.746L52.6522 50.8768L52.6638 50.8884Z" fill="#4860BF"/>
<path d="M52.4194 111.724C52.4194 111.724 53.502 112.05 53.6766 112.69C53.8512 113.342 53.8512 114.285 53.8512 114.285C53.8512 114.285 53.4322 115.03 52.0818 115.216C50.7315 115.402 50.6384 115.519 50.6384 115.519C50.6384 115.519 50.1029 115.228 49.8002 115.368C49.4976 115.507 48.962 115.542 48.8689 115.856C48.7758 116.182 47.2741 116.962 46.7037 117.184C46.1333 117.416 44.7597 117.929 43.6771 117.964C42.5945 117.998 42.4781 117.032 42.4781 117.032C42.4781 117.032 42.3034 116.532 42.6177 116.171C42.9321 115.81 52.431 111.701 52.431 111.701L52.4194 111.724Z" fill="#212430"/>
<path d="M68.5167 118.522C68.5167 118.522 69.739 118.639 69.7972 119.209C69.8554 119.779 69.8787 120.839 69.7972 121.421C69.7158 122.003 69.7157 123.702 69.4829 124.459C69.2501 125.216 68.7728 127.137 67.0616 127.73C65.3504 128.324 64.2911 127.8 63.9884 127.474C63.6858 127.148 63.6974 126.135 63.7323 125.449C63.7556 124.762 64.4308 123.225 65.1874 122.666C65.9325 122.108 68.5284 118.534 68.5284 118.534L68.5167 118.522Z" fill="#212430"/>
<path d="M48.3912 111.631C48.3912 111.631 47.2154 112.387 46.8662 112.772C46.517 113.156 43.0363 114.657 42.8268 115.402C42.6173 116.147 42.5823 116.147 42.6173 116.567C42.6522 116.986 42.8268 117.521 43.7232 117.498C44.6195 117.475 47.553 116.299 48.1001 115.81C48.6473 115.309 49.0547 114.855 49.8114 114.692C50.568 114.518 52.4771 114.04 52.8729 113.831C53.2687 113.621 53.1989 113.295 53.1989 113.295C53.1989 113.295 53.2338 111.584 52.7798 110.828C52.3258 110.071 48.3795 111.642 48.3795 111.642L48.3912 111.631Z" fill="#33374A"/>
<path d="M65.6336 118.092C65.459 118.604 65.2495 120.885 65.168 121.828C65.0865 122.771 64.3182 123.982 64.1203 125.228C63.9224 126.473 63.9457 126.683 64.1203 126.927C64.2949 127.172 65.3193 127.474 66.5765 127.369C67.8337 127.265 68.928 125.588 69.091 124.82C69.2423 124.052 69.3936 122.48 69.4286 121.724C69.4751 120.967 69.6032 119.803 69.6032 119.465C69.6032 119.128 69.3354 117.079 69.3354 117.079L65.6453 118.092H65.6336Z" fill="#33374A"/>
<path d="M50.8459 75.4043C50.8459 75.4043 50.1591 76.6615 49.5537 80.4681C48.9484 84.2747 48.832 97.9761 49.0648 100.863C49.2976 103.75 54.0471 103.11 54.6641 100.56C55.2694 98.011 57.0621 86.7891 57.0971 86.0208C57.132 85.2642 57.1785 77.3483 57.0971 76.6964C57.0156 76.0445 50.8575 75.4043 50.8575 75.4043H50.8459Z" fill="#232F5C"/>
<path d="M53.0379 79.8161C52.8633 82.4819 53.2824 86.7774 53.4337 88.3373C53.585 89.8971 56.0529 90.7702 56.0529 90.7702C56.0529 90.7702 59.9177 102.9 60.4881 103.552C61.0585 104.204 64.0502 104.681 64.9233 103.808C65.7964 102.935 67.17 102.143 67.3097 101.398C67.4494 100.653 67.3563 98.8607 66.7509 95.8573C66.1456 92.8539 65.8429 86.1022 65.0397 82.412C64.2365 78.7218 63.1772 75.7883 63.1772 75.7883L53.0379 79.8277V79.8161Z" fill="#263263"/>
<path d="M49.9297 78.4659C50.1974 80.212 53.6199 82.0396 55.6803 82.4587C57.7408 82.8778 59.7081 82.9476 62.304 81.737C64.8883 80.5147 64.4459 79.8977 64.3412 79.5136C64.2364 79.1294 63.6544 77.1737 63.6544 77.1737C63.6544 77.1737 50.5932 75.9631 50.3837 76.7197C50.1742 77.4764 49.9413 78.4775 49.9413 78.4775L49.9297 78.4659Z" fill="#212430"/>
<path d="M61.8236 102.167C61.8236 102.167 59.1695 99.3845 60.4966 103.552C61.8236 107.719 64.5709 118.802 64.9434 120.164C65.3275 121.537 68.7849 120.524 69.3204 119.896C70.0771 119.011 69.9606 118.545 69.9606 118.243C69.9606 117.94 69.9374 113.435 69.041 108.406C68.1447 103.377 67.3414 100.875 67.3414 100.875L61.8353 102.155L61.8236 102.167Z" fill="#263263"/>
<path d="M48.9501 97.4987C48.6242 101.946 47.9141 111.654 47.9141 112.306C47.9141 113.307 50.2655 113.132 51.2667 112.946C52.617 112.702 53.0361 112.19 53.1641 111.724C53.3038 111.247 54.3166 103.529 54.6193 102.376C54.9219 101.235 54.8404 96.7886 54.8404 96.7886L48.9501 97.4987Z" fill="#232F5C"/>
<path d="M63.841 77.814C63.6663 79.6649 60.8841 81.3761 57.1241 81.0153C52.3048 80.5496 50.3258 77.4182 50.256 76.8478C50.1861 76.2774 49.348 68.606 49.1151 65.9752C48.8823 63.3443 48.9871 60.6203 48.9173 59.0954C48.7427 54.9628 51.8275 52.3436 53.3408 52.2621C54.8541 52.1807 56.2743 54.2178 58.9634 54.4739C61.6408 54.73 64.1436 55.8825 64.6907 56.9418C65.2378 58.0011 65.948 58.8858 66.0295 61.4236C66.1109 63.9613 65.005 65.5561 64.6907 67.0694C64.3764 68.5827 63.9457 76.0562 63.8526 77.814H63.841Z" fill="#D4DFFF"/>
<path d="M54.1757 59.9567C54.1757 59.9567 52.965 67.3836 52.9766 68.7223C52.9766 70.061 53.9079 71.8072 53.9079 71.8072C53.9079 71.8072 55.0953 69.7584 55.1302 68.571C55.1535 67.3836 55.0255 60.7832 54.8159 60.1429C54.6064 59.5027 54.1873 59.9567 54.1873 59.9567H54.1757Z" fill="#291925"/>
<path d="M53.7802 70.3752C51.5218 63.3557 51.5218 58.6412 52.4182 55.6378C52.977 53.7636 55.4332 53.4493 55.4332 53.4493C55.4332 53.4493 55.1305 52.7741 53.5357 52.3201C51.9409 51.8545 49.6243 53.7869 48.9725 56.9532C48.3206 60.1196 49.4148 78.1048 49.4497 79.5832C49.4847 81.0616 49.7757 82.7961 51.8478 83.6808C53.9199 84.5655 55.1305 83.6808 55.1305 83.6808L53.7918 70.3636L53.7802 70.3752Z" fill="#304080"/>
<path d="M53.6756 69.6769C51.6036 58.7577 51.848 58.327 52.1739 56.7904C52.4999 55.2538 52.9888 55.0326 53.4545 54.4738C53.9201 53.9151 54.7 53.2166 54.7 53.2166C54.7 53.2166 54.735 52.9139 53.5243 53.0071C52.3136 53.1002 50.5093 55.4284 50.2998 57.4539V58.5132L51.1263 59.6657L50.1484 60.5387C50.1484 60.5387 50.3813 65.556 53.6756 77.1387V69.6652V69.6769Z" fill="#4860BF"/>
<path d="M59.9027 54.7649C60.8689 55.149 59.6 59.1186 54.0589 69.0366C53.9774 78.8732 54.5362 83.8439 54.5362 83.8439C54.5362 83.8439 54.5711 84.5307 55.5606 84.9032C56.1543 85.1244 59.1926 85.3805 61.5673 84.9032C62.8129 84.6588 63.7442 84.2746 64.5823 83.5412C65.8745 82.4004 65.4903 81.4575 65.4903 81.0501C65.4903 80.6426 64.559 74.7407 64.8151 72.8665C65.0712 70.9807 65.7464 62.6225 66.0142 62.1452C66.2819 61.6679 66.2703 57.7216 64.4426 56.2549C62.615 54.7881 58.6454 54.1013 58.6454 54.1013L59.891 54.7765L59.9027 54.7649Z" fill="#304080"/>
<path d="M45.2359 27.397C45.2359 27.397 45.8995 26.5356 46.0508 26.1864C46.2021 25.8371 46.4233 25.29 47.017 25.1038C47.6107 24.9175 50.0902 24.4402 50.3114 24.3471C50.5326 24.254 50.6373 24.2307 50.6373 24.2307C50.6373 24.2307 51.5686 22.7756 51.8131 22.6475C52.0692 22.5195 52.2088 22.8803 52.2088 22.8803L51.8713 23.7418L52.3718 23.2994C52.3718 23.2994 52.8025 22.1819 53.1168 22.1353C53.4311 22.0888 53.4079 22.4031 53.4079 22.4031C53.4079 22.4031 53.8037 22.0655 53.9434 22.3099C54.0831 22.5544 53.8735 23.1364 53.8735 23.1364C53.8735 23.1364 54.1412 23.5322 53.9899 24.0212C53.8386 24.5101 53.0237 25.8953 53.0237 25.8953C53.0237 25.8953 52.0459 26.6404 51.1379 26.978C50.2299 27.3155 49.2986 27.6764 48.9494 27.7463C48.6002 27.8045 47.8901 28.1188 47.6689 28.4447C47.4477 28.7707 46.8657 29.83 46.8657 29.83L44.8867 28.2585L45.2359 27.3854V27.397Z" fill="#FF9C78"/>
<path d="M52.7443 27.6881C52.7443 27.6881 51.9527 27.4436 51.6384 27.6415C51.3241 27.8394 50.4394 28.014 50.3579 28.0024C50.2764 27.9791 49.8108 28.1537 49.2986 28.0257C48.798 27.8976 48.181 27.886 47.7503 28.2003C47.3196 28.5146 47.273 29.2014 47.3429 29.3295C47.4127 29.4575 49.5547 29.5623 49.5547 29.5623L51.2892 29.0734C51.2892 29.0734 52.395 28.3633 52.5697 28.3633C52.7326 28.3633 52.7443 27.6881 52.7443 27.6881Z" fill="#FF9C78"/>
<path d="M53.246 53.0651C53.9561 54.3224 54.0493 55.2653 54.0493 56.5458C54.0493 57.8263 54.026 57.8845 54.2937 58.0824C54.5614 58.2803 55.6208 58.7226 57.2389 58.0125C58.8686 57.3024 60.1258 55.5447 59.8813 54.4388C59.6369 53.3445 59.4157 51.6333 59.5205 50.9232C59.6369 50.2247 59.6602 47.3611 59.6602 47.3611C59.6602 47.3611 57.4018 46.2319 56.878 46.8954C56.3542 47.5473 53.2344 53.0651 53.2344 53.0651H53.246Z" fill="#FF9C78"/>
<path d="M58.436 45.6383C58.436 45.6383 58.6339 51.9011 58.436 52.7277C58.2381 53.5542 55.1067 55.8823 53.768 55.9755C52.9997 56.0337 52.1965 55.568 52.0568 55.4051C51.9171 55.2421 50.9858 52.4483 50.8229 50.6556C50.6599 48.8629 50.5551 48.4671 50.6482 46.9887C50.7414 45.5103 50.8112 44.4859 51.2885 43.9038C51.7658 43.3218 53.1045 42.0529 55.2581 42.7979C57.4117 43.543 58.436 45.6267 58.436 45.6267V45.6383Z" fill="#FF9C78"/>
<path d="M51.8851 45.0681C54.3647 46.1274 55.587 45.5337 55.7965 45.9761C56.0061 46.4184 55.7499 47.2799 55.8081 47.5592C55.8663 47.8386 57.2051 47.8968 57.3564 48.6302C57.5077 49.3636 57.4728 49.643 57.4728 49.643H58.2295C58.2295 49.643 58.2411 47.8968 59.1491 47.7688C60.0571 47.6291 59.7894 49.154 59.7661 49.7244C59.7428 50.2949 59.3936 50.6906 59.3936 51.0282C59.3936 51.3658 59.4983 51.8897 59.4983 51.8897C59.4983 51.8897 60.3015 50.1435 60.6508 49.6546C61.0116 49.1657 61.6752 46.1972 61.5355 44.4162C61.3842 42.6468 60.7905 42.1811 59.4168 41.6806C58.0316 40.0392 54.5858 40.3419 52.8397 41.0636C51.0936 41.797 50.8957 42.4605 50.6163 43.6013C50.3369 44.7305 50.4882 46.7444 50.6512 46.9888C50.8491 45.0099 51.0121 44.6606 51.1401 44.6374C51.2798 44.6024 51.8735 45.0681 51.8735 45.0681H51.8851Z" fill="#291925"/>
<path d="M58.9952 49.154C58.9952 48.0365 59.7751 47.8851 60.0778 48.0015C60.3804 48.1179 60.7995 48.409 60.0778 49.8641C59.356 51.3308 59.1698 51.3075 58.7856 51.1329C58.4015 50.9583 58.9952 49.154 58.9952 49.154Z" fill="#FF9C78"/>
<path d="M70.2163 52.9724C70.2163 52.9724 65.6531 55.382 63.5461 55.8477C61.4042 56.7324 61.183 59.7241 61.7766 62.0406C62.3703 64.3572 65.0128 65.0556 65.5018 64.4503C65.9907 63.845 77.2009 56.4646 75.35 53.6126C73.4991 50.7606 70.2163 52.984 70.2163 52.984V52.9724Z" fill="#4860BF"/>
<path d="M70.4975 55.1143C70.4975 55.0328 68.9492 41.8669 68.9492 40.761C68.9492 39.6551 72.4648 37.9905 73.0818 39.7017C73.7104 41.4129 75.5962 54.509 75.5962 54.509C75.5962 54.509 74.9094 57.5123 70.4858 55.1143H70.4975Z" fill="#4860BF"/>
<path d="M43.6745 41.8201C44.5942 41.855 46.7361 41.5058 46.7826 41.0285C46.8292 40.5513 48.3426 30.6681 48.3426 29.8067C48.3426 28.9453 44.7222 27.9791 44.5359 28.7357C44.3497 29.4924 41.2998 40.6327 41.6956 42.1926C42.3824 42.7514 43.6862 41.8085 43.6862 41.8085L43.6745 41.8201Z" fill="#4860BF"/>
<path d="M44.6669 11.1812C44.6786 6.87408 46.2035 3.84744 48.6481 2.42725L46.1453 3.88236C43.6891 5.30256 42.1758 8.34084 42.1641 12.6363C42.1408 21.2972 48.229 31.8555 55.7723 36.2092L58.2752 34.7541C50.7319 30.4004 44.6436 19.8421 44.6669 11.1812Z" fill="#AEA594"/>
<path d="M48.1709 13.1952C48.1709 9.99394 49.3117 7.73559 51.1277 6.67627L48.6249 8.13139C46.7972 9.19071 45.6681 11.4491 45.6681 14.6503C45.6448 21.0994 50.1847 28.9454 55.784 32.1816L58.2868 30.7264C52.6759 27.4903 48.1476 19.6443 48.1709 13.1952Z" fill="#262E3B"/>
<path d="M58.2983 26.7101C54.6198 24.5914 51.6513 19.4461 51.663 15.2205C50.8248 15.7094 49.9867 16.1867 49.1602 16.6756C49.1485 20.9012 52.117 26.0465 55.7955 28.1652C56.5522 27.7228 57.5533 27.1408 58.2983 26.7101Z" fill="#0065FF"/>
<path d="M61.6639 32.0185C60.6046 31.8322 59.4754 31.4131 58.2997 30.7263L55.7969 32.1814C56.9726 32.8683 58.1134 33.2873 59.1611 33.4736C59.9992 32.9847 60.8374 32.5074 61.6639 32.0185Z" fill="#262E3B"/>
<path d="M56.5184 21.0059C55.6803 21.4948 54.8421 21.9721 54.0156 22.461C54.5278 23.1594 55.1448 23.7648 55.8083 24.1489L58.3111 22.6938C57.6476 22.3096 57.019 21.716 56.5184 21.0059Z" fill="#E78700"/>
<path d="M64.7477 31.7971C63.8397 32.1347 62.792 32.2162 61.6512 32.0183C60.8131 32.5072 59.9749 32.9845 59.1484 33.4734C60.2892 33.6713 61.3253 33.5898 62.2449 33.2522L64.7477 31.7971Z" fill="#262E3B"/>
<path d="M51.663 15.2205C51.663 13.1251 52.408 11.6467 53.607 10.9482L51.1042 12.4034C49.9052 13.1018 49.1718 14.5686 49.1602 16.6756C49.9983 16.1867 50.8364 15.7094 51.663 15.2205Z" fill="#0065FF"/>
<path d="M55.1669 17.2343C55.1669 16.2331 55.5161 15.5347 56.0865 15.2087L53.5837 16.6639C53.0133 16.9898 52.6641 17.6883 52.6641 18.6894C52.6641 19.9233 53.1995 21.3202 54.0144 22.4494C54.8526 21.9605 55.6907 21.4832 56.5172 20.9943C55.7023 19.8651 55.1669 18.4682 55.1669 17.2343Z" fill="#E78700"/>
<path d="M63.0375 27.1758C61.8269 27.8743 60.1506 27.7812 58.2997 26.7102L55.7969 28.1653C57.6478 29.2363 59.3241 29.3294 60.5347 28.631C61.2914 28.1886 62.2925 27.6066 63.0375 27.1758Z" fill="#0065FF"/>
<path d="M67.9964 35.7085C65.5169 37.1519 62.0712 36.954 58.2763 34.7539L55.7734 36.209C59.5684 38.3975 63.0025 38.6071 65.4936 37.1636C66.2503 36.7212 67.2514 36.1392 67.9964 35.7085Z" fill="#AEA594"/>
<path d="M60.5581 22.9035C59.9877 23.2411 59.1845 23.1946 58.3114 22.6824L55.8086 24.1375C56.6817 24.6497 57.4849 24.6963 58.0553 24.3587C58.812 23.9163 59.8131 23.3343 60.5581 22.9035Z" fill="#E78700"/>
<path d="M65.5172 31.4365C65.2727 31.5762 65.0166 31.6926 64.7489 31.7974L62.2461 33.2525C62.5138 33.1594 62.7699 33.0313 63.0144 32.8916C63.771 32.4493 64.7722 31.8672 65.5172 31.4365Z" fill="#262E3B"/>
<path d="M56.0848 15.209L53.582 16.6641C54.1524 16.3265 54.9557 16.373 55.8287 16.8852L58.3315 15.4301C57.4584 14.9179 56.6552 14.8714 56.0848 15.209Z" fill="#ED2E3B"/>
<path d="M58.0555 24.3588L60.5582 22.9037C61.1287 22.5777 61.4779 21.8793 61.4779 20.8781C61.4779 18.8759 60.0693 16.4313 58.3348 15.4302L55.832 16.8853C57.5782 17.8981 58.9867 20.331 58.9751 22.3333C58.9751 23.3227 58.6259 24.0212 58.0555 24.3588Z" fill="#ED2E3B"/>
<path d="M53.6083 10.9483L51.1055 12.4034C52.3161 11.705 53.9924 11.7981 55.8433 12.8691L58.3461 11.414C56.4952 10.343 54.8189 10.2499 53.6083 10.9483Z" fill="#E78700"/>
<path d="M60.535 28.6308L63.0378 27.1756C64.2369 26.4772 64.9702 25.0104 64.9819 22.9034C64.9935 18.6778 62.0251 13.5325 58.3465 11.4138L55.8438 12.8689C59.5223 14.9876 62.4907 20.1329 62.4791 24.3585C62.4791 26.4539 61.7341 27.9323 60.535 28.6308Z" fill="#E78700"/>
<path d="M63.0145 32.8914L65.5174 31.4362C67.345 30.3769 68.4741 28.1302 68.4741 24.929C68.4974 18.4799 63.9575 10.6339 58.3465 7.39771L55.8438 8.85282C61.4547 12.089 65.983 19.9466 65.9713 26.3841C65.9713 29.5853 64.8305 31.832 63.0145 32.8914Z" fill="#0065FF"/>
<path d="M51.1278 6.68775L48.625 8.14287C50.4759 7.0719 53.0253 7.22324 55.854 8.85297L58.3568 7.39785C55.5397 5.76812 52.9787 5.61679 51.1278 6.68775Z" fill="#0065FF"/>
<path d="M48.6473 2.41571L46.1445 3.87083C48.6241 2.42735 52.0698 2.63689 55.8647 4.82538L58.3675 3.37027C54.5726 1.18177 51.1385 0.972233 48.6473 2.41571Z" fill="#262E3B"/>
<path d="M65.4786 37.1638L67.9814 35.7087C70.4377 34.2885 71.951 31.2502 71.9626 26.9547C71.9859 18.2939 65.8977 7.73555 58.3544 3.38184L55.8516 4.83695C63.3949 9.19066 69.4831 19.749 69.4598 28.4098C69.4482 32.717 67.9232 35.7436 65.4786 37.1638Z" fill="#262E3B"/>
<path d="M66.3051 38.584L68.8079 37.1289C71.4737 35.5807 73.1151 32.2979 73.1267 27.6183C73.15 18.2124 66.5379 6.75771 58.3544 2.03149L55.8516 3.48661C64.0351 8.21283 70.6472 19.6675 70.6239 29.0734C70.6123 33.7414 68.9593 37.0358 66.3051 38.584Z" fill="url(#paint0_linear_664_87417)"/>
<path d="M70.6379 29.0734C70.6146 38.4792 63.956 42.2742 55.7724 37.548C47.5888 32.8217 40.9768 21.3671 41.0001 11.9612C41.0233 2.55532 47.6819 -1.23963 55.8655 3.48659C64.0491 8.21281 70.6612 19.6675 70.6379 29.0734ZM55.7724 36.2093C63.3157 40.563 69.4505 37.0707 69.4738 28.3982C69.4971 19.7373 63.4088 9.17901 55.8655 4.8253C48.3222 0.47159 42.1874 3.96387 42.1642 12.6364C42.1409 21.2972 48.229 31.8555 55.7724 36.2093Z" fill="#94A4E6"/>
<path d="M65.9699 26.3843C65.9466 32.8334 61.3833 35.4293 55.784 32.1931C50.1847 28.9569 45.6448 21.111 45.6681 14.6619C45.6913 8.2128 50.2429 5.61687 55.8539 8.85305C61.4648 12.0892 65.9931 19.9469 65.9815 26.3843H65.9699ZM55.7957 28.1654C59.4742 30.284 62.4659 28.5844 62.4776 24.3588C62.4892 20.1331 59.5208 14.9878 55.8423 12.8692C52.1637 10.7505 49.172 12.4501 49.1603 16.6758C49.1487 20.9014 52.1171 26.0467 55.7957 28.1654Z" fill="#0065FF"/>
<path d="M55.8187 16.8853C54.0725 15.8726 52.6523 16.6874 52.6523 18.6897C52.6523 20.6919 54.0609 23.1365 55.7954 24.1376C57.5299 25.1388 58.9617 24.3355 58.9617 22.3333C58.9617 20.3311 57.5532 17.8865 55.8187 16.8853Z" fill="#ED2E3B"/>
<path d="M69.4738 28.3982C69.4505 37.059 63.3157 40.5629 55.7723 36.2092C48.229 31.8555 42.1408 21.2972 42.1641 12.6363C42.1874 3.97549 48.3222 0.471564 55.8655 4.82527C63.4088 9.17898 69.497 19.7373 69.4738 28.3982ZM55.784 32.1815C61.3949 35.4176 65.9582 32.8217 65.9698 26.3726C65.9931 19.9236 61.4532 12.0776 55.8422 8.8414C50.2313 5.60522 45.6681 8.20115 45.6564 14.6502C45.6331 21.0993 50.1731 28.9453 55.7723 32.1815H55.784Z" fill="#94A4E6"/>
<path d="M62.4657 24.3586C62.454 28.5842 59.4623 30.2838 55.7838 28.1651C52.1052 26.0465 49.1368 20.9012 49.1485 16.6755C49.1601 12.4499 52.1518 10.7503 55.8304 12.869C59.5089 14.9876 62.4773 20.1329 62.4657 24.3586ZM55.7954 24.1374C57.5416 25.1501 58.9618 24.3353 58.9618 22.333C58.9618 20.3308 57.5532 17.8862 55.8187 16.8851C54.0726 15.8723 52.6524 16.6872 52.6524 18.6894C52.6524 20.6917 54.0609 23.1363 55.7954 24.1374Z" fill="#E78700"/>
<path d="M47.8231 0.99532L45.3203 2.45044C48.021 0.87891 51.7461 1.10009 55.867 3.48648L58.3698 2.03136C54.2489 -0.343387 50.5238 -0.564566 47.8231 0.99532Z" fill="#BAC6FB"/>
<path d="M51.7092 28.5613C51.4299 28.7243 51.1505 28.8872 50.8711 29.0502C52.1167 30.4005 53.5019 31.553 54.9454 32.3795L55.7836 31.8906C54.3285 31.0524 52.9548 29.9116 51.7092 28.5613Z" fill="#262E3B"/>
<path d="M55.7938 27.8863C52.1153 25.7677 49.1469 20.6224 49.1585 16.3967C48.8791 16.5597 48.5997 16.7227 48.3203 16.8856C48.3087 21.1113 51.2772 26.2566 54.9557 28.3752C55.2118 28.2239 55.5377 28.0377 55.7938 27.8863Z" fill="#0065FF"/>
<path d="M55.8037 23.8581C54.9306 23.3575 54.139 22.4961 53.5686 21.5066C53.2892 21.6696 53.0099 21.8325 52.7305 21.9955C53.3009 22.985 54.0925 23.8464 54.9655 24.347C55.2216 24.1956 55.5476 24.0094 55.8037 23.8581Z" fill="#E78700"/>
<path d="M45.6663 14.371C45.6663 11.9497 46.3182 10.0755 47.4241 8.84155C47.1447 9.00453 46.8653 9.1675 46.586 9.33047C45.4917 10.5644 44.8398 12.4386 44.8282 14.8599C44.8165 19.6327 47.296 25.1854 50.8698 29.0502C51.1492 28.8872 51.4286 28.7243 51.708 28.5613C48.1342 24.6965 45.6547 19.1438 45.6663 14.371Z" fill="#262E3B"/>
<path d="M49.1585 16.3845C49.1585 14.2892 49.9035 12.8108 51.1025 12.1123L50.2644 12.6012C49.0653 13.2997 48.332 14.7664 48.3203 16.8734C48.5997 16.7105 48.8791 16.5475 49.1585 16.3845Z" fill="#0065FF"/>
<path d="M52.6624 18.4103C52.6624 17.4092 53.0116 16.7107 53.582 16.3848L52.7439 16.8737C52.1735 17.1996 51.8242 17.8981 51.8242 18.8992C51.8242 19.9003 52.1735 21.0062 52.7439 21.9957C52.8836 21.9142 53.0232 21.8327 53.1629 21.7512C53.3026 21.6698 53.4423 21.5883 53.582 21.5068C53.0116 20.5173 52.6624 19.4114 52.6624 18.4103Z" fill="#E78700"/>
<path d="M60.533 28.3399C59.3224 29.0384 57.6461 28.9452 55.7952 27.8743L54.957 28.3632C56.8079 29.4342 58.4842 29.5273 59.6949 28.8288C59.951 28.6775 60.2769 28.4912 60.533 28.3399Z" fill="#0065FF"/>
<path d="M47.4124 8.84129C47.7732 8.44549 48.1807 8.10791 48.623 7.85181L47.7849 8.34073C47.3425 8.59683 46.9351 8.93441 46.5742 9.33021C46.6557 9.28364 46.7488 9.23708 46.8303 9.17887C46.8885 9.14395 46.9351 9.12067 46.9933 9.08575C47.005 9.08575 47.0282 9.06246 47.0515 9.05082C47.0864 9.02754 47.133 9.00426 47.1563 8.99262C47.1679 8.99262 47.1912 8.96934 47.2145 8.95769C47.2261 8.95769 47.2494 8.93441 47.261 8.92277C47.296 8.89949 47.3309 8.87621 47.3658 8.86457C47.3774 8.86457 47.4007 8.85293 47.4124 8.84129Z" fill="#262E3B"/>
<path d="M58.0536 24.0793C57.4832 24.4169 56.6799 24.3704 55.8069 23.8582L54.9688 24.3471C55.8418 24.8593 56.645 24.9058 57.2154 24.5683C57.4715 24.4169 57.7975 24.2307 58.0536 24.0793Z" fill="#E78700"/>
<path d="M63.0125 32.6122C61.1616 33.6832 58.6123 33.5318 55.7835 31.9021C55.5391 32.0418 55.2946 32.1931 55.0501 32.3328L54.957 32.391C57.7741 34.0208 60.3351 34.1721 62.186 33.1011C62.4421 32.9498 62.7681 32.7635 63.0242 32.6122H63.0125Z" fill="#262E3B"/>
<path d="M53.5842 16.385L52.7461 16.8739C53.3165 16.5363 54.1197 16.5829 54.9928 17.0951L55.8309 16.6062C54.9579 16.094 54.1546 16.0474 53.5842 16.385Z" fill="#ED2E3B"/>
<path d="M57.2156 24.5684L58.0538 24.0794C58.6242 23.7535 58.9734 23.055 58.9734 22.0539C58.9734 20.0517 57.5648 17.6071 55.8303 16.606L54.9922 17.0949C56.7383 18.1076 58.1469 20.5406 58.1352 22.5428C58.1352 23.5323 57.786 24.2308 57.2156 24.5684Z" fill="#ED2E3B"/>
<path d="M59.6952 28.8291L60.5334 28.3402C61.7324 27.6417 62.4657 26.1633 62.4774 24.068C62.489 19.8423 59.5206 14.697 55.8421 12.5784L55.0039 13.0673C58.6824 15.1859 61.6509 20.3312 61.6392 24.5569C61.6392 26.6523 60.8942 28.1307 59.6952 28.8291Z" fill="#E78700"/>
<path d="M61.6376 24.5566C61.6259 28.7822 58.6342 30.4818 54.9557 28.3631C51.2772 26.2445 48.3087 21.0992 48.3203 16.8735C48.332 12.6479 51.3237 10.9483 55.0023 13.067C58.6808 15.1856 61.6492 20.3309 61.6376 24.5566ZM54.9673 24.3354C56.7135 25.3481 58.1336 24.5333 58.1336 22.531C58.1336 20.5288 56.7251 18.0842 54.9906 17.0831C53.2445 16.0703 51.8243 16.8852 51.8243 18.8874C51.8243 20.8897 53.2328 23.3343 54.9673 24.3354Z" fill="#E78700"/>
<path d="M51.1038 12.1241L50.2656 12.613C51.4763 11.9146 53.1526 12.0077 55.0035 13.0787L55.8416 12.5897C53.9907 11.5188 52.3144 11.4257 51.1038 12.1241Z" fill="#E78700"/>
<path d="M48.6233 7.85206L47.7852 8.34098C49.6361 7.27001 52.1854 7.42135 55.0142 9.05108L55.8523 8.56216C53.0352 6.93243 50.4742 6.78109 48.6233 7.85206Z" fill="#0065FF"/>
<path d="M62.1747 33.0897L63.0128 32.6008C64.8405 31.5415 65.9696 29.2948 65.9696 26.0935C65.9929 19.6444 61.453 11.7984 55.8421 8.56226L55.0039 9.05118C60.6148 12.2874 65.1431 20.145 65.1315 26.5824C65.1315 29.7837 63.9907 32.0304 62.1747 33.0897Z" fill="#0065FF"/>
<path d="M65.1417 26.5823C65.1184 33.0314 60.5552 35.6273 54.9559 32.3911C49.3566 29.1549 44.8167 21.309 44.8399 14.8599C44.8632 8.4108 49.4148 5.81487 55.0258 9.05105C60.6367 12.2872 65.165 20.1449 65.1534 26.5823H65.1417ZM54.9676 28.3634C58.6461 30.482 61.6378 28.7824 61.6494 24.5568C61.6611 20.3311 58.6926 15.1858 55.0141 13.0672C51.3356 10.9485 48.3439 12.6481 48.3322 16.8738C48.3206 21.0994 51.289 26.2447 54.9676 28.3634Z" fill="#1F6FC4"/>
<path d="M64.6544 37.3617L65.4925 36.8728C67.9488 35.4526 69.4621 32.4143 69.4737 28.1188C69.497 19.4579 63.4088 8.89961 55.8655 4.5459L55.0273 5.03482C62.5707 9.38853 68.6589 19.9469 68.6356 28.6077C68.624 32.9149 67.099 35.9415 64.6544 37.3617Z" fill="#004EA1"/>
<path d="M68.6339 28.5964C68.6106 37.2573 62.4758 40.7612 54.9325 36.4075C47.3892 32.0538 41.301 21.4954 41.3243 12.8346C41.3476 4.17373 47.4823 0.669806 55.0257 5.02352C62.569 9.37723 68.6572 19.9356 68.6339 28.5964ZM54.9442 32.3797C60.5551 35.6159 65.1183 33.02 65.13 26.5709C65.1533 20.1218 60.6133 12.2758 55.0024 9.03964C49.3915 5.80346 44.8282 8.39939 44.8166 14.8485C44.7933 21.2975 49.3332 29.1435 54.9325 32.3797H54.9442Z" fill="#1F6FC4"/>
<path d="M51.8243 18.8992C51.8243 16.8969 53.2445 16.082 54.9906 17.0948C56.7368 18.1076 58.1453 20.5405 58.1337 22.5428C58.1337 24.545 56.7135 25.3482 54.9674 24.3471C53.2212 23.3343 51.8126 20.9014 51.8243 18.8992Z" fill="#ED2E3B"/>
<path d="M46.1428 3.59125L45.3047 4.08017C47.7842 2.63669 51.2299 2.84623 55.0249 5.03472L55.863 4.5458C52.0681 2.35731 48.634 2.14777 46.1428 3.59125Z" fill="#004EA1"/>
<path d="M54.8886 28.3978C51.2101 26.2792 48.2416 21.1339 48.2533 16.9082C48.0204 17.0363 47.7993 17.1759 47.5664 17.304C47.5548 21.5297 50.5233 26.6749 54.2018 28.7936C54.4113 28.6772 54.6791 28.5142 54.8886 28.3978Z" fill="#0065FF"/>
<path d="M54.9012 24.37C54.4705 24.1139 54.0514 23.7763 53.6673 23.3689C53.4345 23.4969 53.2133 23.6366 52.9805 23.7647C53.353 24.1721 53.772 24.5097 54.2144 24.7542L54.9012 24.3584V24.37Z" fill="#E78700"/>
<path d="M48.2532 16.9082C48.2532 14.8128 48.9983 13.3344 50.1973 12.636L49.5105 13.0318C48.3114 13.7302 47.578 15.197 47.5664 17.304C47.7992 17.1759 48.0204 17.0363 48.2532 16.9082Z" fill="#0065FF"/>
<path d="M51.7571 18.922C51.7571 17.9209 52.1064 17.2224 52.6768 16.8965L51.9899 17.2923C51.4195 17.6182 51.0703 18.3167 51.0703 19.3178C51.0703 20.8195 51.8619 22.5656 52.9911 23.7763C53.2239 23.6482 53.4451 23.5085 53.6779 23.3805C52.5487 22.1698 51.7571 20.4237 51.7571 18.922Z" fill="#E78700"/>
<path d="M57.1484 24.591C56.578 24.9286 55.7747 24.8821 54.9017 24.3699C54.7038 24.4863 54.4942 24.6027 54.2963 24.7191L54.2148 24.7657C55.0879 25.2779 55.8912 25.3244 56.4616 24.9868C56.6711 24.8704 56.9388 24.7075 57.1484 24.591Z" fill="#E78700"/>
<path d="M59.6278 28.8636C58.4171 29.562 56.7408 29.4689 54.8899 28.3979L54.2031 28.7937C56.054 29.8647 57.7303 29.9578 58.941 29.2594L59.6278 28.8636Z" fill="#0065FF"/>
<path d="M52.6751 16.8967L51.9883 17.2925C52.5587 16.9549 53.3619 17.0015 54.235 17.5137L54.9218 17.1179C54.0487 16.6057 53.2455 16.5591 52.6751 16.8967Z" fill="#ED2E3B"/>
<path d="M56.4617 24.9987L57.1485 24.6029C57.7189 24.2769 58.0681 23.5668 58.0681 22.5774C58.0681 20.5751 56.6596 18.1305 54.9251 17.1294L54.2383 17.5252C55.9844 18.5379 57.393 20.9709 57.3813 22.9731C57.3813 23.9626 57.0321 24.6727 56.4617 24.9987Z" fill="#ED2E3B"/>
<path d="M50.1985 12.6361L49.5117 13.0319C50.7224 12.3334 52.3986 12.4265 54.2496 13.4975L54.9364 13.1017C53.0855 12.0307 51.4092 11.9376 50.1985 12.6361Z" fill="#E78700"/>
<path d="M58.9413 29.2592L59.6281 28.8634C60.8272 28.1649 61.5605 26.6982 61.5722 24.5912C61.5838 20.3655 58.6153 15.2202 54.9368 13.1016L54.25 13.4974C57.9285 15.616 60.897 20.7613 60.8853 24.987C60.8853 27.0823 60.1403 28.5607 58.9413 29.2592Z" fill="#E78700"/>
<path d="M61.417 33.5199L62.1038 33.1241C63.9314 32.0648 65.0606 29.8181 65.0606 26.6052C65.0839 20.1561 60.5439 12.3102 54.9446 9.07397L54.2578 9.46977C59.8687 12.7059 64.3971 20.5636 64.3738 27.001C64.3738 30.2023 63.233 32.4606 61.417 33.5199Z" fill="#A3B2F3"/>
<path d="M64.376 27.0126C64.3527 33.4616 59.8011 36.0576 54.1902 32.8214C48.5792 29.5852 44.0509 21.7276 44.0625 15.2901C44.0742 8.85271 48.6491 6.24514 54.2483 9.48132C59.8593 12.7175 64.3876 20.5751 64.3643 27.0126H64.376ZM54.2018 28.7936C57.8803 30.9123 60.872 29.2127 60.8837 24.987C60.8953 20.7614 57.9269 15.6161 54.2483 13.4974C50.5698 11.3788 47.5781 13.0784 47.5665 17.304C47.5548 21.5297 50.5233 26.675 54.2018 28.7936Z" fill="#EBF0FF"/>
<path d="M54.2366 17.5135C52.4905 16.5007 51.0703 17.3156 51.0703 19.3179C51.0703 21.3201 52.4788 23.7647 54.2133 24.7658C55.9478 25.7669 57.3797 24.9637 57.3797 22.9615C57.3797 20.9592 55.9711 18.5146 54.2366 17.5135Z" fill="#1F6FC4"/>
<path d="M47.7181 8.36378L47.0312 8.75957C48.8822 7.68861 51.4315 7.83994 54.2603 9.46967L54.9471 9.07388C52.13 7.44414 49.569 7.29281 47.7181 8.36378Z" fill="#A3B2F3"/>
<path d="M60.8837 24.9872C60.872 29.2129 57.8803 30.9125 54.2018 28.7938C50.5233 26.6752 47.5548 21.5299 47.5664 17.3042C47.5781 13.0785 50.5698 11.379 54.2483 13.4976C57.9269 15.6163 60.8953 20.7616 60.8837 24.9872ZM54.2134 24.7777C55.9595 25.7904 57.3797 24.9756 57.3797 22.9733C57.3797 20.9711 55.9712 18.5265 54.2367 17.5254C52.5022 16.5243 51.0704 17.3275 51.0704 19.3297C51.0704 21.332 52.4789 23.7766 54.2134 24.7777Z" fill="#E78700"/>
<path d="M54.5653 24.5681C54.1346 24.312 53.7155 23.9744 53.3313 23.5786C53.0985 23.7067 52.8773 23.8464 52.6445 23.9744C53.017 24.3818 53.4361 24.7194 53.8785 24.9639L54.5653 24.5681Z" fill="#E78700"/>
<path d="M51.4095 19.12C51.4095 18.1305 51.7587 17.4321 52.3291 17.0945L51.6423 17.4903C51.0719 17.8162 50.7227 18.5147 50.7227 19.5158C50.7227 21.0175 51.5143 22.7636 52.6434 23.9743C52.8763 23.8462 53.0974 23.7065 53.3302 23.5785C52.2011 22.3678 51.4095 20.6217 51.4095 19.12Z" fill="#E78700"/>
<path d="M56.8007 24.7893C56.2303 25.1269 55.4271 25.0803 54.554 24.5681L53.8672 24.9639C54.7403 25.4645 55.5435 25.5227 56.1139 25.1851C56.3234 25.0687 56.5912 24.9057 56.8007 24.7893Z" fill="#1F6FC4"/>
<path d="M52.3274 17.0944L51.6406 17.4902C52.211 17.1527 53.0142 17.1992 53.8873 17.7114L54.5741 17.3156C53.7011 16.8034 52.8978 16.7569 52.3274 17.0944Z" fill="#ED2E3B"/>
<path d="M56.114 25.1969L56.8009 24.8011C57.3713 24.4752 57.7205 23.7651 57.7205 22.7756C57.7205 20.7734 56.3119 18.3288 54.5774 17.3276L53.8906 17.7234C55.6368 18.7245 57.0453 21.1691 57.0337 23.1714C57.0337 24.1725 56.6845 24.871 56.114 25.1969Z" fill="#ED2E3B"/>
<path d="M49.8626 12.8341L49.1758 13.2299C50.3864 12.5314 52.0627 12.6245 53.9137 13.6955L54.6005 13.2997C52.7496 12.2287 51.0732 12.1356 49.8626 12.8341Z" fill="#004EA1"/>
<path d="M58.5936 29.4574L59.2804 29.0616C60.4795 28.3632 61.2129 26.8848 61.2245 24.7894C61.2361 20.5637 58.2677 15.4185 54.5892 13.2998L53.9023 13.6956C57.5809 15.8142 60.5493 20.9595 60.5377 25.1852C60.5377 27.2806 59.7927 28.759 58.5936 29.4574Z" fill="#004EA1"/>
<path d="M60.536 25.185C60.5244 29.4106 57.5326 31.1102 53.8541 28.9916C50.1756 26.8729 47.2071 21.7276 47.2188 17.502C47.2304 13.2763 50.2221 11.5767 53.9007 13.6954C57.5792 15.814 60.5477 20.9593 60.536 25.185ZM53.8657 24.9754C55.6119 25.9766 57.0204 25.1733 57.0321 23.1711C57.0321 21.1689 55.6235 18.7243 53.889 17.7231C52.1429 16.7104 50.7227 17.5252 50.7227 19.5275C50.7227 21.5297 52.1312 23.9743 53.8657 24.9754Z" fill="#1F6FC4"/>
<path d="M51.7689 17.2695L51.082 17.6653C51.6524 17.3277 52.4557 17.3743 53.3288 17.8865L54.0156 17.4907C53.1425 16.9785 52.3393 16.9319 51.7689 17.2695Z" fill="#DE3C98"/>
<path d="M55.5555 25.3715L56.2423 24.9757C56.8127 24.6497 57.1619 23.9513 57.1619 22.9502C57.1619 20.9479 55.7533 18.5033 54.0188 17.5022L53.332 17.898C55.0782 18.8991 56.4867 21.3437 56.4751 23.3459C56.4751 24.3354 56.1259 25.0339 55.5555 25.3715Z" fill="#DE3C98"/>
<path d="M53.3304 17.898C51.5843 16.8853 50.1641 17.7001 50.1641 19.7024C50.1641 21.7046 51.5726 24.1492 53.3071 25.1503C55.0532 26.1515 56.4734 25.3482 56.4734 23.346C56.4734 21.3437 55.0649 18.8991 53.3304 17.898Z" fill="#FF457E"/>
<path d="M69.3928 40.9818C69.288 40.8887 69.2182 40.7723 69.1833 40.6093C69.0319 39.8875 68.9388 40.0272 68.7526 39.3171C68.3451 37.7573 68.5779 36.0693 68.5779 36.0693L69.5209 34.2417L69.6955 32.7051L70.3706 33.0078L70.5569 33.7528C70.5569 33.7528 71.0458 30.9124 71.1506 30.7843C71.2554 30.6563 71.8723 31.3547 71.8723 31.3547C71.8723 31.3547 72.1633 29.7483 72.3612 29.7483C72.5591 29.7483 72.9549 29.9578 72.9549 29.9578C72.9549 29.9578 73.3857 30.0742 73.3624 30.5515C73.3391 31.0288 73.3042 31.2849 73.3042 31.2849C73.3042 31.2849 73.665 31.5759 73.5952 32.2627C73.5254 32.9495 73.2692 36.7212 73.1063 37.3382C72.9433 37.9668 72.8269 38.8049 72.8269 38.8049C72.8618 39.3171 72.6523 39.4568 72.629 39.9574C72.6057 40.5627 71.5464 41.0284 71.0225 41.1448C70.5453 41.2495 69.7653 41.3194 69.3928 40.9702V40.9818Z" fill="#FF9C78"/>
<path d="M70.5777 36.535C70.5777 36.535 70.2401 35.6154 70.4264 35.0682C70.6126 34.5211 70.4962 33.8925 70.4846 33.4269C70.4846 32.9612 69.7978 32.4607 69.5766 32.612C69.3554 32.7633 69.7629 33.5898 69.7629 33.5898C69.7629 33.5898 68.9247 35.0799 68.7617 35.5804C68.5871 36.0694 68.5755 37.3615 68.6803 37.8271C68.785 38.3044 69.3321 38.7235 69.8327 38.5023C70.3449 38.2695 70.5544 37.9785 70.5661 36.535H70.5777Z" fill="#FF9C78"/>
<path d="M59.9037 54.5903C60.0783 55.4168 59.4031 58.4784 57.7618 61.1325C56.1204 63.7867 53.6758 69.5606 53.6758 69.677V77.1504L59.2634 63.3559L58.3554 61.7146L60.5439 61.1325C60.5439 61.1325 61.5218 57.3841 61.58 56.3248C61.6382 55.2655 61.4868 55.0792 61.126 54.7649C60.7651 54.4506 59.8222 54.113 59.8222 54.113L59.927 54.6136L59.9037 54.5903Z" fill="#4860BF"/>
<path d="M59.7977 54.0895C59.7977 54.0895 59.4135 56.0801 57.9584 57.0114C56.5032 57.9427 54.6989 57.8961 54.6989 57.8961L54.6523 58.2686L55.1529 59.7354C55.1529 59.7354 56.2472 59.619 57.6208 59.0369C59.0061 58.4549 59.3087 57.64 59.5532 57.1045C59.7976 56.569 60.0887 55.1605 60.0887 54.8578C60.0887 54.5552 59.786 54.0779 59.786 54.0779L59.7977 54.0895Z" fill="#EBF0FF"/>
<path d="M55.211 58.164C55.211 58.164 55.0015 58.0942 54.6988 57.8963C54.3961 57.6984 54.2215 57.5703 54.1633 57.3491C54.0935 57.128 54.0585 56.2549 54.0585 56.2549C54.0585 56.2549 53.4416 57.2444 53.523 58.164C53.6162 59.0836 53.7908 59.3979 53.7908 59.3979L54.6522 58.2804L55.1993 58.1756L55.211 58.164Z" fill="#EBF0FF"/>
<path d="M54.6668 58.2686L53.9102 59.2464C53.9102 59.2464 53.9567 60.329 54.2128 60.5735C54.4689 60.8179 54.888 60.6666 54.888 60.6666L55.1324 59.6538L54.6668 58.2802V58.2686Z" fill="#291925"/>
<path d="M7.89456 116.741C7.88292 119.593 11.8641 121.886 16.7882 121.875C21.724 121.875 25.7285 119.547 25.7401 116.706C25.7517 113.854 21.7706 111.561 16.8464 111.573C11.9107 111.573 7.9062 113.901 7.89456 116.741Z" fill="#E3E8F0"/>
<path d="M18.7775 109.582C18.5564 109.512 17.8695 109.71 17.2875 110.187C16.7054 110.665 16.8219 111.212 16.8335 111.514C16.8452 111.817 16.8684 112.062 16.8917 112.155C16.915 112.259 18.1955 113.156 18.7659 113.295C19.3363 113.447 19.604 113.226 19.8718 113.365C20.1395 113.517 21.1174 114.273 21.7693 115.111C22.4212 115.95 24.2371 116.625 25.1451 116.695C26.0531 116.764 26.4373 116.473 26.7632 116.089C27.0892 115.705 27.159 115.368 27.159 114.914C27.159 114.46 26.6934 113.505 26.5653 113.33C26.4256 113.156 18.7775 109.57 18.7775 109.57V109.582Z" fill="#212430"/>
<path d="M17.4956 108.581C17.5888 108.849 17.4025 110.525 17.4956 111.084C17.5888 111.643 18.7878 112.225 19.4396 112.434C20.0915 112.644 21.4419 113.878 22.0007 114.67C22.5594 115.461 24.6781 116.136 25.2368 116.171C25.7956 116.206 26.5872 115.554 26.7618 115.205C26.9364 114.856 26.9364 113.703 26.4359 113.179C25.9353 112.656 23.5605 111.212 22.8504 110.362C22.1403 109.513 20.5572 108.605 20.5572 108.605H17.4956V108.581Z" fill="#33374A"/>
<path d="M15.9598 84.077C15.9598 84.077 15.4475 89.7578 16.1926 92.3421C16.9376 94.9263 16.4487 96.8122 16.9958 98.3022C17.5429 99.7923 22.1062 100.06 22.3855 98.3371C22.6649 96.6143 23.41 87.092 23.41 84.077C23.41 81.062 22.4205 76.394 21.4426 74.6362C20.4648 72.8784 15.7852 77.1506 15.7852 77.1506L15.9598 84.0886V84.077Z" fill="#232F5C"/>
<path d="M18.2888 94.0417C17.9512 94.7518 16.9152 95.7413 16.8919 97.9997C16.8686 100.258 17.1713 108.383 17.2411 109.582C17.3226 110.781 18.8476 111.363 19.5577 111.48C20.2678 111.596 22.3864 111.457 22.433 110.653C22.4679 109.85 22.596 96.3932 22.596 96.3932L18.2772 94.0417H18.2888Z" fill="#232F5C"/>
<path d="M20.1169 50.8186C21.5255 50.9699 22.0609 51.4938 23.4928 53.787C24.9246 56.0803 28.5449 61.4584 28.9873 62.1685C29.4296 62.8786 29.7789 66.9646 28.3936 67.081C27.0083 67.1974 24.424 64.5549 22.7245 62.4712C21.0249 60.3875 19.4883 54.6252 19.4883 54.6252L20.1052 50.8419L20.1169 50.8186Z" fill="#4860BF"/>
<path d="M37.0644 58.6647C36.2961 57.5937 35.4929 57.6752 35.0505 58.0128C34.6082 58.3504 29.3232 61.4818 28.8459 61.9241C28.3803 62.3781 27.5188 62.902 27.577 64.5317C27.6352 66.1614 27.7517 67.0578 28.4036 67.0578C29.0554 67.0578 29.1835 67.0578 29.8004 66.6504C30.4174 66.2429 37.9724 60.8299 37.7628 60.0267C37.5533 59.2235 37.0528 58.6647 37.0528 58.6647H37.0644Z" fill="#4860BF"/>
<path d="M38.239 55.7544C38.239 55.7544 38.2973 55.312 38.4719 55.149C38.6465 54.9861 39.0539 54.3691 39.2053 54.0432C39.3566 53.7172 39.4497 53.1352 39.3333 52.9955C39.2169 52.8558 38.7629 52.7161 38.5068 53.205C38.2507 53.6939 37.6454 54.3458 37.4591 54.4972C37.2845 54.6485 36.621 55.4401 36.2834 56.0803C35.9458 56.7322 35.841 57.7915 35.841 57.7915C35.841 57.7915 35.55 58.1524 35.3986 58.3736C35.2473 58.5948 35.0145 59.1186 35.2706 59.7356C35.5151 60.3525 35.7595 60.9579 36.2601 60.9695C36.7607 60.9812 36.912 60.7251 36.912 60.7251L37.6221 59.7938C37.6221 59.7938 38.4719 59.4795 39.0888 59.1186C39.7058 58.7461 40.509 57.5354 40.509 57.5354L41.5567 55.5099V54.6136L41.6848 53.9966C41.6848 53.9966 41.417 53.5426 41.1143 53.6008C40.8 53.659 39.9736 54.4972 39.9736 54.4972L38.9724 55.3935L38.239 55.7427V55.7544Z" fill="#FF9C78"/>
<path d="M8.78851 114.122C7.93872 114.239 8.02022 114.018 7.82233 114.763C7.62443 115.496 7.82233 116.008 7.82233 116.008C7.82233 116.008 8.68374 117.708 8.78851 117.964C8.88164 118.22 9.31235 119.861 10.0224 120.688C10.7325 121.514 12.3157 122.376 13.1771 122.434C14.0386 122.492 14.9233 122.352 15.2492 122.12C15.5752 121.887 15.8546 121.549 15.8546 121.549C15.8546 121.549 15.9477 120.921 15.8546 120.606C15.7614 120.292 14.6905 118.476 14.6905 118.476L8.77686 114.122H8.78851Z" fill="#212430"/>
<path d="M12.5358 114.169C12.5358 114.169 13.6533 116.788 14.2121 117.638C14.7708 118.487 15.6555 120.315 15.6788 120.722C15.7137 121.13 14.9454 121.84 14.1073 121.898C13.2691 121.956 12.3611 121.933 11.36 121.048C10.3589 120.164 9.92817 119.512 9.71864 118.86C9.49746 118.208 8.7641 116.485 8.42651 116.171C8.08892 115.845 7.84446 114.774 7.91431 114.611C7.99579 114.46 7.89104 112.783 8.14714 112.492C8.40324 112.201 12.5358 114.169 12.5358 114.169Z" fill="#33374A"/>
<path d="M8.70663 75.4973C7.44941 76.9058 7.50762 77.5694 7.47269 80.142C7.43777 82.7147 7.32136 84.1232 8.08966 89.5246C8.85796 94.9376 7.96162 97.4404 8.241 99.594C8.52038 101.748 10.3946 101.98 11.9661 101.98C13.5376 101.98 14.1197 101.2 14.2361 100.409C14.3525 99.6173 16.3547 90.4908 17.0997 88.733C17.8448 86.9752 19.3348 86.8938 19.5327 85.7529C19.7306 84.6121 19.2999 78.0699 18.9041 76.545C18.5083 75.02 8.71828 75.4856 8.71828 75.4856L8.70663 75.4973Z" fill="#263263"/>
<path d="M8.04288 76.3708C7.97303 77.4302 7.87993 77.7794 7.96142 78.3498C8.03127 78.9202 11.0579 80.4801 14.6084 80.387C18.1589 80.2938 19.3695 79.4557 20.5453 78.571C21.721 77.6863 22.0004 76.592 21.9771 75.8936C21.9654 75.1951 21.2204 73.4839 21.2204 73.4839L8.03126 76.3708H8.04288Z" fill="#212430"/>
<path d="M19.532 77.0459L17.1224 77.9888C16.9012 78.0703 16.7266 78.3846 16.7266 78.6757V79.9096C16.7266 80.2006 16.9012 80.3752 17.1224 80.2937L19.532 79.3508C19.7532 79.2693 19.9278 78.955 19.9278 78.664V77.4301C19.9278 77.1391 19.7532 76.9644 19.532 77.0459Z" fill="#636970"/>
<path d="M14.5275 98.9775C13.9687 103.063 13.4099 114.437 13.1422 115.263C12.8745 116.09 10.5812 116.613 9.05626 116.09C7.5313 115.566 7.61276 113.47 7.61276 113.47C7.61276 113.47 7.43815 104.658 7.61276 100.828C7.78738 97.0101 8.36942 95.2407 8.36942 95.2407L14.5159 98.9775H14.5275Z" fill="#263263"/>
<path d="M12.6399 50.9237C9.6715 52.1693 6.57501 54.1482 6.2025 54.6721C5.81835 55.1959 6.7147 64.0779 8.12325 67.2908C9.5318 70.5037 7.97192 76.0099 8.23967 77.0343C8.50741 78.0587 13.7458 79.5022 17.3894 78.4079C21.033 77.3137 21.3357 75.23 21.5685 74.0193C21.8014 72.8086 22.6744 63.1816 22.5929 60.9465C22.5114 58.7115 22.4416 53.2635 21.3008 51.6571C20.16 50.0506 16.1672 51.1914 14.9449 51.2729C13.7342 51.366 12.6399 50.9237 12.6399 50.9237Z" fill="#D4DFFF"/>
<path d="M16.1698 51.1096C18.3583 50.9001 19.4758 52.6928 19.4991 54.73C19.5224 56.7671 20.5002 68.1753 20.5235 72.3544C20.5467 76.5218 20.5235 81.0268 21.1521 83.2386C21.7807 85.4504 23.3289 81.0036 23.4104 79.886C23.4919 78.7685 22.5257 74.6942 22.5955 71.6326C22.6654 68.5711 22.7003 63.6469 22.6887 60.5737C22.6771 57.5005 22.2929 54.1479 21.7341 52.2737C21.1754 50.3995 18.1487 50.6091 18.1487 50.6091C18.1487 50.6091 15.7856 50.481 16.1814 51.1213L16.1698 51.1096Z" fill="#304080"/>
<path d="M17.3692 51.5405C18.9407 52.239 19.2783 55.1492 19.3597 57.978C19.4529 60.8067 20.5238 74.0425 20.5238 74.0425L21.1757 59.1537L19.9884 58.56L20.9197 55.8826C20.9197 55.8826 20.0932 51.6686 18.3005 50.6442C16.5077 49.6198 17.3575 51.5289 17.3575 51.5289L17.3692 51.5405Z" fill="#4860BF"/>
<path d="M12.0041 51.5987C10.6887 52.4019 10.1532 52.8327 10.2114 53.4729C10.2463 53.8338 12.1089 56.3948 13.4359 59.9918C14.4138 62.6227 14.7979 65.8821 15.4615 68.8273C17.0446 75.7769 16.3927 83.7393 16.5208 85.8347C16.6488 87.9301 10.7352 87.3131 8.98911 86.1956C7.24297 85.078 6.78896 84.5891 6.71911 83.006C6.64927 81.4228 7.89486 72.8201 7.92978 71.2021C7.9647 69.584 6.48628 62.3899 6.48628 62.2269C6.48628 62.0639 5.17088 55.8011 6.1138 54.6719C7.04507 53.5311 10.8633 51.5754 12.1089 51.0749C13.3545 50.5627 11.9925 51.6104 11.9925 51.6104L12.0041 51.5987Z" fill="#304080"/>
<path d="M12.1754 46.3367C12.1754 46.3367 12.5712 48.0247 12.3267 49.3517C12.0822 50.6788 11.605 51.6217 11.5235 52.0408C11.442 52.4599 12.641 54.3341 13.7352 55.1373C14.8295 55.9405 16.8317 55.9987 17.4021 55.1373C17.9725 54.2759 17.4371 52.8091 17.6 52.1805C17.7514 51.5519 18.7408 49.3983 18.7408 49.3983C18.7408 49.3983 17.3323 45.0679 16.0168 44.4625C14.7014 43.8572 12.4547 42.9958 12.1754 46.3484V46.3367Z" fill="#FF9C78"/>
<path d="M11.8265 51.1794C11.5239 51.6101 11.3027 52.099 11.3609 52.8324C11.4191 53.5774 11.1165 55.568 13.27 56.5458C15.4236 57.5237 15.8892 57.3141 15.8892 57.3141L16.6342 55.6844L16.4364 54.9859C16.4364 54.9859 14.76 55.2421 13.3166 54.1827C11.8731 53.135 11.6403 51.936 11.6403 51.936L11.8265 51.1677V51.1794Z" fill="#EBF0FF"/>
<path d="M17.6017 52.8909C17.753 53.7523 17.5085 54.381 16.4492 54.9863C16.4492 55.6615 16.6471 55.6847 16.6471 55.6847L17.8112 56.8023C17.8112 56.8023 18.3002 55.9292 18.3002 54.6487C18.3002 53.3682 17.5784 52.4602 17.5784 52.4602L17.6017 52.8793V52.8909Z" fill="#EBF0FF"/>
<path d="M14.1211 42.507C14.1211 42.507 14.773 49.6895 15.4016 51.1097C16.0302 52.5299 20.1511 52.4135 20.6284 52.3087C21.1057 52.2039 21.4666 51.6801 21.5015 51.261C21.5364 50.8419 21.8158 49.2704 21.839 47.9201C21.8623 46.5814 21.2919 41.8784 20.6051 40.7027C19.9183 39.527 18.4865 38.7121 17.2642 38.9798C16.0419 39.2476 14.1211 42.507 14.1211 42.507Z" fill="#FF9C78"/>
<path d="M18.8447 41.6691C17.6922 41.9485 17.3314 41.9252 17.3314 42.6004C17.3314 43.2755 17.6224 44.4745 17.471 44.8121C17.3197 45.1497 16.4467 45.8365 16.2953 46.2789C16.144 46.7213 16.0392 47.9203 16.0392 47.9203H15.1545C15.1545 47.9203 14.6539 46.1159 13.8391 45.9064C13.0242 45.6969 12.7681 45.9646 12.5469 46.6747C12.3141 47.3848 12.6284 48.2928 12.5586 48.7351C12.5004 49.1775 12.1511 50.1088 12.1511 50.1088C12.1511 50.1088 11.6157 49.4569 11.313 48.8166C11.0569 48.2928 10.2886 47.1869 10.0325 46.4652C9.7764 45.7434 9.01972 43.4269 9.50864 41.2849C9.99756 39.143 11.5342 38.4096 13.9671 37.653C16.4117 36.8963 18.5886 37.5831 19.4966 38.1535C20.4744 38.7705 20.8586 39.2943 20.9633 40.2023C21.0681 40.8426 20.7421 41.0288 20.7421 41.0288L18.833 41.6691H18.8447Z" fill="#291925"/>
<path d="M13.7951 45.9295C13.7485 45.231 12.5379 45.0913 12.4331 46.1041C12.3284 47.1168 12.6659 47.5359 13.1781 48.0365C13.6903 48.5254 13.9465 48.7466 14.2491 48.5952C14.5518 48.4439 14.5402 48.1063 14.2491 47.6058C13.9581 47.1052 13.7951 45.9295 13.7951 45.9295Z" fill="#FF9C78"/>
<path d="M8.38281 80.3284C8.38281 80.3284 8.79024 80.5845 9.06962 81.2015C9.34901 81.8184 9.83795 83.4831 10.1523 83.8323C10.4666 84.1815 12.7249 86.0441 12.7249 86.0441H13.1789C13.1789 86.0441 13.6911 86.3235 13.889 86.2769C14.0869 86.2303 14.2266 86.0208 14.2266 86.0208C14.2266 86.0208 14.6806 86.3002 14.8086 86.0557C14.9483 85.8229 14.8086 85.4737 14.8086 85.4737C14.8086 85.4737 15.3325 85.3922 15.379 85.0197C15.4256 84.6472 14.1218 82.6915 14.1218 82.6915C14.1218 82.6915 13.4932 81.3179 13.0625 80.7358C12.6318 80.1538 11.6772 79.6765 11.1883 79.4088C10.6994 79.1294 9.47706 77.6277 9.47706 77.6277L8.39446 80.3284H8.38281Z" fill="#FF9C78"/>
<path d="M6.43754 54.4506C5.55283 54.6136 2.52619 61.5166 1.71132 63.7517C0.896455 65.9868 0.0117188 69.1298 0.0117188 70.0145C0.0117188 70.8992 3.80667 71.4813 4.88927 70.0145C5.97188 68.5478 7.89263 64.7645 9.32447 61.4934C10.7563 58.2106 9.44088 56.057 8.99852 55.3469C8.55617 54.6369 7.38045 54.0548 6.43754 54.4506Z" fill="#4860BF"/>
<path d="M4.43519 68.781C4.43519 68.781 11.3266 78.3615 11.4198 78.8271C11.5129 79.2928 8.67246 81.9469 8.07878 81.3649C7.49673 80.7828 0.0582047 72.5527 0 70.0149C1.29214 67.6984 4.43519 68.781 4.43519 68.781Z" fill="#4860BF"/>
<path d="M11.7001 51.5405C11.7001 51.5405 11.5255 52.367 11.7001 53.5311C11.8747 54.6952 15.1924 62.8904 15.4601 64.6715C15.7279 66.4526 16.3914 75.5674 16.3914 75.5674L12.5033 62.8788L13.5393 61.5867L11.8863 60.4342C11.8863 60.4342 10.4894 55.8011 10.1053 54.02C9.73277 52.239 11.7117 51.5522 11.7117 51.5522L11.7001 51.5405Z" fill="#4860BF"/>
<path d="M16.6448 55.6848L16.0977 56.9071C16.0977 56.9071 16.249 57.8384 16.5517 58.2575C16.8543 58.6882 17.2967 58.3273 17.4247 57.8267C17.5761 57.2214 17.5062 56.6394 17.4713 56.4764L16.6448 55.6848Z" fill="#291925"/>
<path d="M16.6935 57.6872C16.0533 59.9222 17.0893 74.8925 17.066 75.3348C17.0427 75.7772 18.5095 76.9529 18.5095 76.9529C18.5095 76.9529 19.3244 74.5898 19.3244 74.0427C19.3244 73.4955 17.7645 58.7581 17.392 57.8618C17.0195 56.9654 16.6935 57.6988 16.6935 57.6988V57.6872Z" fill="#291925"/>
<defs>
<linearGradient id="paint0_linear_664_87417" x1="72.7775" y1="34.8473" x2="54.9668" y2="3.99882" gradientUnits="userSpaceOnUse">
<stop stop-color="#8D9DDF"/>
<stop offset="0.28" stop-color="#A9B8F9"/>
<stop offset="0.32" stop-color="#ABBAF9"/>
<stop offset="0.53" stop-color="#B6C3FA"/>
<stop offset="0.77" stop-color="#BAC6FB"/>
</linearGradient>
</defs>
</svg>
