<svg width="114" height="128" viewBox="0 0 114 128" fill="none" xmlns="http://www.w3.org/2000/svg">
<path d="M8.71875 116.71V119.072H8.72017C8.72864 121.355 10.2412 123.638 13.2593 125.379C19.3124 128.874 29.1259 128.874 35.179 125.379C38.1971 123.636 39.7097 121.355 39.7181 119.072H39.7195V116.688L8.71875 116.71Z" fill="#FF9900"/>
<path d="M35.1783 110.388C29.1251 106.893 19.3117 106.893 13.2586 110.388C7.20547 113.883 7.20547 119.55 13.2586 123.044C19.3117 126.539 29.1251 126.539 35.1783 123.044C41.2314 119.55 41.2314 113.883 35.1783 110.388Z" fill="#FFDE38"/>
<path d="M38.0365 116.717C38.0365 118.482 36.7229 120.211 34.3369 121.588C31.6617 123.131 28.0679 123.983 24.2187 123.983C20.3696 123.983 16.7758 123.133 14.0991 121.588C13.7506 121.386 13.4247 121.177 13.1241 120.963C11.359 119.704 10.4023 118.224 10.4023 116.717C10.4023 114.952 11.716 113.223 14.0991 111.846C16.7758 110.303 20.3681 109.45 24.2187 109.45C28.0679 109.45 31.6617 110.301 34.3369 111.846C34.9041 112.174 35.4121 112.521 35.8537 112.885C37.2732 114.047 38.0365 115.372 38.0365 116.717Z" fill="#FF9900"/>
<path d="M38.0369 116.717C38.0369 118.482 36.7233 120.21 34.3373 121.588C31.6621 123.131 28.0683 123.983 24.2191 123.983C20.37 123.983 16.7762 123.133 14.0995 121.588C13.751 121.386 13.4251 121.177 13.1245 120.962C11.7037 119.798 10.9375 118.473 10.9375 117.127C10.9375 115.362 12.2511 113.634 14.6371 112.257C17.3138 110.713 20.9061 109.861 24.7567 109.861C28.6059 109.861 32.1997 110.712 34.8749 112.257C35.2248 112.458 35.5522 112.669 35.8555 112.885C37.2736 114.047 38.0369 115.372 38.0369 116.717Z" fill="#FFC400"/>
<path d="M22.901 118.702C23.2876 118.479 23.488 118.239 23.5035 117.982C23.5176 117.726 23.3638 117.394 23.0435 116.985C22.7232 116.576 22.4707 116.209 22.2901 115.883C22.108 115.557 22.0079 115.246 21.9895 114.949C21.9712 114.652 22.0544 114.363 22.2407 114.084C22.4269 113.804 22.7515 113.532 23.2143 113.264C24.0115 112.804 24.9201 112.573 25.9403 112.573C26.9604 112.573 27.934 112.793 28.8638 113.23L30.3792 112.355L31.5123 113.01L29.9757 113.898C30.6925 114.448 30.9987 115.026 30.8928 115.632C30.787 116.238 30.2734 116.807 29.3535 117.338L27.3075 116.157C27.8733 115.829 28.1809 115.517 28.2275 115.221C28.2741 114.925 28.1019 114.662 27.7111 114.437C27.3245 114.214 26.9153 114.104 26.4835 114.108C26.0518 114.112 25.6426 114.226 25.256 114.449C24.8976 114.657 24.7127 114.882 24.7043 115.128C24.6944 115.373 24.8581 115.725 25.1967 116.181C25.5339 116.636 25.7837 117.029 25.9473 117.353C26.1096 117.679 26.19 117.987 26.1886 118.277C26.1858 118.568 26.0899 118.844 25.898 119.107C25.7075 119.369 25.3971 119.625 24.9667 119.873C24.1639 120.336 23.2622 120.567 22.2633 120.567C21.2629 120.567 20.2794 120.34 19.3115 119.884L17.9033 120.697L16.7773 120.047L18.1784 119.237C17.3149 118.619 16.9086 117.988 16.9608 117.345C17.013 116.701 17.5224 116.1 18.4903 115.543L20.5362 116.724C19.9746 117.048 19.6769 117.374 19.6445 117.7C19.612 118.028 19.8448 118.335 20.3457 118.623C20.7606 118.863 21.1994 118.988 21.6594 119.001C22.1109 119.019 22.5271 118.918 22.901 118.702Z" fill="#FFDE38"/>
<path d="M36.3914 89.6822C35.9103 89.7147 35.4249 89.7147 34.9437 89.6822H28.9922L31.4487 104.887C31.4473 105.451 31.8198 106.016 32.5648 106.446L33.1885 106.806C34.6686 107.661 37.063 107.661 38.5333 106.806L39.9965 105.957C40.7274 105.532 41.0942 104.976 41.0956 104.419L44.1194 86.6909L36.3914 89.6822Z" fill="#732B8B"/>
<path d="M4.65625 72.3934L8.09906 91.4107C8.09765 91.9751 8.47015 92.5395 9.21515 92.9698L9.83881 93.3296C11.3189 94.1847 13.7134 94.1847 15.1836 93.3296L16.6468 92.4788C17.3777 92.0541 17.7446 91.4982 17.746 90.9409L20.4071 76.6405L4.65625 72.3934Z" fill="#732B8B"/>
<path d="M71.2022 68.2679C70.8932 68.2806 70.5842 68.2806 70.2752 68.2679H64.0273L66.5206 84.593C66.5192 85.1574 66.8917 85.7218 67.6367 86.1522L68.2603 86.512C69.7404 87.367 72.1349 87.367 73.6051 86.512L75.0683 85.6612C75.7992 85.2364 76.1661 84.6805 76.1675 84.1232L79.6921 61.5164L71.2022 68.2679Z" fill="#732B8B"/>
<path d="M79.23 11.326C78.5541 11.3951 78.5259 12.2798 79.0579 12.5592C80.356 13.2407 81.9052 14.0506 81.8403 15.7946C81.7938 17.0264 80.7355 18.4487 79.8212 19.2317C79.6011 19.4194 79.364 19.5831 79.1185 19.7355C78.183 16.8246 73.6467 14.5981 71.8336 17.1294C70.9517 18.3612 70.8643 19.3968 71.883 20.465C73.1275 21.7701 75.1311 22.1666 76.9724 21.9507C76.7678 22.4361 76.4588 22.8862 76.0369 23.2432C74.6527 24.4143 71.9394 24.5991 70.5355 23.3321C69.8512 22.7155 68.8691 23.2841 68.7069 24.0658C68.2046 26.4814 71.8816 27.1558 73.6002 27.1248C76.116 27.0796 78.4046 25.3653 79.1609 22.9652C79.3386 22.4022 79.4064 21.8251 79.3866 21.2551C81.5031 20.2082 83.7451 17.6585 83.5095 15.1695C83.3219 13.1871 81.2562 11.12 79.23 11.326ZM77.9277 20.1207C77.2871 20.4029 76.6013 20.5792 75.9015 20.6117C74.4383 20.678 72.1948 19.2769 73.4464 17.9139C74.4891 16.7752 77.589 18.546 77.9277 20.1207Z" fill="#732B8B"/>
<path d="M83.146 49.0558C83.0811 52.1839 82.9696 53.7953 81.9636 57.7418C81.213 60.6865 79.5988 63.6313 79.0669 64.6006C78.137 66.2952 76.3183 68.7193 74.9284 70.1133C69.9152 75.1421 68.9473 74.5396 48.6545 86.6769C47.4452 87.3161 45.8254 88.1739 44.5429 88.6494C42.0045 89.5849 40.5074 89.877 39.4167 90.0915C38.0735 90.3511 34.4825 90.8943 30.1296 90.2834C20.391 88.9218 14.2843 83.3992 12.2764 81.5861C7.65545 77.4067 3.53677 71.2619 1.15785 62.9455C0.702099 61.3525 -1.41862 52.9614 1.55856 44.1018C5.03664 33.7536 12.1847 29.388 14.5312 27.9545C14.5312 27.9545 39.0075 14.0732 41.8803 13.3409C45.484 12.4223 48.5627 12.4266 49.7183 12.4703C57.1585 12.7582 62.6133 15.3939 65.877 17.5555C71.8243 21.495 75.4336 25.7929 78.7 31.6527C81.7943 37.2049 83.3351 44.4602 83.146 49.0558Z" fill="#C555EA"/>
<path d="M78.7002 31.6512C75.5424 25.9875 71.9966 21.6078 65.8772 17.5541C62.6136 15.3924 57.1601 12.7567 49.7186 12.4689C48.7323 12.4322 46.3435 12.4237 43.4227 12.9938C53.2658 14.9861 61.7303 21.5641 66.759 30.7426C72.5483 40.9595 70.072 52.8471 65.6444 62.724C60.7059 73.4517 48.8776 80.1271 37.1283 82.1702C24.6975 84.5547 11.3567 79.9451 5.22735 69.0452C2.25017 63.3617 0.801089 58.2963 0.183077 50.4907C-0.471621 56.6934 0.81378 61.7461 1.15806 62.9441C3.54686 71.2901 7.78688 77.5238 12.2766 81.5846C14.2831 83.3977 20.3912 88.9203 30.1298 90.2819C34.4813 90.8929 38.0723 90.3497 39.417 90.09C40.5077 89.8756 42.0047 89.5835 44.5431 88.648C45.8257 88.1725 47.4469 87.3146 48.6547 86.6754C68.9461 74.5381 69.9154 75.1392 74.9287 70.1119C76.3185 68.7178 78.1372 66.2938 79.0671 64.5992C79.599 63.6312 81.2132 60.6851 81.9638 57.7404C82.9699 53.7938 83.0813 52.1825 83.1462 49.0543C83.3395 44.3487 81.7423 37.1117 78.7002 31.6512Z" fill="#9C35BE"/>
<path d="M11.2188 23.7439C11.2188 23.7439 22.5236 28.4636 21.4653 38.4351C21.4554 38.4351 19.4152 39.6584 19.4152 39.6584L12.4759 31.7019L11.2188 23.7439Z" fill="#9C35BE"/>
<path d="M11.22 23.7439C11.22 23.7439 20.7569 30.7015 19.4179 39.6584C19.4179 39.6584 9.45349 36.9536 3.22257 40.2948C2.79786 30.8214 11.22 23.7439 11.22 23.7439Z" fill="#DCDCDD"/>
<path d="M47.093 41.6465C50.2621 48.9949 48.3573 56.0259 43.6658 59.2895H42.3507L38.8035 50.7445L29.4219 48.906C35.3551 40.2948 47.093 41.6465 47.093 41.6465Z" fill="#9C35BE"/>
<path d="M45.9438 42.3633C45.9396 42.3661 47.4705 54.9112 42.35 59.2895C42.35 59.2895 36.2052 49.8317 29.3125 48.8905C33.7952 40.6631 45.9438 42.3633 45.9438 42.3633Z" fill="#DCDCDD"/>
<path d="M56.9072 22.281C56.9072 22.8793 56.5601 23.4775 55.8645 23.9629C55.7728 24.0264 55.6768 24.0899 55.5752 24.1478L39.6494 33.3403C37.8744 34.3675 34.9678 34.3675 33.1913 33.3403C33.0898 33.2825 32.9938 33.219 32.9021 33.1555C32.2079 32.6715 31.8594 32.0733 31.8594 31.4764C31.8594 30.802 32.3038 30.1247 33.1913 29.6125L49.1171 20.4171C50.8922 19.3927 53.7988 19.3927 55.5766 20.4171C56.4641 20.9321 56.9072 21.6065 56.9072 22.281Z" fill="#FDFDFD"/>
<path d="M55.8686 23.9628C55.7769 24.0263 55.681 24.0898 55.5794 24.1477L39.6536 33.3402C37.8786 34.3674 34.9719 34.3674 33.1955 33.3402C33.0939 33.2824 32.998 33.2189 32.9062 33.1554C32.998 33.0919 33.0939 33.0284 33.1955 32.9705L49.1213 23.778C50.8963 22.7508 53.803 22.7508 55.5808 23.778C55.681 23.8358 55.7769 23.8993 55.8686 23.9628Z" fill="#251B28"/>
<path d="M4.62891 62.9737L8.22972 60.8812C8.90276 60.4904 9.83402 60.5454 10.8612 61.1394L7.26038 63.2319C6.23318 62.6379 5.30195 62.5829 4.62891 62.9737Z" fill="#732B8B"/>
<mask id="mask0_482_35288" style="mask-type:luminance" maskUnits="userSpaceOnUse" x="4" y="60" width="7" height="4">
<path d="M4.62891 62.9737L8.22972 60.8812C8.90276 60.4904 9.83402 60.5454 10.8612 61.1394L7.26038 63.2319C6.23318 62.6379 5.30195 62.5829 4.62891 62.9737Z" fill="white"/>
</mask>
<g mask="url(#mask0_482_35288)">
<path d="M4.62891 62.9737L8.22972 60.8812C8.90276 60.4904 9.83402 60.5454 10.8612 61.1394L7.26038 63.2319C6.23318 62.6379 5.30195 62.5829 4.62891 62.9737Z" fill="#732B8B"/>
</g>
<path d="M21.6633 80.8213L18.0625 82.9138C18.7271 82.5271 19.1391 81.7074 19.1419 80.5405L22.7427 78.448C22.7399 79.6135 22.3279 80.4347 21.6633 80.8213Z" fill="#732B8B"/>
<mask id="mask1_482_35288" style="mask-type:luminance" maskUnits="userSpaceOnUse" x="18" y="78" width="5" height="5">
<path d="M21.6633 80.8213L18.0625 82.9138C18.7271 82.5271 19.1391 81.7074 19.1419 80.5405L22.7427 78.448C22.7399 79.6135 22.3279 80.4347 21.6633 80.8213Z" fill="white"/>
</mask>
<g mask="url(#mask1_482_35288)">
<path d="M19.1419 80.539L22.7427 78.4465C22.7399 79.6134 22.3279 80.4332 21.6633 80.8198L18.0625 82.9123C18.7271 82.5271 19.1391 81.7059 19.1419 80.539Z" fill="#732B8B"/>
</g>
<path d="M19.1615 74.3575L22.7623 72.265L22.7454 78.4465L19.1445 80.539L19.1615 74.3575Z" fill="#732B8B"/>
<path d="M7.26562 63.2306L10.865 61.1381L19.077 65.8804L15.4776 67.9729L7.26562 63.2306Z" fill="#732B8B"/>
<path d="M15.4766 67.9729L19.0774 65.8804C21.1205 67.06 22.7714 69.9186 22.7643 72.2665L19.1635 74.359C19.1691 72.0111 17.5197 69.151 15.4766 67.9729Z" fill="#732B8B"/>
<mask id="mask2_482_35288" style="mask-type:luminance" maskUnits="userSpaceOnUse" x="15" y="65" width="8" height="10">
<path d="M15.4766 67.9729L19.0774 65.8804C21.1205 67.06 22.7714 69.9186 22.7643 72.2665L19.1635 74.359C19.1691 72.0111 17.5197 69.151 15.4766 67.9729Z" fill="white"/>
</mask>
<g mask="url(#mask2_482_35288)">
<path d="M15.4766 67.9729L19.0774 65.8804C21.1205 67.06 22.7714 69.9186 22.7643 72.2665L19.1635 74.359C19.1691 72.0111 17.5197 69.151 15.4766 67.9729Z" fill="#732B8B"/>
</g>
<path d="M15.4749 67.9729C17.518 69.1525 19.1689 72.0111 19.1618 74.359L19.1449 80.5405C19.1378 82.8884 17.4771 83.8366 15.434 82.657L7.22207 77.9161C5.17897 76.7365 3.52812 73.8764 3.53518 71.5285L3.55352 65.347C3.56058 62.9991 5.22129 62.0524 7.2644 63.232L15.4749 67.9729Z" fill="#C555EA"/>
<path d="M18.06 77.7004C18.0529 78.3876 17.8497 78.9054 17.5125 79.2172C17.0285 79.6688 16.268 79.6941 15.4158 79.1918C13.9695 78.3368 12.8139 76.2852 12.8322 74.609C12.8449 73.3334 13.5321 72.6435 14.493 72.7577C14.7978 72.793 15.1293 72.9101 15.4764 73.1147C16.9213 73.9698 18.0769 76.0228 18.06 77.7004Z" fill="#732B8B"/>
<path d="M18.06 77.7003C18.0529 78.3874 17.8497 78.9052 17.5125 79.2171C17.2077 79.1818 16.8761 79.0647 16.529 78.8601C15.0856 78.005 13.9272 75.9535 13.9455 74.2772C13.9526 73.5901 14.1558 73.0722 14.493 72.7576C14.7978 72.7928 15.1293 72.91 15.4764 73.1146C16.9213 73.9696 18.0769 76.0226 18.06 77.7003Z" fill="#58176D"/>
<path d="M9.3412 72.468C9.33415 73.1552 9.13096 73.673 8.79374 73.9877C8.30977 74.4392 7.54924 74.4646 6.697 73.9623C5.25074 73.1072 4.09515 71.0557 4.1135 69.378C4.1262 68.1053 4.81335 67.4153 5.77423 67.5296C6.08041 67.5649 6.41339 67.682 6.76049 67.8866C8.20252 68.7416 9.35955 70.7932 9.3412 72.468Z" fill="#732B8B"/>
<path d="M9.34115 72.468C9.3341 73.1551 9.13092 73.673 8.79369 73.9876C8.48892 73.9524 8.15733 73.8352 7.81022 73.6307C6.36678 72.7756 5.2112 70.724 5.22672 69.0464C5.23377 68.3592 5.43695 67.8414 5.77418 67.5295C6.08036 67.5648 6.41334 67.6819 6.76045 67.8865C8.20247 68.7416 9.3595 70.7932 9.34115 72.468Z" fill="#58176D"/>
<path d="M14.7697 49.6442C14.7697 51.0552 13.7679 52.1981 12.5333 52.1981C11.2973 52.1981 10.2969 51.0538 10.2969 49.6442C10.2969 48.2332 11.2987 47.0903 12.5333 47.0903C13.7679 47.0889 14.7697 48.2332 14.7697 49.6442Z" fill="black"/>
<path d="M12.5341 48.6636C12.5341 49.0954 12.2279 49.4453 11.8498 49.4453C11.4716 49.4453 11.1641 49.0954 11.1641 48.6636C11.1641 48.2319 11.4702 47.882 11.8498 47.882C12.2279 47.882 12.5341 48.2319 12.5341 48.6636Z" fill="#DCDCDD"/>
<path d="M31.0197 59.0951C31.0197 60.5061 30.0179 61.649 28.7833 61.649C27.5473 61.649 26.5469 60.5061 26.5469 59.0951C26.5469 57.6842 27.5487 56.5413 28.7833 56.5413C30.0179 56.5413 31.0197 57.6842 31.0197 59.0951Z" fill="black"/>
<path d="M28.7841 58.1246C28.7841 58.5563 28.478 58.9063 28.0998 58.9063C27.7217 58.9063 27.4141 58.5563 27.4141 58.1246C27.4141 57.6928 27.7203 57.3429 28.0998 57.3429C28.4765 57.3429 28.7841 57.6928 28.7841 58.1246Z" fill="#DCDCDD"/>
<path d="M78.4219 75.5862V78.0555H78.4233C78.4332 80.4428 80.0135 82.8274 83.167 84.649C89.4939 88.302 99.7532 88.302 106.08 84.649C109.235 82.8274 110.815 80.4428 110.825 78.0555H110.827V75.5651L78.4219 75.5862Z" fill="#FF9900"/>
<path d="M106.08 68.9786C99.7532 65.3255 89.4939 65.3255 83.167 68.9786C76.8402 72.6316 76.8402 78.5549 83.167 82.2079C89.4939 85.861 99.7532 85.861 106.08 82.2079C112.407 78.5535 112.407 72.6316 106.08 68.9786Z" fill="#FFDE38"/>
<path d="M109.065 75.5933C109.065 77.4375 107.692 79.245 105.199 80.6856C102.404 82.2997 98.6453 83.1901 94.6226 83.1901C90.5998 83.1901 86.8424 82.2997 84.0444 80.6856C83.6803 80.4753 83.3389 80.2566 83.0242 80.0309C81.1801 78.7158 80.1797 77.168 80.1797 75.5933C80.1797 73.7492 81.5526 71.9417 84.0444 70.5011C86.8424 68.8869 90.597 67.9966 94.6226 67.9966C98.6453 67.9966 102.403 68.8869 105.199 70.5011C105.792 70.8439 106.322 71.2066 106.785 71.5861C108.268 72.8024 109.065 74.188 109.065 75.5933Z" fill="#FF9900"/>
<path d="M109.065 75.5933C109.065 77.4375 107.692 79.245 105.199 80.6856C102.404 82.2998 98.6451 83.1901 94.6224 83.1901C90.5997 83.1901 86.8422 82.2998 84.0442 80.6856C83.6802 80.4754 83.3387 80.2566 83.0241 80.0309C81.5383 78.8146 80.7383 77.429 80.7383 76.0223C80.7383 74.1781 82.1112 72.3706 84.6044 70.93C87.4024 69.3159 91.1584 68.4255 95.1825 68.4255C99.2053 68.4255 102.963 69.3159 105.759 70.93C106.125 71.1417 106.468 71.3604 106.785 71.5861C108.268 72.8024 109.065 74.188 109.065 75.5933Z" fill="#FFC400"/>
<path d="M93.245 77.6689C93.6485 77.4361 93.8587 77.185 93.8743 76.9169C93.8884 76.6488 93.7289 76.3017 93.3931 75.8741C93.0573 75.4466 92.7949 75.0628 92.6044 74.7228C92.4139 74.3827 92.3095 74.0568 92.2897 73.7464C92.27 73.436 92.3575 73.134 92.5522 72.8434C92.7469 72.5513 93.0855 72.2663 93.5695 71.9869C94.4034 71.5058 95.353 71.2645 96.4183 71.2645C97.4836 71.2645 98.5023 71.4945 99.4745 71.953L101.058 71.0387L102.241 71.7216L100.636 72.6486C101.385 73.2243 101.705 73.8282 101.594 74.4618C101.482 75.0953 100.946 75.6893 99.9838 76.2452L97.8448 75.0106C98.436 74.6692 98.7577 74.3432 98.8071 74.0328C98.8565 73.7224 98.6759 73.4487 98.2667 73.213C97.8617 72.9802 97.4342 72.8645 96.9827 72.8688C96.5311 72.873 96.1036 72.9915 95.6987 73.2257C95.3233 73.4416 95.1315 73.6787 95.1216 73.9355C95.1117 74.1923 95.2824 74.5577 95.6352 75.036C95.9879 75.5129 96.249 75.9221 96.4197 76.2622C96.589 76.6022 96.6736 76.9239 96.6708 77.2273C96.668 77.5306 96.5664 77.8199 96.3675 78.095C96.1671 78.3702 95.8426 78.6369 95.3939 78.8965C94.5558 79.3804 93.6132 79.6231 92.5677 79.6231C91.5222 79.6231 90.4935 79.3847 89.4818 78.9092L88.0088 79.76L86.832 79.0799L88.2966 78.2333C87.3936 77.5871 86.9689 76.9282 87.0239 76.2551C87.0775 75.5835 87.6109 74.9556 88.6226 74.3714L90.7616 75.6061C90.1747 75.9447 89.8642 76.2848 89.829 76.6276C89.7937 76.9691 90.0378 77.2908 90.5613 77.5927C90.9958 77.8439 91.453 77.9751 91.9342 77.9878C92.4195 78.0005 92.8555 77.8933 93.245 77.6689Z" fill="#FFDE38"/>
<path d="M75.5469 69.1932V71.6624H75.5483C75.5582 74.0498 77.1385 76.4343 80.292 78.2559C86.6189 81.909 96.8782 81.909 103.205 78.2559C106.36 76.4343 107.94 74.0498 107.95 71.6624L107.952 69.172L75.5469 69.1932Z" fill="#FF9900"/>
<path d="M91.7453 78.5549C100.694 78.5549 107.948 74.3666 107.948 69.2001C107.948 64.0335 100.694 59.8452 91.7453 59.8452C82.797 59.8452 75.543 64.0335 75.543 69.2001C75.543 74.3666 82.797 78.5549 91.7453 78.5549Z" fill="#FFDE38"/>
<path d="M106.186 69.2003C106.186 71.0444 104.814 72.8519 102.32 74.2925C99.5252 75.9067 95.7664 76.797 91.7436 76.797C87.7209 76.797 83.9635 75.9081 81.1655 74.2925C80.8014 74.0809 80.46 73.8636 80.1453 73.6378C78.3012 72.3228 77.3008 70.7749 77.3008 69.2003C77.3008 67.3561 78.6737 65.5486 81.1655 64.108C83.9635 62.4939 87.7181 61.6035 91.7436 61.6035C95.7664 61.6035 99.5238 62.4924 102.32 64.108C102.913 64.4509 103.444 64.8135 103.906 65.1931C105.388 66.4093 106.186 67.7949 106.186 69.2003Z" fill="#FF9900"/>
<path d="M106.186 69.2C106.186 71.0442 104.813 72.8517 102.32 74.2923C99.5251 75.9064 95.7662 76.7968 91.7435 76.7968C87.7208 76.7968 83.9633 75.9079 81.1653 74.2923C80.8013 74.0806 80.4598 73.8634 80.1452 73.6376C78.6594 72.4213 77.8594 71.0357 77.8594 69.629C77.8594 67.7848 79.2323 65.9774 81.7255 64.5367C84.5235 62.9226 88.2795 62.0322 92.3036 62.0322C96.3264 62.0322 100.084 62.9226 102.88 64.5367C103.246 64.7484 103.589 64.9671 103.906 65.1928C105.388 66.4091 106.186 67.7947 106.186 69.2Z" fill="#FFC400"/>
<path d="M95.3303 69.5754C94.9253 69.3426 94.4921 69.2213 94.0279 69.2128C93.5637 69.2043 92.9626 69.2974 92.2219 69.4908C91.4825 69.6841 90.8179 69.8365 90.2281 69.9451C89.6383 70.0552 89.0753 70.1158 88.5378 70.1271C88.0002 70.1384 87.4781 70.0876 86.973 69.9761C86.4679 69.8633 85.9726 69.6686 85.49 69.3892C84.6562 68.908 84.2399 68.3592 84.2399 67.744C84.2399 67.1288 84.6364 66.5404 85.4308 65.9788L83.8477 65.0645L85.0315 64.3816L86.6372 65.3086C87.6333 64.8754 88.6817 64.6906 89.778 64.7555C90.8758 64.8204 91.9058 65.1294 92.8681 65.6853L90.729 66.92C90.1364 66.5785 89.572 66.3922 89.0344 66.364C88.4968 66.3358 88.0228 66.4402 87.6136 66.6758C87.2086 66.9101 87.0111 67.157 87.0181 67.4166C87.0252 67.6777 87.2312 67.9246 87.6362 68.1574C88.0115 68.3733 88.4207 68.4847 88.8637 68.4904C89.3082 68.496 89.9431 68.3973 90.7685 68.1941C91.594 67.9909 92.3023 67.8399 92.8921 67.7411C93.4819 67.6424 94.0392 67.5944 94.5641 67.5958C95.089 67.5972 95.5899 67.6551 96.0668 67.7708C96.5423 67.8865 97.0051 68.0741 97.4538 68.3323C98.2933 68.8163 98.7124 69.361 98.7124 69.9649C98.7124 70.5688 98.3004 71.1628 97.4764 71.7469L98.9494 72.5978L97.7727 73.2764L96.3081 72.4298C95.1877 72.9505 94.0463 73.196 92.8822 73.165C91.7181 73.1339 90.6303 72.8263 89.6186 72.2422L91.7576 71.0076C92.3446 71.3462 92.9344 71.5268 93.5256 71.5466C94.1168 71.5663 94.6756 71.4252 95.1976 71.1233C95.6322 70.8721 95.8594 70.6083 95.8819 70.3303C95.9045 70.0523 95.7197 69.7998 95.3303 69.5754Z" fill="#FFDE38"/>
<path d="M81.2383 63.2344V65.7036C81.2482 68.091 82.8299 70.4756 85.9848 72.2972C92.3117 75.9502 102.57 75.9502 108.898 72.2972C112.053 70.4756 113.633 68.091 113.643 65.7036H113.644V63.2133L81.2383 63.2344Z" fill="#FF9900"/>
<path d="M108.896 56.6267C102.57 52.9737 92.3117 52.9737 85.9834 56.6267C79.6566 60.2798 79.6566 66.2031 85.9834 69.8561C92.3103 73.5092 102.568 73.5092 108.896 69.8561C115.223 66.2031 115.223 60.2798 108.896 56.6267Z" fill="#FFDE38"/>
<path d="M111.882 63.2415C111.882 65.0857 110.509 66.8932 108.016 68.3338C105.221 69.9479 101.462 70.8383 97.439 70.8383C93.4162 70.8383 89.6588 69.9479 86.8608 68.3338C86.4967 68.1235 86.1553 67.9048 85.8407 67.6791C83.9965 66.364 82.9961 64.8162 82.9961 63.2415C82.9961 61.3973 84.369 59.5899 86.8608 58.1493C89.6588 56.5351 93.4134 55.6448 97.439 55.6448C101.462 55.6448 105.219 56.5351 108.016 58.1493C108.608 58.4921 109.139 58.8548 109.602 59.2343C111.083 60.4506 111.882 61.8362 111.882 63.2415Z" fill="#FF9900"/>
<path d="M111.882 63.2415C111.882 65.0857 110.509 66.8932 108.016 68.3338C105.22 69.948 101.462 70.8383 97.4388 70.8383C93.4161 70.8383 89.6586 69.948 86.8606 68.3338C86.4966 68.1235 86.1551 67.9048 85.8405 67.6791C84.3547 66.4628 83.5547 65.0772 83.5547 63.6705C83.5547 61.8263 84.9276 60.0188 87.4208 58.5782C90.2188 56.9641 93.9734 56.0737 97.999 56.0737C102.022 56.0737 105.779 56.9641 108.576 58.5782C108.941 58.7899 109.284 59.0086 109.602 59.2343C111.083 60.4506 111.882 61.8362 111.882 63.2415Z" fill="#FFC400"/>
<path d="M101.027 63.6169C100.622 63.3827 100.189 63.2628 99.7246 63.2543C99.2604 63.2458 98.6594 63.339 97.9186 63.5323C97.1792 63.7256 96.5146 63.878 95.9249 63.9866C95.3351 64.0967 94.7721 64.1574 94.2345 64.1686C93.6969 64.1799 93.1749 64.1291 92.6697 64.0177C92.1646 63.9048 91.6693 63.7086 91.1854 63.4307C90.3515 62.9495 89.9352 62.4007 89.9352 61.7855C89.9352 61.1703 90.3317 60.5819 91.1261 60.0203L89.543 59.106L90.7268 58.4231L92.3325 59.3501C93.3287 58.9169 94.3756 58.7321 95.4733 58.797C96.5711 58.8619 97.6011 59.1709 98.5634 59.7268L96.4243 60.9615C95.8317 60.62 95.2673 60.4337 94.7297 60.4055C94.1922 60.3773 93.7181 60.4817 93.3089 60.7174C92.9039 60.9516 92.7064 61.1985 92.7134 61.4581C92.7205 61.7192 92.9265 61.9661 93.3315 62.1989C93.7068 62.4148 94.116 62.5262 94.559 62.5319C95.0035 62.5375 95.6384 62.4388 96.4653 62.2356C97.2907 62.0324 97.999 61.8814 98.5888 61.7826C99.1786 61.6839 99.7359 61.6359 100.261 61.6373C100.786 61.6387 101.287 61.6966 101.764 61.8123C102.239 61.928 102.702 62.1157 103.151 62.3739C103.989 62.8578 104.409 63.4025 104.409 64.0064C104.409 64.6103 103.997 65.2043 103.173 65.7884L104.646 66.6393L103.469 67.318L102.005 66.4728C100.884 66.9934 99.743 67.2389 98.5789 67.2079C97.4149 67.1769 96.327 66.8693 95.3153 66.2851L97.4544 65.0505C98.0413 65.3891 98.6311 65.5683 99.2223 65.5895C99.8149 65.6092 100.372 65.4682 100.894 65.1662C101.329 64.9151 101.556 64.6512 101.579 64.3732C101.6 64.0924 101.416 63.8413 101.027 63.6169Z" fill="#FFDE38"/>
<path d="M78.4219 56.8765V59.3457H78.4233C78.4332 61.7331 80.0135 64.1177 83.1684 65.9393C89.4953 69.5923 99.7546 69.5923 106.081 65.9393C109.236 64.1177 110.817 61.7331 110.827 59.3457H110.828V56.8553L78.4219 56.8765Z" fill="#FF9900"/>
<path d="M106.08 50.2688C99.7532 46.6158 89.4939 46.6158 83.167 50.2688C76.8402 53.9219 76.8402 59.8452 83.167 63.4982C89.4939 67.1513 99.7518 67.1513 106.08 63.4982C112.408 59.8452 112.407 53.9219 106.08 50.2688Z" fill="#FFDE38"/>
<path d="M109.065 56.8834C109.065 58.7276 107.692 60.5351 105.199 61.9757C102.404 63.5898 98.6453 64.4802 94.6226 64.4802C90.5998 64.4802 86.8424 63.5898 84.0444 61.9757C83.6803 61.7654 83.3389 61.5467 83.0242 61.321C81.1801 60.0059 80.1797 58.4581 80.1797 56.8834C80.1797 55.0393 81.5526 53.2318 84.0444 51.7912C86.8424 50.177 90.597 49.2881 94.6226 49.2881C98.6453 49.2881 102.403 50.1784 105.199 51.7912C105.792 52.134 106.322 52.4967 106.785 52.8762C108.268 54.0925 109.065 55.4781 109.065 56.8834Z" fill="#FF9900"/>
<path d="M109.065 56.8836C109.065 58.7278 107.692 60.5353 105.199 61.9759C102.404 63.5901 98.6451 64.4804 94.6224 64.4804C90.5997 64.4804 86.8422 63.5901 84.0442 61.9759C83.6802 61.7657 83.3387 61.5469 83.0241 61.3212C81.5383 60.1049 80.7383 58.7193 80.7383 57.3126C80.7383 55.4684 82.1112 53.661 84.6044 52.2203C87.4024 50.6062 91.1584 49.7158 95.1825 49.7158C99.2053 49.7158 102.963 50.6062 105.759 52.2203C106.125 52.432 106.468 52.6507 106.785 52.8764C108.268 54.0927 109.065 55.4783 109.065 56.8836Z" fill="#FFC400"/>
<path d="M98.2067 57.259C97.8017 57.0262 97.3686 56.9049 96.9043 56.8964C96.4401 56.8879 95.839 56.9811 95.0983 57.1744C94.3589 57.3677 93.6943 57.52 93.1045 57.6287C92.5147 57.7388 91.9518 57.7994 91.4142 57.8107C90.8766 57.822 90.3545 57.7712 89.8494 57.6597C89.3429 57.5469 88.849 57.3507 88.365 57.0728C87.5312 56.5916 87.1149 56.0427 87.1149 55.4276C87.1149 54.8124 87.5114 54.224 88.3058 53.6624L86.7227 52.7481L87.9065 52.0652L89.5122 52.9922C90.5083 52.559 91.5553 52.3756 92.653 52.4391C93.7508 52.504 94.7808 52.813 95.7431 53.3689L93.604 54.6035C93.0128 54.2621 92.447 54.0773 91.9094 54.0476C91.3718 54.0194 90.8978 54.1238 90.4886 54.3594C90.0836 54.5937 89.8861 54.8406 89.8931 55.1002C89.9002 55.3613 90.1062 55.6082 90.5112 55.841C90.8865 56.0569 91.2957 56.1683 91.7387 56.174C92.1832 56.1796 92.8181 56.0808 93.6435 55.8777C94.469 55.6745 95.1773 55.5235 95.7671 55.4247C96.3569 55.326 96.9142 55.278 97.4391 55.2794C97.964 55.2808 98.4649 55.3387 98.9418 55.4544C99.4173 55.5701 99.8801 55.7577 100.329 56.016C101.167 56.4999 101.586 57.0446 101.586 57.6485C101.586 58.2524 101.174 58.8464 100.35 59.4305L101.823 60.2814L100.646 60.96L99.1817 60.1149C98.0613 60.6355 96.9199 60.881 95.7558 60.85C94.5917 60.8189 93.5039 60.5113 92.4922 59.9272L94.6312 58.6926C95.2182 59.0312 95.808 59.2104 96.4006 59.2316C96.9918 59.2513 97.5506 59.1102 98.0726 58.8083C98.5072 58.5571 98.7344 58.2933 98.757 58.0153C98.781 57.7359 98.5975 57.4848 98.2067 57.259Z" fill="#FFDE38"/>
<path d="M74.6953 51.838V54.1999C74.7038 56.4829 76.2178 58.7659 79.2359 60.5071C85.289 64.0021 95.1024 64.0021 101.156 60.5071C104.174 58.7645 105.686 56.4829 105.695 54.1999L105.696 51.8168L74.6953 51.838Z" fill="#FF9900"/>
<path d="M101.155 45.5168C95.1017 42.0218 85.2883 42.0218 79.2352 45.5168C73.182 49.0118 73.182 54.6783 79.2352 58.1719C85.2883 61.6669 95.1017 61.6669 101.155 58.1719C107.207 54.6783 107.207 49.0118 101.155 45.5168Z" fill="#FFDE38"/>
<path d="M104.013 51.8449C104.013 53.61 102.699 55.3385 100.313 56.7156C97.6382 58.2592 94.0445 59.1115 90.1953 59.1115C86.3461 59.1115 82.7523 58.2606 80.0757 56.7156C79.7272 56.5138 79.4012 56.305 79.1007 56.0892C77.3356 54.8306 76.3789 53.3504 76.3789 51.8435C76.3789 50.0784 77.6925 48.3499 80.0757 46.9728C82.7523 45.4291 86.3447 44.5769 90.1953 44.5769C94.0445 44.5769 97.6382 45.4277 100.313 46.9728C100.881 47.3001 101.389 47.6472 101.83 48.0098C103.248 49.1753 104.013 50.5002 104.013 51.8449Z" fill="#FF9900"/>
<path d="M104.013 51.8449C104.013 53.6101 102.7 55.3385 100.314 56.7157C97.6386 58.2593 94.0449 59.1115 90.1957 59.1115C86.3465 59.1115 82.7527 58.2607 80.0761 56.7157C79.7276 56.5139 79.4016 56.3051 79.1011 56.0892C77.6802 54.9251 76.9141 53.6002 76.9141 52.2541C76.9141 50.489 78.2277 48.7605 80.6137 47.3834C83.2903 45.8398 86.8827 44.9875 90.7333 44.9875C94.5824 44.9875 98.1762 45.8384 100.851 47.3834C101.201 47.5852 101.529 47.7954 101.832 48.0113C103.249 49.1754 104.013 50.5003 104.013 51.8449Z" fill="#FFC400"/>
<path d="M88.8751 53.8303C89.2617 53.6073 89.4621 53.3675 89.4762 53.1107C89.4903 52.8539 89.3365 52.5223 89.0162 52.1131C88.6945 51.7039 88.4433 51.337 88.2627 51.0111C88.0807 50.6852 87.9805 50.3748 87.9622 50.0771C87.9438 49.7793 88.0271 49.4915 88.2133 49.2121C88.3996 48.9327 88.7241 48.6604 89.1869 48.3923C89.9841 47.9324 90.8928 47.7009 91.9129 47.7009C92.9331 47.7009 93.9067 47.9211 94.8365 48.3585L96.3519 47.4836L97.4849 48.1383L95.9483 49.0259C96.6651 49.5761 96.9713 50.1547 96.8655 50.7614C96.7597 51.3681 96.2461 51.9367 95.3261 52.4673L93.2802 51.2863C93.846 50.9589 94.1536 50.6471 94.2001 50.3508C94.2467 50.0545 94.0746 49.792 93.6837 49.5663C93.2971 49.3433 92.8879 49.2333 92.4562 49.2375C92.0244 49.2417 91.6152 49.356 91.2286 49.579C90.8702 49.7864 90.6854 50.0121 90.6769 50.2576C90.667 50.5032 90.8307 50.8531 91.1693 51.3102C91.5066 51.766 91.7563 52.1582 91.92 52.4828C92.0823 52.8087 92.1627 53.1163 92.1613 53.407C92.1585 53.6976 92.0625 53.9742 91.8706 54.2366C91.6801 54.4991 91.3697 54.7545 90.9394 55.0028C90.1365 55.4656 89.2349 55.697 88.2359 55.697C87.2355 55.697 86.2521 55.4698 85.2841 55.0141L83.876 55.8268L82.75 55.1764L84.1511 54.3664C83.2876 53.7484 82.8812 53.1177 82.9334 52.4743C82.9856 51.8309 83.495 51.2312 84.4629 50.6725L86.5089 51.8535C85.9473 52.178 85.6496 52.5039 85.6171 52.8299C85.5847 53.1572 85.8175 53.4648 86.3184 53.7541C86.7332 53.9939 87.1706 54.1195 87.632 54.1322C88.0863 54.1477 88.5026 54.0461 88.8751 53.8303Z" fill="#FFDE38"/>
<path d="M49.8196 1.81294C49.4358 1.59 49.0238 1.41788 48.5836 1.29794C47.7864 1.07783 46.9355 1.04959 46.1129 1.15542C46.1115 1.154 46.1115 1.154 46.1115 1.15542C44.9136 1.31062 43.6098 1.7678 42.2482 2.55372C36.3729 5.94573 31.6249 14.1704 31.6433 20.9219C31.6475 22.1862 31.8182 23.3107 32.1315 24.2787C32.1315 24.2815 32.1329 24.2829 32.1329 24.2857C32.3869 25.0674 32.734 25.7475 33.1615 26.3189C33.2984 26.501 33.4423 26.6731 33.5947 26.834L33.5961 26.8354C33.9404 27.198 34.3256 27.5028 34.746 27.7483L33.2744 26.8918C33.273 26.8918 33.273 26.8918 33.273 26.8918L32.8595 26.6505C32.8454 26.6421 32.8327 26.6336 32.8186 26.6265C32.2415 26.2837 31.7307 25.8251 31.3004 25.2593C30.3254 23.9753 29.761 22.1368 29.754 19.827C29.7342 13.0754 34.4822 4.8508 40.3589 1.45879C42.1805 0.40761 43.8963 -0.0566031 45.3976 0.00548026H45.4004C46.2117 0.0379329 46.9595 0.225593 47.6283 0.555764C47.8738 0.674287 47.8668 0.68274 49.8196 1.81294Z" fill="#FF9900"/>
<path d="M42.2496 2.5551C36.3742 5.94711 31.6262 14.1703 31.6446 20.9233C31.6643 27.6749 36.4419 30.3981 42.3187 27.0061C48.1955 23.6127 52.9434 15.3894 52.9237 8.63787C52.9053 1.88489 48.1263 -0.83832 42.2496 2.5551Z" fill="#FFDE38"/>
<path d="M51.5749 8.39793C51.5919 14.8419 47.0428 22.7194 41.4342 25.9562C39.9837 26.7944 38.5741 27.2374 37.3564 27.2374C36.3461 27.2374 35.4883 26.9242 34.8053 26.3358C33.6469 25.341 32.9979 23.5533 32.9922 21.1603C32.9753 14.7163 37.5243 6.8402 43.133 3.60198C44.5835 2.76386 45.9945 2.3208 47.2121 2.3208C48.0362 2.3208 48.7614 2.52823 49.371 2.92754C50.7721 3.84044 51.5665 5.74669 51.5749 8.39793Z" fill="#FF9900"/>
<path d="M51.1767 8.09908C51.1951 14.5416 46.6474 22.4192 41.0359 25.6574C39.5854 26.4955 38.1759 26.9386 36.9596 26.9386H36.9582C36.137 26.9386 35.4174 26.7326 34.8093 26.3375C33.6508 25.3427 33.0018 23.555 32.9961 21.162C32.9792 14.718 37.5282 6.84188 43.1369 3.60367C44.5874 2.76554 45.9984 2.32251 47.2161 2.32251C48.0401 2.32251 48.7653 2.52991 49.3749 2.92922C50.5262 3.92679 51.1697 5.71169 51.1767 8.09908Z" fill="#FFC400"/>
<path d="M43.6776 17.005C43.6776 16.5224 43.5619 16.2049 43.3291 16.054C43.0977 15.903 42.7026 15.8663 42.1481 15.9453C41.5922 16.0243 41.1124 16.0624 40.7103 16.0554C40.3068 16.0497 39.9625 15.975 39.6746 15.8324C39.3868 15.6899 39.1624 15.4557 39.0016 15.1298C38.8407 14.8038 38.7603 14.3537 38.7603 13.7766C38.7603 12.7819 39.0355 11.8083 39.5857 10.8545C40.136 9.90066 40.8683 9.10769 41.7798 8.47416V6.58484L43.0032 5.87793V7.79405C43.9048 7.42014 44.6117 7.44695 45.121 7.87307C45.6304 8.3006 45.8858 9.08794 45.8858 10.2351L43.6762 11.5106C43.6762 10.8037 43.5506 10.3479 43.2981 10.1434C43.0455 9.93876 42.7083 9.95851 42.285 10.2026C41.8673 10.4439 41.5428 10.767 41.3142 11.1734C41.0842 11.5797 40.9699 12.0242 40.9699 12.5068C40.9699 12.954 41.0814 13.2489 41.3071 13.39C41.5315 13.5311 41.9477 13.5678 42.5573 13.4987C43.1668 13.4295 43.6677 13.407 44.06 13.4295C44.4522 13.4535 44.7838 13.5438 45.0547 13.7033C45.3242 13.8627 45.5316 14.1026 45.6741 14.4229C45.8167 14.7432 45.8886 15.1721 45.8886 15.7069C45.8886 16.7073 45.6177 17.6766 45.0787 18.6121C44.5383 19.5476 43.7933 20.3462 42.8451 21.0051V22.7618L41.6288 23.4631V21.7148C40.5833 22.1889 39.7748 22.2284 39.2005 21.832C38.6263 21.4355 38.3398 20.634 38.3398 19.4276L40.5494 18.1521C40.5494 18.8534 40.6934 19.3063 40.9812 19.5137C41.269 19.7211 41.6839 19.6689 42.2243 19.3571C42.673 19.0975 43.0271 18.756 43.2868 18.3327C43.5478 17.9151 43.6776 17.4706 43.6776 17.005Z" fill="#FFDE38"/>
</svg>
