<svg width="106" height="128" viewBox="0 0 106 128" fill="none" xmlns="http://www.w3.org/2000/svg">
<path d="M52.3807 37.4002L55.2171 35.7525L31.9047 32.3879L29.0684 34.0371L52.3807 37.4002Z" fill="#742290"/>
<path d="M52.3807 37.4002L29.0684 34.0356C31.8987 69.3001 51.2326 91.3411 52.2483 92.5013C53.273 92.5208 72.7303 92.8759 75.9399 61.0979L52.3807 37.4002Z" fill="#9A36BB"/>
<path d="M53.465 89.7222C55.2165 89.5446 58.6909 88.8434 62.2104 86.1214C64.8541 84.078 67.0856 81.2446 68.8416 77.704C70.9346 73.4833 72.3626 68.2379 73.0909 62.0956L51.0906 39.9673L32.1133 37.2288C35.3619 65.9086 49.5287 84.9252 53.465 89.7222Z" fill="#742290"/>
<path d="M61.5449 89.8468L64.3813 88.1992C70.2361 84.797 76.9983 77.0538 78.7753 59.4517L75.9389 61.0993C74.1619 78.7014 67.3997 86.4432 61.5449 89.8468Z" fill="#742290"/>
<path d="M75.9396 61.098L78.7744 59.4504L55.2153 35.7527L52.3789 37.4003L75.9396 61.098Z" fill="#C157E5"/>
<path d="M50.7212 10.4131L56.6138 6.99L8.18163 0L2.28906 3.42622L50.7212 10.4131Z" fill="#742290"/>
<path d="M50.7212 10.4131L2.28906 3.4231C8.1692 76.686 48.336 122.477 50.4461 124.887C52.575 124.928 92.9981 125.666 99.666 59.6458L50.7212 10.4131Z" fill="#9A36BB"/>
<path d="M52.9741 119.114C56.6129 118.745 63.831 117.288 71.1429 111.633C76.6354 107.388 81.2713 101.501 84.9194 94.1455C89.2678 85.3768 92.2344 74.4793 93.7474 61.7186L48.0412 15.7464L8.61523 10.0569C15.3644 69.6401 44.7963 109.148 52.9741 119.114Z" fill="#742290"/>
<path d="M69.7617 119.373L75.6544 115.95C87.8179 108.882 101.866 92.7948 105.558 56.2258L99.6657 59.6489C95.9738 96.2178 81.9252 112.301 69.7617 119.373Z" fill="#742290"/>
<path d="M99.6668 59.646L105.556 56.2229L56.6114 6.99023L50.7188 10.4133L99.6668 59.646Z" fill="#C157E5"/>
<path d="M3.40234 113.763V116.741H3.40386C3.41439 119.621 5.32238 122.498 9.12777 124.694C16.7611 129.102 29.1358 129.102 36.7692 124.694C40.5746 122.498 42.481 119.621 42.493 116.741H42.4946V113.736L3.40234 113.763Z" fill="#FF9900"/>
<path d="M22.947 125.057C33.7411 125.057 42.4915 120.004 42.4915 113.772C42.4915 107.539 33.7411 102.486 22.947 102.486C12.1528 102.486 3.40234 107.539 3.40234 113.772C3.40234 120.004 12.1528 125.057 22.947 125.057Z" fill="#FFDE38"/>
<path d="M40.3689 113.771C40.3689 115.997 38.7123 118.177 35.7044 119.914C32.3323 121.861 27.7986 122.934 22.946 122.934C18.0933 122.934 13.5596 121.861 10.1846 119.914C9.74519 119.659 9.33441 119.396 8.95372 119.125C6.72827 117.538 5.52148 115.672 5.52148 113.771C5.52148 111.546 7.17816 109.366 10.1846 107.629C13.5596 105.682 18.0903 104.609 22.946 104.609C27.7986 104.609 32.3323 105.682 35.7044 107.629C36.4191 108.043 37.0601 108.479 37.6183 108.938C39.4059 110.405 40.3689 112.076 40.3689 113.771Z" fill="#FF9900"/>
<path d="M40.3706 113.772C40.3706 115.997 38.7139 118.177 35.706 119.914C32.334 121.861 27.8003 122.934 22.9477 122.934C18.095 122.934 13.5613 121.861 10.1862 119.914C9.74686 119.66 9.33609 119.396 8.9554 119.125C7.1633 117.658 6.19727 115.986 6.19727 114.289C6.19727 112.064 7.85395 109.883 10.8619 108.147C14.2369 106.2 18.7676 105.127 23.6233 105.127C28.4759 105.127 33.0096 106.2 36.3817 108.147C36.8225 108.401 37.2363 108.666 37.6185 108.938C39.4076 110.406 40.3706 112.076 40.3706 113.772Z" fill="#FFC400"/>
<path d="M27.2713 114.225C26.7838 113.943 26.2602 113.797 25.7004 113.787C25.1407 113.776 24.4154 113.888 23.5231 114.122C22.6308 114.356 21.8288 114.539 21.1171 114.672C20.4054 114.804 19.7268 114.878 19.0767 114.891C18.4282 114.905 17.7992 114.845 17.1883 114.709C16.5789 114.574 15.9816 114.337 15.3993 114C14.3941 113.42 13.89 112.759 13.89 112.016C13.89 111.274 14.3685 110.564 15.327 109.887L13.416 108.784L14.844 107.959L16.782 109.077C17.9843 108.555 19.2467 108.332 20.5709 108.409C21.895 108.487 23.1379 108.86 24.2981 109.53L21.7175 111.02C21.0027 110.607 20.3226 110.385 19.6741 110.35C19.0255 110.315 18.4538 110.44 17.9602 110.726C17.4727 111.008 17.232 111.305 17.241 111.62C17.25 111.934 17.4983 112.232 17.9858 112.514C18.4387 112.774 18.9323 112.909 19.4679 112.916C20.0036 112.923 20.7695 112.803 21.7671 112.557C22.7633 112.312 23.6179 112.13 24.3297 112.011C25.0414 111.892 25.714 111.835 26.3475 111.837C26.981 111.838 27.5858 111.909 28.1591 112.049C28.7339 112.189 29.2906 112.414 29.8323 112.727C30.8435 113.311 31.3506 113.967 31.3506 114.696C31.3506 115.424 30.854 116.14 29.8594 116.844L31.6365 117.871L30.2176 118.691L28.4495 117.67C27.0983 118.299 25.7215 118.594 24.3161 118.557C22.9122 118.519 21.6001 118.147 20.3798 117.443L22.9589 115.954C23.6676 116.363 24.3778 116.579 25.0925 116.604C25.8073 116.628 26.4799 116.458 27.1103 116.093C27.634 115.791 27.9094 115.472 27.9364 115.138C27.9635 114.799 27.7423 114.495 27.2713 114.225Z" fill="#FFDE38"/>
<path d="M3.40234 105.75V108.728H3.40386C3.41439 111.608 5.32238 114.485 9.12777 116.682C16.7611 121.089 29.1358 121.089 36.7692 116.682C40.5746 114.485 42.481 111.608 42.493 108.728H42.4946V105.723L3.40234 105.75Z" fill="#FF9900"/>
<path d="M22.947 117.045C33.7411 117.045 42.4915 111.992 42.4915 105.759C42.4915 99.5265 33.7411 94.4739 22.947 94.4739C12.1528 94.4739 3.40234 99.5265 3.40234 105.759C3.40234 111.992 12.1528 117.045 22.947 117.045Z" fill="#FFDE38"/>
<path d="M40.3689 105.759C40.3689 107.985 38.7123 110.165 35.7044 111.901C32.3323 113.848 27.7986 114.921 22.946 114.921C18.0933 114.921 13.5596 113.848 10.1846 111.901C9.74519 111.647 9.33441 111.384 8.95372 111.113C6.72827 109.527 5.52148 107.66 5.52148 105.759C5.52148 103.534 7.1782 101.353 10.1831 99.6169C13.5581 97.6698 18.0888 96.5969 22.9445 96.5969C27.7971 96.5969 32.3308 97.6698 35.7028 99.6169C36.4176 100.031 37.0586 100.467 37.6168 100.926C39.4059 102.393 40.3689 104.063 40.3689 105.759Z" fill="#FF9900"/>
<path d="M40.3706 105.759C40.3706 107.985 38.7139 110.165 35.706 111.902C32.334 113.849 27.8003 114.921 22.9477 114.921C18.095 114.921 13.5613 113.849 10.1862 111.902C9.74686 111.647 9.33609 111.384 8.9554 111.113C7.1633 109.646 6.19727 107.974 6.19727 106.277C6.19727 104.051 7.85395 101.871 10.8619 100.135C14.2369 98.1876 18.7676 97.1147 23.6233 97.1147C28.4759 97.1147 33.0096 98.1876 36.3817 100.135C36.8225 100.389 37.2363 100.654 37.6185 100.926C39.4076 102.393 40.3706 104.063 40.3706 105.759Z" fill="#FFC400"/>
<path d="M27.2728 106.212C26.7853 105.931 26.2616 105.785 25.7019 105.774C25.1421 105.764 24.4169 105.875 23.5231 106.11C22.6308 106.343 21.8288 106.527 21.1171 106.659C20.4053 106.792 19.7267 106.864 19.0767 106.879C18.4282 106.892 17.7992 106.832 17.1883 106.695C16.5789 106.56 15.9815 106.324 15.3992 105.987C14.3941 105.406 13.89 104.744 13.89 104.002C13.89 103.26 14.3685 102.55 15.327 101.873L13.416 100.77L14.8439 99.9451L16.7805 101.063C17.9828 100.541 19.2467 100.318 20.5694 100.395C21.8935 100.472 23.1364 100.846 24.2965 101.516L21.7159 103.006C21.0012 102.593 20.3211 102.371 19.671 102.336C19.0225 102.301 18.4507 102.426 17.9572 102.712C17.4696 102.994 17.2289 103.292 17.2379 103.606C17.247 103.921 17.4952 104.218 17.9843 104.5C18.4372 104.76 18.9307 104.896 19.4664 104.902C20.0021 104.909 20.768 104.789 21.7656 104.543C22.7617 104.298 23.6164 104.116 24.3281 103.997C25.0398 103.878 25.7109 103.82 26.3459 103.823C26.9794 103.824 27.5843 103.895 28.1576 104.035C28.7324 104.175 29.2906 104.401 29.8308 104.712C30.8435 105.296 31.3491 105.953 31.3491 106.68C31.3491 107.408 30.8525 108.125 29.8579 108.829L31.635 109.855L30.216 110.675L28.448 109.655C27.0968 110.284 25.7199 110.579 24.3146 110.541C22.9107 110.504 21.5986 110.132 20.3783 109.428L22.9573 107.938C23.666 108.347 24.3762 108.564 25.091 108.587C25.8057 108.611 26.4783 108.441 27.1088 108.077C27.6324 107.774 27.9078 107.455 27.9349 107.121C27.965 106.787 27.7438 106.483 27.2728 106.212Z" fill="#FFDE38"/>
<path d="M0 98.0808V101.059C0.0105329 103.939 1.91999 106.816 5.72539 109.013C13.3587 113.42 25.7334 113.42 33.3653 109.013C37.1707 106.816 39.0771 103.939 39.0892 101.059H39.0907V98.0537L0 98.0808Z" fill="#FF9900"/>
<path d="M19.5446 109.375C30.3387 109.375 39.0892 104.323 39.0892 98.0898C39.0892 91.8571 30.3387 86.8044 19.5446 86.8044C8.75039 86.8044 0 91.8571 0 98.0898C0 104.323 8.75039 109.375 19.5446 109.375Z" fill="#FFDE38"/>
<path d="M36.9685 98.0898C36.9685 100.315 35.3118 102.496 32.3039 104.232C28.9319 106.179 24.3982 107.252 19.5455 107.252C14.6929 107.252 10.1592 106.179 6.78417 104.232C6.34479 103.978 5.93397 103.714 5.55329 103.444C3.32783 101.858 2.12109 99.9902 2.12109 98.0898C2.12109 95.8643 3.77777 93.684 6.78417 91.946C10.1592 89.9989 14.6899 88.926 19.5455 88.926C24.3982 88.926 28.9319 89.9989 32.3039 91.946C33.0187 92.3598 33.6597 92.7962 34.2179 93.2551C36.0055 94.7222 36.9685 96.394 36.9685 98.0898Z" fill="#FF9900"/>
<path d="M36.9682 98.0897C36.9682 100.315 35.3116 102.495 32.3036 104.232C28.9316 106.179 24.3979 107.252 19.5453 107.252C14.6926 107.252 10.1589 106.179 6.78389 104.232C6.34452 103.978 5.9337 103.714 5.55301 103.443C3.76091 101.976 2.79492 100.305 2.79492 98.6073C2.79492 96.3818 4.45156 94.2015 7.45947 92.4651C10.8345 90.518 15.3652 89.4451 20.2209 89.4451C25.0736 89.4451 29.6072 90.518 32.9793 92.4651C33.4201 92.7194 33.8339 92.9842 34.2161 93.2565C36.0052 94.7221 36.9682 96.3939 36.9682 98.0897Z" fill="#FFC400"/>
<path d="M23.8709 98.5428C23.3834 98.2614 22.8598 98.1154 22.3 98.1049C21.7403 98.0943 21.015 98.2072 20.1227 98.4404C19.2304 98.6736 18.4284 98.8573 17.7167 98.9897C17.005 99.1221 16.3264 99.1943 15.6764 99.2078C15.0278 99.2214 14.3989 99.1612 13.7879 99.0258C13.1785 98.8903 12.5812 98.6541 11.9989 98.317C10.9937 97.7362 10.4896 97.0756 10.4896 96.3323C10.4896 95.5905 10.9681 94.8803 11.9266 94.2032L10.0156 93.1002L11.4436 92.2756L13.3802 93.3937C14.5824 92.8715 15.8464 92.6488 17.169 92.7256C18.4932 92.8023 19.736 93.177 20.8962 93.8466L18.3156 95.3362C17.6009 94.9239 16.9207 94.6997 16.2722 94.6666C15.6237 94.632 15.0519 94.7584 14.5583 95.0428C14.0708 95.3242 13.8316 95.6221 13.8391 95.9366C13.8481 96.2511 14.0964 96.549 14.5839 96.8304C15.0368 97.0907 15.5304 97.2261 16.0661 97.2322C16.6018 97.2397 17.3676 97.1193 18.3652 96.874C19.3614 96.6288 20.216 96.4467 20.9262 96.3278C21.638 96.2089 22.3106 96.1518 22.9441 96.1533C23.5775 96.1548 24.1824 96.2255 24.7557 96.3654C25.3305 96.5039 25.8888 96.7311 26.429 97.0426C27.4401 97.6264 27.9472 98.2825 27.9472 99.0107C27.9472 99.739 27.4507 100.455 26.4561 101.159L28.2316 102.186L26.8127 103.006L25.0461 101.986C23.6949 102.615 22.3181 102.909 20.9127 102.872C19.5088 102.834 18.1967 102.463 16.9764 101.758L19.557 100.269C20.2657 100.678 20.9759 100.895 21.6906 100.919C22.4054 100.943 23.078 100.773 23.7084 100.409C24.2321 100.106 24.5074 99.7871 24.5345 99.4531C24.5616 99.1175 24.3404 98.8136 23.8709 98.5428Z" fill="#FFDE38"/>
<path d="M0 91.6452V94.4936C0.0105329 97.2488 1.83722 100.001 5.4771 102.103C12.7794 106.319 24.6184 106.319 31.9208 102.103C35.5606 100.001 37.3859 97.2488 37.3964 94.4936H37.3979V91.6196L0 91.6452Z" fill="#FF9900"/>
<path d="M31.9204 84.0191C24.6181 79.8029 12.7791 79.8029 5.47674 84.0191C-1.82558 88.2353 -1.82558 95.0712 5.47674 99.2859C12.7791 103.502 24.6181 103.502 31.9204 99.2859C39.2227 95.0712 39.2227 88.2353 31.9204 84.0191Z" fill="#FFDE38"/>
<path d="M35.3704 91.6525C35.3704 93.7816 33.7859 95.8672 30.9089 97.5284C27.6829 99.3912 23.3463 100.417 18.7028 100.417C14.0593 100.417 9.72422 99.3912 6.49513 97.5284C6.07531 97.2846 5.68106 97.0333 5.31843 96.773C3.18927 95.2548 2.03516 93.4686 2.03516 91.651C2.03516 89.5218 3.61964 87.4363 6.49513 85.7735C9.72422 83.9107 14.0578 82.8845 18.7028 82.8845C23.3463 82.8845 27.6829 83.9107 30.9089 85.7735C31.5921 86.1693 32.206 86.5876 32.7386 87.0255C34.4495 88.4324 35.3704 90.0319 35.3704 91.6525Z" fill="#FF9900"/>
<path d="M35.3674 91.6525C35.3674 93.7817 33.783 95.8672 30.906 97.5284C27.6799 99.3913 23.3433 100.417 18.6998 100.417C14.0563 100.417 9.72126 99.3913 6.49216 97.5284C6.07235 97.2847 5.6781 97.0334 5.31547 96.7731C3.6001 95.3692 2.67773 93.7697 2.67773 92.1461C2.67773 90.0169 4.26219 87.9314 7.14069 86.2687C10.3698 84.4058 14.7033 83.3796 19.3484 83.3796C23.9919 83.3796 28.3284 84.4058 31.5545 86.2687C31.9758 86.5124 32.3715 86.7652 32.7372 87.0255C34.4465 88.4324 35.3674 90.0319 35.3674 91.6525Z" fill="#FFC400"/>
<path d="M17.107 94.0495C17.5735 93.7801 17.8157 93.4912 17.8323 93.1812C17.8488 92.8728 17.6638 92.471 17.277 91.9775C16.8903 91.4839 16.5864 91.0416 16.3682 90.6488C16.1485 90.2561 16.0281 89.8799 16.0056 89.5218C15.983 89.1637 16.0838 88.8161 16.3095 88.479C16.5352 88.142 16.9264 87.8125 17.4832 87.4904C18.4447 86.9352 19.5416 86.6568 20.771 86.6568C22.0003 86.6568 23.1755 86.9217 24.298 87.4498L26.1262 86.395L27.4925 87.1835L25.6387 88.2533C26.5039 88.9169 26.8725 89.6151 26.7446 90.3464C26.6167 91.0776 25.9983 91.7638 24.8878 92.4048L22.4201 90.9799C23.1033 90.5856 23.4734 90.2095 23.5306 89.8513C23.5878 89.4932 23.3801 89.1772 22.9077 88.9049C22.4412 88.6355 21.9476 88.5031 21.4255 88.5076C20.9049 88.5121 20.4098 88.6506 19.9434 88.9199C19.51 89.1697 19.2888 89.442 19.2768 89.7385C19.2647 90.0349 19.4634 90.4577 19.8696 91.0084C20.2774 91.5592 20.5783 92.0301 20.7755 92.4229C20.9711 92.8156 21.0689 93.1873 21.0659 93.5379C21.0629 93.8885 20.9455 94.221 20.7153 94.5385C20.4851 94.856 20.1104 95.1645 19.5928 95.4624C18.6253 96.0207 17.5374 96.3005 16.3306 96.3005C15.1238 96.3005 13.9366 96.0267 12.769 95.4774L11.0701 96.4585L9.71289 95.6746L11.4042 94.698C10.3629 93.9516 9.8724 93.1903 9.9356 92.4153C9.99729 91.6389 10.6127 90.9152 11.7803 90.2411L14.2481 91.666C13.571 92.0572 13.2113 92.45 13.1722 92.8442C13.1316 93.2384 13.4144 93.6101 14.0178 93.9592C14.5189 94.2481 15.0471 94.4001 15.6023 94.4151C16.1545 94.4317 16.6571 94.3083 17.107 94.0495Z" fill="#FFDE38"/>
<path opacity="0.4" d="M20.0738 99.2742C29.2068 99.2742 36.6105 94.9997 36.6105 89.7268C36.6105 84.454 29.2068 80.1794 20.0738 80.1794C10.9409 80.1794 3.53711 84.454 3.53711 89.7268C3.53711 94.9997 10.9409 99.2742 20.0738 99.2742Z" fill="#EDECF8"/>
<path d="M29.6974 80.7918C35.7132 84.2782 35.7463 89.9299 29.7681 93.4163C23.7899 96.9027 14.0666 96.9027 8.05077 93.4163C2.03496 89.9299 2.00186 84.2782 7.98005 80.7918C13.9567 77.3054 23.6816 77.3054 29.6974 80.7918Z" fill="#C157E5"/>
<path d="M27.2047 39.8606C22.5747 37.1777 15.0692 37.1777 10.4393 39.8606C5.8093 42.5435 5.8093 46.8921 10.4393 49.575C15.0692 52.2579 22.5747 52.2579 27.2047 49.575C31.8331 46.8921 31.8331 42.542 27.2047 39.8606Z" fill="#EDECF8"/>
<path d="M26.1163 71.7863C25.1653 70.9707 21.688 68.0034 21.6233 65.9299C21.688 63.8564 25.1668 60.8876 26.1163 60.0736C28.2078 58.28 31.0683 55.6242 31.8793 52.851C32.9341 49.2427 31.941 45.3334 29.9593 42.333H7.6897C5.7065 45.3334 4.7149 49.2442 5.7697 52.851C6.58073 55.6242 8.85739 58.28 10.9504 60.0736C11.8999 60.8891 15.8166 63.8564 15.9972 65.9299C15.8166 68.0034 11.8999 70.9722 10.9504 71.7863C8.85889 73.5799 6.58073 76.2357 5.7697 79.0089C4.69233 82.6924 5.75917 86.6935 7.82664 89.7164C8.40595 90.55 9.27718 91.331 10.4418 92.0051C15.0718 94.688 22.5772 94.688 27.2072 92.0051C28.3719 91.3295 29.2431 90.55 29.8224 89.7164C31.8899 86.692 32.9567 82.6924 31.8793 79.0089C31.0668 76.2357 28.2078 73.5814 26.1163 71.7863Z" fill="#EDECF8"/>
<path opacity="0.5" d="M26.1151 71.7863C25.1641 70.9707 21.6868 68.0034 21.6221 65.9299C21.6868 63.8564 25.1656 60.8876 26.1151 60.0736C28.2066 58.28 31.0671 55.6242 31.8781 52.851C32.9329 49.2427 31.9398 45.3334 29.9581 42.333H27.0616C26.7049 46.4349 24.2463 50.1139 22.1352 53.6755C17.6361 61.1735 18.8354 69.7218 24.8346 76.4704C28.1344 80.3691 28.181 88.32 22.7355 90.4176C9.38129 95.5592 5.91298 82.3794 5.43599 80.5918C5.01317 83.8089 6.04987 87.1223 7.82391 89.7179C8.40322 90.5515 9.27446 91.3324 10.4391 92.0066C15.0691 94.6895 22.5745 94.6895 27.2045 92.0066C28.3691 91.3309 29.2404 90.5515 29.8197 89.7179C31.8871 86.6934 32.954 82.6939 31.8766 79.0104C31.0656 76.2357 28.2066 73.5814 26.1151 71.7863Z" fill="#EDECF8"/>
<path d="M29.8142 54.3779C29.8142 54.5088 29.8067 54.6382 29.7901 54.7676C29.7676 54.9467 29.733 55.1227 29.6818 55.3003C29.6487 55.4192 29.6066 55.5365 29.5599 55.6539C29.4711 55.7697 28.8572 56.8185 28.7654 56.9314C27.8446 58.0644 27.1118 58.3549 26.2511 59.1463C25.1135 60.1921 24.5267 60.5623 23.511 61.7374C23.4177 61.8443 23.326 61.9527 23.2342 62.061C21.2856 64.3587 19.8982 66.9107 18.8961 69.7531C17.7285 65.7596 15.014 62.4853 11.8511 59.8716C11.6765 59.7272 11.5306 59.6068 11.4237 59.5165C10.8655 59.0365 9.93107 58.1773 9.00267 57.0683C8.8522 56.8893 8.70024 56.7027 8.55127 56.5086L8.54223 56.4951C8.27439 56.1083 8.08179 55.7096 7.96442 55.2988C7.91326 55.1227 7.87866 54.9467 7.85609 54.7661C7.83954 54.6367 7.83203 54.5073 7.83203 54.3764C7.83203 52.8356 8.92291 51.3534 10.9016 50.2068C13.0052 48.9865 15.819 48.3154 18.8208 48.3154C21.8242 48.3154 24.638 48.9865 26.7416 50.2068C28.7233 51.3534 29.8142 52.8356 29.8142 54.3779Z" fill="#FFC400"/>
<path d="M29.9412 87.2666C29.9427 87.2274 29.9472 87.1883 29.9472 87.1492C29.9472 86.7234 29.8629 86.3036 29.7034 85.8928C29.6477 85.6806 29.5785 85.4579 29.4943 85.2322C29.0007 83.9186 28.1551 82.757 27.1875 81.7548C25.7099 80.226 23.9419 79.0117 22.3725 77.5777C21.7481 77.0075 21.1552 76.3966 20.6331 75.7315C20.2509 75.2454 19.8852 74.4329 19.3812 74.0718C17.6929 75.8564 15.6826 77.3069 13.8032 78.8868C11.5732 80.7632 9.3884 81.9038 7.98301 85.798C7.98 85.804 7.98 85.8115 7.97699 85.819C7.79793 86.2524 7.70312 86.6978 7.70312 87.1492C7.70312 88.7111 8.80611 90.2098 10.8089 91.37C12.938 92.6038 15.7849 93.284 18.8259 93.284C21.8654 93.284 24.7123 92.6038 26.8415 91.37C28.781 90.2474 29.872 88.8059 29.9412 87.2982H29.9442C29.9442 87.2982 29.9427 87.2861 29.9412 87.2666Z" fill="#FFC400"/>
<path d="M20.5614 87.6789C22.9178 84.4137 22.9494 80.2847 21.4537 76.6824C21.1648 76.3785 20.8894 76.061 20.6291 75.7315C20.2469 75.2454 19.8813 74.4329 19.3772 74.0718C17.6889 75.8564 15.6786 77.3069 13.7993 78.8868C11.5678 80.7632 9.38449 81.9038 7.9791 85.798C7.97609 85.804 7.97605 85.8115 7.97304 85.819C7.79398 86.2524 7.69922 86.6978 7.69922 87.1492C7.69922 88.7111 8.80216 90.2098 10.8049 91.37C11.0547 91.5144 11.315 91.6513 11.5844 91.7807C14.9639 91.8996 18.2577 90.7124 20.5614 87.6789Z" fill="#FFC400"/>
<path d="M29.9444 87.1492C29.9444 86.7234 29.8601 86.3036 29.7006 85.8928C29.6449 85.6806 29.5757 85.4579 29.4915 85.2322C28.9979 83.9186 28.1522 82.7569 27.1847 81.7548C25.7071 80.226 23.9391 79.0117 22.3697 77.5777C22.0537 77.2903 21.7482 76.9924 21.4533 76.6809C22.9505 80.2832 22.9174 84.4121 20.5611 87.6774C18.2573 90.7109 14.9635 91.8966 11.584 91.7792C13.6063 92.7528 16.1372 93.2824 18.8216 93.2824C21.8611 93.2824 24.708 92.6023 26.8372 91.3684C28.7767 90.2444 29.8676 88.8044 29.9368 87.2967H29.9399C29.9399 87.2967 29.9399 87.2831 29.9384 87.2636C29.9399 87.2275 29.9444 87.1883 29.9444 87.1492Z" fill="#FF9900"/>
<path d="M29.8132 54.3779C29.8132 54.5088 29.8057 54.6382 29.7891 54.7676C29.7665 54.9467 29.732 55.1227 29.6808 55.2988C29.6477 55.4177 29.607 55.535 29.5589 55.6524C29.1406 56.7012 28.2062 57.6807 26.8279 58.4963C26.8008 58.5144 26.7707 58.5309 26.7421 58.5475C24.6385 59.7663 21.8247 60.4389 18.8213 60.4389C15.8179 60.4389 13.0057 59.7678 10.9021 58.5475C10.4913 58.3097 10.1166 58.0569 9.7871 57.7906C9.49368 57.5589 9.23187 57.3166 9.00315 57.0668C8.83462 56.8848 8.68563 56.6982 8.55171 56.5071C8.5487 56.5026 8.54572 56.4981 8.54271 56.4935C8.27487 56.1068 8.08227 55.7081 7.9649 55.2973C7.91374 55.1212 7.87915 54.9452 7.85658 54.7661C7.84003 54.6367 7.83398 54.5073 7.83398 54.3764C7.83398 52.8356 8.92491 51.3534 10.9036 50.2068C13.0072 48.988 15.821 48.3154 18.8228 48.3154C21.5614 48.3154 24.142 48.8737 26.1703 49.8969C26.3659 49.9962 26.5585 50.1 26.7436 50.2068C28.7238 51.3549 29.8132 52.8371 29.8132 54.3779Z" fill="#FFC400"/>
<path d="M28.1204 53.3096C28.1204 53.4405 28.1129 53.5699 28.0963 53.6993C28.0738 53.8784 28.0391 54.0544 27.988 54.2305C27.9548 54.3493 27.9127 54.4667 27.8661 54.584C27.4478 55.6328 26.5134 56.6124 25.1366 57.428C25.1095 57.446 25.0794 57.4611 25.0508 57.4791C22.9472 58.6979 20.1334 59.3705 17.1301 59.3705C14.3945 59.3705 11.8154 58.8138 9.7871 57.7921C9.49217 57.5604 9.23187 57.3181 9.00315 57.0683C8.83462 56.8862 8.68563 56.6997 8.55171 56.5086C8.5487 56.5041 8.54572 56.4996 8.54271 56.4951C8.27487 56.1083 8.08227 55.7096 7.9649 55.2988C7.91374 55.1227 7.8791 54.9467 7.85653 54.7661C7.83998 54.6367 7.83398 54.5073 7.83398 54.3764C7.83398 52.8356 8.92491 51.3534 10.9036 50.2068C13.0072 48.988 15.821 48.3154 18.8228 48.3154C21.5614 48.3154 24.142 48.8737 26.1703 49.8969C27.4358 50.9065 28.1204 52.0892 28.1204 53.3096Z" fill="#FFD438"/>
<path d="M15.9727 77.1188C16.5971 77.4619 20.3062 76.0656 21.0074 76.1919C20.392 75.4125 19.9857 74.6451 19.7645 73.8942C19.3522 72.4934 19.3402 70.9947 19.5734 69.5517C19.8066 68.1101 20.2791 66.7168 20.8208 65.361C20.9111 65.1353 20.9969 64.8569 20.8434 64.6688C20.7441 64.5454 20.5756 64.5093 20.4191 64.4823C19.9451 64.4025 19.4561 64.3498 18.9836 64.4356C18.2087 64.5755 17.6038 65.0977 17.5616 65.9133C17.5285 66.5693 17.8475 67.0493 18.0807 67.6406C18.7037 69.2161 18.9685 70.933 18.8662 72.6243C18.809 73.5828 18.1876 75.1341 15.9727 77.1188Z" fill="#FFC400"/>
<path d="M34.7295 44.6291L34.7234 46.5446C34.7174 48.8784 33.1887 51.2077 30.1356 52.9878C23.9919 56.5705 13.9992 56.5705 7.81636 52.9878C4.70463 51.1851 3.15025 48.8182 3.15627 46.4543L3.16228 44.5388C3.15626 46.9027 4.71065 49.2696 7.82237 51.0723C14.0067 54.655 23.9979 54.655 30.1416 51.0723C33.1947 49.2922 34.7234 46.9614 34.7295 44.6291Z" fill="#742290"/>
<path d="M34.7283 44.7781L34.7223 46.6936C34.6756 48.2314 33.9669 49.7617 32.5977 51.1295L32.6022 49.214C33.9729 47.8462 34.6802 46.3159 34.7283 44.7781Z" fill="#742290"/>
<path d="M32.6027 49.2139L32.5966 51.1294C31.9316 51.793 31.113 52.4174 30.1364 52.9862C28.5415 53.9161 26.6877 54.6053 24.709 55.0522L24.715 53.1367C26.6952 52.6898 28.549 52.0006 30.1425 51.0707C31.1175 50.5034 31.9376 49.8774 32.6027 49.2139Z" fill="#742290"/>
<path d="M24.7122 53.1382L24.7062 55.0537C22.2385 55.6119 19.5752 55.794 16.9766 55.5999L16.9826 53.6844C19.5827 53.8785 22.2445 53.6949 24.7122 53.1382Z" fill="#742290"/>
<path d="M16.986 53.6845L16.98 55.6C13.6335 55.3517 10.3939 54.4804 7.81636 52.9878C4.70463 51.1851 3.15025 48.8182 3.15627 46.4543L3.16228 44.5388C3.15626 46.9027 4.71065 49.2696 7.82237 51.0723C10.3999 52.565 13.6396 53.4362 16.986 53.6845Z" fill="#742290"/>
<path d="M30.1415 51.0707C25.4649 53.7972 18.5613 54.4503 12.8028 53.0238C10.9942 52.5784 9.29987 51.9284 7.82226 51.0722C1.63792 47.4895 1.60484 41.6798 7.74704 38.0971C12.5485 35.2983 19.6974 34.6859 25.5446 36.2613C25.5522 36.2628 25.5582 36.2643 25.5642 36.2673C27.1953 36.7067 28.7226 37.3176 30.0693 38.0971C36.2536 41.6798 36.2867 47.488 30.1415 51.0707Z" fill="#C157E5"/>
<path d="M34.2278 87.292L34.2217 89.2075C34.1766 90.7032 33.4875 92.1928 32.1543 93.5245L32.1603 91.609C33.4935 90.2789 34.1827 88.7892 34.2278 87.292Z" fill="#742290"/>
<path d="M32.1605 91.6091L32.1545 93.5246C31.5089 94.1701 30.7115 94.7781 29.762 95.3318C28.2106 96.2361 26.4065 96.9072 24.4805 97.3421L24.4865 95.4266C26.4126 94.9917 28.2167 94.3221 29.768 93.4163C30.7175 92.8625 31.515 92.2547 32.1605 91.6091Z" fill="#742290"/>
<path d="M24.4879 95.4265L24.4834 97.342C22.0819 97.8852 19.4908 98.0628 16.9629 97.8747L16.9689 95.9577C19.4953 96.1458 22.0864 95.9682 24.4879 95.4265Z" fill="#742290"/>
<path d="M16.9668 95.9591L16.9608 97.8746C13.7046 97.6324 10.5522 96.7852 8.04541 95.3332C5.01795 93.5787 3.50572 91.2765 3.51174 88.9773L3.51775 87.0618C3.51173 89.361 5.02396 91.6647 8.05142 93.4177C10.5598 94.8697 13.7106 95.7169 16.9668 95.9591Z" fill="#742290"/>
<path opacity="0.4" d="M7.30126 79.3864C7.08157 80.1402 6.94012 80.9317 7.04094 81.7097C7.14175 82.4876 7.50892 83.255 8.14692 83.7139C8.91432 84.2662 9.97364 84.2932 10.8599 83.9667C11.7477 83.6402 12.4865 83.0022 13.126 82.3055C14.2996 81.0265 15.2085 79.5038 15.7743 77.8636C16.2422 76.5064 16.4709 74.8196 15.3635 73.697C14.5976 72.9221 13.3457 72.4677 12.2984 72.8559C9.90442 73.7452 7.96935 77.1007 7.30126 79.3864Z" fill="white"/>
</svg>
