<svg width="120" height="41" viewBox="0 0 120 41" fill="none" xmlns="http://www.w3.org/2000/svg">
<rect y="0.5" width="120" height="40" rx="6" fill="black"/>
<path d="M24.7045 21.2631C24.7166 20.3432 24.9669 19.4413 25.4321 18.6412C25.8972 17.8411 26.5621 17.1688 27.3648 16.687C26.8548 15.976 26.1821 15.3908 25.4 14.978C24.6178 14.5652 23.7479 14.3361 22.8592 14.309C20.9635 14.1147 19.1258 15.4164 18.1598 15.4164C17.1751 15.4164 15.6878 14.3283 14.0862 14.3604C13.0502 14.3931 12.0406 14.6872 11.1557 15.2141C10.2708 15.741 9.54075 16.4827 9.03674 17.3669C6.85352 21.0573 8.48201 26.4809 10.5734 29.464C11.6197 30.9247 12.8426 32.5564 14.4428 32.4985C16.0086 32.4351 16.5934 31.5237 18.4835 31.5237C20.3561 31.5237 20.9048 32.4985 22.5374 32.4617C24.2176 32.4351 25.2762 30.9945 26.2859 29.52C27.0377 28.4792 27.6162 27.3288 28 26.1116C27.0238 25.7085 26.1908 25.0338 25.6048 24.1716C25.0187 23.3094 24.7056 22.2979 24.7045 21.2631Z" fill="white"/>
<path d="M21.622 12.3471C22.5381 11.2734 22.9895 9.89335 22.8802 8.5C21.4806 8.64352 20.1877 9.2966 19.2592 10.3291C18.8052 10.8335 18.4575 11.4203 18.236 12.056C18.0145 12.6917 17.9234 13.3638 17.9681 14.0338C18.6681 14.0408 19.3607 13.8927 19.9936 13.6005C20.6266 13.3084 21.1833 12.8798 21.622 12.3471Z" fill="white"/>
<path d="M36.56 16V10.24H38.336C38.3947 10.24 38.4973 10.2413 38.644 10.244C38.7907 10.2467 38.9307 10.2573 39.064 10.276C39.5093 10.3347 39.8813 10.4973 40.18 10.764C40.4813 11.028 40.708 11.364 40.86 11.772C41.012 12.18 41.088 12.6293 41.088 13.12C41.088 13.6107 41.012 14.06 40.86 14.468C40.708 14.876 40.4813 15.2133 40.18 15.48C39.8813 15.744 39.5093 15.9053 39.064 15.964C38.9307 15.98 38.7893 15.9907 38.64 15.996C38.4933 15.9987 38.392 16 38.336 16H36.56ZM37.292 15.32H38.336C38.4373 15.32 38.5507 15.3173 38.676 15.312C38.8013 15.304 38.9107 15.292 39.004 15.276C39.3187 15.2173 39.5733 15.0853 39.768 14.88C39.9627 14.6747 40.1053 14.4187 40.196 14.112C40.2867 13.8053 40.332 13.4747 40.332 13.12C40.332 12.7573 40.2853 12.4227 40.192 12.116C40.1013 11.8093 39.9587 11.5547 39.764 11.352C39.5693 11.1493 39.316 11.02 39.004 10.964C38.9107 10.9453 38.8 10.9333 38.672 10.928C38.544 10.9227 38.432 10.92 38.336 10.92H37.292V15.32ZM43.8453 16.12C43.416 16.12 43.0453 16.0227 42.7333 15.828C42.424 15.6333 42.1853 15.364 42.0173 15.02C41.8493 14.676 41.7653 14.2813 41.7653 13.836C41.7653 13.3827 41.8506 12.9853 42.0213 12.644C42.192 12.3027 42.4333 12.0373 42.7453 11.848C43.0573 11.656 43.424 11.56 43.8453 11.56C44.2773 11.56 44.6493 11.6573 44.9613 11.852C45.2733 12.044 45.512 12.312 45.6773 12.656C45.8453 12.9973 45.9293 13.3907 45.9293 13.836C45.9293 14.2867 45.8453 14.684 45.6773 15.028C45.5093 15.3693 45.2693 15.6373 44.9573 15.832C44.6453 16.024 44.2746 16.12 43.8453 16.12ZM43.8453 15.444C44.2933 15.444 44.6266 15.2947 44.8453 14.996C45.064 14.6973 45.1733 14.3107 45.1733 13.836C45.1733 13.348 45.0626 12.96 44.8413 12.672C44.62 12.3813 44.288 12.236 43.8453 12.236C43.544 12.236 43.296 12.304 43.1013 12.44C42.9066 12.576 42.7613 12.764 42.6653 13.004C42.5693 13.244 42.5213 13.5213 42.5213 13.836C42.5213 14.3213 42.6333 14.7107 42.8573 15.004C43.0813 15.2973 43.4106 15.444 43.8453 15.444ZM47.5738 16L46.2538 11.676L46.9618 11.68L47.9258 14.84L48.8978 11.68H49.5258L50.4938 14.84L51.4618 11.68H52.1658L50.8458 16H50.2538L49.2098 12.716L48.1658 16H47.5738ZM55.9641 16V13.836C55.9641 13.6307 55.9455 13.4333 55.9081 13.244C55.8735 13.0547 55.8108 12.8853 55.7201 12.736C55.6321 12.584 55.5121 12.464 55.3601 12.376C55.2108 12.288 55.0215 12.244 54.7921 12.244C54.6135 12.244 54.4508 12.2747 54.3041 12.336C54.1601 12.3947 54.0361 12.4853 53.9321 12.608C53.8281 12.7307 53.7468 12.8853 53.6881 13.072C53.6321 13.256 53.6041 13.4733 53.6041 13.724L53.1361 13.58C53.1361 13.1613 53.2108 12.8027 53.3601 12.504C53.5121 12.2027 53.7241 11.972 53.9961 11.812C54.2708 11.6493 54.5935 11.568 54.9641 11.568C55.2441 11.568 55.4828 11.612 55.6801 11.7C55.8775 11.788 56.0415 11.9053 56.1721 12.052C56.3028 12.196 56.4055 12.3587 56.4801 12.54C56.5548 12.7187 56.6068 12.9013 56.6361 13.088C56.6681 13.272 56.6841 13.4467 56.6841 13.612V16H55.9641ZM52.8841 16V11.68H53.5241V12.836H53.6041V16H52.8841ZM57.8041 16V10.12H58.5161V16H57.8041ZM61.5563 16.12C61.1269 16.12 60.7563 16.0227 60.4443 15.828C60.1349 15.6333 59.8963 15.364 59.7283 15.02C59.5603 14.676 59.4763 14.2813 59.4763 13.836C59.4763 13.3827 59.5616 12.9853 59.7323 12.644C59.9029 12.3027 60.1443 12.0373 60.4563 11.848C60.7683 11.656 61.1349 11.56 61.5563 11.56C61.9883 11.56 62.3603 11.6573 62.6723 11.852C62.9843 12.044 63.2229 12.312 63.3883 12.656C63.5563 12.9973 63.6403 13.3907 63.6403 13.836C63.6403 14.2867 63.5563 14.684 63.3883 15.028C63.2203 15.3693 62.9803 15.6373 62.6683 15.832C62.3563 16.024 61.9856 16.12 61.5563 16.12ZM61.5563 15.444C62.0043 15.444 62.3376 15.2947 62.5563 14.996C62.7749 14.6973 62.8843 14.3107 62.8843 13.836C62.8843 13.348 62.7736 12.96 62.5523 12.672C62.3309 12.3813 61.9989 12.236 61.5563 12.236C61.2549 12.236 61.0069 12.304 60.8123 12.44C60.6176 12.576 60.4723 12.764 60.3763 13.004C60.2803 13.244 60.2323 13.5213 60.2323 13.836C60.2323 14.3213 60.3443 14.7107 60.5683 15.004C60.7923 15.2973 61.1216 15.444 61.5563 15.444ZM65.7489 16.12C65.4263 16.12 65.1556 16.0613 64.9369 15.944C64.7209 15.824 64.5569 15.6667 64.4449 15.472C64.3356 15.2773 64.2809 15.064 64.2809 14.832C64.2809 14.6053 64.3236 14.4093 64.4089 14.244C64.4969 14.076 64.6196 13.9373 64.7769 13.828C64.9343 13.716 65.1223 13.628 65.3409 13.564C65.5463 13.508 65.7756 13.46 66.0289 13.42C66.2849 13.3773 66.5436 13.3387 66.8049 13.304C67.0663 13.2693 67.3103 13.236 67.5369 13.204L67.2809 13.352C67.2889 12.968 67.2116 12.684 67.0489 12.5C66.8889 12.316 66.6116 12.224 66.2169 12.224C65.9556 12.224 65.7263 12.284 65.5289 12.404C65.3343 12.5213 65.1969 12.7133 65.1169 12.98L64.4409 12.776C64.5449 12.3973 64.7463 12.1 65.0449 11.884C65.3436 11.668 65.7369 11.56 66.2249 11.56C66.6169 11.56 66.9529 11.6307 67.2329 11.772C67.5156 11.9107 67.7183 12.1213 67.8409 12.404C67.9023 12.5373 67.9409 12.6827 67.9569 12.84C67.9729 12.9947 67.9809 13.1573 67.9809 13.328V16H67.3489V14.964L67.4969 15.06C67.3343 15.4093 67.1063 15.6733 66.8129 15.852C66.5223 16.0307 66.1676 16.12 65.7489 16.12ZM65.8569 15.524C66.1129 15.524 66.3343 15.4787 66.5209 15.388C66.7103 15.2947 66.8623 15.1733 66.9769 15.024C67.0916 14.872 67.1663 14.7067 67.2009 14.528C67.2409 14.3947 67.2623 14.2467 67.2649 14.084C67.2703 13.9187 67.2729 13.792 67.2729 13.704L67.5209 13.812C67.2889 13.844 67.0609 13.8747 66.8369 13.904C66.6129 13.9333 66.4009 13.9653 66.2009 14C66.0009 14.032 65.8209 14.0707 65.6609 14.116C65.5436 14.1533 65.4329 14.2013 65.3289 14.26C65.2276 14.3187 65.1449 14.3947 65.0809 14.488C65.0196 14.5787 64.9889 14.692 64.9889 14.828C64.9889 14.9453 65.0183 15.0573 65.0769 15.164C65.1383 15.2707 65.2316 15.3573 65.3569 15.424C65.4849 15.4907 65.6516 15.524 65.8569 15.524ZM70.7169 16.12C70.3143 16.12 69.9689 16.02 69.6809 15.82C69.3929 15.6173 69.1703 15.344 69.0129 15C68.8583 14.656 68.7809 14.268 68.7809 13.836C68.7809 13.404 68.8583 13.016 69.0129 12.672C69.1703 12.328 69.3929 12.0573 69.6809 11.86C69.9689 11.66 70.3129 11.56 70.7129 11.56C71.1209 11.56 71.4636 11.6587 71.7409 11.856C72.0183 12.0533 72.2276 12.324 72.3689 12.668C72.5129 13.012 72.5849 13.4013 72.5849 13.836C72.5849 14.2653 72.5129 14.6533 72.3689 15C72.2276 15.344 72.0183 15.6173 71.7409 15.82C71.4636 16.02 71.1223 16.12 70.7169 16.12ZM70.8049 15.468C71.0956 15.468 71.3343 15.3987 71.5209 15.26C71.7076 15.1187 71.8449 14.9253 71.9329 14.68C72.0236 14.432 72.0689 14.1507 72.0689 13.836C72.0689 13.516 72.0236 13.2347 71.9329 12.992C71.8449 12.7467 71.7089 12.556 71.5249 12.42C71.3409 12.2813 71.1076 12.212 70.8249 12.212C70.5316 12.212 70.2889 12.284 70.0969 12.428C69.9076 12.572 69.7663 12.7667 69.6729 13.012C69.5823 13.2573 69.5369 13.532 69.5369 13.836C69.5369 14.1427 69.5836 14.42 69.6769 14.668C69.7703 14.9133 69.9103 15.108 70.0969 15.252C70.2863 15.396 70.5223 15.468 70.8049 15.468ZM72.0689 16V12.82H71.9889V10.24H72.7049V16H72.0689ZM77.2672 16.12C76.8379 16.12 76.4672 16.0227 76.1552 15.828C75.8459 15.6333 75.6072 15.364 75.4392 15.02C75.2712 14.676 75.1872 14.2813 75.1872 13.836C75.1872 13.3827 75.2725 12.9853 75.4432 12.644C75.6139 12.3027 75.8552 12.0373 76.1672 11.848C76.4792 11.656 76.8459 11.56 77.2672 11.56C77.6992 11.56 78.0712 11.6573 78.3832 11.852C78.6952 12.044 78.9339 12.312 79.0992 12.656C79.2672 12.9973 79.3512 13.3907 79.3512 13.836C79.3512 14.2867 79.2672 14.684 79.0992 15.028C78.9312 15.3693 78.6912 15.6373 78.3792 15.832C78.0672 16.024 77.6965 16.12 77.2672 16.12ZM77.2672 15.444C77.7152 15.444 78.0485 15.2947 78.2672 14.996C78.4859 14.6973 78.5952 14.3107 78.5952 13.836C78.5952 13.348 78.4845 12.96 78.2632 12.672C78.0419 12.3813 77.7099 12.236 77.2672 12.236C76.9659 12.236 76.7179 12.304 76.5232 12.44C76.3285 12.576 76.1832 12.764 76.0872 13.004C75.9912 13.244 75.9432 13.5213 75.9432 13.836C75.9432 14.3213 76.0552 14.7107 76.2792 15.004C76.5032 15.2973 76.8325 15.444 77.2672 15.444ZM83.3079 16V13.836C83.3079 13.6307 83.2892 13.4333 83.2519 13.244C83.2172 13.0547 83.1545 12.8853 83.0639 12.736C82.9759 12.584 82.8559 12.464 82.7039 12.376C82.5545 12.288 82.3652 12.244 82.1359 12.244C81.9572 12.244 81.7945 12.2747 81.6479 12.336C81.5039 12.3947 81.3799 12.4853 81.2759 12.608C81.1719 12.7307 81.0905 12.8853 81.0319 13.072C80.9759 13.256 80.9479 13.4733 80.9479 13.724L80.4799 13.58C80.4799 13.1613 80.5545 12.8027 80.7039 12.504C80.8559 12.2027 81.0679 11.972 81.3399 11.812C81.6145 11.6493 81.9372 11.568 82.3079 11.568C82.5879 11.568 82.8265 11.612 83.0239 11.7C83.2212 11.788 83.3852 11.9053 83.5159 12.052C83.6465 12.196 83.7492 12.3587 83.8239 12.54C83.8985 12.7187 83.9505 12.9013 83.9799 13.088C84.0119 13.272 84.0279 13.4467 84.0279 13.612V16H83.3079ZM80.2279 16V11.68H80.8679V12.836H80.9479V16H80.2279ZM89.0814 16C88.8254 16.0507 88.572 16.0707 88.3214 16.06C88.0734 16.052 87.852 16.0027 87.6574 15.912C87.4627 15.8187 87.3147 15.6747 87.2134 15.48C87.128 15.3093 87.0814 15.1373 87.0734 14.964C87.068 14.788 87.0654 14.5893 87.0654 14.368V10.48H87.7774V14.336C87.7774 14.512 87.7787 14.6627 87.7814 14.788C87.7867 14.9133 87.8147 15.0213 87.8654 15.112C87.9614 15.2827 88.1134 15.3827 88.3214 15.412C88.532 15.4413 88.7854 15.4333 89.0814 15.388V16ZM86.1894 12.268V11.68H89.0814V12.268H86.1894ZM93.0344 16V13.836C93.0344 13.6307 93.0158 13.4333 92.9784 13.244C92.9438 13.0547 92.8811 12.8853 92.7904 12.736C92.7024 12.584 92.5824 12.464 92.4304 12.376C92.2811 12.288 92.0918 12.244 91.8624 12.244C91.6838 12.244 91.5211 12.2747 91.3744 12.336C91.2304 12.3947 91.1064 12.4853 91.0024 12.608C90.8984 12.7307 90.8171 12.8853 90.7584 13.072C90.7024 13.256 90.6744 13.4733 90.6744 13.724L90.2064 13.58C90.2064 13.1613 90.2811 12.8027 90.4304 12.504C90.5824 12.2027 90.7944 11.972 91.0664 11.812C91.3411 11.6493 91.6638 11.568 92.0344 11.568C92.3144 11.568 92.5531 11.612 92.7504 11.7C92.9478 11.788 93.1118 11.9053 93.2424 12.052C93.3731 12.196 93.4758 12.3587 93.5504 12.54C93.6251 12.7187 93.6771 12.9013 93.7064 13.088C93.7384 13.272 93.7544 13.4467 93.7544 13.612V16H93.0344ZM89.9544 16V10.24H90.5944V13.42H90.6744V16H89.9544ZM96.6664 16.12C96.2424 16.12 95.8717 16.0267 95.5544 15.84C95.2397 15.6507 94.9944 15.388 94.8184 15.052C94.6424 14.7133 94.5544 14.3187 94.5544 13.868C94.5544 13.396 94.641 12.988 94.8144 12.644C94.9877 12.2973 95.229 12.0307 95.5384 11.844C95.8504 11.6547 96.2157 11.56 96.6344 11.56C97.069 11.56 97.4384 11.66 97.7424 11.86C98.049 12.06 98.2784 12.3453 98.4304 12.716C98.585 13.0867 98.6517 13.528 98.6304 14.04H97.9104V13.784C97.9024 13.2533 97.7944 12.8573 97.5864 12.596C97.3784 12.332 97.069 12.2 96.6584 12.2C96.2184 12.2 95.8837 12.3413 95.6544 12.624C95.425 12.9067 95.3104 13.312 95.3104 13.84C95.3104 14.3493 95.425 14.744 95.6544 15.024C95.8837 15.304 96.2104 15.444 96.6344 15.444C96.9197 15.444 97.1677 15.3787 97.3784 15.248C97.589 15.1173 97.7544 14.9293 97.8744 14.684L98.5584 14.92C98.3904 15.3013 98.137 15.5973 97.7984 15.808C97.4624 16.016 97.085 16.12 96.6664 16.12ZM95.0704 14.04V13.468H98.2624V14.04H95.0704Z" fill="white"/>
<path d="M36.32 31L40.064 19.48H42.472L46.216 31H44.48L41.032 20.488H41.464L38.056 31H36.32ZM38.264 28.4V26.832H44.28V28.4H38.264ZM51.2372 31.24C50.4106 31.24 49.7172 31.04 49.1572 30.64C48.5972 30.2347 48.1732 29.688 47.8852 29C47.5972 28.312 47.4532 27.536 47.4532 26.672C47.4532 25.808 47.5946 25.032 47.8772 24.344C48.1652 23.656 48.5866 23.1147 49.1412 22.72C49.7012 22.32 50.3892 22.12 51.2052 22.12C52.0159 22.12 52.7146 22.32 53.3012 22.72C53.8932 23.1147 54.3493 23.656 54.6693 24.344C54.9893 25.0267 55.1493 25.8027 55.1493 26.672C55.1493 27.536 54.9893 28.3147 54.6693 29.008C54.3546 29.696 53.9039 30.24 53.3173 30.64C52.7359 31.04 52.0426 31.24 51.2372 31.24ZM47.1732 34.84V22.36H48.6612V28.576H48.8532V34.84H47.1732ZM51.0052 29.728C51.5386 29.728 51.9786 29.592 52.3253 29.32C52.6773 29.048 52.9386 28.6827 53.1093 28.224C53.2853 27.76 53.3733 27.2427 53.3733 26.672C53.3733 26.1067 53.2853 25.5947 53.1093 25.136C52.9386 24.6773 52.6746 24.312 52.3173 24.04C51.9599 23.768 51.5039 23.632 50.9492 23.632C50.4266 23.632 49.9946 23.76 49.6532 24.016C49.3172 24.272 49.0666 24.6293 48.9012 25.088C48.7412 25.5467 48.6612 26.0747 48.6612 26.672C48.6612 27.2693 48.7412 27.7973 48.9012 28.256C49.0612 28.7147 49.3146 29.0747 49.6612 29.336C50.0079 29.5973 50.4559 29.728 51.0052 29.728ZM60.5016 31.24C59.675 31.24 58.9816 31.04 58.4216 30.64C57.8616 30.2347 57.4376 29.688 57.1496 29C56.8616 28.312 56.7176 27.536 56.7176 26.672C56.7176 25.808 56.859 25.032 57.1416 24.344C57.4296 23.656 57.851 23.1147 58.4056 22.72C58.9656 22.32 59.6536 22.12 60.4696 22.12C61.2803 22.12 61.979 22.32 62.5656 22.72C63.1576 23.1147 63.6136 23.656 63.9336 24.344C64.2536 25.0267 64.4136 25.8027 64.4136 26.672C64.4136 27.536 64.2536 28.3147 63.9336 29.008C63.619 29.696 63.1683 30.24 62.5816 30.64C62.0003 31.04 61.307 31.24 60.5016 31.24ZM56.4376 34.84V22.36H57.9256V28.576H58.1176V34.84H56.4376ZM60.2696 29.728C60.803 29.728 61.243 29.592 61.5896 29.32C61.9416 29.048 62.203 28.6827 62.3736 28.224C62.5496 27.76 62.6376 27.2427 62.6376 26.672C62.6376 26.1067 62.5496 25.5947 62.3736 25.136C62.203 24.6773 61.939 24.312 61.5816 24.04C61.2243 23.768 60.7683 23.632 60.2136 23.632C59.691 23.632 59.259 23.76 58.9176 24.016C58.5816 24.272 58.331 24.6293 58.1656 25.088C58.0056 25.5467 57.9256 26.0747 57.9256 26.672C57.9256 27.2693 58.0056 27.7973 58.1656 28.256C58.3256 28.7147 58.579 29.0747 58.9256 29.336C59.2723 29.5973 59.7203 29.728 60.2696 29.728ZM72.6191 31.24C71.7925 31.24 71.0458 31.0987 70.3791 30.816C69.7178 30.528 69.1711 30.12 68.7391 29.592C68.3125 29.0587 68.0351 28.4267 67.9071 27.696L69.6511 27.432C69.8271 28.136 70.1951 28.6853 70.7551 29.08C71.3151 29.4693 71.9685 29.664 72.7151 29.664C73.1791 29.664 73.6058 29.592 73.9951 29.448C74.3845 29.2987 74.6965 29.088 74.9311 28.816C75.1711 28.5387 75.2911 28.208 75.2911 27.824C75.2911 27.616 75.2538 27.432 75.1791 27.272C75.1098 27.112 75.0111 26.9733 74.8831 26.856C74.7605 26.7333 74.6085 26.6293 74.4271 26.544C74.2511 26.4533 74.0565 26.376 73.8431 26.312L70.8911 25.44C70.6031 25.3547 70.3098 25.2453 70.0111 25.112C69.7125 24.9733 69.4378 24.7947 69.1871 24.576C68.9418 24.352 68.7418 24.0773 68.5871 23.752C68.4325 23.4213 68.3551 23.0213 68.3551 22.552C68.3551 21.8427 68.5365 21.2427 68.8991 20.752C69.2671 20.256 69.7631 19.8827 70.3871 19.632C71.0111 19.376 71.7098 19.248 72.4831 19.248C73.2618 19.2587 73.9578 19.3973 74.5711 19.664C75.1898 19.9307 75.7018 20.3147 76.1071 20.816C76.5178 21.312 76.8005 21.9147 76.9551 22.624L75.1631 22.928C75.0831 22.496 74.9125 22.1253 74.6511 21.816C74.3898 21.5013 74.0698 21.2613 73.6911 21.096C73.3125 20.9253 72.9018 20.8373 72.4591 20.832C72.0325 20.8213 71.6405 20.8853 71.2831 21.024C70.9311 21.1627 70.6485 21.3573 70.4351 21.608C70.2271 21.8587 70.1231 22.1467 70.1231 22.472C70.1231 22.792 70.2165 23.0507 70.4031 23.248C70.5898 23.4453 70.8191 23.6027 71.0911 23.72C71.3685 23.832 71.6431 23.9253 71.9151 24L74.0431 24.6C74.3098 24.6747 74.6111 24.776 74.9471 24.904C75.2885 25.0267 75.6165 25.2 75.9311 25.424C76.2511 25.648 76.5151 25.9467 76.7231 26.32C76.9311 26.688 77.0351 27.152 77.0351 27.712C77.0351 28.2933 76.9178 28.8053 76.6831 29.248C76.4485 29.6853 76.1258 30.0533 75.7151 30.352C75.3098 30.6453 74.8405 30.8667 74.3071 31.016C73.7738 31.1653 73.2111 31.24 72.6191 31.24ZM83.214 31C82.67 31.1067 82.1367 31.152 81.614 31.136C81.0913 31.12 80.6247 31.0187 80.214 30.832C79.8033 30.6453 79.494 30.352 79.286 29.952C79.0993 29.5947 78.998 29.232 78.982 28.864C78.9713 28.4907 78.966 28.0693 78.966 27.6V19.96H80.646V27.52C80.646 27.8667 80.6487 28.168 80.654 28.424C80.6647 28.68 80.7207 28.896 80.822 29.072C81.014 29.4027 81.318 29.592 81.734 29.64C82.1553 29.6827 82.6487 29.664 83.214 29.584V31ZM77.31 23.704V22.36H83.214V23.704H77.31ZM87.927 31.24C87.063 31.24 86.3137 31.0453 85.679 30.656C85.0443 30.2667 84.5537 29.7307 84.207 29.048C83.8657 28.36 83.695 27.568 83.695 26.672C83.695 25.7707 83.871 24.9787 84.223 24.296C84.575 23.608 85.0683 23.0747 85.703 22.696C86.3377 22.312 87.079 22.12 87.927 22.12C88.791 22.12 89.5403 22.3147 90.175 22.704C90.8097 23.0933 91.3003 23.6293 91.647 24.312C91.9937 24.9947 92.167 25.7813 92.167 26.672C92.167 27.5733 91.991 28.368 91.639 29.056C91.2923 29.7387 90.8017 30.2747 90.167 30.664C89.5323 31.048 88.7857 31.24 87.927 31.24ZM87.927 29.664C88.7537 29.664 89.3697 29.3867 89.775 28.832C90.1857 28.272 90.391 27.552 90.391 26.672C90.391 25.7707 90.183 25.0507 89.767 24.512C89.3563 23.968 88.743 23.696 87.927 23.696C87.367 23.696 86.9057 23.824 86.543 24.08C86.1803 24.3307 85.911 24.68 85.735 25.128C85.559 25.5707 85.471 26.0853 85.471 26.672C85.471 27.5787 85.679 28.304 86.095 28.848C86.511 29.392 87.1217 29.664 87.927 29.664ZM93.455 31V22.36H94.943V24.456L94.735 24.184C94.8417 23.9067 94.9803 23.6533 95.151 23.424C95.3217 23.1893 95.519 22.9973 95.743 22.848C95.9617 22.688 96.2043 22.5653 96.471 22.48C96.743 22.3893 97.0203 22.336 97.303 22.32C97.5857 22.2987 97.8577 22.312 98.119 22.36V23.928C97.8363 23.8533 97.5217 23.832 97.175 23.864C96.8337 23.896 96.519 24.0053 96.231 24.192C95.959 24.368 95.743 24.5813 95.583 24.832C95.4283 25.0827 95.3163 25.3627 95.247 25.672C95.1777 25.976 95.143 26.2987 95.143 26.64V31H93.455ZM102.848 31.24C101.99 31.24 101.235 31.0533 100.584 30.68C99.9389 30.3013 99.4349 29.776 99.0723 29.104C98.7149 28.4267 98.5363 27.6427 98.5363 26.752C98.5363 25.808 98.7123 24.9893 99.0643 24.296C99.4216 23.6027 99.9176 23.0667 100.552 22.688C101.187 22.3093 101.926 22.12 102.768 22.12C103.648 22.12 104.398 22.3253 105.016 22.736C105.635 23.1413 106.096 23.72 106.4 24.472C106.71 25.224 106.832 26.1173 106.768 27.152H105.096V26.544C105.086 25.5413 104.894 24.8 104.52 24.32C104.152 23.84 103.59 23.6 102.832 23.6C101.995 23.6 101.366 23.864 100.944 24.392C100.523 24.92 100.312 25.6827 100.312 26.68C100.312 27.6293 100.523 28.3653 100.944 28.888C101.366 29.4053 101.974 29.664 102.768 29.664C103.291 29.664 103.742 29.5467 104.12 29.312C104.504 29.072 104.803 28.7307 105.016 28.288L106.656 28.808C106.32 29.5813 105.811 30.1813 105.128 30.608C104.446 31.0293 103.686 31.24 102.848 31.24ZM99.7683 27.152V25.848H105.936V27.152H99.7683Z" fill="white"/>
</svg>
