<svg width="328" height="271" viewBox="0 0 328 271" fill="none" xmlns="http://www.w3.org/2000/svg">
<g clip-path="url(#clip0_482_34778)">
<rect y="0.5" width="328" height="270.857" fill="url(#paint0_linear_482_34778)"/>
<rect x="39.3124" y="51.8129" width="249.374" height="91.6597" rx="12.687" fill="white" fill-opacity="0.5"/>
<rect x="39.3124" y="51.8129" width="249.374" height="91.6597" rx="12.687" stroke="white" stroke-width="2.05457"/>
<rect x="25.0273" y="38.0986" width="277.945" height="91.6597" rx="12.687" fill="white" fill-opacity="0.5"/>
<rect x="25.0273" y="38.0986" width="277.945" height="91.6597" rx="12.687" stroke="white" stroke-width="2.05457"/>
<rect x="11.4297" y="11.9285" width="305.143" height="105.143" rx="9.14286" fill="white"/>
<rect x="16" y="16.5" width="96" height="96" rx="6.85714" fill="#FEF5F7"/>
<path d="M78.7048 77.6426C78.6045 77.8163 78.4601 77.9606 78.2864 78.0609C78.1126 78.1612 77.9154 78.214 77.7148 78.214H50.2862C50.0857 78.2138 49.8888 78.1608 49.7152 78.0604C49.5416 77.96 49.3975 77.8158 49.2974 77.642C49.1972 77.4683 49.1445 77.2714 49.1445 77.0708C49.1446 76.8703 49.1974 76.6733 49.2976 76.4997C51.4734 72.7383 54.8262 70.0411 58.7391 68.7626C56.8036 67.6104 55.2999 65.8547 54.4588 63.7651C53.6177 61.6756 53.4858 59.3677 54.0833 57.1959C54.6808 55.0241 55.9747 53.1085 57.7663 51.7433C59.5578 50.3781 61.748 49.6387 64.0005 49.6387C66.253 49.6387 68.4432 50.3781 70.2348 51.7433C72.0263 53.1085 73.3202 55.0241 73.9177 57.1959C74.5152 59.3677 74.3833 61.6756 73.5422 63.7651C72.7012 65.8547 71.1974 67.6104 69.2619 68.7626C73.1748 70.0411 76.5276 72.7383 78.7034 76.4997C78.8039 76.6733 78.8569 76.8703 78.8572 77.0709C78.8574 77.2715 78.8049 77.4687 78.7048 77.6426Z" fill="#FCAF21"/>
<rect x="125.715" y="25.6428" width="57.1429" height="9.14286" rx="4.57143" fill="#EFEFEF"/>
<rect x="125.715" y="40.5" width="80" height="9.14286" rx="4.57143" fill="#EFEFEF"/>
<rect x="125.715" y="55.3572" width="102.857" height="9.14286" rx="4.57143" fill="#EFEFEF"/>
</g>
<defs>
<linearGradient id="paint0_linear_482_34778" x1="164" y1="0.5" x2="164" y2="145.351" gradientUnits="userSpaceOnUse">
<stop stop-color="#9900CC"/>
<stop offset="0.536333" stop-color="#ED1450" stop-opacity="0.3"/>
<stop offset="0.981359" stop-color="#ED1450" stop-opacity="0.02"/>
</linearGradient>
<clipPath id="clip0_482_34778">
<rect y="0.5" width="328" height="270" rx="17.1429" fill="white"/>
</clipPath>
</defs>
</svg>
