<svg width="24" height="25" viewBox="0 0 24 25" fill="none" xmlns="http://www.w3.org/2000/svg">
<path d="M23.7643 12.7763C23.7643 11.9605 23.6982 11.1404 23.5571 10.3379H12.2383V14.9589H18.72C18.451 16.4492 17.5868 17.7676 16.3213 18.6054V21.6037H20.1883C22.4591 19.5137 23.7643 16.4272 23.7643 12.7763Z" fill="black"/>
<path d="M12.2391 24.5003C15.4756 24.5003 18.205 23.4377 20.1936 21.6034L16.3266 18.6051C15.2507 19.337 13.8618 19.7515 12.2435 19.7515C9.11291 19.7515 6.45849 17.6394 5.50607 14.7998H1.51562V17.8907C3.55274 21.9429 7.70192 24.5003 12.2391 24.5003Z" fill="black"/>
<path d="M5.50082 14.8007C4.99816 13.3103 4.99816 11.6965 5.50082 10.2062V7.11523H1.51478C-0.187219 10.506 -0.187219 14.5009 1.51478 17.8916L5.50082 14.8007Z" fill="black"/>
<path d="M12.2391 5.24966C13.9499 5.2232 15.6034 5.86697 16.8425 7.04867L20.2685 3.62262C18.0991 1.5855 15.2198 0.465534 12.2391 0.500809C7.70192 0.500809 3.55274 3.05822 1.51562 7.11481L5.50166 10.2058C6.44967 7.36173 9.1085 5.24966 12.2391 5.24966Z" fill="black"/>
</svg>
