<svg width="328" height="271" viewBox="0 0 328 271" fill="none" xmlns="http://www.w3.org/2000/svg">
<g clip-path="url(#clip0_482_34808)">
<rect y="0.5" width="328" height="270.857" fill="url(#paint0_linear_482_34808)"/>
<rect x="39.3124" y="51.8129" width="249.374" height="91.6597" rx="12.687" fill="white" fill-opacity="0.5"/>
<rect x="39.3124" y="51.8129" width="249.374" height="91.6597" rx="12.687" stroke="white" stroke-width="2.05457"/>
<rect x="25.0273" y="38.0988" width="277.945" height="91.6597" rx="12.687" fill="white" fill-opacity="0.5"/>
<rect x="25.0273" y="38.0988" width="277.945" height="91.6597" rx="12.687" stroke="white" stroke-width="2.05457"/>
<rect x="11.4297" y="11.9285" width="305.143" height="105.143" rx="9.14286" fill="white"/>
<rect x="16" y="16.5" width="96" height="96" rx="6.85714" fill="#FEF5F7"/>
<path d="M57.6785 49.9011C57.4143 49.6376 57.0879 49.4448 56.7296 49.3407C56.3712 49.2365 55.9924 49.2243 55.6281 49.3052C55.2638 49.386 54.9257 49.5573 54.645 49.8033C54.3644 50.0492 54.1502 50.3619 54.0223 50.7125L46.6409 71.0159C46.5196 71.3508 46.4804 71.7098 46.5266 72.0629C46.5728 72.4159 46.7031 72.7528 46.9064 73.0451C47.1098 73.3374 47.3803 73.5767 47.6952 73.7429C48.0102 73.909 48.3604 73.9972 48.7165 74C48.9787 73.9982 49.2385 73.9506 49.4843 73.8594L69.7863 66.4766C70.137 66.3488 70.4498 66.1347 70.6959 65.8541C70.9421 65.5735 71.1135 65.2355 71.1945 64.8711C71.2755 64.5068 71.2634 64.1279 71.1594 63.7695C71.0553 63.4111 70.8626 63.0846 70.5991 62.8203L57.6785 49.9011ZM51.1605 65.1589L53.8605 57.7353L62.7649 66.6397L55.3399 69.3397L51.1605 65.1589ZM64.5002 52.625C64.5214 51.8645 64.7055 51.1173 65.0402 50.4341C65.7855 48.9448 67.1918 48.125 69.0002 48.125C69.9424 48.125 70.5471 47.803 70.9198 47.1111C71.116 46.724 71.2286 46.3 71.2502 45.8666C71.2513 45.5682 71.3709 45.2825 71.5827 45.0723C71.7945 44.8621 72.0811 44.7447 72.3794 44.7458C72.6778 44.7469 72.9635 44.8665 73.1737 45.0783C73.3839 45.29 73.5013 45.5766 73.5002 45.875C73.5002 47.6834 72.3021 50.375 69.0002 50.375C68.058 50.375 67.4534 50.697 67.0807 51.3889C66.8845 51.776 66.7719 52.2 66.7502 52.6334C66.7497 52.7812 66.72 52.9274 66.663 53.0636C66.6059 53.1999 66.5226 53.3236 66.4177 53.4277C66.3129 53.5318 66.1886 53.6142 66.0518 53.6702C65.9151 53.7262 65.7687 53.7548 65.621 53.7542C65.4733 53.7537 65.3271 53.724 65.1908 53.667C65.0545 53.6099 64.9308 53.5266 64.8267 53.4217C64.7227 53.3169 64.6403 53.1925 64.5842 53.0558C64.5282 52.9191 64.4997 52.7727 64.5002 52.625ZM61.1252 48.125V44.75C61.1252 44.4516 61.2438 44.1655 61.4547 43.9545C61.6657 43.7435 61.9519 43.625 62.2502 43.625C62.5486 43.625 62.8347 43.7435 63.0457 43.9545C63.2567 44.1655 63.3752 44.4516 63.3752 44.75V48.125C63.3752 48.4234 63.2567 48.7095 63.0457 48.9205C62.8347 49.1315 62.5486 49.25 62.2502 49.25C61.9519 49.25 61.6657 49.1315 61.4547 48.9205C61.2438 48.7095 61.1252 48.4234 61.1252 48.125ZM75.4212 59.7041C75.5256 59.8086 75.6084 59.9327 75.6649 60.0692C75.7214 60.2057 75.7504 60.352 75.7504 60.4998C75.7503 60.6475 75.7211 60.7938 75.6645 60.9303C75.6079 61.0668 75.525 61.1908 75.4205 61.2952C75.3159 61.3997 75.1919 61.4825 75.0553 61.539C74.9188 61.5955 74.7725 61.6245 74.6247 61.6244C74.477 61.6244 74.3307 61.5952 74.1942 61.5386C74.0577 61.482 73.9337 61.3991 73.8293 61.2945L71.5793 59.0445C71.3682 58.8334 71.2496 58.5471 71.2496 58.2486C71.2496 57.9501 71.3682 57.6638 71.5793 57.4527C71.7904 57.2416 72.0767 57.123 72.3752 57.123C72.6738 57.123 72.9601 57.2416 73.1712 57.4527L75.4212 59.7041ZM76.106 53.6923L72.731 54.8173C72.4479 54.9117 72.139 54.8897 71.8721 54.7563C71.6052 54.6229 71.4022 54.3889 71.3079 54.1058C71.2135 53.8227 71.2355 53.5137 71.3689 53.2469C71.5024 52.98 71.7364 52.777 72.0194 52.6827L75.3944 51.5577C75.6775 51.4633 75.9865 51.4853 76.2534 51.6187C76.5203 51.7521 76.7232 51.9861 76.8176 52.2692C76.9119 52.5523 76.89 52.8613 76.7565 53.1281C76.6231 53.395 76.3891 53.598 76.106 53.6923Z" fill="#9900CC"/>
<rect x="125.715" y="25.6426" width="57.1429" height="9.14286" rx="4.57143" fill="#EFEFEF"/>
<rect x="125.715" y="40.4998" width="80" height="9.14286" rx="4.57143" fill="#EFEFEF"/>
<rect x="125.715" y="55.3569" width="102.857" height="9.14286" rx="4.57143" fill="#EFEFEF"/>
</g>
<defs>
<linearGradient id="paint0_linear_482_34808" x1="164" y1="0.5" x2="164" y2="145.351" gradientUnits="userSpaceOnUse">
<stop stop-color="#ED1450"/>
<stop offset="0.536333" stop-color="#ED1450" stop-opacity="0.3"/>
<stop offset="0.981359" stop-color="#ED1450" stop-opacity="0.02"/>
</linearGradient>
<clipPath id="clip0_482_34808">
<rect y="0.5" width="328" height="270" rx="17.1429" fill="white"/>
</clipPath>
</defs>
</svg>
