<svg width="24" height="25" viewBox="0 0 24 25" fill="none" xmlns="http://www.w3.org/2000/svg">
<g clip-path="url(#clip0_482_34969)">
<path d="M16.8503 0.5H7.14973C3.20735 0.5 0 3.70735 0 7.64973V17.3503C0 21.2926 3.20735 24.5 7.14973 24.5H16.8503C20.7926 24.5 24 21.2926 24 17.3503V7.64973C24 3.70735 20.7926 0.5 16.8503 0.5ZM21.5856 17.3503C21.5856 19.9655 19.4655 22.0856 16.8503 22.0856H7.14973C4.5345 22.0856 2.4144 19.9655 2.4144 17.3503V7.64973C2.4144 5.03446 4.5345 2.9144 7.14973 2.9144H16.8503C19.4655 2.9144 21.5856 5.03446 21.5856 7.64973V17.3503Z" fill="black"/>
<path d="M12.0002 6.29297C8.57754 6.29297 5.79297 9.07754 5.79297 12.5002C5.79297 15.9228 8.57754 18.7074 12.0002 18.7074C15.4229 18.7074 18.2075 15.9229 18.2075 12.5002C18.2075 9.07749 15.4229 6.29297 12.0002 6.29297ZM12.0002 16.2931C9.90547 16.2931 8.20737 14.595 8.20737 12.5002C8.20737 10.4055 9.90551 8.70737 12.0002 8.70737C14.095 8.70737 15.7931 10.4055 15.7931 12.5002C15.7931 14.5949 14.0949 16.2931 12.0002 16.2931Z" fill="black"/>
<path d="M18.2178 7.82722C19.0392 7.82722 19.7052 7.16132 19.7052 6.33988C19.7052 5.51845 19.0392 4.85254 18.2178 4.85254C17.3964 4.85254 16.7305 5.51845 16.7305 6.33988C16.7305 7.16132 17.3964 7.82722 18.2178 7.82722Z" fill="black"/>
</g>
<defs>
<clipPath id="clip0_482_34969">
<rect width="24" height="24" fill="white" transform="translate(0 0.5)"/>
</clipPath>
</defs>
</svg>
