<svg width="120" height="25" viewBox="0 0 120 25" fill="none" xmlns="http://www.w3.org/2000/svg">
<path d="M7.47559 24.5003C6.27337 24.5003 5.09302 24.3366 3.93452 24.0093C2.77602 23.682 1.82518 23.2129 1.08199 22.602C0.360664 21.991 0 21.2928 0 20.5073V17.0053H0.590178C0.961771 19.1872 1.6831 20.7691 2.75416 21.751C3.82523 22.7111 5.30067 23.1911 7.1805 23.1911C8.36085 23.1911 9.36634 22.8965 10.197 22.3074C11.0494 21.7183 11.4757 20.9001 11.4757 19.8527C11.4757 18.9363 11.1915 18.1399 10.6232 17.4635C10.0549 16.7871 9.13683 16.0779 7.86904 15.3361L3.83616 12.9468C2.43722 12.1177 1.44266 11.2776 0.852479 10.4267C0.28416 9.57572 0 8.53929 0 7.3174C0 5.63729 0.579249 4.29539 1.73775 3.29169C2.9181 2.26618 4.45912 1.75342 6.36081 1.75342C7.47559 1.75342 8.57944 1.91706 9.67236 2.24436C10.7653 2.54983 11.6615 3.00804 12.3609 3.61899C13.0823 4.20811 13.4429 4.89543 13.4429 5.68093V9.18297H12.8528C12.4812 7.00101 11.7708 5.44092 10.7216 4.50268C9.69422 3.54262 8.24063 3.06259 6.36081 3.06259C5.35532 3.06259 4.47005 3.36806 3.70501 3.97901C2.93996 4.58996 2.55744 5.38637 2.55744 6.36825C2.55744 7.26285 2.83067 8.00471 3.37713 8.59384C3.94545 9.18297 4.88536 9.87028 6.19687 10.6558L10.2297 13.045C11.7161 13.9396 12.7653 14.7688 13.3774 15.5324C13.9894 16.2961 14.2954 17.2671 14.2954 18.4454C14.2954 20.2782 13.6834 21.751 12.4593 22.8638C11.2352 23.9548 9.574 24.5003 7.47559 24.5003Z" fill="black"/>
<path d="M20.1055 24.2712C19.406 24.2712 18.6956 24.1293 17.9743 23.8457C17.253 23.5402 16.63 23.0493 16.1054 22.3729C15.6027 21.6965 15.3513 20.8019 15.3513 19.6891C15.3513 18.0308 16.1163 16.8525 17.6464 16.1543C19.1984 15.4561 21.2203 15.107 23.7121 15.107H24.6958C24.6958 12.9687 24.4007 11.5067 23.8105 10.7212C23.2203 9.93574 22.3678 9.54299 21.2531 9.54299C20.2694 9.54299 19.4825 9.75027 18.8923 10.1648C18.3022 10.5794 17.8869 11.2995 17.6464 12.325H16.171C16.171 11.5831 16.2147 11.0049 16.3021 10.5903C16.3896 10.1539 16.6191 9.75027 16.9907 9.37934C17.3841 8.98659 18.0289 8.70294 18.9251 8.52838C19.8432 8.33201 20.8377 8.23382 21.9088 8.23382C23.6793 8.23382 25.0783 8.71385 26.1056 9.67391C27.133 10.6121 27.6467 12.4232 27.6467 15.107V23.9439H26.0073L24.8597 22.4711H24.6958C24.3023 22.9729 23.7231 23.3984 22.958 23.7475C22.193 24.0966 21.2421 24.2712 20.1055 24.2712ZM21.5809 22.7983C22.3023 22.7983 22.9034 22.6238 23.3843 22.2747C23.8651 21.9256 24.3023 21.4455 24.6958 20.8346V16.4161H23.7121C22.0946 16.4161 20.8159 16.7216 19.876 17.3326C18.9361 17.9217 18.4661 18.7072 18.4661 19.6891C18.4661 20.6928 18.7612 21.4674 19.3514 22.0128C19.9634 22.5365 20.7066 22.7983 21.5809 22.7983Z" fill="black"/>
<path d="M31.1444 12.325C30.6198 11.1031 30.1171 10.2521 29.6362 9.77209C29.1553 9.27024 28.5214 8.9975 27.7345 8.95386V8.29928C27.8438 8.29928 27.9968 8.28837 28.1935 8.26655C28.4121 8.24473 28.6307 8.23382 28.8493 8.23382C30.0078 8.23382 31.057 8.52838 31.9969 9.11751C32.9368 9.68482 33.7456 10.754 34.4232 12.325L37.3741 19.3618L41.9644 8.56111H43.6037L36.8823 24.2712H36.2265L31.1444 12.325Z" fill="black"/>
<path d="M50.6615 24.2712C49.1752 24.2712 47.9183 23.9221 46.891 23.2238C45.8636 22.5038 45.0876 21.5437 44.563 20.3437C44.0384 19.1218 43.7761 17.758 43.7761 16.2525C43.7761 14.7688 44.0384 13.416 44.563 12.1941C45.0876 10.9722 45.8418 10.0121 46.8254 9.31388C47.8309 8.59384 49.0003 8.23382 50.3337 8.23382C52.5414 8.23382 54.1807 8.85567 55.2518 10.0994C56.3447 11.3213 56.8912 13.0996 56.8912 15.4343L56.8256 16.7434H46.891C46.891 18.5763 47.2844 20.0709 48.0713 21.2273C48.8582 22.3838 49.9402 22.962 51.3173 22.962C52.3446 22.962 53.208 22.7438 53.9075 22.3074C54.6288 21.871 55.2955 21.2164 55.9076 20.3437L56.5633 20.8346C55.842 22.0347 55.0004 22.9074 54.0387 23.4529C53.0769 23.9984 51.9512 24.2712 50.6615 24.2712ZM53.7764 15.4343C53.7764 13.5141 53.4922 12.0522 52.9239 11.0485C52.3556 10.0448 51.4922 9.54299 50.3337 9.54299C49.6779 9.54299 49.0877 9.80482 48.5631 10.3285C48.0385 10.8303 47.6232 11.5286 47.3172 12.4232C47.033 13.3178 46.891 14.3215 46.891 15.4343H53.7764Z" fill="black"/>
<path d="M63.5891 24.2712C62.365 24.2712 61.4033 23.9221 60.7038 23.2238C60.0043 22.5256 59.6546 21.4564 59.6546 20.0164V9.87028H57.3594V8.56111H59.6546V5.61547L61.294 3.65172H62.6055V8.56111H66.54V9.87028H62.6055V20.0164C62.6055 21.9801 63.3705 22.962 64.9006 22.962C65.4252 22.962 65.8624 22.9074 66.2121 22.7983C66.5837 22.6893 66.9662 22.5256 67.3597 22.3074L67.6875 22.962C67.1848 23.3329 66.6274 23.6493 66.0154 23.9111C65.4033 24.1512 64.5946 24.2712 63.5891 24.2712Z" fill="black"/>
<path d="M107.213 12.4886C107.213 11.3758 107.06 10.5576 106.754 10.0339C106.448 9.48844 105.836 9.2157 104.918 9.2157H104.262V8.56111H107.213C108.022 8.56111 108.634 8.67021 109.049 8.8884C109.486 9.1066 109.803 9.43389 110 9.87028H110.164C110.623 9.41207 111.213 9.03023 111.934 8.72476C112.677 8.39746 113.508 8.23382 114.426 8.23382C116.065 8.23382 117.399 8.67021 118.426 9.54299C119.475 10.4158 120 11.9431 120 14.1251V23.9439H117.049V14.1251C117.049 12.5977 116.699 11.4849 116 10.7867C115.322 10.0667 114.47 9.70663 113.442 9.70663C112.284 9.70663 111.191 10.2849 110.164 11.4413V23.9439H107.213V12.4886Z" fill="black"/>
<path d="M101.863 12.477C102.354 11.2832 102.845 10.4518 103.337 9.98286C103.806 9.49256 104.436 9.22609 105.227 9.18345V8.54393C105.12 8.54393 104.96 8.53327 104.746 8.51196C104.533 8.49064 104.319 8.47998 104.105 8.47998C102.952 8.47998 101.938 8.77842 101.062 9.37531C100.165 9.95088 99.4179 10.9848 98.8199 12.477L96.0971 19.192L93.3743 12.3171C93.8868 11.1873 94.378 10.3985 94.8478 9.95088C95.2963 9.4819 95.8729 9.22609 96.5776 9.18345V8.54393C96.4708 8.54393 96.3107 8.53327 96.0971 8.51196C95.8836 8.49064 95.67 8.47998 95.4565 8.47998C94.3033 8.47998 93.2889 8.77842 92.4133 9.37531C91.5164 9.95088 90.769 10.9848 90.171 12.477L87.4482 19.192L83.2839 8.79974H81.6822L87.9287 24.1483H88.5694L92.5735 14.2357L96.5776 24.1483H97.2183L101.863 12.477Z" fill="black"/>
<path d="M75.4417 10.5639V0.5C74.915 0.5 74.3214 1.28163 74.0904 1.67245L69.6848 1.90391C70.0712 3.39188 72.8193 3.79362 74.0904 3.72474V4.62895L70.0653 4.93748C70.2632 6.17194 72.8331 6.6 74.0904 6.61029L74.0414 10.5698C74.281 10.5447 74.5243 10.5318 74.7705 10.5318C74.9969 10.5318 75.2208 10.5427 75.4417 10.5639Z" fill="#9900CC"/>
<mask id="mask0_482_34924" style="mask-type:alpha" maskUnits="userSpaceOnUse" x="67" y="10" width="15" height="15">
<path fill-rule="evenodd" clip-rule="evenodd" d="M74.7705 24.3372C78.5896 24.3372 81.6856 21.2468 81.6856 17.4345C81.6856 13.6222 78.5896 10.5317 74.7705 10.5317C70.9514 10.5317 67.8555 13.6222 67.8555 17.4345C67.8555 21.2468 70.9514 24.3372 74.7705 24.3372ZM74.7705 21.9609C77.2748 21.9609 79.305 19.9343 79.305 17.4345C79.305 14.9346 77.2748 12.9081 74.7705 12.9081C72.2662 12.9081 70.2361 14.9346 70.2361 17.4345C70.2361 19.9343 72.2662 21.9609 74.7705 21.9609Z" fill="#9900CC"/>
</mask>
<g mask="url(#mask0_482_34924)">
<rect width="22.3136" height="5.22509" transform="matrix(0.866411 -0.499332 0.500668 0.865639 66.4102 19.0371)" fill="#ED1450"/>
<rect width="22.3136" height="5.22509" transform="matrix(0.866411 -0.499332 0.500668 0.865639 63.2734 15.4082)" fill="#9900CC"/>
<rect width="22.3136" height="5.22509" transform="matrix(0.866411 -0.499332 0.500668 0.865639 69.0273 23.5601)" fill="#FEA000"/>
</g>
</svg>
