<svg width="98" height="99" viewBox="0 0 98 99" fill="none" xmlns="http://www.w3.org/2000/svg">
<path d="M79.625 18.875H18.375C15.9383 18.875 13.6014 19.843 11.8785 21.566C10.1555 23.2889 9.1875 25.6258 9.1875 28.0625V70.9375C9.1875 73.3742 10.1555 75.7111 11.8785 77.434C13.6014 79.157 15.9383 80.125 18.375 80.125H79.625C82.0617 80.125 84.3986 79.157 86.1215 77.434C87.8445 75.7111 88.8125 73.3742 88.8125 70.9375V28.0625C88.8125 25.6258 87.8445 23.2889 86.1215 21.566C84.3986 19.843 82.0617 18.875 79.625 18.875ZM58.0037 48.2788C57.5747 50.3476 56.4458 52.2052 54.8072 53.5389C53.1686 54.8726 51.1204 55.6007 49.0077 55.6007C46.8949 55.6007 44.8467 54.8726 43.2081 53.5389C41.5695 52.2052 40.4406 50.3476 40.0116 48.2788C39.7295 46.8927 38.9765 45.6469 37.8802 44.753C36.7839 43.8591 35.4121 43.3722 33.9976 43.375H15.3125V37.25H82.6875V43.375H64.0024C62.5905 43.3758 61.2223 43.8643 60.1292 44.7579C59.0361 45.6515 58.2852 46.8953 58.0037 48.2788ZM18.375 25H79.625C80.4372 25 81.2162 25.3227 81.7905 25.897C82.3648 26.4713 82.6875 27.2503 82.6875 28.0625V31.125H15.3125V28.0625C15.3125 27.2503 15.6352 26.4713 16.2095 25.897C16.7838 25.3227 17.5628 25 18.375 25Z" fill="url(#paint0_linear_482_34706)"/>
<defs>
<linearGradient id="paint0_linear_482_34706" x1="9.1875" y1="49.5" x2="88.8125" y2="49.5" gradientUnits="userSpaceOnUse">
<stop stop-color="#9900CC"/>
<stop offset="1" stop-color="#ED1459"/>
</linearGradient>
</defs>
</svg>
