<svg width="98" height="99" viewBox="0 0 98 99" fill="none" xmlns="http://www.w3.org/2000/svg">
<path fill-rule="evenodd" clip-rule="evenodd" d="M48.9975 89.3099C70.984 89.3099 88.8075 71.4864 88.8075 49.4999C88.8075 27.5135 70.984 9.68994 48.9975 9.68994C27.011 9.68994 9.1875 27.5135 9.1875 49.4999C9.1875 71.4864 27.011 89.3099 48.9975 89.3099ZM64.3107 63.5364C64.3107 64.2935 64.0861 65.0337 63.6655 65.6632C63.2449 66.2927 62.647 66.7834 61.9475 67.0731C61.248 67.3629 60.4783 67.4387 59.7357 67.291C58.9931 67.1433 58.311 66.7787 57.7757 66.2433C57.2403 65.7079 56.8757 65.0258 56.728 64.2832C56.5803 63.5406 56.6561 62.7709 56.9458 62.0714C57.2356 61.3719 57.7262 60.7741 58.3558 60.3534C58.9853 59.9328 59.7254 59.7083 60.4825 59.7083C61.4978 59.7083 62.4715 60.1116 63.1894 60.8295C63.9073 61.5474 64.3107 62.5211 64.3107 63.5364ZM37.5138 39.2916C38.2709 39.2916 39.011 39.0671 39.6406 38.6465C40.2701 38.2258 40.7608 37.6279 41.0505 36.9284C41.3403 36.2289 41.4161 35.4592 41.2684 34.7167C41.1206 33.9741 40.7561 33.292 40.2207 32.7566C39.6853 32.2212 39.0032 31.8566 38.2606 31.7089C37.518 31.5612 36.7483 31.637 36.0488 31.9268C35.3493 32.2165 34.7515 32.7072 34.3308 33.3367C33.9102 33.9662 33.6857 34.7063 33.6857 35.4635C33.6857 36.4788 34.089 37.4525 34.8069 38.1704C35.5248 38.8883 36.4985 39.2916 37.5138 39.2916ZM28.5815 35.4635C28.5815 37.2301 29.1054 38.9571 30.0869 40.426C31.0684 41.8949 32.4634 43.0398 34.0956 43.7158C35.7277 44.3919 37.5237 44.5688 39.2564 44.2241C40.9891 43.8795 42.5807 43.0288 43.8299 41.7796C45.0791 40.5304 45.9298 38.9388 46.2745 37.2061C46.6191 35.4734 46.4422 33.6774 45.7662 32.0452C45.0901 30.4131 43.9452 29.018 42.4763 28.0366C41.0074 27.0551 39.2804 26.5312 37.5138 26.5312C35.1448 26.5312 32.8728 27.4723 31.1977 29.1474C29.5226 30.8225 28.5815 33.0945 28.5815 35.4635ZM69.4148 63.5364C69.4148 61.7698 68.891 60.0428 67.9095 58.5739C66.928 57.105 65.5329 55.9601 63.9008 55.284C62.2686 54.608 60.4726 54.4311 58.7399 54.7757C57.0072 55.1204 55.4157 55.9711 54.1665 57.2203C52.9173 58.4695 52.0665 60.0611 51.7219 61.7938C51.3772 63.5265 51.5541 65.3225 52.2302 66.9546C52.9062 68.5868 54.0511 69.9818 55.52 70.9633C56.9889 71.9448 58.7159 72.4687 60.4825 72.4687C62.8515 72.4687 65.1235 71.5276 66.7986 69.8525C68.4738 68.1774 69.4148 65.9054 69.4148 63.5364ZM68.6684 29.8298C68.4313 29.5925 68.1499 29.4042 67.84 29.2758C67.5302 29.1474 67.1981 29.0813 66.8628 29.0813C66.5274 29.0813 66.1953 29.1474 65.8855 29.2758C65.5756 29.4042 65.2942 29.5925 65.0571 29.8298L29.328 65.5589C28.8491 66.0378 28.5801 66.6873 28.5801 67.3645C28.5801 68.0418 28.8491 68.6912 29.328 69.1701C29.8069 69.649 30.4564 69.918 31.1336 69.918C31.8108 69.918 32.4603 69.649 32.9392 69.1701L68.6684 33.441C68.9056 33.2039 69.0939 32.9225 69.2223 32.6127C69.3507 32.3028 69.4168 31.9707 69.4168 31.6354C69.4168 31.3 69.3507 30.9679 69.2223 30.6581C69.0939 30.3482 68.9056 30.0668 68.6684 29.8298Z" fill="url(#paint0_linear_482_34716)"/>
<defs>
<linearGradient id="paint0_linear_482_34716" x1="9.1875" y1="49.4999" x2="88.8075" y2="49.4999" gradientUnits="userSpaceOnUse">
<stop stop-color="#9900CC"/>
<stop offset="1" stop-color="#ED1459"/>
</linearGradient>
</defs>
</svg>
