<svg width="18" height="19" viewBox="0 0 18 19" fill="none" xmlns="http://www.w3.org/2000/svg">
<path d="M10.7065 3.1673C10.7256 3.09591 10.7586 3.02899 10.8035 2.97035C10.8485 2.91171 10.9046 2.8625 10.9686 2.82555C11.0326 2.78859 11.1032 2.7646 11.1765 2.75496C11.2497 2.74531 11.3242 2.75019 11.3956 2.76933C12.4383 3.0414 13.3897 3.58653 14.1518 4.34857C14.9138 5.11062 15.4589 6.06202 15.731 7.1048C15.7502 7.17618 15.755 7.25062 15.7454 7.32389C15.7358 7.39715 15.7118 7.4678 15.6748 7.53179C15.6378 7.59578 15.5886 7.65186 15.53 7.69683C15.4714 7.7418 15.4044 7.77477 15.3331 7.79386C15.2855 7.80634 15.2366 7.81272 15.1875 7.81285C15.0636 7.81284 14.9431 7.7719 14.8448 7.69637C14.7465 7.62084 14.6759 7.51496 14.644 7.39519C14.4221 6.54393 13.9772 5.76725 13.3551 5.14521C12.7331 4.52316 11.9564 4.07826 11.1052 3.85636C11.0337 3.83734 10.9667 3.80442 10.908 3.75949C10.8493 3.71455 10.8 3.65848 10.763 3.59448C10.7259 3.53049 10.7019 3.45981 10.6922 3.38651C10.6825 3.31321 10.6874 3.23872 10.7065 3.1673ZM10.5427 6.10636C11.5123 6.36511 12.1352 6.98808 12.394 7.95769C12.4259 8.07746 12.4965 8.18334 12.5948 8.25887C12.6931 8.3344 12.8136 8.37534 12.9375 8.37535C12.9866 8.37522 13.0355 8.36884 13.0831 8.35636C13.1544 8.33727 13.2214 8.3043 13.28 8.25933C13.3386 8.21436 13.3878 8.15828 13.4248 8.09429C13.4618 8.0303 13.4858 7.95965 13.4954 7.88639C13.505 7.81312 13.5002 7.73868 13.481 7.6673C13.121 6.32011 12.1802 5.37933 10.8331 5.01933C10.7617 5.00026 10.6872 4.99544 10.614 5.00514C10.5408 5.01484 10.4702 5.03887 10.4062 5.07585C10.3422 5.11284 10.2862 5.16206 10.2413 5.22071C10.1963 5.27935 10.1634 5.34627 10.1443 5.41765C10.1253 5.48903 10.1205 5.56346 10.1302 5.6367C10.1398 5.70994 10.1639 5.78055 10.2009 5.8445C10.2379 5.90845 10.2871 5.96449 10.3457 6.00943C10.4044 6.05436 10.4713 6.08729 10.5427 6.10636ZM16.3041 12.8107C16.1787 13.7634 15.7108 14.638 14.9878 15.2709C14.2647 15.9039 13.336 16.2521 12.375 16.2503C6.79219 16.2503 2.25001 11.7082 2.25001 6.12535C2.24828 5.16438 2.59643 4.23564 3.22941 3.5126C3.8624 2.78956 4.73694 2.32166 5.68969 2.19628C5.93062 2.16687 6.1746 2.21616 6.38522 2.33679C6.59583 2.45743 6.76178 2.64295 6.85829 2.86566L8.34329 6.18089V6.18933C8.41718 6.35981 8.44769 6.54593 8.43211 6.73107C8.41653 6.91622 8.35533 7.09462 8.25399 7.25035C8.24133 7.26933 8.22798 7.28691 8.21391 7.30449L6.75001 9.0398C7.27665 10.11 8.39602 11.2195 9.48024 11.7475L11.1916 10.2914C11.2085 10.2772 11.2261 10.2641 11.2444 10.252C11.4 10.1482 11.579 10.0849 11.7652 10.0677C11.9515 10.0505 12.1391 10.08 12.311 10.1535L12.3202 10.1578L15.6326 11.6421C15.8557 11.7382 16.0417 11.904 16.1627 12.1147C16.2837 12.3253 16.3333 12.5695 16.3041 12.8107ZM15.1875 12.67C15.1875 12.67 15.1826 12.67 15.1798 12.67L11.8751 11.19L10.163 12.6461C10.1464 12.6602 10.129 12.6733 10.1109 12.6855C9.94905 12.7935 9.76191 12.8577 9.56781 12.8717C9.37371 12.8858 9.17928 12.8492 9.00352 12.7657C7.68657 12.1293 6.37383 10.8264 5.7368 9.52355C5.65245 9.34907 5.6146 9.15576 5.62691 8.96236C5.63923 8.76895 5.70131 8.58201 5.80712 8.41964C5.81904 8.40058 5.83244 8.38248 5.84719 8.3655L7.31251 6.62808L5.83594 3.32339C5.83567 3.32059 5.83567 3.31776 5.83594 3.31496C5.15409 3.4039 4.52805 3.73835 4.07505 4.25568C3.62205 4.773 3.37316 5.43772 3.37501 6.12535C3.37761 8.51149 4.32666 10.7992 6.01392 12.4864C7.70119 14.1737 9.98886 15.1227 12.375 15.1253C13.0622 15.1277 13.7267 14.8797 14.2444 14.4277C14.762 13.9757 15.0973 13.3506 15.1875 12.6693V12.67Z" fill="black"/>
</svg>
