<svg width="98" height="99" viewBox="0 0 98 99" fill="none" xmlns="http://www.w3.org/2000/svg">
<path d="M49.0345 22.4658C49.206 20.0892 49.9909 17.7976 51.3125 15.8148C52.6341 13.8321 54.4472 12.2259 56.5749 11.153C58.7025 10.0801 61.072 9.5772 63.452 9.6934C65.832 9.80961 68.1412 10.5409 70.1542 11.816C70.3844 11.9666 70.5697 12.1764 70.6908 12.4233C70.8118 12.6703 70.8642 12.9453 70.8422 13.2194C70.8203 13.4936 70.7249 13.7568 70.5661 13.9814C70.4073 14.2059 70.191 14.3836 69.9398 14.4957C66.4405 16.0701 63.47 18.6212 61.3853 21.8427C59.3006 25.0642 58.1902 28.8191 58.1875 32.6563C58.1875 33.1042 58.1875 33.5521 58.2334 33.9923C58.2545 34.2706 58.1992 34.5493 58.0734 34.7984C57.9476 35.0475 57.7561 35.2575 57.5197 35.4056C57.2832 35.5538 57.0108 35.6346 56.7318 35.6392C56.4527 35.6438 56.1778 35.572 55.9366 35.4317C53.6805 34.1412 51.8354 32.2391 50.6141 29.9449C49.3929 27.6507 48.8452 25.0579 49.0345 22.4658ZM91.875 61.9836C91.8805 63.7335 91.3957 65.45 90.4755 66.9386C89.5553 68.4271 88.2366 69.6281 86.6687 70.4054L86.5003 70.482L71.6357 76.8137C71.4888 76.8784 71.3363 76.9297 71.1802 76.9668L46.6802 83.0918C46.4375 83.1543 46.1881 83.1864 45.9375 83.1875H6.125C4.50055 83.1875 2.94263 82.5422 1.79397 81.3936C0.645311 80.2449 0 78.687 0 77.0625V61.75C0 60.1256 0.645311 58.5677 1.79397 57.419C2.94263 56.2704 4.50055 55.625 6.125 55.625H17.1079L25.7671 46.962C26.9026 45.8215 28.2527 44.9173 29.7397 44.3016C31.2266 43.6859 32.8208 43.371 34.4302 43.375H53.5938C55.2114 43.3749 56.8081 43.7408 58.2642 44.4455C59.7203 45.1502 60.9981 46.1753 62.0016 47.4441C63.0052 48.7128 63.7086 50.1922 64.0591 51.7715C64.4095 53.3507 64.398 54.9888 64.0254 56.5629L80.0423 52.8803C81.4366 52.511 82.8971 52.4669 84.3113 52.7512C85.7254 53.0356 87.0553 53.6409 88.1985 54.5204C89.3418 55.3999 90.2678 56.5302 90.9052 57.8242C91.5426 59.1181 91.8744 60.5411 91.875 61.9836ZM85.75 61.9836C85.7495 61.4772 85.6324 60.9777 85.4077 60.524C85.183 60.0702 84.8567 59.6743 84.4543 59.367C84.0518 59.0597 83.584 58.8493 83.087 58.752C82.5901 58.6548 82.0774 58.6733 81.5888 58.8062L81.4702 58.8368L55.8217 64.736C55.5968 64.7862 55.367 64.8119 55.1365 64.8125H42.875C42.0628 64.8125 41.2838 64.4899 40.7095 63.9156C40.1352 63.3412 39.8125 62.5623 39.8125 61.75C39.8125 60.9378 40.1352 60.1589 40.7095 59.5845C41.2838 59.0102 42.0628 58.6875 42.875 58.6875H53.5938C54.8121 58.6875 55.9805 58.2036 56.842 57.3421C57.7035 56.4806 58.1875 55.3121 58.1875 54.0938C58.1875 52.8755 57.7035 51.707 56.842 50.8455C55.9805 49.984 54.8121 49.5 53.5938 49.5H34.4302C33.6255 49.4975 32.8284 49.6549 32.0851 49.9631C31.3418 50.2713 30.6672 50.7242 30.1005 51.2954L21.4375 59.9546V77.0625H45.5547L69.4537 71.0868L84.0005 64.8929C84.53 64.614 84.973 64.1953 85.2814 63.6825C85.5898 63.1696 85.7519 62.582 85.75 61.9836ZM64.3125 32.6563C64.3125 35.382 65.1208 38.0464 66.6351 40.3127C68.1494 42.5791 70.3017 44.3454 72.8199 45.3885C75.3381 46.4316 78.109 46.7045 80.7823 46.1727C83.4556 45.641 85.9112 44.3284 87.8386 42.4011C89.7659 40.4738 91.0784 38.0182 91.6102 35.3449C92.142 32.6716 91.869 29.9006 90.826 27.3824C89.7829 24.8642 88.0165 22.7119 85.7502 21.1976C83.4839 19.6833 80.8194 18.875 78.0938 18.875C74.4387 18.875 70.9334 20.327 68.3489 22.9115C65.7645 25.496 64.3125 29.0013 64.3125 32.6563Z" fill="url(#paint0_linear_482_34711)"/>
<defs>
<linearGradient id="paint0_linear_482_34711" x1="0" y1="46.4323" x2="91.875" y2="46.4323" gradientUnits="userSpaceOnUse">
<stop stop-color="#9900CC"/>
<stop offset="1" stop-color="#ED1459"/>
</linearGradient>
</defs>
</svg>
