<svg width="120" height="41" viewBox="0 0 120 41" fill="none" xmlns="http://www.w3.org/2000/svg">
<rect y="0.5" width="120" height="40" rx="6" fill="black"/>
<path d="M17.8051 19.9617L8.08984 30.5059C8.09076 30.5078 8.09076 30.5106 8.09167 30.5125C8.39005 31.6574 9.41203 32.5 10.6256 32.5C11.1111 32.5 11.5664 32.3656 11.957 32.1305L11.988 32.1118L22.9232 25.6593L17.8051 19.9617Z" fill="#EA4335"/>
<path d="M27.6312 18.1662L27.6221 18.1597L22.9009 15.3612L17.582 20.2013L22.9201 25.6582L27.6157 22.8878C28.4388 22.4324 28.9981 21.545 28.9981 20.5223C28.9981 19.5052 28.447 18.6225 27.6312 18.1662Z" fill="#FBBC04"/>
<path d="M8.08942 10.4933C8.03102 10.7135 8 10.9449 8 11.1838V29.8163C8 30.0552 8.03102 30.2866 8.09034 30.5059L18.1386 20.2313L8.08942 10.4933Z" fill="#4285F4"/>
<path d="M17.8771 20.4999L22.9049 15.3594L11.9825 8.88351C11.5856 8.63996 11.122 8.5 10.6265 8.5C9.41295 8.5 8.38914 9.34447 8.09076 10.4903C8.09076 10.4913 8.08984 10.4922 8.08984 10.4931L17.8771 20.4999Z" fill="#34A853"/>
<path d="M38.892 14.62C38.4973 14.62 38.1373 14.5507 37.812 14.412C37.4867 14.2733 37.2067 14.0747 36.972 13.816C36.7373 13.5547 36.556 13.24 36.428 12.872C36.3027 12.5013 36.24 12.084 36.24 11.62C36.24 11.0067 36.3493 10.476 36.568 10.028C36.7867 9.58 37.0947 9.23467 37.492 8.992C37.8893 8.74667 38.356 8.624 38.892 8.624C39.5373 8.624 40.0573 8.77467 40.452 9.076C40.8467 9.37467 41.1187 9.784 41.268 10.304L40.548 10.452C40.428 10.1027 40.2307 9.824 39.956 9.616C39.6813 9.408 39.3387 9.304 38.928 9.304C38.4987 9.30133 38.1413 9.39733 37.856 9.592C37.5733 9.784 37.36 10.0547 37.216 10.404C37.072 10.7533 36.9987 11.1587 36.996 11.62C36.9933 12.0787 37.064 12.4813 37.208 12.828C37.352 13.1747 37.5667 13.4467 37.852 13.644C38.14 13.8387 38.4987 13.9373 38.928 13.94C39.2987 13.9427 39.6107 13.872 39.864 13.728C40.1173 13.584 40.3133 13.376 40.452 13.104C40.5907 12.832 40.6747 12.5053 40.704 12.124H39.48V11.536H41.456C41.464 11.5893 41.468 11.6533 41.468 11.728C41.4707 11.8 41.472 11.8493 41.472 11.876C41.472 12.4013 41.3733 12.872 41.176 13.288C40.9813 13.7013 40.692 14.0267 40.308 14.264C39.9267 14.5013 39.4547 14.62 38.892 14.62ZM44.1429 14.62C43.7189 14.62 43.3483 14.5267 43.0309 14.34C42.7163 14.1507 42.4709 13.888 42.2949 13.552C42.1189 13.2133 42.0309 12.8187 42.0309 12.368C42.0309 11.896 42.1176 11.488 42.2909 11.144C42.4643 10.7973 42.7056 10.5307 43.0149 10.344C43.3269 10.1547 43.6923 10.06 44.1109 10.06C44.5456 10.06 44.9149 10.16 45.2189 10.36C45.5256 10.56 45.7549 10.8453 45.9069 11.216C46.0616 11.5867 46.1283 12.028 46.1069 12.54H45.3869V12.284C45.3789 11.7533 45.2709 11.3573 45.0629 11.096C44.8549 10.832 44.5456 10.7 44.1349 10.7C43.6949 10.7 43.3603 10.8413 43.1309 11.124C42.9016 11.4067 42.7869 11.812 42.7869 12.34C42.7869 12.8493 42.9016 13.244 43.1309 13.524C43.3603 13.804 43.6869 13.944 44.1109 13.944C44.3963 13.944 44.6443 13.8787 44.8549 13.748C45.0656 13.6173 45.2309 13.4293 45.3509 13.184L46.0349 13.42C45.8669 13.8013 45.6136 14.0973 45.2749 14.308C44.9389 14.516 44.5616 14.62 44.1429 14.62ZM42.5469 12.54V11.968H45.7389V12.54H42.5469ZM49.4095 14.5C49.1535 14.5507 48.9002 14.5707 48.6495 14.56C48.4015 14.552 48.1802 14.5027 47.9855 14.412C47.7908 14.3187 47.6428 14.1747 47.5415 13.98C47.4562 13.8093 47.4095 13.6373 47.4015 13.464C47.3962 13.288 47.3935 13.0893 47.3935 12.868V8.98H48.1055V12.836C48.1055 13.012 48.1068 13.1627 48.1095 13.288C48.1148 13.4133 48.1428 13.5213 48.1935 13.612C48.2895 13.7827 48.4415 13.8827 48.6495 13.912C48.8602 13.9413 49.1135 13.9333 49.4095 13.888V14.5ZM46.5175 10.768V10.18H49.4095V10.768H46.5175ZM51.9681 9.416V8.68H52.6801V9.416H51.9681ZM51.9681 14.5V10.18H52.6801V14.5H51.9681ZM56.2923 14.5C56.0363 14.5507 55.783 14.5707 55.5323 14.56C55.2843 14.552 55.063 14.5027 54.8683 14.412C54.6736 14.3187 54.5256 14.1747 54.4243 13.98C54.339 13.8093 54.2923 13.6373 54.2843 13.464C54.279 13.288 54.2763 13.0893 54.2763 12.868V8.98H54.9883V12.836C54.9883 13.012 54.9896 13.1627 54.9923 13.288C54.9976 13.4133 55.0256 13.5213 55.0763 13.612C55.1723 13.7827 55.3243 13.8827 55.5323 13.912C55.743 13.9413 55.9963 13.9333 56.2923 13.888V14.5ZM53.4003 10.768V10.18H56.2923V10.768H53.4003ZM60.6109 14.62C60.1816 14.62 59.8109 14.5227 59.4989 14.328C59.1896 14.1333 58.9509 13.864 58.7829 13.52C58.6149 13.176 58.5309 12.7813 58.5309 12.336C58.5309 11.8827 58.6163 11.4853 58.7869 11.144C58.9576 10.8027 59.1989 10.5373 59.5109 10.348C59.8229 10.156 60.1896 10.06 60.6109 10.06C61.0429 10.06 61.4149 10.1573 61.7269 10.352C62.0389 10.544 62.2776 10.812 62.4429 11.156C62.6109 11.4973 62.6949 11.8907 62.6949 12.336C62.6949 12.7867 62.6109 13.184 62.4429 13.528C62.2749 13.8693 62.0349 14.1373 61.7229 14.332C61.4109 14.524 61.0403 14.62 60.6109 14.62ZM60.6109 13.944C61.0589 13.944 61.3923 13.7947 61.6109 13.496C61.8296 13.1973 61.9389 12.8107 61.9389 12.336C61.9389 11.848 61.8283 11.46 61.6069 11.172C61.3856 10.8813 61.0536 10.736 60.6109 10.736C60.3096 10.736 60.0616 10.804 59.8669 10.94C59.6723 11.076 59.5269 11.264 59.4309 11.504C59.3349 11.744 59.2869 12.0213 59.2869 12.336C59.2869 12.8213 59.3989 13.2107 59.6229 13.504C59.8469 13.7973 60.1763 13.944 60.6109 13.944ZM66.6516 14.5V12.336C66.6516 12.1307 66.633 11.9333 66.5956 11.744C66.561 11.5547 66.4983 11.3853 66.4076 11.236C66.3196 11.084 66.1996 10.964 66.0476 10.876C65.8983 10.788 65.709 10.744 65.4796 10.744C65.301 10.744 65.1383 10.7747 64.9916 10.836C64.8476 10.8947 64.7236 10.9853 64.6196 11.108C64.5156 11.2307 64.4343 11.3853 64.3756 11.572C64.3196 11.756 64.2916 11.9733 64.2916 12.224L63.8236 12.08C63.8236 11.6613 63.8983 11.3027 64.0476 11.004C64.1996 10.7027 64.4116 10.472 64.6836 10.312C64.9583 10.1493 65.281 10.068 65.6516 10.068C65.9316 10.068 66.1703 10.112 66.3676 10.2C66.565 10.288 66.729 10.4053 66.8596 10.552C66.9903 10.696 67.093 10.8587 67.1676 11.04C67.2423 11.2187 67.2943 11.4013 67.3236 11.588C67.3556 11.772 67.3716 11.9467 67.3716 12.112V14.5H66.6516ZM63.5716 14.5V10.18H64.2116V11.336H64.2916V14.5H63.5716Z" fill="white"/>
<path d="M93.5181 30.9097H95.1469V19.8981H93.5181V30.9097ZM108.189 23.8646L106.322 28.6388H106.266L104.328 23.8646H102.573L105.479 30.5371L103.823 34.249H105.521L110 23.8646H108.189ZM98.9519 29.6588C98.4176 29.6588 97.6739 29.3902 97.6739 28.7234C97.6739 27.8742 98.6001 27.5483 99.4005 27.5483C100.116 27.5483 100.454 27.7042 100.889 27.9165C100.762 28.9365 99.892 29.6588 98.9519 29.6588ZM99.1483 23.6241C97.969 23.6241 96.7469 24.1482 96.2424 25.3101L97.6879 25.9188C97.9969 25.3101 98.5721 25.111 99.1762 25.111C100.019 25.111 100.875 25.621 100.889 26.5283V26.6411C100.594 26.471 99.9627 26.2165 99.1902 26.2165C97.632 26.2165 96.0451 27.0806 96.0451 28.6952C96.0451 30.1689 97.323 31.1184 98.7546 31.1184C99.8501 31.1184 100.454 30.6225 100.833 30.0411H100.889V30.8912H102.461V26.6692C102.461 24.7146 101.015 23.6241 99.1483 23.6241ZM89.0821 25.2053H86.7655V21.4308H89.0821C90.2998 21.4308 90.9911 22.4482 90.9911 23.3176C90.9911 24.1711 90.2998 25.2053 89.0821 25.2053ZM89.0402 19.8981H85.1375V30.9097H86.7655V26.7379H89.0402C90.8453 26.7379 92.6199 25.4184 92.6199 23.3176C92.6199 21.2168 90.8453 19.8981 89.0402 19.8981ZM67.7583 29.6606C66.6332 29.6606 65.6913 28.7102 65.6913 27.4047C65.6913 26.0852 66.6332 25.1198 67.7583 25.1198C68.8695 25.1198 69.7406 26.0852 69.7406 27.4047C69.7406 28.7102 68.8695 29.6606 67.7583 29.6606ZM69.6289 24.4812H69.5722C69.2064 24.0417 68.5038 23.6444 67.6178 23.6444C65.7611 23.6444 64.0599 25.2898 64.0599 27.4047C64.0599 29.5047 65.7611 31.1369 67.6178 31.1369C68.5038 31.1369 69.2064 30.7396 69.5722 30.2851H69.6289V30.8251C69.6289 32.2582 68.8695 33.0246 67.6457 33.0246C66.6471 33.0246 66.0282 32.3005 65.7751 31.6901L64.3549 32.2864C64.7626 33.28 65.8458 34.5 67.6457 34.5C69.5582 34.5 71.1757 33.3646 71.1757 30.5978V23.8708H69.6289V24.4812ZM72.3008 30.9097H73.9323V19.8973H72.3008V30.9097ZM76.3362 27.277C76.2943 25.8298 77.4474 25.0916 78.2766 25.0916C78.9243 25.0916 79.4725 25.4176 79.6549 25.8862L76.3362 27.277ZM81.3989 26.028C81.0899 25.1912 80.1472 23.6444 78.2208 23.6444C76.3083 23.6444 74.7196 25.1621 74.7196 27.3907C74.7196 29.4906 76.2943 31.1369 78.4032 31.1369C80.1053 31.1369 81.0899 30.0869 81.4976 29.4765L80.2319 28.6247C79.8103 29.2493 79.2333 29.6606 78.4032 29.6606C77.5739 29.6606 76.983 29.2774 76.6033 28.5261L81.5674 26.4534L81.3989 26.028ZM41.8501 24.7939V26.383H45.6184C45.5058 27.277 45.2107 27.9297 44.7612 28.3834C44.2121 28.9374 43.3541 29.5479 41.8501 29.5479C39.5291 29.5479 37.7152 27.6602 37.7152 25.3189C37.7152 22.9767 39.5291 21.0899 41.8501 21.0899C43.1018 21.0899 44.0157 21.5867 44.6905 22.2254L45.8017 21.104C44.8589 20.1959 43.6081 19.5 41.8501 19.5C38.6719 19.5 36 22.1117 36 25.3189C36 28.5261 38.6719 31.1369 41.8501 31.1369C43.5653 31.1369 44.8589 30.5688 45.8715 29.5047C46.9129 28.4547 47.2358 26.9793 47.2358 25.7866C47.2358 25.4176 47.2079 25.0775 47.1512 24.7939H41.8501ZM51.5208 29.6606C50.3957 29.6606 49.425 28.7243 49.425 27.3907C49.425 26.0421 50.3957 25.1198 51.5208 25.1198C52.6451 25.1198 53.6158 26.0421 53.6158 27.3907C53.6158 28.7243 52.6451 29.6606 51.5208 29.6606ZM51.5208 23.6444C49.4669 23.6444 47.7936 25.2194 47.7936 27.3907C47.7936 29.5479 49.4669 31.1369 51.5208 31.1369C53.5739 31.1369 55.2472 29.5479 55.2472 27.3907C55.2472 25.2194 53.5739 23.6444 51.5208 23.6444ZM59.65 29.6606C58.5249 29.6606 57.5542 28.7243 57.5542 27.3907C57.5542 26.0421 58.5249 25.1198 59.65 25.1198C60.7752 25.1198 61.745 26.0421 61.745 27.3907C61.745 28.7243 60.7752 29.6606 59.65 29.6606ZM59.65 23.6444C57.597 23.6444 55.9237 25.2194 55.9237 27.3907C55.9237 29.5479 57.597 31.1369 59.65 31.1369C61.7031 31.1369 63.3764 29.5479 63.3764 27.3907C63.3764 25.2194 61.7031 23.6444 59.65 23.6444Z" fill="white"/>
</svg>
