<svg width="22" height="25" viewBox="0 0 22 25" fill="none" xmlns="http://www.w3.org/2000/svg">
<path d="M20.6826 19.2033C20.3196 20.0418 19.89 20.8136 19.3923 21.5232C18.7138 22.4906 18.1582 23.1602 17.7301 23.532C17.0664 24.1424 16.3553 24.455 15.5939 24.4728C15.0472 24.4728 14.388 24.3172 13.6206 24.0017C12.8507 23.6876 12.1432 23.532 11.4962 23.532C10.8177 23.532 10.09 23.6876 9.31169 24.0017C8.53216 24.3172 7.90418 24.4816 7.42404 24.4979C6.69385 24.5291 5.96602 24.2076 5.23952 23.532C4.77583 23.1276 4.19585 22.4343 3.50106 21.4521C2.7556 20.4033 2.14273 19.187 1.6626 17.8004C1.14839 16.3026 0.890625 14.8523 0.890625 13.4482C0.890625 11.8398 1.23817 10.4526 1.9343 9.29011C2.48139 8.35636 3.20922 7.61979 4.12015 7.07906C5.03108 6.53834 6.01535 6.26279 7.07532 6.24516C7.6553 6.24516 8.41586 6.42456 9.36102 6.77715C10.3035 7.13091 10.9087 7.31032 11.174 7.31032C11.3724 7.31032 12.0446 7.10054 13.1843 6.68233C14.262 6.29449 15.1716 6.13391 15.9168 6.19716C17.936 6.36012 19.453 7.1561 20.4618 8.59013C18.656 9.68432 17.7627 11.2169 17.7805 13.1829C17.7967 14.7142 18.3523 15.9886 19.4441 17.0004C19.9389 17.47 20.4915 17.833 21.1063 18.0907C20.9729 18.4774 20.8322 18.8477 20.6826 19.2033ZM16.0516 0.980137C16.0516 2.18041 15.6131 3.3011 14.7391 4.3384C13.6843 5.57155 12.4085 6.28412 11.025 6.17168C11.0073 6.02769 10.9971 5.87614 10.9971 5.71688C10.9971 4.56462 11.4987 3.33147 12.3895 2.32321C12.8342 1.8127 13.3999 1.38823 14.0858 1.04962C14.7702 0.716055 15.4176 0.531589 16.0264 0.5C16.0442 0.660458 16.0516 0.820926 16.0516 0.980121V0.980137Z" fill="black"/>
</svg>
