<svg width="20" height="21" viewBox="0 0 20 21" fill="none" xmlns="http://www.w3.org/2000/svg">
<path d="M16.6925 8.44223L10.4425 14.6922C10.3845 14.7503 10.3156 14.7964 10.2397 14.8279C10.1638 14.8593 10.0825 14.8755 10.0003 14.8755C9.91821 14.8755 9.83688 14.8593 9.76101 14.8279C9.68514 14.7964 9.61621 14.7503 9.55816 14.6922L3.30816 8.44223C3.19088 8.32495 3.125 8.16589 3.125 8.00004C3.125 7.83419 3.19088 7.67513 3.30816 7.55785C3.42544 7.44058 3.5845 7.37469 3.75035 7.37469C3.9162 7.37469 4.07526 7.44058 4.19253 7.55785L10.0003 13.3664L15.8082 7.55785C15.8662 7.49979 15.9352 7.45372 16.011 7.4223C16.0869 7.39087 16.1682 7.37469 16.2503 7.37469C16.3325 7.37469 16.4138 7.39087 16.4897 7.4223C16.5655 7.45372 16.6345 7.49979 16.6925 7.55785C16.7506 7.61592 16.7967 7.68486 16.8281 7.76073C16.8595 7.8366 16.8757 7.91792 16.8757 8.00004C16.8757 8.08216 16.8595 8.16348 16.8281 8.23935C16.7967 8.31522 16.7506 8.38416 16.6925 8.44223Z" fill="white"/>
</svg>
