<svg width="14" height="9" viewBox="0 0 14 9" fill="none" xmlns="http://www.w3.org/2000/svg">
<path d="M13.6925 1.94223L7.44254 8.19223C7.38449 8.25034 7.31556 8.29644 7.23969 8.32789C7.16381 8.35935 7.08248 8.37553 7.00035 8.37553C6.91821 8.37553 6.83688 8.35935 6.76101 8.32789C6.68514 8.29644 6.61621 8.25034 6.55816 8.19223L0.30816 1.94223C0.190885 1.82495 0.125 1.66589 0.125 1.50004C0.125 1.33419 0.190885 1.17513 0.30816 1.05785C0.425435 0.940579 0.584495 0.874695 0.750347 0.874695C0.9162 0.874695 1.07526 0.940579 1.19253 1.05785L7.00035 6.86645L12.8082 1.05785C12.8662 0.999786 12.9352 0.953723 13.011 0.922296C13.0869 0.89087 13.1682 0.874695 13.2503 0.874695C13.3325 0.874695 13.4138 0.89087 13.4897 0.922296C13.5655 0.953723 13.6345 0.999786 13.6925 1.05785C13.7506 1.11592 13.7967 1.18486 13.8281 1.26073C13.8595 1.3366 13.8757 1.41792 13.8757 1.50004C13.8757 1.58216 13.8595 1.66348 13.8281 1.73935C13.7967 1.81522 13.7506 1.88416 13.6925 1.94223Z" fill="black"/>
</svg>
