<svg width="21" height="21" viewBox="0 0 21 21" fill="none" xmlns="http://www.w3.org/2000/svg">
<path d="M16.5927 4.77031C15.845 4.01514 14.9558 3.41486 13.9758 3.00383C12.9958 2.59281 11.9444 2.37912 10.8818 2.375H10.82C8.66515 2.375 6.59853 3.23102 5.0748 4.75476C3.55106 6.27849 2.69504 8.34512 2.69504 10.5V14.875C2.69504 15.3723 2.89258 15.8492 3.24421 16.2008C3.59584 16.5525 4.07276 16.75 4.57004 16.75H5.82004C6.31732 16.75 6.79423 16.5525 7.14586 16.2008C7.49749 15.8492 7.69504 15.3723 7.69504 14.875V11.75C7.69504 11.2527 7.49749 10.7758 7.14586 10.4242C6.79423 10.0725 6.31732 9.875 5.82004 9.875H3.97316C4.0937 8.57182 4.58319 7.33 5.38428 6.29508C6.18536 5.26016 7.26485 4.47502 8.49621 4.03169C9.72757 3.58836 11.0598 3.5052 12.3367 3.79196C13.6137 4.07872 14.7824 4.72352 15.706 5.65078C16.8348 6.78539 17.5291 8.28052 17.6677 9.875H15.82C15.3228 9.875 14.8458 10.0725 14.4942 10.4242C14.1426 10.7758 13.945 11.2527 13.945 11.75V14.875C13.945 15.3723 14.1426 15.8492 14.4942 16.2008C14.8458 16.5525 15.3228 16.75 15.82 16.75H17.695C17.695 17.2473 17.4975 17.7242 17.1459 18.0758C16.7942 18.4275 16.3173 18.625 15.82 18.625H11.445C11.2793 18.625 11.1203 18.6908 11.0031 18.8081C10.8859 18.9253 10.82 19.0842 10.82 19.25C10.82 19.4158 10.8859 19.5747 11.0031 19.6919C11.1203 19.8092 11.2793 19.875 11.445 19.875H15.82C16.6488 19.875 17.4437 19.5458 18.0297 18.9597C18.6158 18.3737 18.945 17.5788 18.945 16.75V10.5C18.9491 9.43717 18.7434 8.38398 18.3398 7.40077C17.9361 6.41757 17.3424 5.52368 16.5927 4.77031ZM5.82004 11.125C5.9858 11.125 6.14477 11.1908 6.26198 11.3081C6.37919 11.4253 6.44504 11.5842 6.44504 11.75V14.875C6.44504 15.0408 6.37919 15.1997 6.26198 15.3169C6.14477 15.4342 5.9858 15.5 5.82004 15.5H4.57004C4.40428 15.5 4.24531 15.4342 4.1281 15.3169C4.01089 15.1997 3.94504 15.0408 3.94504 14.875V11.125H5.82004ZM15.82 15.5C15.6543 15.5 15.4953 15.4342 15.3781 15.3169C15.2609 15.1997 15.195 15.0408 15.195 14.875V11.75C15.195 11.5842 15.2609 11.4253 15.3781 11.3081C15.4953 11.1908 15.6543 11.125 15.82 11.125H17.695V15.5H15.82Z" fill="black"/>
</svg>
