<svg width="504" height="8" viewBox="0 0 504 8" fill="none" xmlns="http://www.w3.org/2000/svg">
<path d="M0 4C0 1.79086 1.79086 0 4 0H158.667C160.876 0 162.667 1.79086 162.667 4C162.667 6.20914 160.876 8 158.667 8H4.00001C1.79087 8 0 6.20914 0 4Z" fill="#9900CC"/>
<path d="M170.667 4C170.667 1.79086 172.458 0 174.667 0H329.333C331.543 0 333.333 1.79086 333.333 4C333.333 6.20914 331.543 8 329.333 8H174.667C172.458 8 170.667 6.20914 170.667 4Z" fill="#D9D9D9"/>
<path d="M341.333 4C341.333 1.79086 343.124 0 345.333 0H500C502.209 0 504 1.79086 504 4C504 6.20914 502.209 8 500 8H345.333C343.124 8 341.333 6.20914 341.333 4Z" fill="#D9D9D9"/>
</svg>
