<svg width="723" height="8" viewBox="0 0 723 8" fill="none" xmlns="http://www.w3.org/2000/svg">
<path d="M0 4C0 1.79086 1.79086 0 4 0H231.667C233.876 0 235.667 1.79086 235.667 4C235.667 6.20914 233.876 8 231.667 8H4C1.79086 8 0 6.20914 0 4Z" fill="#9900CC"/>
<path d="M243.667 4C243.667 1.79086 245.458 0 247.667 0H475.334C477.543 0 479.334 1.79086 479.334 4C479.334 6.20914 477.543 8 475.334 8H247.667C245.458 8 243.667 6.20914 243.667 4Z" fill="#9900CC"/>
<path d="M487.333 4C487.333 1.79086 489.124 0 491.333 0H719C721.209 0 723 1.79086 723 4C723 6.20914 721.209 8 719 8H491.333C489.124 8 487.333 6.20914 487.333 4Z" fill="#D9D9D9"/>
</svg>
