<svg width="472" height="8" viewBox="0 0 472 8" fill="none" xmlns="http://www.w3.org/2000/svg">
<path d="M0 4C0 1.79086 1.79086 0 4 0H84C86.2091 0 88 1.79086 88 4C88 6.20914 86.2091 8 84 8H4C1.79086 8 0 6.20914 0 4Z" fill="#9900CC"/>
<path d="M96 4C96 1.79086 97.7909 0 100 0H180C182.209 0 184 1.79086 184 4C184 6.20914 182.209 8 180 8H100C97.7909 8 96 6.20914 96 4Z" fill="#9900CC"/>
<path d="M192 4C192 1.79086 193.791 0 196 0H276C278.209 0 280 1.79086 280 4C280 6.20914 278.209 8 276 8H196C193.791 8 192 6.20914 192 4Z" fill="#D9D9D9"/>
<path d="M288 4C288 1.79086 289.791 0 292 0H372C374.209 0 376 1.79086 376 4C376 6.20914 374.209 8 372 8H292C289.791 8 288 6.20914 288 4Z" fill="#D9D9D9"/>
<path d="M384 4C384 1.79086 385.791 0 388 0H468C470.209 0 472 1.79086 472 4C472 6.20914 470.209 8 468 8H388C385.791 8 384 6.20914 384 4Z" fill="#D9D9D9"/>
</svg>
