<svg width="20" height="20" viewBox="0 0 20 20" fill="none" xmlns="http://www.w3.org/2000/svg">
<path d="M17.7594 5.73196L14.268 2.24134C14.1519 2.12524 14.0141 2.03314 13.8624 1.9703C13.7107 1.90746 13.5482 1.87512 13.384 1.87512C13.2198 1.87512 13.0572 1.90746 12.9056 1.9703C12.7539 2.03314 12.6161 2.12524 12.5 2.24134L2.86641 11.8749C2.74983 11.9906 2.65741 12.1283 2.59451 12.2799C2.5316 12.4316 2.49948 12.5943 2.50001 12.7585V16.2499C2.50001 16.5815 2.6317 16.8994 2.86612 17.1338C3.10054 17.3682 3.41849 17.4999 3.75001 17.4999H16.875C17.0408 17.4999 17.1997 17.4341 17.3169 17.3169C17.4342 17.1997 17.5 17.0407 17.5 16.8749C17.5 16.7092 17.4342 16.5502 17.3169 16.433C17.1997 16.3158 17.0408 16.2499 16.875 16.2499H9.00938L17.7594 7.49993C17.8755 7.38386 17.9676 7.24604 18.0304 7.09437C18.0933 6.94269 18.1256 6.78013 18.1256 6.61595C18.1256 6.45177 18.0933 6.2892 18.0304 6.13753C17.9676 5.98585 17.8755 5.84804 17.7594 5.73196ZM10.625 5.88353L11.9289 7.18743L5.31251 13.8038L4.0086 12.4999L10.625 5.88353ZM3.75001 16.2499V14.0085L5.99141 16.2499H3.75001ZM7.50001 15.9913L6.19688 14.6874L12.8125 8.07103L14.1164 9.37493L7.50001 15.9913ZM15 8.49134L11.5094 4.99993L13.3844 3.12493L16.875 6.61634L15 8.49134Z" fill="#343330"/>
</svg>
